<svg xmlns="http://www.w3.org/2000/svg" xmlns:xlink="http://www.w3.org/1999/xlink" width="53.592" height="45.991" viewBox="0 0 53.592 45.991">
  <defs>
    <clipPath id="clip-path">
      <path id="Path_307" data-name="Path 307" d="M562.265,1196.049l26.369,44.491H536.542l25.721-44.491Z" fill="none"/>
    </clipPath>
  </defs>
  <g id="alert_icon" data-name="alert icon" transform="translate(-535.792 -1195.299)" style="isolation: isolate">
    <g id="Path_42" data-name="Path 42">
      <g id="Group_124" data-name="Group 124">
        <g id="Group_123" data-name="Group 123" clip-path="url(#clip-path)">
          <path id="Path_52" data-name="Path 52" d="M571.725,1196.049,536.542,1224.7v-28.649Z" fill="#ffe680"/>
          <path id="Path_53" data-name="Path 53" d="M571.954,1196.049l-35.411,28.835v-.186l35.183-28.649Z" fill="#ffe680"/>
          <path id="Path_54" data-name="Path 54" d="M572.182,1196.049l-35.64,29.021v-.186l35.411-28.835Z" fill="#ffe67f"/>
          <path id="Path_55" data-name="Path 55" d="M572.411,1196.049l-35.868,29.207v-.186l35.64-29.021Z" fill="#ffe67e"/>
          <path id="Path_56" data-name="Path 56" d="M572.639,1196.049l-36.1,29.393v-.186l35.868-29.207Z" fill="#ffe57d"/>
          <path id="Path_57" data-name="Path 57" d="M572.867,1196.049l-36.325,29.579v-.186l36.1-29.393Z" fill="#ffe57c"/>
          <path id="Path_58" data-name="Path 58" d="M573.1,1196.049l-36.554,29.765v-.186l36.325-29.579Z" fill="#ffe57b"/>
          <path id="Path_59" data-name="Path 59" d="M573.324,1196.049,536.542,1226v-.186l36.554-29.765Z" fill="#ffe57a"/>
          <path id="Path_60" data-name="Path 60" d="M573.553,1196.049l-37.011,30.137V1226l36.782-29.951Z" fill="#ffe579"/>
          <path id="Path_61" data-name="Path 61" d="M573.781,1196.049l-37.239,30.323v-.186l37.011-30.137Z" fill="#ffe478"/>
          <path id="Path_62" data-name="Path 62" d="M574.01,1196.049l-37.468,30.509v-.186l37.239-30.323Z" fill="#ffe477"/>
          <path id="Path_63" data-name="Path 63" d="M574.238,1196.049l-37.7,30.695v-.186l37.468-30.509Z" fill="#ffe476"/>
          <path id="Path_64" data-name="Path 64" d="M574.467,1196.049l-37.924,30.881v-.186l37.7-30.695Z" fill="#ffe475"/>
          <path id="Path_65" data-name="Path 65" d="M574.7,1196.049l-38.153,31.067v-.186l37.924-30.881Z" fill="#ffe474"/>
          <path id="Path_66" data-name="Path 66" d="M574.924,1196.049,536.542,1227.3v-.186l38.153-31.067Z" fill="#ffe373"/>
          <path id="Path_67" data-name="Path 67" d="M575.152,1196.049l-38.61,31.439v-.186l38.381-31.253Z" fill="#ffe372"/>
          <path id="Path_68" data-name="Path 68" d="M575.381,1196.049l-38.838,31.625v-.186l38.61-31.439Z" fill="#ffe371"/>
          <path id="Path_69" data-name="Path 69" d="M575.609,1196.049l-39.067,31.811v-.186l38.838-31.625Z" fill="#ffe370"/>
          <path id="Path_70" data-name="Path 70" d="M575.837,1196.049l-39.3,32v-.186l39.067-31.811Z" fill="#ffe36f"/>
          <path id="Path_71" data-name="Path 71" d="M576.066,1196.049l-39.524,32.183v-.186l39.3-32Z" fill="#ffe26e"/>
          <path id="Path_72" data-name="Path 72" d="M576.294,1196.049l-39.752,32.369v-.186l39.524-32.183Z" fill="#ffe26d"/>
          <path id="Path_73" data-name="Path 73" d="M576.523,1196.049,536.542,1228.6v-.186l39.752-32.369Z" fill="#ffe26c"/>
          <path id="Path_74" data-name="Path 74" d="M576.751,1196.049l-40.209,32.741v-.186l39.981-32.555Z" fill="#ffe26b"/>
          <path id="Path_75" data-name="Path 75" d="M576.98,1196.049l-40.438,32.927v-.186l40.209-32.741Z" fill="#ffe16a"/>
          <path id="Path_76" data-name="Path 76" d="M577.208,1196.049l-40.666,33.113v-.186l40.438-32.927Z" fill="#ffe169"/>
          <path id="Path_77" data-name="Path 77" d="M577.437,1196.049l-40.894,33.3v-.186l40.666-33.113Z" fill="#ffe168"/>
          <path id="Path_78" data-name="Path 78" d="M577.665,1196.049l-41.123,33.485v-.186l40.894-33.3Z" fill="#ffe167"/>
          <path id="Path_79" data-name="Path 79" d="M577.894,1196.049l-41.351,33.672v-.186l41.123-33.485Z" fill="#ffe166"/>
          <path id="Path_80" data-name="Path 80" d="M578.122,1196.049l-41.58,33.858v-.186l41.351-33.672Z" fill="#ffe065"/>
          <path id="Path_81" data-name="Path 81" d="M578.351,1196.049l-41.808,34.044v-.186l41.58-33.858Z" fill="#ffe064"/>
          <path id="Path_82" data-name="Path 82" d="M578.579,1196.049l-42.037,34.23v-.186l41.808-34.044Z" fill="#ffe063"/>
          <path id="Path_83" data-name="Path 83" d="M578.807,1196.049l-42.265,34.416v-.186l42.037-34.23Z" fill="#ffe062"/>
          <path id="Path_84" data-name="Path 84" d="M579.036,1196.049l-42.494,34.6v-.186l42.265-34.416Z" fill="#ffe061"/>
          <path id="Path_85" data-name="Path 85" d="M579.264,1196.049l-42.722,34.788v-.186l42.494-34.6Z" fill="#ffdf60"/>
          <path id="Path_86" data-name="Path 86" d="M579.493,1196.049l-42.951,34.974v-.186l42.722-34.788Z" fill="#ffdf5f"/>
          <path id="Path_87" data-name="Path 87" d="M579.721,1196.049l-43.179,35.16v-.186l42.951-34.974Z" fill="#ffdf5e"/>
          <path id="Path_88" data-name="Path 88" d="M579.95,1196.049l-43.408,35.346v-.186l43.179-35.16Z" fill="#ffdf5d"/>
          <path id="Path_89" data-name="Path 89" d="M580.178,1196.049l-43.636,35.532v-.186l43.408-35.346Z" fill="#ffdf5c"/>
          <path id="Path_90" data-name="Path 90" d="M580.407,1196.049l-43.865,35.718v-.186l43.636-35.532Z" fill="#ffde5b"/>
          <path id="Path_91" data-name="Path 91" d="M580.635,1196.049l-44.093,35.9v-.186l43.865-35.718Z" fill="#ffde5a"/>
          <path id="Path_92" data-name="Path 92" d="M580.864,1196.049l-44.321,36.09v-.186l44.093-35.9Z" fill="#ffde59"/>
          <path id="Path_93" data-name="Path 93" d="M581.092,1196.049l-44.55,36.276v-.186l44.321-36.09Z" fill="#ffde58"/>
          <path id="Path_94" data-name="Path 94" d="M581.321,1196.049l-44.778,36.462v-.186l44.55-36.276Z" fill="#ffde57"/>
          <path id="Path_95" data-name="Path 95" d="M581.549,1196.049,536.542,1232.7v-.186l44.778-36.462Z" fill="#ffdd56"/>
          <path id="Path_96" data-name="Path 96" d="M581.778,1196.049l-45.235,36.834v-.186l45.007-36.648Z" fill="#fd5"/>
          <path id="Path_97" data-name="Path 97" d="M582.006,1196.049l-45.464,37.02v-.186l45.235-36.834Z" fill="#ffdd54"/>
          <path id="Path_98" data-name="Path 98" d="M582.234,1196.049l-45.692,37.206v-.186l45.464-37.02Z" fill="#ffdd53"/>
          <path id="Path_99" data-name="Path 99" d="M582.463,1196.049l-45.921,37.392v-.186l45.692-37.206Z" fill="#ffdd52"/>
          <path id="Path_100" data-name="Path 100" d="M582.691,1196.049l-46.149,37.578v-.186l45.921-37.392Z" fill="#ffdc51"/>
          <path id="Path_101" data-name="Path 101" d="M582.92,1196.049l-46.378,37.764v-.186l46.149-37.578Z" fill="#ffdc50"/>
          <path id="Path_102" data-name="Path 102" d="M583.148,1196.049,536.542,1234v-.186l46.378-37.764Z" fill="#ffdc4f"/>
          <path id="Path_103" data-name="Path 103" d="M583.377,1196.049l-46.834,38.136V1234l46.606-37.95Z" fill="#ffdc4e"/>
          <path id="Path_104" data-name="Path 104" d="M583.605,1196.049l-47.063,38.322v-.186l46.834-38.136Z" fill="#ffdc4d"/>
          <path id="Path_105" data-name="Path 105" d="M583.834,1196.049l-47.291,38.508v-.186l47.063-38.322Z" fill="#ffdb4c"/>
          <path id="Path_106" data-name="Path 106" d="M584.062,1196.049l-47.52,38.694v-.186l47.291-38.508Z" fill="#ffdb4b"/>
          <path id="Path_107" data-name="Path 107" d="M584.291,1196.049l-47.748,38.88v-.186l47.52-38.694Z" fill="#ffdb4a"/>
          <path id="Path_108" data-name="Path 108" d="M584.519,1196.049l-47.977,39.066v-.186l47.748-38.88Z" fill="#ffdb49"/>
          <path id="Path_109" data-name="Path 109" d="M584.747,1196.049,536.542,1235.3v-.186l47.977-39.066Z" fill="#ffdb48"/>
          <path id="Path_110" data-name="Path 110" d="M584.976,1196.049l-48.434,39.438v-.186l48.205-39.252Z" fill="#ffda47"/>
          <path id="Path_111" data-name="Path 111" d="M585.2,1196.049l-48.662,39.625v-.186l48.434-39.438Z" fill="#ffda46"/>
          <path id="Path_112" data-name="Path 112" d="M585.433,1196.049l-48.891,39.811v-.186l48.662-39.625Z" fill="#ffda45"/>
          <path id="Path_113" data-name="Path 113" d="M585.661,1196.049l-49.119,40v-.186l48.891-39.811Z" fill="#ffda44"/>
          <path id="Path_114" data-name="Path 114" d="M585.89,1196.049l-49.348,40.183v-.186l49.119-40Z" fill="#ffda43"/>
          <path id="Path_115" data-name="Path 115" d="M586.118,1196.049l-49.576,40.369v-.186l49.348-40.183Z" fill="#ffd942"/>
          <path id="Path_116" data-name="Path 116" d="M586.347,1196.049l-49.8,40.555v-.186l49.576-40.369Z" fill="#ffd941"/>
          <path id="Path_117" data-name="Path 117" d="M586.575,1196.049l-50.033,40.741v-.186l49.8-40.555Z" fill="#ffd93f"/>
          <path id="Path_118" data-name="Path 118" d="M586.8,1196.049l-50.261,40.927v-.186l50.033-40.741Z" fill="#ffd93e"/>
          <path id="Path_119" data-name="Path 119" d="M587.032,1196.049l-50.49,41.113v-.186l50.261-40.927Z" fill="#ffd83d"/>
          <path id="Path_120" data-name="Path 120" d="M587.261,1196.049l-50.718,41.3v-.186l50.49-41.113Z" fill="#ffd83c"/>
          <path id="Path_121" data-name="Path 121" d="M587.489,1196.049l-50.947,41.485v-.186l50.718-41.3Z" fill="#ffd83b"/>
          <path id="Path_122" data-name="Path 122" d="M587.718,1196.049l-51.175,41.671v-.186l50.947-41.485Z" fill="#ffd83a"/>
          <path id="Path_123" data-name="Path 123" d="M587.946,1196.049l-51.4,41.857v-.186l51.175-41.671Z" fill="#ffd839"/>
          <path id="Path_124" data-name="Path 124" d="M588.174,1196.049l-51.632,42.043v-.186l51.4-41.857Z" fill="#ffd738"/>
          <path id="Path_125" data-name="Path 125" d="M588.4,1196.049l-51.861,42.229v-.186l51.632-42.043Z" fill="#ffd737"/>
          <path id="Path_126" data-name="Path 126" d="M588.631,1196.049l-52.089,42.415v-.186l51.861-42.229Z" fill="#ffd736"/>
          <path id="Path_127" data-name="Path 127" d="M588.634,1196.232l-52.092,42.417v-.186l52.089-42.415h0Z" fill="#ffd735"/>
          <path id="Path_128" data-name="Path 128" d="M588.634,1196.418l-52.092,42.417v-.186l52.092-42.417Z" fill="#ffd734"/>
          <path id="Path_129" data-name="Path 129" d="M588.634,1196.6l-52.092,42.417v-.186l52.092-42.417Z" fill="#ffd633"/>
          <path id="Path_130" data-name="Path 130" d="M588.634,1196.79l-52.092,42.417v-.186l52.092-42.417Z" fill="#ffd632"/>
          <path id="Path_131" data-name="Path 131" d="M588.634,1196.976l-52.092,42.417v-.186l52.092-42.417Z" fill="#ffd631"/>
          <path id="Path_132" data-name="Path 132" d="M588.634,1197.162l-52.092,42.417v-.186l52.092-42.417Z" fill="#ffd630"/>
          <path id="Path_133" data-name="Path 133" d="M588.634,1197.349l-52.092,42.417v-.186l52.092-42.417Z" fill="#ffd62f"/>
          <path id="Path_134" data-name="Path 134" d="M588.634,1197.535l-52.092,42.417v-.186l52.092-42.417Z" fill="#ffd52e"/>
          <path id="Path_135" data-name="Path 135" d="M588.634,1197.721l-52.092,42.417v-.186l52.092-42.417Z" fill="#ffd52d"/>
          <path id="Path_136" data-name="Path 136" d="M588.634,1197.907l-52.092,42.417v-.186l52.092-42.417Z" fill="#ffd52c"/>
          <path id="Path_137" data-name="Path 137" d="M588.634,1198.093l-52.092,42.417v-.186l52.092-42.417Z" fill="#ffd52b"/>
          <path id="Path_138" data-name="Path 138" d="M588.634,1198.279l-51.9,42.261h-.192v-.03l52.092-42.417Z" fill="#ffd52a"/>
          <path id="Path_139" data-name="Path 139" d="M588.634,1198.465l-51.672,42.075h-.228l51.9-42.261Z" fill="#ffd429"/>
          <path id="Path_140" data-name="Path 140" d="M588.634,1198.651l-51.443,41.889h-.228l51.672-42.075Z" fill="#ffd428"/>
          <path id="Path_141" data-name="Path 141" d="M588.634,1198.837l-51.215,41.7h-.228l51.443-41.889Z" fill="#ffd427"/>
          <path id="Path_142" data-name="Path 142" d="M588.634,1199.023l-50.986,41.517h-.228l51.215-41.7Z" fill="#ffd426"/>
          <path id="Path_143" data-name="Path 143" d="M588.634,1199.209l-50.758,41.331h-.228l50.986-41.517Z" fill="#ffd425"/>
          <path id="Path_144" data-name="Path 144" d="M588.634,1199.395,538.1,1240.54h-.229l50.758-41.331Z" fill="#ffd324"/>
          <path id="Path_145" data-name="Path 145" d="M588.634,1199.581l-50.3,40.959H538.1l50.529-41.145Z" fill="#ffd323"/>
          <path id="Path_146" data-name="Path 146" d="M588.634,1199.767l-50.072,40.773h-.228l50.3-40.959Z" fill="#ffd322"/>
          <path id="Path_147" data-name="Path 147" d="M588.634,1199.953,538.79,1240.54h-.228l50.072-40.773Z" fill="#ffd321"/>
          <path id="Path_148" data-name="Path 148" d="M588.634,1200.139l-49.615,40.4h-.228l49.844-40.587Z" fill="#ffd320"/>
          <path id="Path_149" data-name="Path 149" d="M588.634,1200.325l-49.387,40.215h-.228l49.615-40.4Z" fill="#ffd21f"/>
          <path id="Path_150" data-name="Path 150" d="M588.634,1200.511l-49.159,40.029h-.228l49.387-40.215Z" fill="#ffd21e"/>
          <path id="Path_151" data-name="Path 151" d="M588.634,1200.7,539.7,1240.54h-.228l49.159-40.029Z" fill="#ffd21d"/>
          <path id="Path_152" data-name="Path 152" d="M588.634,1200.883l-48.7,39.657H539.7l48.93-39.843Z" fill="#ffd21c"/>
          <path id="Path_153" data-name="Path 153" d="M588.634,1201.069l-48.473,39.471h-.228l48.7-39.657Z" fill="#ffd21b"/>
          <path id="Path_154" data-name="Path 154" d="M588.634,1201.255,540.39,1240.54h-.228l48.473-39.471Z" fill="#ffd11a"/>
          <path id="Path_155" data-name="Path 155" d="M588.634,1201.441l-48.016,39.1h-.228l48.245-39.285Z" fill="#ffd119"/>
          <path id="Path_156" data-name="Path 156" d="M588.634,1201.627l-47.788,38.912h-.228l48.016-39.1Z" fill="#ffd118"/>
          <path id="Path_157" data-name="Path 157" d="M588.634,1201.813l-47.559,38.726h-.228l47.788-38.912Z" fill="#ffd117"/>
          <path id="Path_158" data-name="Path 158" d="M588.634,1202,541.3,1240.54h-.228l47.559-38.726Z" fill="#ffd116"/>
          <path id="Path_159" data-name="Path 159" d="M588.634,1202.185l-47.1,38.354H541.3L588.634,1202Z" fill="#ffd015"/>
          <path id="Path_160" data-name="Path 160" d="M588.634,1202.371,541.76,1240.54h-.229l47.1-38.354Z" fill="#ffd014"/>
          <path id="Path_161" data-name="Path 161" d="M588.634,1202.557l-46.645,37.982h-.228l46.874-38.168Z" fill="#ffd013"/>
          <path id="Path_162" data-name="Path 162" d="M588.634,1202.743l-46.417,37.8h-.228l46.645-37.982Z" fill="#ffd012"/>
          <path id="Path_163" data-name="Path 163" d="M588.634,1202.929l-46.188,37.61h-.228l46.417-37.8Z" fill="#ffcf11"/>
          <path id="Path_164" data-name="Path 164" d="M588.634,1203.115l-45.96,37.424h-.228l46.188-37.61Z" fill="#ffcf10"/>
          <path id="Path_165" data-name="Path 165" d="M588.634,1203.3,542.9,1240.54h-.228l45.96-37.424Z" fill="#ffcf0f"/>
          <path id="Path_166" data-name="Path 166" d="M588.634,1203.488l-45.5,37.052H542.9l45.732-37.238Z" fill="#ffcf0e"/>
          <path id="Path_167" data-name="Path 167" d="M588.634,1203.674,543.36,1240.54h-.228l45.5-37.052Z" fill="#ffcf0d"/>
          <path id="Path_168" data-name="Path 168" d="M588.634,1203.86l-45.046,36.68h-.229l45.275-36.866Z" fill="#ffce0c"/>
          <path id="Path_169" data-name="Path 169" d="M588.634,1204.046l-44.818,36.494h-.228l45.046-36.68Z" fill="#ffce0b"/>
          <path id="Path_170" data-name="Path 170" d="M588.634,1204.232l-44.589,36.308h-.228l44.818-36.494Z" fill="#ffce0a"/>
          <path id="Path_171" data-name="Path 171" d="M588.634,1204.418l-44.361,36.122h-.228l44.589-36.308Z" fill="#ffce09"/>
          <path id="Path_172" data-name="Path 172" d="M588.634,1204.6,544.5,1240.54h-.228l44.361-36.122Z" fill="#ffce08"/>
          <path id="Path_173" data-name="Path 173" d="M588.634,1204.79l-43.9,35.75H544.5l44.132-35.936Z" fill="#ffcd07"/>
          <path id="Path_174" data-name="Path 174" d="M588.634,1204.976l-43.675,35.564h-.228l43.9-35.75Z" fill="#ffcd06"/>
          <path id="Path_175" data-name="Path 175" d="M588.634,1205.162l-43.447,35.378h-.228l43.675-35.564Z" fill="#ffcd05"/>
          <path id="Path_176" data-name="Path 176" d="M588.634,1205.348l-43.219,35.192h-.228l43.447-35.378Z" fill="#ffcd04"/>
          <path id="Path_177" data-name="Path 177" d="M588.634,1205.534l-42.99,35.006h-.229l43.219-35.192Z" fill="#ffcd03"/>
          <path id="Path_178" data-name="Path 178" d="M588.634,1205.72l-42.762,34.82h-.228l42.99-35.006Z" fill="#ffcc02"/>
          <path id="Path_179" data-name="Path 179" d="M588.634,1205.906,546.1,1240.54h-.228l42.762-34.82Z" fill="#ffcc01"/>
          <path id="Path_180" data-name="Path 180" d="M588.634,1206.092l-42.3,34.448H546.1l42.533-34.634Z" fill="#fc0"/>
          <path id="Path_181" data-name="Path 181" d="M588.634,1206.367l-41.967,34.173h-.338l42.3-34.448Z" fill="#fc0"/>
          <path id="Path_182" data-name="Path 182" d="M588.634,1206.642l-41.629,33.9h-.338l41.967-34.173Z" fill="#ffcc01"/>
          <path id="Path_183" data-name="Path 183" d="M588.634,1206.917l-41.291,33.622h-.338l41.629-33.9Z" fill="#ffcc02"/>
          <path id="Path_184" data-name="Path 184" d="M588.634,1207.193l-40.953,33.347h-.338l41.291-33.622Z" fill="#ffcd03"/>
          <path id="Path_185" data-name="Path 185" d="M588.634,1207.468l-40.615,33.072h-.338l40.953-33.347Z" fill="#ffcd04"/>
          <path id="Path_186" data-name="Path 186" d="M588.634,1207.743l-40.277,32.8h-.338l40.615-33.072Z" fill="#ffcd05"/>
          <path id="Path_187" data-name="Path 187" d="M588.634,1208.018l-39.939,32.522h-.338l40.277-32.8Z" fill="#ffcd06"/>
          <path id="Path_188" data-name="Path 188" d="M588.634,1208.293l-39.6,32.247h-.338l39.939-32.522Z" fill="#ffcd07"/>
          <path id="Path_189" data-name="Path 189" d="M588.634,1208.568l-39.263,31.971h-.338l39.6-32.247Z" fill="#ffce08"/>
          <path id="Path_190" data-name="Path 190" d="M588.634,1208.843l-38.926,31.7h-.338l39.263-31.971Z" fill="#ffce09"/>
          <path id="Path_191" data-name="Path 191" d="M588.634,1209.119l-38.588,31.421h-.338l38.926-31.7Z" fill="#ffce0a"/>
          <path id="Path_192" data-name="Path 192" d="M588.634,1209.394l-38.25,31.146h-.338l38.588-31.421Z" fill="#ffce0b"/>
          <path id="Path_193" data-name="Path 193" d="M588.634,1209.669l-37.912,30.871h-.338l38.25-31.146Z" fill="#ffce0c"/>
          <path id="Path_194" data-name="Path 194" d="M588.634,1209.944l-37.574,30.6h-.338l37.912-30.871Z" fill="#ffcf0d"/>
          <path id="Path_195" data-name="Path 195" d="M588.634,1210.219,551.4,1240.54h-.338l37.574-30.6Z" fill="#ffcf0e"/>
          <path id="Path_196" data-name="Path 196" d="M588.634,1210.494l-36.9,30.045H551.4l37.236-30.321Z" fill="#ffcf0f"/>
          <path id="Path_197" data-name="Path 197" d="M588.634,1210.769l-36.56,29.77h-.338l36.9-30.045Z" fill="#ffcf10"/>
          <path id="Path_198" data-name="Path 198" d="M588.634,1211.045l-36.222,29.5h-.338l36.56-29.77Z" fill="#ffd011"/>
          <path id="Path_199" data-name="Path 199" d="M588.634,1211.32l-35.884,29.22h-.338l36.222-29.5Z" fill="#ffd012"/>
          <path id="Path_200" data-name="Path 200" d="M588.634,1211.595l-35.547,28.945h-.338l35.884-29.22Z" fill="#ffd013"/>
          <path id="Path_201" data-name="Path 201" d="M588.634,1211.87l-35.209,28.67h-.338l35.547-28.945Z" fill="#ffd014"/>
          <path id="Path_202" data-name="Path 202" d="M588.634,1212.145l-34.871,28.395h-.338l35.209-28.67Z" fill="#ffd015"/>
          <path id="Path_203" data-name="Path 203" d="M588.634,1212.42,554.1,1240.54h-.338l34.871-28.395Z" fill="#ffd116"/>
          <path id="Path_204" data-name="Path 204" d="M588.634,1212.7l-34.195,27.844H554.1l34.533-28.119Z" fill="#ffd117"/>
          <path id="Path_205" data-name="Path 205" d="M588.634,1212.971l-33.857,27.569h-.338l34.195-27.844Z" fill="#ffd118"/>
          <path id="Path_206" data-name="Path 206" d="M588.634,1213.246l-33.519,27.294h-.338l33.857-27.569Z" fill="#ffd119"/>
          <path id="Path_207" data-name="Path 207" d="M588.634,1213.521l-33.181,27.019h-.338l33.519-27.294Z" fill="#ffd11a"/>
          <path id="Path_208" data-name="Path 208" d="M588.634,1213.8l-32.843,26.744h-.338l33.181-27.019Z" fill="#ffd21b"/>
          <path id="Path_209" data-name="Path 209" d="M588.634,1214.071l-32.505,26.469h-.338l32.843-26.744Z" fill="#ffd21c"/>
          <path id="Path_210" data-name="Path 210" d="M588.634,1214.346l-32.168,26.193h-.338l32.505-26.469Z" fill="#ffd21d"/>
          <path id="Path_211" data-name="Path 211" d="M588.634,1214.621,556.8,1240.54h-.338l32.168-26.193Z" fill="#ffd21e"/>
          <path id="Path_212" data-name="Path 212" d="M588.634,1214.9l-31.492,25.643H556.8l31.83-25.918Z" fill="#ffd21f"/>
          <path id="Path_213" data-name="Path 213" d="M588.634,1215.172,557.48,1240.54h-.338l31.492-25.643Z" fill="#ffd320"/>
          <path id="Path_214" data-name="Path 214" d="M588.634,1215.447l-30.816,25.093h-.338l31.154-25.368Z" fill="#ffd321"/>
          <path id="Path_215" data-name="Path 215" d="M588.634,1215.722l-30.478,24.818h-.338l30.816-25.093Z" fill="#ffd322"/>
          <path id="Path_216" data-name="Path 216" d="M588.634,1216l-30.14,24.542h-.338l30.478-24.818Z" fill="#ffd323"/>
          <path id="Path_217" data-name="Path 217" d="M588.634,1216.272l-29.8,24.267h-.338L588.634,1216Z" fill="#ffd324"/>
          <path id="Path_218" data-name="Path 218" d="M588.634,1216.547,559.17,1240.54h-.338l29.8-24.267Z" fill="#ffd425"/>
          <path id="Path_219" data-name="Path 219" d="M588.634,1216.823l-29.126,23.717h-.338l29.464-23.992Z" fill="#ffd426"/>
          <path id="Path_220" data-name="Path 220" d="M588.634,1217.1l-28.789,23.442h-.338l29.126-23.717Z" fill="#ffd427"/>
          <path id="Path_221" data-name="Path 221" d="M588.634,1217.373l-28.451,23.167h-.338l28.789-23.442Z" fill="#ffd428"/>
          <path id="Path_222" data-name="Path 222" d="M588.634,1217.648l-28.113,22.892h-.338l28.451-23.167Z" fill="#ffd429"/>
          <path id="Path_223" data-name="Path 223" d="M588.634,1217.923l-27.775,22.616h-.338l28.113-22.892Z" fill="#ffd52a"/>
          <path id="Path_224" data-name="Path 224" d="M588.634,1218.2,561.2,1240.54h-.338l27.775-22.616Z" fill="#ffd52b"/>
          <path id="Path_225" data-name="Path 225" d="M588.634,1218.474l-27.1,22.066H561.2l27.437-22.341Z" fill="#ffd52c"/>
          <path id="Path_226" data-name="Path 226" d="M588.634,1218.749l-26.761,21.791h-.338l27.1-22.066Z" fill="#ffd52d"/>
          <path id="Path_227" data-name="Path 227" d="M588.634,1219.024l-26.423,21.516h-.338l26.761-21.791Z" fill="#ffd52e"/>
          <path id="Path_228" data-name="Path 228" d="M588.634,1219.3l-26.085,21.241h-.338l26.423-21.516Z" fill="#ffd62f"/>
          <path id="Path_229" data-name="Path 229" d="M588.634,1219.574l-25.747,20.966h-.338l26.085-21.241Z" fill="#ffd630"/>
          <path id="Path_230" data-name="Path 230" d="M588.634,1219.849l-25.409,20.69h-.338l25.747-20.966Z" fill="#ffd631"/>
          <path id="Path_231" data-name="Path 231" d="M588.634,1220.124l-25.072,20.415h-.338l25.409-20.69Z" fill="#ffd632"/>
          <path id="Path_232" data-name="Path 232" d="M588.634,1220.4,563.9,1240.54h-.338l25.072-20.415Z" fill="#ffd733"/>
          <path id="Path_233" data-name="Path 233" d="M588.634,1220.675l-24.4,19.865H563.9l24.734-20.14Z" fill="#ffd734"/>
          <path id="Path_234" data-name="Path 234" d="M588.634,1220.95l-24.058,19.59h-.338l24.4-19.865Z" fill="#ffd735"/>
          <path id="Path_235" data-name="Path 235" d="M588.634,1221.225l-23.72,19.315h-.338l24.058-19.59Z" fill="#ffd736"/>
          <path id="Path_236" data-name="Path 236" d="M588.634,1221.5l-23.382,19.04h-.338l23.72-19.315Z" fill="#ffd737"/>
          <path id="Path_237" data-name="Path 237" d="M588.634,1221.775,565.59,1240.54h-.338l23.382-19.04Z" fill="#ffd838"/>
          <path id="Path_238" data-name="Path 238" d="M588.634,1222.05l-22.706,18.489h-.338l23.044-18.764Z" fill="#ffd839"/>
          <path id="Path_239" data-name="Path 239" d="M588.634,1222.326l-22.368,18.214h-.338l22.706-18.489Z" fill="#ffd83a"/>
          <path id="Path_240" data-name="Path 240" d="M588.634,1222.6,566.6,1240.54h-.338l22.368-18.214Z" fill="#ffd83b"/>
          <path id="Path_241" data-name="Path 241" d="M588.634,1222.876l-21.693,17.664H566.6l22.03-17.939Z" fill="#ffd83c"/>
          <path id="Path_242" data-name="Path 242" d="M588.634,1223.151,567.28,1240.54h-.338l21.693-17.664Z" fill="#ffd93d"/>
          <path id="Path_243" data-name="Path 243" d="M588.634,1223.426l-21.017,17.114h-.338l21.355-17.389Z" fill="#ffd93e"/>
          <path id="Path_244" data-name="Path 244" d="M588.634,1223.7l-20.679,16.838h-.338l21.017-17.114Z" fill="#ffd93f"/>
          <path id="Path_245" data-name="Path 245" d="M588.634,1223.976l-20.341,16.563h-.338l20.679-16.838Z" fill="#ffd940"/>
          <path id="Path_246" data-name="Path 246" d="M588.634,1224.252l-20,16.288h-.338l20.341-16.563Z" fill="#ffd941"/>
          <path id="Path_247" data-name="Path 247" d="M588.634,1224.527l-19.665,16.013h-.338l20-16.288Z" fill="#ffda43"/>
          <path id="Path_248" data-name="Path 248" d="M588.634,1224.8l-19.327,15.738h-.338l19.665-16.013Z" fill="#ffda44"/>
          <path id="Path_249" data-name="Path 249" d="M588.634,1225.077l-18.989,15.463h-.338l19.327-15.738Z" fill="#ffda45"/>
          <path id="Path_250" data-name="Path 250" d="M588.634,1225.352l-18.651,15.188h-.338l18.989-15.463Z" fill="#ffda46"/>
          <path id="Path_251" data-name="Path 251" d="M588.634,1225.627l-18.314,14.912h-.338l18.651-15.187Z" fill="#ffda47"/>
          <path id="Path_252" data-name="Path 252" d="M588.634,1225.9l-17.976,14.637h-.338l18.314-14.912Z" fill="#ffdb48"/>
          <path id="Path_253" data-name="Path 253" d="M588.634,1226.178,571,1240.54h-.338l17.976-14.637Z" fill="#ffdb49"/>
          <path id="Path_254" data-name="Path 254" d="M588.634,1226.453l-17.3,14.087H571l17.638-14.362Z" fill="#ffdb4a"/>
          <path id="Path_255" data-name="Path 255" d="M588.634,1226.728l-16.962,13.812h-.338l17.3-14.087Z" fill="#ffdb4b"/>
          <path id="Path_256" data-name="Path 256" d="M588.634,1227,572.01,1240.54h-.338l16.962-13.812Z" fill="#ffdb4c"/>
          <path id="Path_257" data-name="Path 257" d="M588.634,1227.278l-16.286,13.261h-.338L588.634,1227Z" fill="#ffdc4d"/>
          <path id="Path_258" data-name="Path 258" d="M588.634,1227.553l-15.948,12.986h-.338l16.286-13.261Z" fill="#ffdc4e"/>
          <path id="Path_259" data-name="Path 259" d="M588.634,1227.828l-15.61,12.711h-.338l15.948-12.986Z" fill="#ffdc4f"/>
          <path id="Path_260" data-name="Path 260" d="M588.634,1228.1l-15.272,12.436h-.338l15.61-12.711Z" fill="#ffdc50"/>
          <path id="Path_261" data-name="Path 261" d="M588.634,1228.379,573.7,1240.54h-.338l15.272-12.436Z" fill="#ffdc51"/>
          <path id="Path_262" data-name="Path 262" d="M588.634,1228.654l-14.6,11.886H573.7l14.935-12.161Z" fill="#ffdd52"/>
          <path id="Path_263" data-name="Path 263" d="M588.634,1228.929l-14.259,11.611h-.338l14.6-11.886Z" fill="#ffdd53"/>
          <path id="Path_264" data-name="Path 264" d="M588.634,1229.2l-13.921,11.335h-.338l14.259-11.611Z" fill="#ffdd54"/>
          <path id="Path_265" data-name="Path 265" d="M588.634,1229.479l-13.583,11.06h-.338l13.921-11.335Z" fill="#fd5"/>
          <path id="Path_266" data-name="Path 266" d="M588.634,1229.755l-13.245,10.785h-.338l13.583-11.06Z" fill="#ffde56"/>
          <path id="Path_267" data-name="Path 267" d="M588.634,1230.03l-12.907,10.51h-.338l13.245-10.785Z" fill="#ffde57"/>
          <path id="Path_268" data-name="Path 268" d="M588.634,1230.3l-12.569,10.235h-.338l12.907-10.51Z" fill="#ffde58"/>
          <path id="Path_269" data-name="Path 269" d="M588.634,1230.58l-12.231,9.96h-.338l12.569-10.235Z" fill="#ffde59"/>
          <path id="Path_270" data-name="Path 270" d="M588.634,1230.855l-11.893,9.685H576.4l12.231-9.96Z" fill="#ffde5a"/>
          <path id="Path_271" data-name="Path 271" d="M588.634,1231.13l-11.555,9.409h-.338l11.893-9.685Z" fill="#ffdf5b"/>
          <path id="Path_272" data-name="Path 272" d="M588.634,1231.405l-11.218,9.134h-.338l11.555-9.409Z" fill="#ffdf5c"/>
          <path id="Path_273" data-name="Path 273" d="M588.634,1231.681l-10.88,8.859h-.338l11.218-9.134Z" fill="#ffdf5d"/>
          <path id="Path_274" data-name="Path 274" d="M588.634,1231.956l-10.542,8.584h-.338l10.88-8.859Z" fill="#ffdf5e"/>
          <path id="Path_275" data-name="Path 275" d="M588.634,1232.231l-10.2,8.309h-.338l10.542-8.584Z" fill="#ffdf5f"/>
          <path id="Path_276" data-name="Path 276" d="M588.634,1232.506l-9.866,8.034h-.338l10.2-8.309Z" fill="#ffe060"/>
          <path id="Path_277" data-name="Path 277" d="M588.634,1232.781l-9.528,7.759h-.338l9.866-8.034Z" fill="#ffe061"/>
          <path id="Path_278" data-name="Path 278" d="M588.634,1233.056l-9.19,7.483h-.338l9.528-7.759Z" fill="#ffe062"/>
          <path id="Path_279" data-name="Path 279" d="M588.634,1233.331l-8.852,7.208h-.338l9.19-7.483Z" fill="#ffe063"/>
          <path id="Path_280" data-name="Path 280" d="M588.634,1233.607l-8.514,6.933h-.338l8.852-7.208Z" fill="#ffe064"/>
          <path id="Path_281" data-name="Path 281" d="M588.634,1233.882l-8.176,6.658h-.338l8.514-6.933Z" fill="#ffe165"/>
          <path id="Path_282" data-name="Path 282" d="M588.634,1234.157l-7.839,6.383h-.338l8.176-6.658Z" fill="#ffe166"/>
          <path id="Path_283" data-name="Path 283" d="M588.634,1234.432l-7.5,6.108H580.8l7.839-6.383Z" fill="#ffe167"/>
          <path id="Path_284" data-name="Path 284" d="M588.634,1234.707l-7.163,5.833h-.338l7.5-6.108Z" fill="#ffe168"/>
          <path id="Path_285" data-name="Path 285" d="M588.634,1234.982l-6.825,5.557h-.338l7.163-5.833Z" fill="#ffe169"/>
          <path id="Path_286" data-name="Path 286" d="M588.634,1235.257l-6.487,5.282h-.338l6.825-5.557Z" fill="#ffe26a"/>
          <path id="Path_287" data-name="Path 287" d="M588.634,1235.533l-6.149,5.007h-.338l6.487-5.282Z" fill="#ffe26b"/>
          <path id="Path_288" data-name="Path 288" d="M588.634,1235.808l-5.811,4.732h-.338l6.149-5.007Z" fill="#ffe26c"/>
          <path id="Path_289" data-name="Path 289" d="M588.634,1236.083l-5.473,4.457h-.338l5.811-4.732Z" fill="#ffe26d"/>
          <path id="Path_290" data-name="Path 290" d="M588.634,1236.358l-5.135,4.182h-.338l5.473-4.457Z" fill="#ffe26e"/>
          <path id="Path_291" data-name="Path 291" d="M588.634,1236.633l-4.8,3.906H583.5l5.135-4.182Z" fill="#ffe36f"/>
          <path id="Path_292" data-name="Path 292" d="M588.634,1236.908l-4.46,3.631h-.338l4.8-3.906Z" fill="#ffe370"/>
          <path id="Path_293" data-name="Path 293" d="M588.634,1237.183l-4.122,3.356h-.338l4.46-3.631Z" fill="#ffe371"/>
          <path id="Path_294" data-name="Path 294" d="M588.634,1237.459l-3.784,3.081h-.338l4.122-3.356Z" fill="#ffe372"/>
          <path id="Path_295" data-name="Path 295" d="M588.634,1237.734l-3.446,2.806h-.338l3.784-3.081Z" fill="#ffe373"/>
          <path id="Path_296" data-name="Path 296" d="M588.634,1238.009l-3.108,2.531h-.338l3.446-2.806Z" fill="#ffe474"/>
          <path id="Path_297" data-name="Path 297" d="M588.634,1238.284l-2.77,2.256h-.338l3.108-2.531Z" fill="#ffe475"/>
          <path id="Path_298" data-name="Path 298" d="M588.634,1238.559l-2.432,1.98h-.338l2.77-2.256Z" fill="#ffe476"/>
          <path id="Path_299" data-name="Path 299" d="M588.634,1238.834l-2.094,1.705H586.2l2.432-1.98Z" fill="#ffe477"/>
          <path id="Path_300" data-name="Path 300" d="M588.634,1239.109l-1.756,1.43h-.338l2.094-1.705Z" fill="#ffe578"/>
          <path id="Path_301" data-name="Path 301" d="M588.634,1239.385l-1.418,1.155h-.338l1.756-1.43Z" fill="#ffe579"/>
          <path id="Path_302" data-name="Path 302" d="M588.634,1239.66l-1.081.88h-.338l1.418-1.155Z" fill="#ffe57a"/>
          <path id="Path_303" data-name="Path 303" d="M588.634,1239.935l-.743.6h-.338l1.081-.88Z" fill="#ffe57b"/>
          <path id="Path_304" data-name="Path 304" d="M588.634,1240.21l-.4.33h-.338l.743-.6Z" fill="#ffe57c"/>
          <path id="Path_305" data-name="Path 305" d="M588.634,1240.485l-.067.054h-.338l.4-.33Z" fill="#ffe67d"/>
          <path id="Path_306" data-name="Path 306" d="M588.567,1240.54l.067-.054v.054Z" fill="#ffe67e"/>
        </g>
      </g>
      <path id="Path_308" data-name="Path 308" d="M588.634,1241.29H536.542a.75.75,0,0,1-.649-1.125l25.721-44.492a.751.751,0,0,1,.646-.374h0a.749.749,0,0,1,.646.368l26.369,44.49a.751.751,0,0,1-.645,1.133Zm-50.792-1.5h49.475l-25.044-42.257Z" fill="#816907"/>
    </g>
    <g id="Path_43" data-name="Path 43">
      <path id="Path_309" data-name="Path 309" d="M558.294,1225.158c-3.446-4.412-3.774-6.91-2.125-11.732,3.5-6.907,4.719-9.069,5.679-10.571,2,5.8,2.232,21.514-3.555,22.3Z" fill="rgba(255,255,255,0.75)" fill-rule="evenodd"/>
    </g>
    <g id="Path_44" data-name="Path 44" opacity="0.61" style="isolation: isolate">
      <path id="Path_310" data-name="Path 310" d="M559.6,1208.115l.054,19,5.338-.009-.054-19Z" fill="#fff" fill-rule="evenodd"/>
    </g>
    <g id="Path_45" data-name="Path 45">
      <path id="Path_311" data-name="Path 311" d="M560.207,1208.633l.037,18.79,5.338-.009-.037-18.79Z" fill="#504000" fill-rule="evenodd"/>
    </g>
    <g id="Path_46" data-name="Path 46" opacity="0.61" style="isolation: isolate">
      <path id="Path_312" data-name="Path 312" d="M565.306,1233.917a3,3,0,1,1-3-3A3,3,0,0,1,565.306,1233.917Z" fill="#fff" fill-rule="evenodd"/>
    </g>
    <g id="Path_47" data-name="Path 47">
      <path id="Path_313" data-name="Path 313" d="M565.9,1234.33a3,3,0,1,1-3-3A3,3,0,0,1,565.9,1234.33Z" fill="#504000" fill-rule="evenodd"/>
    </g>
  </g>
</svg>
