<svg xmlns="http://www.w3.org/2000/svg" width="181.388" height="243.801" viewBox="0 0 181.388 243.801"><g transform="translate(-9537 -17767)"><g transform="translate(9499.748 17760.9)"><path d="M217.4,77.8a71.933,71.933,0,0,0-2.3-9.6A91.047,91.047,0,0,0,129.7,6.1h-3.5A91.047,91.047,0,0,0,40.8,68.2a71.934,71.934,0,0,0-2.3,9.6,78.457,78.457,0,0,0,4.9,44.6c.2.4.4.9.7,1.6,4.8,10.6,11.9,22.9,18.8,34.8,5.9,10.3,12,20.9,16.4,29.9a4.852,4.852,0,0,0,8.7-4.3c-4.5-9.4-10.7-20.1-16.7-30.5-6.7-11.7-13.7-23.8-18.3-34l-.6-1.2A68.316,68.316,0,0,1,48,79.4a53.359,53.359,0,0,1,1.9-8.2,81.344,81.344,0,0,1,76.2-55.5h3.4a81.47,81.47,0,0,1,76.3,55.5,53.359,53.359,0,0,1,1.9,8.2,67.884,67.884,0,0,1-4.4,39.2c-.1.3-.3.6-.4.9l-.2.4c-4.7,10.2-11.6,22.3-18.3,34-6,10.4-12.1,21.1-16.7,30.5a4.848,4.848,0,0,0,2.2,6.5,5.374,5.374,0,0,0,2.1.5,4.986,4.986,0,0,0,4.4-2.7c4.4-9.1,10.5-19.7,16.4-29.9,6.8-11.9,13.9-24.2,18.8-34.9l.6-1.3A76.908,76.908,0,0,0,217.4,77.8Z" fill="#f3811f"/><path d="M163.3,202.5H92.8a8.3,8.3,0,0,0-6.2,2.9,8.154,8.154,0,0,0-1.7,6.6l3.4,17.8a7.954,7.954,0,0,0,7.9,6.5h5.4a32.618,32.618,0,0,0,53,0H160a8.115,8.115,0,0,0,7.9-6.5l3.4-17.8a8.345,8.345,0,0,0-1.7-6.6A8.476,8.476,0,0,0,163.3,202.5Zm-4.8,24.1h-6.6a4.909,4.909,0,0,0-4.2,2.4,22.822,22.822,0,0,1-39.4,0,4.909,4.909,0,0,0-4.2-2.4H97.5l-2.7-14.4h66.4Z" fill="#f3811f"/><path d="M87.7,118.1a4.859,4.859,0,0,0-.5,6.3,52.271,52.271,0,0,0,11.5,11.5,4.429,4.429,0,0,0,5.9-.2c.2-.2.4-.3.6-.5.8-.8,1.6-1.7,2.5-2.5l.3-.3a45.479,45.479,0,0,0,7.9,3.3v4.2a4.838,4.838,0,0,0,4.1,4.8,52.272,52.272,0,0,0,8.1.6,52.867,52.867,0,0,0,8-.6,5.047,5.047,0,0,0,4.1-5v-4a38.856,38.856,0,0,0,7.9-3.3l.1.1,2.7,2.7.1.1a5.273,5.273,0,0,0,2.4,1.4,5.171,5.171,0,0,0,4-.8,50.206,50.206,0,0,0,11.5-11.5,4.868,4.868,0,0,0-.5-6.3l-1.6-1.7a16.607,16.607,0,0,1-1.3-1.4,37.436,37.436,0,0,0,3.3-8h4a5.662,5.662,0,0,0,1.8-.3,4.925,4.925,0,0,0,3.3-3.8,44.651,44.651,0,0,0,.7-8.2,46.987,46.987,0,0,0-.7-8.2,4.93,4.93,0,0,0-4.8-4.1h-4.3a38.039,38.039,0,0,0-3.3-7.8c1-1,2-2,3-2.9a4.881,4.881,0,0,0,.6-6.3,51.077,51.077,0,0,0-11.6-11.6,4.766,4.766,0,0,0-6.3.6l-2.5,2.5-.5.5a45.477,45.477,0,0,0-7.9-3.3V49.8a4.838,4.838,0,0,0-4.1-4.8,53.633,53.633,0,0,0-16,0,4.985,4.985,0,0,0-4.1,5.1v4a45.071,45.071,0,0,0-7.9,3.2l-.4-.4c-.9-.8-1.7-1.7-2.5-2.5a4.881,4.881,0,0,0-6.3-.6A49.139,49.139,0,0,0,87.4,65.4a4.756,4.756,0,0,0,.6,6.3c1,1,2,1.9,3,2.9a44.509,44.509,0,0,0-3.3,7.8H83.4a4.842,4.842,0,0,0-4.8,4,44.99,44.99,0,0,0-.7,8.3,44.324,44.324,0,0,0,.7,8.1,4.827,4.827,0,0,0,3.6,3.9c.4.1,1.1.1,1.5.2h3.9a43.4,43.4,0,0,0,3.3,8l-1.2,1.2Zm-.3-20.7a20.9,20.9,0,0,1-.1-2.5,22.6,22.6,0,0,1,.1-2.6c1,0,1.9,0,3,.1a12.311,12.311,0,0,0,2-.2,4.731,4.731,0,0,0,3.5-3.7,32.077,32.077,0,0,1,4.8-11.6,4.884,4.884,0,0,0,.1-5.2,10.048,10.048,0,0,0-1.6-1.9l-1.7-1.7a30.6,30.6,0,0,1,3.6-3.6l1.9,1.9a5.6,5.6,0,0,0,2.6,1.8,4.717,4.717,0,0,0,4.3-.5,32.232,32.232,0,0,1,11.7-4.8,5.033,5.033,0,0,0,3.6-2.9,6.386,6.386,0,0,0,.4-2.5V54.6a38.438,38.438,0,0,1,4.8,0v2.9a6.349,6.349,0,0,0,.4,2.7,4.688,4.688,0,0,0,3.6,2.9,32.232,32.232,0,0,1,11.7,4.8,5.161,5.161,0,0,0,4.2.6,6.54,6.54,0,0,0,2.6-1.7c.7-.7,1.3-1.4,2-2a30.6,30.6,0,0,1,3.6,3.6c-.6.6-1.1,1.1-1.6,1.7a7.926,7.926,0,0,0-1.7,1.9,4.884,4.884,0,0,0,.1,5.2,30.414,30.414,0,0,1,4.8,11.6,4.74,4.74,0,0,0,3.5,3.7,5.011,5.011,0,0,0,2.2.2c.9,0,1.8-.1,2.8-.1a22.6,22.6,0,0,1,.1,2.6,20.082,20.082,0,0,1-.1,2.5h-3.5a6.352,6.352,0,0,0-2.3.5,4.688,4.688,0,0,0-2.7,3.4,33.214,33.214,0,0,1-4.9,11.8,4.851,4.851,0,0,0-.1,5.3,8.116,8.116,0,0,0,1.1,1.3c.7.7,1.5,1.4,2.2,2.2-1.1,1.2-2.3,2.4-3.5,3.5l-2.3-2.3a12.665,12.665,0,0,0-1.3-1.1,4.884,4.884,0,0,0-5.2.1,31.532,31.532,0,0,1-11.7,4.8,4.764,4.764,0,0,0-3.7,3.4,5.815,5.815,0,0,0-.2,2.2v2.9a38.435,38.435,0,0,1-4.8,0v-3.1a8.284,8.284,0,0,0-.2-2,4.926,4.926,0,0,0-3.7-3.4,30.861,30.861,0,0,1-11.7-4.8,4.884,4.884,0,0,0-5.2-.1,6.731,6.731,0,0,0-1.4,1.1c-.7.8-1.5,1.5-2.2,2.2a38.533,38.533,0,0,1-3.5-3.5l2.3-2.3a5.317,5.317,0,0,0,1-1.3,4.891,4.891,0,0,0-.2-5.2A32.184,32.184,0,0,1,96,101.5a4.7,4.7,0,0,0-3.2-3.6,8.419,8.419,0,0,0-1.8-.3Z" fill="#f3811f"/><path d="M14.5,6A8.5,8.5,0,1,0,23,14.5,8.51,8.51,0,0,0,14.5,6m0-6A14.5,14.5,0,1,1,0,14.5,14.5,14.5,0,0,1,14.5,0Z" transform="translate(114.252 80.1)" fill="#f3811f"/></g></g></svg>