<svg xmlns="http://www.w3.org/2000/svg" width="130.001" height="129.999" viewBox="0 0 130.001 129.999">
  <g id="Group_1123" data-name="Group 1123" transform="translate(-160.648 -159.372)" style="isolation: isolate">
    <g id="Group_1125" data-name="Group 1125">
      <g id="Group_1124" data-name="Group 1124">
        <g id="Group_1123-2" data-name="Group 1123">
          <path id="Path_357611" data-name="Path 357611" d="M290.649,224.372a65,65,0,1,1-65-65A65,65,0,0,1,290.649,224.372Z" fill="#ebebeb"/>
        </g>
      </g>
    </g>
    <g id="Group_1127" data-name="Group 1127" transform="translate(160.648 187.331)">
      <path id="Path_357612" data-name="Path 357612" d="M256.38,244.521a2.781,2.781,0,0,1,.629-1.746c.56-2.266,1.178-5.064,1.841-8.542a2.549,2.549,0,0,1-.054-.493,2.764,2.764,0,0,1,.409-1.425c.613-3.406.987-6.238,1.189-8.552a2.792,2.792,0,0,1-.668-1.793,2.821,2.821,0,0,1,.865-2.021c.059-5.283-1-6.507-1-6.507-4.3-2.3-15.184.465-19.964-.447-1.607-.311-5.229-1-5.985-2.427-1.487-2.77,1.495-9.214,1.192-12.354-.244-2.512-2.154-7.429-3.822-9.314-.871-.981-1.949-2.589-3.252-2.569a2.942,2.942,0,0,0-1.173.374,4.423,4.423,0,0,0-1.672,1.34c-1.421,2.444.513,8.593-.3,11.3-1.176,3.877-5.73,10.863-8.616,13.7a34.986,34.986,0,0,1-4.9,3.182v34.608a20.108,20.108,0,0,1,4.664,0c8.284,2.336,30.4,4.127,38.333.769,0,0,.907-1.367,2.332-6.6A2.612,2.612,0,0,1,256.38,244.521Z" transform="translate(-160.648 -186.331)" fill="#dead69"/>
      <g id="Group_1126" data-name="Group 1126" transform="translate(76.881 26.38)">
        <path id="Path_357613" data-name="Path 357613" d="M261.541,216.479a4.426,4.426,0,0,1-3.721,5.031l-13.882,2a4.425,4.425,0,0,1-5.032-3.719h0a4.424,4.424,0,0,1,3.719-5.03l13.883-2a4.426,4.426,0,0,1,5.033,3.718Z" transform="translate(-237.529 -212.711)" fill="#fdd79a"/>
        <path id="Path_357614" data-name="Path 357614" d="M262.234,227.406a4.674,4.674,0,0,1-4.373,4.955l-14.826.557a4.67,4.67,0,0,1-4.952-4.371h0a4.671,4.671,0,0,1,4.371-4.953l14.827-.559a4.672,4.672,0,0,1,4.953,4.371Z" transform="translate(-237.529 -212.711)" fill="#fdd79a"/>
        <path id="Path_357615" data-name="Path 357615" d="M261.574,238.589a4.556,4.556,0,0,1-4.665,4.44l-14.4-1a4.55,4.55,0,0,1-4.437-4.664h0a4.55,4.55,0,0,1,4.663-4.438l14.4,1a4.551,4.551,0,0,1,4.438,4.662Z" transform="translate(-237.529 -212.711)" fill="#fdd79a"/>
        <path id="Path_357616" data-name="Path 357616" d="M257.771,247.9a4,4,0,0,1-4.285,3.705l-12.243-1.677a4,4,0,0,1-3.7-4.284h0a4,4,0,0,1,4.283-3.7l12.241,1.677a4,4,0,0,1,3.707,4.282Z" transform="translate(-237.529 -212.711)" fill="#fdd79a"/>
      </g>
      <path id="Path_357617" data-name="Path 357617" d="M233.638,210.568c-1.487-2.77,1.495-9.214,1.192-12.354-.244-2.512-2.154-7.429-3.822-9.314-.871-.981-1.949-2.589-3.252-2.569a2.942,2.942,0,0,0-1.173.374,4.423,4.423,0,0,0-1.672,1.34c-1.421,2.444.513,8.593-.3,11.3-1.176,3.877-5.73,10.863-8.616,13.7a34.986,34.986,0,0,1-4.9,3.182v21.094a15.917,15.917,0,0,0,7.77,2.071c10.337,0,17.836-9.815,17.836-22.381C236.709,215.727,234.149,211.535,233.638,210.568Z" transform="translate(-160.648 -186.331)" fill="#fdd79a"/>
      <rect id="Rectangle_38564" data-name="Rectangle 38564" width="3.436" height="36.465" transform="translate(49.394 28.48)" fill="#fff"/>
      <path id="Path_357618" data-name="Path 357618" d="M160.648,224.372a64.738,64.738,0,0,0,6.43,28.219h44.141V214.462H161.4A65.533,65.533,0,0,0,160.648,224.372Z" transform="translate(-160.648 -186.331)" fill="#2c5871"/>
    </g>
  </g>
</svg>
