<svg xmlns="http://www.w3.org/2000/svg" width="473.902" height="522" viewBox="0 0 473.902 522">
  <g id="generate_pdf_icon" data-name="generate pdf icon" transform="translate(-272 -132)">
    <g id="_3997608" data-name="3997608" transform="translate(252.951 137)">
      <path id="Path_1" data-name="Path 1" d="M481.059,77.662,410.287,6.892A23.381,23.381,0,0,0,393.647,0H95.677A23.559,23.559,0,0,0,72.145,23.532V256.516H55.6a31.584,31.584,0,0,0-31.548,31.548v144.29A31.584,31.584,0,0,0,55.6,463.9H304.1a23.559,23.559,0,0,0,23.532-23.532V328.146A23.56,23.56,0,0,0,304.1,304.613H55.6a16.548,16.548,0,0,1,0-33.1H72.145v8.535a7.5,7.5,0,0,0,15,0V23.532A8.542,8.542,0,0,1,95.677,15h289.1V87.661a15.534,15.534,0,0,0,15.516,15.517h72.661v385.29A8.542,8.542,0,0,1,464.419,497H95.677a8.541,8.541,0,0,1-8.532-8.532,7.5,7.5,0,0,0-15,0A23.559,23.559,0,0,0,95.677,512H464.419a23.559,23.559,0,0,0,23.532-23.532V94.3A23.374,23.374,0,0,0,481.059,77.662ZM55.6,319.613H304.1a8.542,8.542,0,0,1,8.532,8.533V440.372A8.542,8.542,0,0,1,304.1,448.9H55.6a16.567,16.567,0,0,1-16.548-16.549V314.915A31.343,31.343,0,0,0,55.6,319.613ZM399.774,87.661V17.593l70.587,70.585H400.29A.517.517,0,0,1,399.774,87.661Z"/>
      <path id="Path_1_-_Outline" data-name="Path 1 - Outline" d="M95.677-5h297.97a28.349,28.349,0,0,1,20.175,8.356l70.772,70.77A28.34,28.34,0,0,1,492.951,94.3V488.468A28.564,28.564,0,0,1,464.419,517H95.677a28.564,28.564,0,0,1-28.532-28.532,12.5,12.5,0,0,1,25,0A3.536,3.536,0,0,0,95.677,492H464.419a3.536,3.536,0,0,0,3.532-3.532V108.178H400.29a20.54,20.54,0,0,1-20.516-20.517V20H95.677a3.536,3.536,0,0,0-3.532,3.532v256.52a12.5,12.5,0,0,1-25,0v-3.535H55.6a11.548,11.548,0,0,0,0,23.1H304.1a28.565,28.565,0,0,1,28.532,28.533V440.371A28.564,28.564,0,0,1,304.1,468.9H55.6a36.59,36.59,0,0,1-36.548-36.549V288.064A36.589,36.589,0,0,1,55.6,251.516H67.145V23.532A28.564,28.564,0,0,1,95.677-5ZM464.419,507a18.553,18.553,0,0,0,18.532-18.532V94.3a18.407,18.407,0,0,0-5.427-13.1l-70.772-70.77A18.414,18.414,0,0,0,393.647,5H95.677A18.553,18.553,0,0,0,77.145,23.532V261.516H55.6a26.578,26.578,0,0,0-26.548,26.548v144.29A26.579,26.579,0,0,0,55.6,458.9H304.1a18.553,18.553,0,0,0,18.532-18.532V328.146A18.553,18.553,0,0,0,304.1,309.613H55.6a21.548,21.548,0,0,1,0-43.1H77.145v13.535a2.5,2.5,0,0,0,5,0V23.532A13.547,13.547,0,0,1,95.677,10h294.1V87.661A10.528,10.528,0,0,0,400.29,98.178h77.661v390.29A13.547,13.547,0,0,1,464.419,502H95.677a13.547,13.547,0,0,1-13.532-13.532,2.5,2.5,0,0,0-5,0A18.553,18.553,0,0,0,95.677,507ZM394.774,5.522l87.658,87.656H395.29l-.516-5.517ZM458.29,83.178,404.774,29.664V83.178ZM34.049,305.94l7.632,4.724A26.419,26.419,0,0,0,55.6,314.613H304.1a13.548,13.548,0,0,1,13.532,13.533V440.372A13.547,13.547,0,0,1,304.1,453.9H55.6a21.573,21.573,0,0,1-21.548-21.549ZM304.1,443.9a3.536,3.536,0,0,0,3.532-3.532V328.146a3.536,3.536,0,0,0-3.532-3.533H55.6a36.5,36.5,0,0,1-11.548-1.872V432.355A11.562,11.562,0,0,0,55.6,443.9Z"/>
      <path id="Path_5" data-name="Path 5" d="M235.948,217.462C217.515,223.28,198.6,231.333,188.5,241.75c-8.327,8.6-9.836,18.567-4.141,27.36,3.865,5.967,9.178,9.086,15.152,9.086a19.944,19.944,0,0,0,7.127-1.394c8.813-3.37,18.331-12.957,29.1-29.31,3.476-5.279,6.995-11.146,10.5-17.493q1.912-.562,3.9-1.12a374.109,374.109,0,0,1,66.128-12.016c12.811,12.388,26.053,22.04,37.342,24.673,12.419,2.9,22.265-2.782,26.332-15.192,2.463-7.517-.373-14.6-7.588-18.96-7.418-4.479-20.309-6.642-38.306-6.436-3.833.044-7.879.2-12.089.461a286.53,286.53,0,0,1-24.6-29.308,289.121,289.121,0,0,1-16.63-25.165q.774-2.665,1.471-5.252c5.127-19.013,6.956-33.57,5.435-43.268-2.2-14-11.236-15.994-15.02-16.2-12.885-.7-21.564,5.8-23.215,17.389-1.312,9.2,1.783,21.865,9.2,37.633,1.763,3.748,3.74,7.611,5.911,11.556q-1.213,3.894-2.636,8.108a430.942,430.942,0,0,1-25.93,60.558Zm-36.017,45.694c-.535.067-1.437.18-2.979-2.2a4.617,4.617,0,0,1-.252-5.4c2.5-4.668,11.053-11.218,27.6-17.984-11.546,17.908-20.175,25.058-24.365,25.581Zm165.884-41.993a2.673,2.673,0,0,1-.124.511c-1.873,5.716-4.39,6.255-8.671,5.256-5.226-1.219-11.864-5.08-19.268-10.989C357.8,216.1,364.794,219.713,365.815,221.163ZM264.254,101.725c.306-2.144.649-4.555,6.355-4.555q.539,0,1.142.029c1.708,2.081,2.587,11.34-1.365,29.664-4.655-10.675-6.929-19.543-6.132-25.138Zm10.444,64c3.292,5.059,6.833,10.168,10.586,15.266,5.384,7.314,11.466,14.907,17.9,22.155-7.442.9-15.118,2.057-22.8,3.451-5.2.943-14.255,2.722-24.859,5.367q3.528-7.315,6.94-15.13c4.51-10.329,8.658-20.9,12.231-31.109Z"/>
    </g>
    <g id="_626013" data-name="626013" transform="translate(392.825 603.277) rotate(-90)">
      <g id="Group_2" data-name="Group 2" transform="translate(32.304)">
        <path id="Path_7" data-name="Path 7" d="M131.85,63.266a2.382,2.382,0,0,0-2.2-1.469H103.609v-79.42A2.378,2.378,0,0,0,101.232-20H63.2a2.378,2.378,0,0,0-2.377,2.377V61.8H34.681A2.376,2.376,0,0,0,33,65.852l47.418,47.574a2.381,2.381,0,0,0,3.366,0l47.555-47.574A2.372,2.372,0,0,0,131.85,63.266Z" transform="translate(-32.304 -8)"/>
      </g>
    </g>
  </g>
</svg>
