<svg xmlns="http://www.w3.org/2000/svg" width="94.422" height="108.756" viewBox="0 0 94.422 108.756">
  <g id="bg_image_tip_discard" data-name="bg image tip discard" transform="translate(-2290.289 -4905)">
    <g id="Group_150454" data-name="Group 150454" transform="translate(1786.289 4530)">
      <g id="iconfinder_25_2135797" transform="translate(504 458.732)">
        <path id="XMLID_2_" d="M160.83,44.4H66.571c-.448,8.919,2.664,16.231,6.946,16.231h80.392c4.257,0,7.37-7.355,6.921-16.231Z" transform="translate(-66.528 -44.4)" fill="#3c3c3c"/>
        <path id="XMLID_1_" d="M218.8,6H187.523l-.046,1.786c-.183,5.61,3.343,10.258,7.876,10.258h15.638c4.51,0,8.036-4.648,7.876-10.235Z" transform="translate(-155.987 6.98)" fill="#3c3c3c"/>
      </g>
      <g id="Rectangle_38571" data-name="Rectangle 38571" transform="translate(504 375)" fill="#fff" stroke="#3c3c3c" stroke-width="1">
        <rect width="94.422" height="85.514" stroke="none"/>
        <rect x="0.5" y="0.5" width="93.422" height="84.514" fill="none"/>
      </g>
    </g>
    <g id="Rectangle_38572" data-name="Rectangle 38572" transform="translate(2300 4913)" fill="#fff" stroke="#3c3c3c" stroke-width="1">
      <rect width="6" height="6" stroke="none"/>
      <rect x="0.5" y="0.5" width="5" height="5" fill="none"/>
    </g>
    <g id="Rectangle_38572-2" data-name="Rectangle 38572" transform="translate(2317 4913)" fill="#fff" stroke="#3c3c3c" stroke-width="1">
      <rect width="6" height="6" stroke="none"/>
      <rect x="0.5" y="0.5" width="5" height="5" fill="none"/>
    </g>
    <g id="Rectangle_38572-3" data-name="Rectangle 38572" transform="translate(2334 4913)" fill="#fff" stroke="#3c3c3c" stroke-width="1">
      <rect width="6" height="6" stroke="none"/>
      <rect x="0.5" y="0.5" width="5" height="5" fill="none"/>
    </g>
    <g id="Rectangle_38572-4" data-name="Rectangle 38572" transform="translate(2351 4913)" fill="#fff" stroke="#3c3c3c" stroke-width="1">
      <rect width="6" height="6" stroke="none"/>
      <rect x="0.5" y="0.5" width="5" height="5" fill="none"/>
    </g>
    <g id="Rectangle_38572-5" data-name="Rectangle 38572" transform="translate(2368 4913)" fill="#fff" stroke="#3c3c3c" stroke-width="1">
      <rect width="6" height="6" stroke="none"/>
      <rect x="0.5" y="0.5" width="5" height="5" fill="none"/>
    </g>
    <g id="Rectangle_38572-6" data-name="Rectangle 38572" transform="translate(2300 4977)" fill="#fff" stroke="#3c3c3c" stroke-width="1">
      <rect width="6" height="6" stroke="none"/>
      <rect x="0.5" y="0.5" width="5" height="5" fill="none"/>
    </g>
    <g id="Rectangle_38572-7" data-name="Rectangle 38572" transform="translate(2317 4977)" fill="#fff" stroke="#3c3c3c" stroke-width="1">
      <rect width="6" height="6" stroke="none"/>
      <rect x="0.5" y="0.5" width="5" height="5" fill="none"/>
    </g>
    <g id="Rectangle_38572-8" data-name="Rectangle 38572" transform="translate(2334 4977)" fill="#fff" stroke="#3c3c3c" stroke-width="1">
      <rect width="6" height="6" stroke="none"/>
      <rect x="0.5" y="0.5" width="5" height="5" fill="none"/>
    </g>
    <g id="Rectangle_38572-9" data-name="Rectangle 38572" transform="translate(2351 4977)" fill="#fff" stroke="#3c3c3c" stroke-width="1">
      <rect width="6" height="6" stroke="none"/>
      <rect x="0.5" y="0.5" width="5" height="5" fill="none"/>
    </g>
    <g id="Rectangle_38572-10" data-name="Rectangle 38572" transform="translate(2368 4977)" fill="#fff" stroke="#3c3c3c" stroke-width="1">
      <rect width="6" height="6" stroke="none"/>
      <rect x="0.5" y="0.5" width="5" height="5" fill="none"/>
    </g>
  </g>
</svg>
