<svg xmlns="http://www.w3.org/2000/svg" width="94.422" height="108.756" viewBox="0 0 94.422 108.756">
  <g id="graphics_at_pickup_for_animation" data-name="graphics at pickup for animation" transform="translate(-2291.289 -16008)">
    <g id="Group_150357" data-name="Group 150357" transform="translate(1787.289 15633)">
      <g id="iconfinder_25_2135797" transform="translate(504 458.732)">
        <path id="XMLID_2_" d="M160.83,44.4H66.571c-.448,8.919,2.664,16.231,6.946,16.231h80.392c4.257,0,7.37-7.355,6.921-16.231Z" transform="translate(-66.528 -44.4)" fill="#3c3c3c"/>
        <path id="XMLID_1_" d="M218.8,6H187.523l-.046,1.786c-.183,5.61,3.343,10.258,7.876,10.258h15.638c4.51,0,8.036-4.648,7.876-10.235Z" transform="translate(-155.987 6.98)" fill="#3c3c3c"/>
      </g>
      <g id="Rectangle_38571" data-name="Rectangle 38571" transform="translate(504 375)" fill="#fff" stroke="#3c3c3c" stroke-width="1">
        <rect width="94.422" height="85.514" stroke="none"/>
        <rect x="0.5" y="0.5" width="93.422" height="84.514" fill="none"/>
      </g>
    </g>
    <g id="Group_150358" data-name="Group 150358" transform="translate(1838.151 15736.215)">
      <g id="Rectangle_38572" data-name="Rectangle 38572">
        <g id="Group_150306" data-name="Group 150306">
          <rect id="Rectangle_38587" data-name="Rectangle 38587" width="6" height="6" transform="translate(463.849 283.785)" fill="none"/>
        </g>
        <g id="Group_150307" data-name="Group 150307">
          <path id="Path_360397" data-name="Path 360397" d="M469.849,289.785h-6v-6h6Zm-5-1h4v-4h-4Z" fill="#3c3c3c"/>
        </g>
      </g>
      <g id="Rectangle_38572-2" data-name="Rectangle 38572-2">
        <g id="Group_150308" data-name="Group 150308">
          <rect id="Rectangle_38588" data-name="Rectangle 38588" width="6" height="6" transform="translate(480.849 283.785)" fill="none"/>
        </g>
        <g id="Group_150309" data-name="Group 150309">
          <path id="Path_360398" data-name="Path 360398" d="M486.849,289.785h-6v-6h6Zm-5-1h4v-4h-4Z" fill="#3c3c3c"/>
        </g>
      </g>
      <g id="Rectangle_38572-3" data-name="Rectangle 38572-3">
        <g id="Group_150310" data-name="Group 150310">
          <rect id="Rectangle_38589" data-name="Rectangle 38589" width="6" height="6" transform="translate(497.849 283.785)" fill="none"/>
        </g>
        <g id="Group_150311" data-name="Group 150311">
          <path id="Path_360399" data-name="Path 360399" d="M503.849,289.785h-6v-6h6Zm-5-1h4v-4h-4Z" fill="#3c3c3c"/>
        </g>
      </g>
      <g id="Rectangle_38572-4" data-name="Rectangle 38572-4">
        <g id="Group_150312" data-name="Group 150312">
          <rect id="Rectangle_38590" data-name="Rectangle 38590" width="6" height="6" transform="translate(514.849 283.785)" fill="none"/>
        </g>
        <g id="Group_150313" data-name="Group 150313">
          <path id="Path_360400" data-name="Path 360400" d="M520.849,289.785h-6v-6h6Zm-5-1h4v-4h-4Z" fill="#3c3c3c"/>
        </g>
      </g>
      <g id="Rectangle_38572-5" data-name="Rectangle 38572-5">
        <g id="Group_150314" data-name="Group 150314">
          <rect id="Rectangle_38591" data-name="Rectangle 38591" width="6" height="6" transform="translate(531.849 283.785)" fill="none"/>
        </g>
        <g id="Group_150315" data-name="Group 150315">
          <path id="Path_360401" data-name="Path 360401" d="M537.849,289.785h-6v-6h6Zm-5-1h4v-4h-4Z" fill="#3c3c3c"/>
        </g>
      </g>
      <g id="Rectangle_38572-6" data-name="Rectangle 38572-6">
        <g id="Group_150316" data-name="Group 150316">
          <rect id="Rectangle_38592" data-name="Rectangle 38592" width="6" height="6" transform="translate(463.849 297.785)" fill="none"/>
        </g>
        <g id="Group_150317" data-name="Group 150317">
          <path id="Path_360402" data-name="Path 360402" d="M469.849,303.785h-6v-6h6Zm-5-1h4v-4h-4Z" fill="#3c3c3c"/>
        </g>
      </g>
      <g id="Rectangle_38572-7" data-name="Rectangle 38572-7">
        <g id="Group_150318" data-name="Group 150318">
          <rect id="Rectangle_38593" data-name="Rectangle 38593" width="6" height="6" transform="translate(480.849 297.785)" fill="none"/>
        </g>
        <g id="Group_150319" data-name="Group 150319">
          <path id="Path_360403" data-name="Path 360403" d="M486.849,303.785h-6v-6h6Zm-5-1h4v-4h-4Z" fill="#3c3c3c"/>
        </g>
      </g>
      <g id="Rectangle_38572-8" data-name="Rectangle 38572-8">
        <g id="Group_150320" data-name="Group 150320">
          <rect id="Rectangle_38594" data-name="Rectangle 38594" width="6" height="6" transform="translate(497.849 297.785)" fill="none"/>
        </g>
        <g id="Group_150321" data-name="Group 150321">
          <path id="Path_360404" data-name="Path 360404" d="M503.849,303.785h-6v-6h6Zm-5-1h4v-4h-4Z" fill="#3c3c3c"/>
        </g>
      </g>
      <g id="Rectangle_38572-9" data-name="Rectangle 38572-9">
        <g id="Group_150322" data-name="Group 150322">
          <rect id="Rectangle_38595" data-name="Rectangle 38595" width="6" height="6" transform="translate(514.849 297.785)" fill="none"/>
        </g>
        <g id="Group_150323" data-name="Group 150323">
          <path id="Path_360405" data-name="Path 360405" d="M520.849,303.785h-6v-6h6Zm-5-1h4v-4h-4Z" fill="#3c3c3c"/>
        </g>
      </g>
      <g id="Rectangle_38572-10" data-name="Rectangle 38572-10">
        <g id="Group_150324" data-name="Group 150324">
          <rect id="Rectangle_38596" data-name="Rectangle 38596" width="6" height="6" transform="translate(531.849 297.785)" fill="none"/>
        </g>
        <g id="Group_150325" data-name="Group 150325">
          <path id="Path_360406" data-name="Path 360406" d="M537.849,303.785h-6v-6h6Zm-5-1h4v-4h-4Z" fill="#3c3c3c"/>
        </g>
      </g>
      <g id="Rectangle_38572-11" data-name="Rectangle 38572-11">
        <g id="Group_150326" data-name="Group 150326">
          <rect id="Rectangle_38597" data-name="Rectangle 38597" width="6" height="6" transform="translate(463.849 311.785)" fill="none"/>
        </g>
        <g id="Group_150327" data-name="Group 150327">
          <path id="Path_360407" data-name="Path 360407" d="M469.849,317.785h-6v-6h6Zm-5-1h4v-4h-4Z" fill="#3c3c3c"/>
        </g>
      </g>
      <g id="Rectangle_38572-12" data-name="Rectangle 38572-12">
        <g id="Group_150328" data-name="Group 150328">
          <rect id="Rectangle_38598" data-name="Rectangle 38598" width="6" height="6" transform="translate(480.849 311.785)" fill="none"/>
        </g>
        <g id="Group_150329" data-name="Group 150329">
          <path id="Path_360408" data-name="Path 360408" d="M486.849,317.785h-6v-6h6Zm-5-1h4v-4h-4Z" fill="#3c3c3c"/>
        </g>
      </g>
      <g id="Rectangle_38572-13" data-name="Rectangle 38572-13">
        <g id="Group_150330" data-name="Group 150330">
          <rect id="Rectangle_38599" data-name="Rectangle 38599" width="6" height="6" transform="translate(497.849 311.785)" fill="none"/>
        </g>
        <g id="Group_150331" data-name="Group 150331">
          <path id="Path_360409" data-name="Path 360409" d="M503.849,317.785h-6v-6h6Zm-5-1h4v-4h-4Z" fill="#3c3c3c"/>
        </g>
      </g>
      <g id="Rectangle_38572-14" data-name="Rectangle 38572-14">
        <g id="Group_150332" data-name="Group 150332">
          <rect id="Rectangle_38600" data-name="Rectangle 38600" width="6" height="6" transform="translate(514.849 311.785)" fill="none"/>
        </g>
        <g id="Group_150333" data-name="Group 150333">
          <path id="Path_360410" data-name="Path 360410" d="M520.849,317.785h-6v-6h6Zm-5-1h4v-4h-4Z" fill="#3c3c3c"/>
        </g>
      </g>
      <g id="Rectangle_38572-15" data-name="Rectangle 38572-15">
        <g id="Group_150334" data-name="Group 150334">
          <rect id="Rectangle_38601" data-name="Rectangle 38601" width="6" height="6" transform="translate(531.849 311.785)" fill="none"/>
        </g>
        <g id="Group_150335" data-name="Group 150335">
          <path id="Path_360411" data-name="Path 360411" d="M537.849,317.785h-6v-6h6Zm-5-1h4v-4h-4Z" fill="#3c3c3c"/>
        </g>
      </g>
      <g id="Rectangle_38572-16" data-name="Rectangle 38572-16">
        <g id="Group_150336" data-name="Group 150336">
          <rect id="Rectangle_38602" data-name="Rectangle 38602" width="6" height="6" transform="translate(463.849 325.785)" fill="none"/>
        </g>
        <g id="Group_150337" data-name="Group 150337">
          <path id="Path_360412" data-name="Path 360412" d="M469.849,331.785h-6v-6h6Zm-5-1h4v-4h-4Z" fill="#3c3c3c"/>
        </g>
      </g>
      <g id="Rectangle_38572-17" data-name="Rectangle 38572-17">
        <g id="Group_150338" data-name="Group 150338">
          <rect id="Rectangle_38603" data-name="Rectangle 38603" width="6" height="6" transform="translate(480.849 325.785)" fill="none"/>
        </g>
        <g id="Group_150339" data-name="Group 150339">
          <path id="Path_360413" data-name="Path 360413" d="M486.849,331.785h-6v-6h6Zm-5-1h4v-4h-4Z" fill="#3c3c3c"/>
        </g>
      </g>
      <g id="Rectangle_38572-18" data-name="Rectangle 38572-18">
        <g id="Group_150340" data-name="Group 150340">
          <rect id="Rectangle_38604" data-name="Rectangle 38604" width="6" height="6" transform="translate(497.849 325.785)" fill="none"/>
        </g>
        <g id="Group_150341" data-name="Group 150341">
          <path id="Path_360414" data-name="Path 360414" d="M503.849,331.785h-6v-6h6Zm-5-1h4v-4h-4Z" fill="#3c3c3c"/>
        </g>
      </g>
      <g id="Rectangle_38572-19" data-name="Rectangle 38572-19">
        <g id="Group_150342" data-name="Group 150342">
          <rect id="Rectangle_38605" data-name="Rectangle 38605" width="6" height="6" transform="translate(514.849 325.785)" fill="none"/>
        </g>
        <g id="Group_150343" data-name="Group 150343">
          <path id="Path_360415" data-name="Path 360415" d="M520.849,331.785h-6v-6h6Zm-5-1h4v-4h-4Z" fill="#3c3c3c"/>
        </g>
      </g>
      <g id="Rectangle_38572-20" data-name="Rectangle 38572-20">
        <g id="Group_150344" data-name="Group 150344">
          <rect id="Rectangle_38606" data-name="Rectangle 38606" width="6" height="6" transform="translate(531.849 325.785)" fill="none"/>
        </g>
        <g id="Group_150345" data-name="Group 150345">
          <path id="Path_360416" data-name="Path 360416" d="M537.849,331.785h-6v-6h6Zm-5-1h4v-4h-4Z" fill="#3c3c3c"/>
        </g>
      </g>
      <g id="Rectangle_38572-21" data-name="Rectangle 38572-21">
        <g id="Group_150346" data-name="Group 150346">
          <rect id="Rectangle_38607" data-name="Rectangle 38607" width="6" height="6" transform="translate(463.849 339.785)" fill="none"/>
        </g>
        <g id="Group_150347" data-name="Group 150347">
          <path id="Path_360417" data-name="Path 360417" d="M469.849,345.785h-6v-6h6Zm-5-1h4v-4h-4Z" fill="#3c3c3c"/>
        </g>
      </g>
      <g id="Rectangle_38572-22" data-name="Rectangle 38572-22">
        <g id="Group_150348" data-name="Group 150348">
          <rect id="Rectangle_38608" data-name="Rectangle 38608" width="6" height="6" transform="translate(480.849 339.785)" fill="none"/>
        </g>
        <g id="Group_150349" data-name="Group 150349">
          <path id="Path_360418" data-name="Path 360418" d="M486.849,345.785h-6v-6h6Zm-5-1h4v-4h-4Z" fill="#3c3c3c"/>
        </g>
      </g>
      <g id="Rectangle_38572-23" data-name="Rectangle 38572-23">
        <g id="Group_150350" data-name="Group 150350">
          <rect id="Rectangle_38609" data-name="Rectangle 38609" width="6" height="6" transform="translate(497.849 339.785)" fill="none"/>
        </g>
        <g id="Group_150351" data-name="Group 150351">
          <path id="Path_360419" data-name="Path 360419" d="M503.849,345.785h-6v-6h6Zm-5-1h4v-4h-4Z" fill="#3c3c3c"/>
        </g>
      </g>
      <g id="Rectangle_38572-24" data-name="Rectangle 38572-24">
        <g id="Group_150352" data-name="Group 150352">
          <rect id="Rectangle_38610" data-name="Rectangle 38610" width="6" height="6" transform="translate(514.849 339.785)" fill="none"/>
        </g>
        <g id="Group_150353" data-name="Group 150353">
          <path id="Path_360420" data-name="Path 360420" d="M520.849,345.785h-6v-6h6Zm-5-1h4v-4h-4Z" fill="#3c3c3c"/>
        </g>
      </g>
      <g id="Rectangle_38572-25" data-name="Rectangle 38572-25">
        <g id="Group_150354" data-name="Group 150354">
          <rect id="Rectangle_38611" data-name="Rectangle 38611" width="6" height="6" transform="translate(531.849 339.785)" fill="none"/>
        </g>
        <g id="Group_150355" data-name="Group 150355">
          <path id="Path_360421" data-name="Path 360421" d="M537.849,345.785h-6v-6h6Zm-5-1h4v-4h-4Z" fill="#3c3c3c"/>
        </g>
      </g>
    </g>
  </g>
</svg>
