<svg xmlns="http://www.w3.org/2000/svg" width="284.481" height="252.782" viewBox="0 0 284.481 252.782">
  <g id="magnet_graphics" data-name="magnet graphics" transform="translate(-691.789 -345.382)">
    <g id="Group_1043" data-name="Group 1043" transform="translate(-497.418 147.584)">
      <path id="Path_357517" data-name="Path 357517" d="M1333.787,417.547c-37.144-13.151-73.4-33.2-89.826-69.111-16.218-35.455-8.137-80.587,19.375-108.213,9.569-9.608,21.632-17.33,35.071-19.142,18.982-2.559,37.547,6.872,52.984,18.211s29.46,25,46.828,33.077c19.709,9.166,42.1,10.39,62.929,16.6,12.708,3.79,25.283,9.788,33.641,20.082,8.3,10.228,11.623,23.776,11.779,36.949.449,37.778-25.519,74.2-61.116,86.861-23.324,8.295-47.761,3.034-70.891-3.058C1361.492,426.363,1347.578,422.43,1333.787,417.547Z" transform="translate(-32.885 -1.551)" fill="#d9ece7"/>
      <path id="Path_357518" data-name="Path 357518" d="M1378.067,415.569c-34.407,22.1-73.709,39.258-112.811,30.629-38.6-8.519-69.2-42.669-73.36-81.883-1.448-13.638.209-28.148,7.445-40.159,10.22-16.967,29.685-26.264,48.645-31.856s38.849-8.618,56.467-17.772c19.994-10.388,35.414-27.806,53.786-40.909,11.208-7.994,24.084-14.53,37.647-15.017,13.474-.484,26.367,5.107,36.92,13.034,30.266,22.734,42.408,66.073,29.479,102.7-8.471,24-28.416,40.608-48.178,55.65C1402.942,398.479,1390.842,407.365,1378.067,415.569Z" transform="translate(0 0)" fill="none" stroke="#dfefeb" stroke-miterlimit="10" stroke-width="4.366"/>
    </g>
    <g id="Group_990" data-name="Group 990" transform="translate(748.539 329.459)">
      <g id="Group_969" data-name="Group 969" transform="translate(5.524 15.923)">
        <g id="Group_965" data-name="Group 965" transform="translate(0 0)">
          <path id="Path_357392" data-name="Path 357392" d="M394.355,113.169l3.534,2.048a19.184,19.184,0,0,0,12.738,8.923l7.317,20.18-12.667,7.2-4.569-12.752s-9.447-2.349-15.248-9.643,4.03-16.307,4.03-16.307Z" transform="translate(-381.313 -81.372)" fill="#f4b79b"/>
          <g id="Group_963" data-name="Group 963" transform="translate(0 25.677)">
            <path id="Path_357401" data-name="Path 357401" d="M429.847,102.619l2.179,1.829a2.685,2.685,0,0,1,.456,3.558h0a2.522,2.522,0,0,1-3.424.758l-2.417-1.5a2.674,2.674,0,0,1-.7-3.838l.238-.325A2.516,2.516,0,0,1,429.847,102.619Z" transform="translate(-418.687 -102.034)" fill="#f4b79b"/>
            <path id="Path_357402" data-name="Path 357402" d="M443.164,124.317l2.02,1.621a2.29,2.29,0,0,1,.448,3.124h0a2.374,2.374,0,0,1-3.145.637l-2.236-1.338a2.3,2.3,0,0,1-.67-3.37l.217-.283A2.378,2.378,0,0,1,443.164,124.317Z" transform="translate(-439.11 -112.15)" fill="#f4b79b"/>
            <path id="Path_357403" data-name="Path 357403" d="M439.179,118.2l2.423,1.713a2.181,2.181,0,0,1,.615,3.205h0a3.006,3.006,0,0,1-3.685.563l-2.67-1.43a2.23,2.23,0,0,1-.883-3.464l.247-.283A3.054,3.054,0,0,1,439.179,118.2Z" transform="translate(-433.249 -109.279)" fill="#f4b79b"/>
            <path id="Path_357404" data-name="Path 357404" d="M433.284,108.978l3.97,3.151a2.685,2.685,0,0,1,.456,3.558h0a2.523,2.523,0,0,1-3.424.758l-4.208-2.826a2.674,2.674,0,0,1-.7-3.838l.238-.325A2.516,2.516,0,0,1,433.284,108.978Z" transform="translate(-425.754 -104.991)" fill="#f4b79b"/>
            <g id="Group_962" data-name="Group 962" transform="translate(1.877 3.561)">
              <line id="Line_38" data-name="Line 38" x1="4.701" y1="3.577" transform="translate(4.922)" fill="none" stroke="#e59b7f" stroke-linecap="round" stroke-linejoin="round" stroke-width="1.485"/>
              <line id="Line_39" data-name="Line 39" x1="4.91" y1="3.082" transform="translate(0 8.284)" fill="none" stroke="#e59b7f" stroke-linecap="round" stroke-linejoin="round" stroke-width="1.485"/>
              <line id="Line_40" data-name="Line 40" x1="4.812" y1="3.162" transform="translate(2.447 5.067)" fill="none" stroke="#e59b7f" stroke-linecap="round" stroke-linejoin="round" stroke-width="1.485"/>
            </g>
          </g>
          <g id="Group_991" data-name="Group 991" transform="matrix(-0.978, -0.208, 0.208, -0.978, 21.575, 48.476)">
            <g id="Group_685" data-name="Group 685" transform="translate(0 0)">
              <g id="Polygon_12" data-name="Polygon 12" fill="#fff">
                <path d="M 21.19902229309082 18.96210098266602 L 0.8580365777015686 18.96210098266602 L 11.02852439880371 1.014175057411194 L 21.19902229309082 18.96210098266602 Z" stroke="none"/>
                <path d="M 11.02852439880371 2.028339385986328 L 1.716053009033203 18.46210098266602 L 20.34098625183105 18.46210098266602 L 11.02852439880371 2.028339385986328 M 11.02852439880371 0 L 22.05704498291016 19.46210098266602 L -5.7220458984375e-06 19.46210098266602 L 11.02852439880371 0 Z" stroke="none" fill="#f38220"/>
              </g>
              <g id="Polygon_13" data-name="Polygon 13" transform="translate(1.199 5.248)" fill="#fff">
                <path d="M 18.34521865844727 17.02047729492188 L 0.8438711166381836 17.02047729492188 L 9.594545364379883 1.040987014770508 L 18.34521865844727 17.02047729492188 Z" stroke="none"/>
                <path d="M 9.594545364379883 2.081967353820801 L 1.687742233276367 16.52047729492188 L 17.5013484954834 16.52047729492188 L 9.594545364379883 2.081967353820801 M 9.594545364379883 -3.814697265625e-06 L 19.18909454345703 17.52047729492188 L -3.814697265625e-06 17.52047729492188 L 9.594545364379883 -3.814697265625e-06 Z" stroke="none" fill="#f38220"/>
              </g>
            </g>
            <g id="Group_686" data-name="Group 686" transform="translate(0 22.769)">
              <g id="Polygon_12-2" data-name="Polygon 12" transform="translate(22.057 22.102) rotate(180)" fill="#fff">
                <path d="M 21.19902229309082 18.96210098266602 L 0.8580365777015686 18.96210098266602 L 11.02852439880371 1.014175057411194 L 21.19902229309082 18.96210098266602 Z" stroke="none"/>
                <path d="M 11.02852439880371 2.028339385986328 L 1.716053009033203 18.46210098266602 L 20.34098625183105 18.46210098266602 L 11.02852439880371 2.028339385986328 M 11.02852439880371 0 L 22.05704498291016 19.46210098266602 L -5.7220458984375e-06 19.46210098266602 L 11.02852439880371 0 Z" stroke="none" fill="#f38220"/>
              </g>
              <g id="Polygon_13-2" data-name="Polygon 13" transform="translate(20.389 16.686) rotate(180)" fill="#fff">
                <path d="M 18.32483291625977 16.1861629486084 L 0.8642587065696716 16.1861629486084 L 9.594545364379883 1.003067851066589 L 18.32483291625977 16.1861629486084 Z" stroke="none"/>
                <path d="M 9.594545364379883 2.00614070892334 L 1.728527069091797 15.6861629486084 L 17.46056365966797 15.6861629486084 L 9.594545364379883 2.00614070892334 M 9.594545364379883 1.9073486328125e-06 L 19.18909454345703 16.6861629486084 L -3.814697265625e-06 16.6861629486084 L 9.594545364379883 1.9073486328125e-06 Z" stroke="none" fill="#f38220"/>
              </g>
            </g>
          </g>
          <path id="Path_357400" data-name="Path 357400" d="M407.606,130.388l-3.457-13.879a4.138,4.138,0,0,0-1.515-1.972l-6.006-3.165a2.648,2.648,0,0,0-4.123,1.695h0a2.648,2.648,0,0,0,.609,2.214l5.021,5.756,4.954,10.945Z" transform="translate(-375.702 -80.476)" fill="#f4b79b"/>
        </g>
        <path id="Path_357407" data-name="Path 357407" d="M311.068,244.79A14.664,14.664,0,0,1,297.316,259.2l-21.208,3.591-41.294,7.244A15.786,15.786,0,0,1,218.122,255.8h0c-.889-9.173,5.895-16.424,15.447-17.306,8.137-.751,21.888-2.84,36.006-5.181,10.666-1.768,20.715-3.329,26.633-3.411A14.658,14.658,0,0,1,311.068,244.79Z" transform="translate(-185.847 -135.812)" fill="#fff"/>
        <g id="Group_968" data-name="Group 968" transform="translate(16.783 55.299)">
          <g id="Group_967" data-name="Group 967">
            <path id="Path_357408" data-name="Path 357408" d="M352.346,157.4l26.911,57.848a15.653,15.653,0,0,1-10.028,20.31h0a15.653,15.653,0,0,1-19.88-11.217L333.6,164.133Z" transform="translate(-333.597 -157.399)" fill="#fff"/>
            <g id="Group_966" data-name="Group 966" transform="translate(1.742 6.48)">
              <line id="Line_41" data-name="Line 41" x1="19.646" y2="7.402" transform="translate(0)" fill="none" stroke="#d7eef4" stroke-miterlimit="10" stroke-width="1.389"/>
              <line id="Line_42" data-name="Line 42" x2="4.626" y2="10.702" transform="translate(37.605 37.634)" fill="none" stroke="#d7eef4" stroke-miterlimit="10" stroke-width="1.389"/>
            </g>
          </g>
        </g>
      </g>
      <g id="Group_975" data-name="Group 975" transform="translate(87.531 45.471)">
        <g id="Group_974" data-name="Group 974" transform="translate(0)">
          <path id="Path_357409" data-name="Path 357409" d="M273.176,110.731s-30.9,2.894-22.442,21.706c5.014,11.155,22.472,7.344,22.472,7.344Z" transform="translate(-246.695 -109.95)" fill="#060606"/>
          <path id="Path_357410" data-name="Path 357410" d="M225.661,129.2s28.693,40.492,6.276,45.9c-11.233,2.708-31.747,3.4-42.541,3.2-6.5-.123-13.122-2.544-15.48-8.6-1.537-3.949.358-10.186,5-15.015,11.424-11.885,6.277-19,6.277-19Z" transform="translate(-173.392 -118.537)" fill="#060606"/>
          <ellipse id="Ellipse_138" data-name="Ellipse 138" cx="23.148" cy="22.093" rx="23.148" ry="22.093" transform="translate(9.715 0)" fill="#060606"/>
          <ellipse id="Ellipse_139" data-name="Ellipse 139" cx="5.99" cy="5.99" rx="5.99" ry="5.99" transform="translate(17.048 37.174) rotate(-171.723)" fill="#e59b7f"/>
          <path id="Path_357411" data-name="Path 357411" d="M216.854,180.232l1.43,20.336L236,199.384l-3.255-32.758Z" transform="translate(-192.148 -135.939)" fill="#f4b79b"/>
          <path id="Path_357412" data-name="Path 357412" d="M230.654,205.178l11.275-14.616-12.325,2.8Z" transform="translate(-204.897 -147.069)" fill="#e59b7f"/>
          <path id="Path_357413" data-name="Path 357413" d="M221.25,122.547a10.46,10.46,0,0,0-2.86,5.74c-1.147,6.577-3.4,18.163-1.369,25.143,2.638,9.078,9.062,15.515,19.444,13.25,0,0,12.44-1.44,15-19.522C255.54,118.35,234.189,110,221.25,122.547Z" transform="translate(-207.773 -112.811)" fill="#f4b79b"/>
          <path id="Path_357427" data-name="Path 357427" d="M232.737,132.919c-.87.364-19.223-8.727-18.875-18.288.066-1.812,2.8-2.968,4.552-2.485,5.444,1.505,18.724,3.755,17.4,21.58Z" transform="translate(-190.45 -110.557)" fill="#060606"/>
          <path id="Path_357428" data-name="Path 357428" d="M242.6,114.529a16.951,16.951,0,0,0-14.836,6.289s3.441-10.986,20.222-11.548L254.3,123.32Z" transform="translate(-216.281 -109.271)" fill="#060606"/>
          <path id="Path_357429" data-name="Path 357429" d="M211.826,147.031l1.185,12.535,6.873-5.856-.4-6.68Z" transform="translate(-173.342 -126.828)" fill="#060606"/>
          <g id="Group_973" data-name="Group 973" transform="translate(37.718 23.953)">
            <ellipse id="Ellipse_142" data-name="Ellipse 142" cx="7.269" cy="7.269" rx="7.269" ry="7.269" transform="translate(14.471 15.862) rotate(-174.513)" fill="#f4b79b"/>
            <path id="Path_357430" data-name="Path 357430" d="M214.115,164.552s-5.283-2.329-6.747,4.334" transform="translate(-202.905 -158.745)" fill="none" stroke="#060606" stroke-linecap="round" stroke-linejoin="round" stroke-width="1.526" opacity="0.185"/>
          </g>
        </g>
      </g>
      <g id="Group_982" data-name="Group 982" transform="translate(84.234 108.855)">
        <rect id="Rectangle_38543" data-name="Rectangle 38543" width="44.602" height="64.755" transform="translate(19.476 80.932)" fill="#009bc7"/>
        <path id="Path_357431" data-name="Path 357431" d="M81.027,229.658a14.663,14.663,0,0,1,18.6,7.12l11.5,18.175,23.205,35.594a15.786,15.786,0,0,1-6.681,20.894h0a15.783,15.783,0,0,1-21.929-7.565c-3.28-7.484-11.648-19.394-19.26-31.513-5.751-9.155-11.071-17.822-13.433-23.248A14.658,14.658,0,0,1,81.027,229.658Z" transform="translate(-11.22 -228.141)" fill="#fff"/>
        <g id="Group_976" data-name="Group 976" transform="translate(14.432)">
          <path id="Path_357432" data-name="Path 357432" d="M186.421,229.828l-11.081,5.189a5.216,5.216,0,0,0-2.809,4.974l2.977,70.13,50.471-.682,2.98-72.493c.09-3.866-2.7-8.5-6.172-8.8l-20.532-.411Z" transform="translate(-172.525 -227.739)" fill="#b5e0ea"/>
          <path id="Path_357433" data-name="Path 357433" d="M233.5,227.739l2.989.061,3.149,11.208-27.255,1.486-1.409-7.121,10.527-5.635Z" transform="translate(-203.766 -227.739)" fill="#f4b79b"/>
        </g>
        <g id="Group_978" data-name="Group 978" transform="translate(0 1.245)">
          <g id="Group_977" data-name="Group 977" transform="translate(0)">
            <path id="Path_357434" data-name="Path 357434" d="M279.372,230.569l-4.063,30.175,2.925,113.764H249.907s4.019-41.782,17.414-71.42L254.18,261.541l9.323-28.565,15.837-2.91Z" transform="translate(-249.907 -230.066)" fill="#fff"/>
            <path id="Path_357435" data-name="Path 357435" d="M264.257,232.04l-13.345,14.179,6.99,7.448-6.368,6.732,8.7,46.647" transform="translate(-235.329 -230.984)" fill="none" stroke="#d7eef4" stroke-linecap="round" stroke-linejoin="round" stroke-width="1.389"/>
          </g>
          <path id="Path_357436" data-name="Path 357436" d="M295.9,277.063s-3.558-10.765.678-18.965" transform="translate(-290.979 -243.1)" fill="none" stroke="#d7eef4" stroke-linecap="round" stroke-linejoin="round" stroke-width="1.389"/>
        </g>
        <g id="Group_981" data-name="Group 981" transform="translate(44.195 0.061)">
          <g id="Group_979" data-name="Group 979">
            <path id="Path_357437" data-name="Path 357437" d="M145.122,227.853l-2.954,34.1,2.262,111.53h40.164s5.259-48.181-18.736-72.035L178,253.673l-4.924-25.418Z" transform="translate(-142.167 -227.853)" fill="#fff"/>
            <path id="Path_357438" data-name="Path 357438" d="M193.174,228.6,205.5,242.961l-7.295,9.522,5.375,6.878-10.162,46.088" transform="translate(-189.875 -228.202)" fill="none" stroke="#d7eef4" stroke-linecap="round" stroke-linejoin="round" stroke-width="1.389"/>
          </g>
          <g id="Group_980" data-name="Group 980" transform="translate(5.2 20.503)">
            <rect id="Rectangle_38544" data-name="Rectangle 38544" width="17.094" height="10.802" transform="translate(1.458 0.936)" fill="#fff" stroke="#060606" stroke-linecap="round" stroke-linejoin="round" stroke-width="1.217"/>
            <rect id="Rectangle_38545" data-name="Rectangle 38545" width="19.985" height="3.782" transform="translate(0)" fill="#009bc7"/>
          </g>
        </g>
      </g>
      <g id="Group_989" data-name="Group 989" transform="translate(101.843 146.835)">
        <g id="Group_985" data-name="Group 985" transform="translate(0)">
          <g id="Group_983" data-name="Group 983">
            <path id="Path_357439" data-name="Path 357439" d="M178.657,347.482l-9.919-38.508,43.629-10.248,11.655,47.518-36.3,8.72Z" transform="translate(-168.738 -298.725)" fill="#aaaae0"/>
            <rect id="Rectangle_38546" data-name="Rectangle 38546" width="44.817" height="2.487" transform="translate(0 10.248) rotate(-13.218)" fill="#060606"/>
            <path id="Path_357440" data-name="Path 357440" d="M225.556,301.6l-3.714.872a4.973,4.973,0,0,0-3.7,5.978h0l13.4-3.146h0A4.973,4.973,0,0,0,225.556,301.6Z" transform="translate(-202.609 -300.002)" fill="#060606"/>
          </g>
          <g id="Group_984" data-name="Group 984" transform="translate(3.983 35.953)">
            <path id="Path_357441" data-name="Path 357441" d="M233.246,370.339l-13.921-4.29a2.793,2.793,0,0,0-3.509,1.9h0a2.794,2.794,0,0,0,1.306,3.194l4.891,2.779-8.578,1.007-.9-3.2s-7.763,3.655-2.013,9.128c0,0-.1,3.112,1.846,4.792a5.471,5.471,0,0,0,2.747,4.233s2.755,5.218,7.153,3.572,16.212-7.362,16.212-7.362Z" transform="translate(-208.403 -365.924)" fill="#f4b79b"/>
            <path id="Path_357442" data-name="Path 357442" d="M247.607,393.839a7.728,7.728,0,0,0,6.983.759" transform="translate(-245.486 -378.904)" fill="none" stroke="#e59b7f" stroke-linecap="round" stroke-linejoin="round" stroke-width="1.511"/>
            <path id="Path_357443" data-name="Path 357443" d="M246.252,402.8a8.18,8.18,0,0,0,5.862.044" transform="translate(-242.285 -383.068)" fill="none" stroke="#e59b7f" stroke-linecap="round" stroke-linejoin="round" stroke-width="1.511"/>
            <path id="Path_357444" data-name="Path 357444" d="M244.524,410.374s1.518.78,4.039-.384" transform="translate(-237.81 -386.413)" fill="none" stroke="#e59b7f" stroke-linecap="round" stroke-linejoin="round" stroke-width="1.511"/>
            <path id="Path_357445" data-name="Path 357445" d="M190.3,387.936l12.485-4.421L195.6,369.885l-10.537,2.3Z" transform="translate(-160.225 -367.766)" fill="#f4b79b"/>
          </g>
        </g>
        <g id="Group_988" data-name="Group 988" transform="translate(30.972 15.959)">
          <g id="Group_986" data-name="Group 986">
            <path id="Path_357446" data-name="Path 357446" d="M71.811,351.553l56.639-22.507a15.654,15.654,0,0,1,19.206,12.008h0a15.654,15.654,0,0,1-13.149,18.659l-57.02,9.552Z" transform="translate(-71.811 -328.554)" fill="#fff"/>
          </g>
          <g id="Group_987" data-name="Group 987" transform="translate(5.677 2.26)">
            <line id="Line_44" data-name="Line 44" x2="5.092" y2="19.906" transform="translate(3.496 17.267)" fill="none" stroke="#d7eef4" stroke-miterlimit="10" stroke-width="1.389"/>
            <line id="Line_45" data-name="Line 45" y1="5.255" x2="13.883" transform="translate(32.409)" fill="none" stroke="#d7eef4" stroke-miterlimit="10" stroke-width="1.389"/>
            <line id="Line_46" data-name="Line 46" x1="25.06" y2="3.729" transform="translate(0 34.722)" fill="none" stroke="#d7eef4" stroke-miterlimit="10" stroke-width="1.389"/>
          </g>
        </g>
      </g>
    </g>
  </g>
</svg>
