<svg xmlns="http://www.w3.org/2000/svg" xmlns:xlink="http://www.w3.org/1999/xlink" viewBox="0 0 364.21 360.603">
  <defs>
    <radialGradient id="radial-gradient" cx="0.5" cy="0.5" r="0.377" gradientTransform="translate(-0.853) scale(2.706 1)" gradientUnits="objectBoundingBox">
      <stop offset="0" stop-color="#ef4136"/>
      <stop offset="1" stop-color="#be1e2d"/>
    </radialGradient>
    <radialGradient id="radial-gradient-2" cx="0.5" cy="0.5" r="0.379" gradientTransform="translate(-0.787) scale(2.575 1)" xlink:href="#radial-gradient"/>
    <radialGradient id="radial-gradient-3" cx="0.5" cy="0.5" r="0.922" gradientTransform="translate(0.292) scale(0.415 1)" xlink:href="#radial-gradient"/>
    <linearGradient id="linear-gradient" x1="0.031" y1="-0.194" x2="1.035" y2="1.468" gradientUnits="objectBoundingBox">
      <stop offset="0" stop-color="#aedbd5"/>
      <stop offset="0.576" stop-color="#f2bb7b"/>
      <stop offset="1" stop-color="#f3811f"/>
    </linearGradient>
    <radialGradient id="radial-gradient-4" cx="0.5" cy="0.5" r="0.385" gradientTransform="translate(-0.658) scale(2.316 1)" xlink:href="#radial-gradient"/>
    <radialGradient id="radial-gradient-5" cx="0.5" cy="0.5" r="0.423" gradientTransform="translate(-0.262) scale(1.523 1)" xlink:href="#radial-gradient"/>
  </defs>
  <g id="no_template_available" data-name="no template available" transform="translate(83.18 84.171)">
    <path id="Path_27" data-name="Path 27" d="M453.263,388.16a97.224,97.224,0,0,1,7.344,18.04,116.117,116.117,0,0,1,3.38,18.98l-3.452.38a113.02,113.02,0,0,0-3.271-18.423,94.015,94.015,0,0,0-7.1-17.414Z" transform="translate(-369.257 -271.442)" fill-rule="evenodd" fill="url(#radial-gradient)"/>
    <path id="Path_28" data-name="Path 28" d="M353.161,387.683c-2.364,5.516-4.9,11.575-6.929,17.673a77.261,77.261,0,0,0-4.026,18.1l-3.466-.259a80.715,80.715,0,0,1,4.2-18.926c2.1-6.3,4.65-12.4,7.024-17.945Z" transform="translate(-304.449 -270.374)" fill-rule="evenodd" fill="url(#radial-gradient-2)"/>
    <path id="Path_29" data-name="Path 29" d="M473.754,470.342c6.246,0,11.309,3.384,11.309,7.558a5.125,5.125,0,0,1-.066.815H462.511a5.175,5.175,0,0,1-.066-.815C462.445,473.726,467.508,470.342,473.754,470.342Z" transform="translate(-376.4 -319.242)" fill="#be671d" fill-rule="evenodd"/>
    <path id="Path_30" data-name="Path 30" d="M476.551,470.342c5.972,0,10.863,3.094,11.28,7.014H467.32a5.125,5.125,0,0,1-.066-.815,6.137,6.137,0,0,1,2.329-4.594A15.148,15.148,0,0,1,476.551,470.342Z" transform="translate(-379.197 -319.242)" fill="#f3811f" fill-rule="evenodd"/>
    <path id="Path_31" data-name="Path 31" d="M502.6,266.89c.031.033,10.8,11.331,17.467,13.586,6,2.032,18.918-11.691,18.955-11.731l2.515,2.392c-.042.044-14.45,15.381-22.585,12.628-7.473-2.529-18.82-14.435-18.853-14.469Z" transform="translate(-398.299 -200.907)" fill-rule="evenodd" fill="url(#radial-gradient-3)"/>
    <path id="Path_32" data-name="Path 32" d="M322.482,109.175c1.693,26.49-21.63,38.89-31.318,62.418a49.14,49.14,0,0,0,15.684,58.036c19.845,15.152,50.417,15.515,67.395-6.71C405.548,181.939,361.672,126.363,322.482,109.175Z" transform="translate(-274.563 -109.175)" fill-rule="evenodd" fill="url(#linear-gradient)"/>
    <path id="Path_33" data-name="Path 33" d="M381.651,202.619a6.382,6.382,0,0,1-4.2,4.563,8.613,8.613,0,0,1-3.692.4,8.924,8.924,0,0,1-3.46-1.08,5.169,5.169,0,0,1-2.871-4.19.434.434,0,1,1,.866-.038,4.041,4.041,0,0,0,.722,2,5.4,5.4,0,0,0,1.711,1.477,8.052,8.052,0,0,0,3.121.971,7.742,7.742,0,0,0,3.318-.354,5.543,5.543,0,0,0,3.651-3.964.436.436,0,0,1,.839.221Z" transform="translate(-321.131 -163.066)" fill="#2b1505" fill-rule="evenodd"/>
    <path id="Path_34" data-name="Path 34" d="M273.655,266.791c-.787.17-6.38,3.765-10.2,8.93-2.035,2.749-3.473,5.9-3.164,9.1.918,9.486,14.877,18.31,14.917,18.336l-1.876,2.922c-.044-.028-15.409-9.733-16.493-20.932-.405-4.184,1.343-8.131,3.83-11.489,4.33-5.847,11.236-10.042,12.256-10.263Z" transform="translate(-256.775 -198.873)" fill-rule="evenodd" fill="url(#radial-gradient-4)"/>
    <path id="Path_35" data-name="Path 35" d="M287.945,348.569a20.538,20.538,0,0,1,7.378,3.509c3.582,2.805,2.96,4.116,2.309,4.714s-.3,2.508-1.235,3.118-1.473.572-2.263,1.424a7.228,7.228,0,0,1-2.988,1.818c-.464,0-.451,1.935-2.751,1.041a9.174,9.174,0,0,1-4.339-3.29,2.745,2.745,0,0,1-.206-2.776,8.983,8.983,0,0,1-1.417-2.6c-.471-1.449-.935-1.992.965-3.221A41.072,41.072,0,0,0,287.945,348.569Z" transform="translate(-271.456 -248.415)" fill="#f3811f" fill-rule="evenodd"/>
    <path id="Path_36" data-name="Path 36" d="M589.986,255.6c-.272.326-.87,4.349.979,6.361s5.818,3.48,9.787,2.555,6.47-3.48,9.786-5.709,6.09-3.317,3.48-4.132-11.8,3.48-15.333,3.317-6.851-2.61-7.775-2.5Z" transform="translate(-450.4 -193.744)" fill="#f3811f" fill-rule="evenodd"/>
    <path id="Path_37" data-name="Path 37" d="M614.88,254.583c-3.164-.211-11.464,3.564-14.781,3.411-3.215-.148-6.25-2.187-7.468-2.471a2.539,2.539,0,0,0-.2,2.763C594.841,262.97,612.431,260.007,614.88,254.583Z" transform="translate(-451.814 -193.744)" fill="#be671d" fill-rule="evenodd"/>
    <path id="Path_38" data-name="Path 38" d="M587.623,266.773l5.474,4.418a1.171,1.171,0,0,1,.266,1.592l-.884,1.24a1.123,1.123,0,0,1-1.592.267l-5.474-4.418a1.172,1.172,0,0,1-.267-1.593l.884-1.24A1.123,1.123,0,0,1,587.623,266.773Z" transform="translate(-447.648 -200.709)" fill="#f3811f" fill-rule="evenodd"/>
    <path id="Path_39" data-name="Path 39" d="M585.4,182.18c6.267.1,12.635-2.694,17.007-10.02,5.581-9.352,2.239-18.268-4.362-27.4A99.8,99.8,0,0,1,585.4,121.774a99.8,99.8,0,0,1-12.644,22.983c-6.6,9.134-9.943,18.051-4.362,27.4C572.769,179.486,579.137,182.277,585.4,182.18Z" transform="translate(-436.383 -116.503)" fill-rule="evenodd" fill="url(#radial-gradient-5)"/>
    <path id="Path_40" data-name="Path 40" d="M414.382,218.207c.005.09.008.181.008.272,0,2.252-1.534,4.078-3.426,4.078s-3.425-1.826-3.425-4.078c0-.091,0-.182.008-.272Z" transform="translate(-344.465 -172.592)" fill="#2b1505" fill-rule="evenodd"/>
    <path id="Path_41" data-name="Path 41" d="M284.808,345.551c-.208.382-6.064,4.324-5.658,5.114s1.671,2.816,2.9,2.524,6.03-3.649,5.856-5.546S284.808,345.551,284.808,345.551Z" transform="translate(-269.777 -246.659)" fill="#f3811f" fill-rule="evenodd"/>
    <path id="Path_42" data-name="Path 42" d="M357.4,266.172h5.437v4.757H367.6v5.437h-4.758v4.758H357.4v-4.758h-4.757V270.93H357.4Z" transform="translate(-312.537 -200.49)" fill="#fff" fill-rule="evenodd"/>
    <path id="Path_43" data-name="Path 43" d="M441.612,202.633a6.382,6.382,0,0,1-4.2,4.563,8.613,8.613,0,0,1-3.692.4,8.924,8.924,0,0,1-3.46-1.08,5.169,5.169,0,0,1-2.871-4.19.434.434,0,1,1,.866-.038,4.041,4.041,0,0,0,.722,2,5.4,5.4,0,0,0,1.711,1.477,8.052,8.052,0,0,0,3.121.971,7.745,7.745,0,0,0,3.318-.354,5.542,5.542,0,0,0,3.65-3.964.436.436,0,1,1,.839.221Z" transform="translate(-356.006 -163.08)" fill="#2b1505" fill-rule="evenodd"/>
    <path id="Path_44" data-name="Path 44" d="M633.42,196.431c5.36,10.46-2.519,27.085-8.826,24.187-3.238-1.488-4.9-5.535-.388-8.123C632.156,207.931,633.39,196.372,633.42,196.431Z" transform="translate(-468.879 -159.926)" fill="#f15a29" fill-rule="evenodd" opacity="0.47" style="mix-blend-mode: screen;isolation: isolate"/>
    <path id="Path_45" data-name="Path 45" d="M570.189,195.492c-.3,14.46,16.793,11.641,16.167,3.031-.264-3.639-7.4-5.789-5.909-11.2.551-2,.841-4.3-1.395-5C574.48,180.893,570.3,190.191,570.189,195.492Z" transform="translate(-439.065 -151.634)" fill="#f15a29" fill-rule="evenodd" opacity="0.47" style="mix-blend-mode: screen;isolation: isolate"/>
    <path id="Path_46" data-name="Path 46" d="M422.277,147.143C437.8,162.3,443.248,166.6,457.6,194.7,447.288,165.19,431.575,153.472,422.277,147.143Z" transform="translate(-353.037 -131.258)" fill="#f15a29" fill-rule="evenodd" opacity="0.47" style="mix-blend-mode: screen;isolation: isolate"/>
    <path id="Path_47" data-name="Path 47" d="M417.7,333.423c-8.718-15.331,32.321-14,35.625-49.96C470.856,308.89,426.671,349.193,417.7,333.423Z" transform="translate(-349.671 -210.547)" fill="#f15a29" fill-rule="evenodd" opacity="0.47" style="mix-blend-mode: screen;isolation: isolate"/>
    <path id="Path_48" data-name="Path 48" d="M280.346,356.758a7.915,7.915,0,0,0,.409,1.382,8.982,8.982,0,0,0,1.417,2.6c-.191,2.7,4.859,4.955,5.626,4.306.707-.6-2.012-1.74-3.1-2.99a9.261,9.261,0,0,1-2.65-4.5,3.531,3.531,0,0,1,.36-2.171,7.3,7.3,0,0,1,.955-1.453c.285-.346.546-.619.7-.794.217-.244-.263.108-.919.62-.435.34-.948.75-1.386,1.1l-.217.175c-.454.367-.784.638-.784.638l-1.345-1.269c-.225.276-.331.495-.264.627A8.087,8.087,0,0,0,280.346,356.758Z" transform="translate(-269.777 -251.025)" fill="#be671d" fill-rule="evenodd"/>
    <path id="Path_49" data-name="Path 49" d="M315.775,468.261c-6.246,0-11.309,3.384-11.309,7.557a5.13,5.13,0,0,0,.066.816h22.486a5.13,5.13,0,0,0,.066-.816C327.084,471.645,322.021,468.261,315.775,468.261Z" transform="translate(-284.514 -318.031)" fill="#be671d" fill-rule="evenodd"/>
    <path id="Path_50" data-name="Path 50" d="M315.816,468.261c-5.972,0-10.863,3.094-11.28,7.014h20.511a5.131,5.131,0,0,0,.066-.816,6.137,6.137,0,0,0-2.329-4.593A15.149,15.149,0,0,0,315.816,468.261Z" transform="translate(-284.555 -318.031)" fill="#f3811f" fill-rule="evenodd"/>
  </g>
</svg>
