<svg xmlns="http://www.w3.org/2000/svg" xmlns:xlink="http://www.w3.org/1999/xlink" width="109.384" height="315.386" viewBox="0 0 109.384 315.386">
  <defs>
    <linearGradient id="linear-gradient" x1="0.676" y1="-0.338" x2="0.329" y2="0.776" gradientUnits="objectBoundingBox">
      <stop offset="0.192" stop-color="#f2f2f2"/>
      <stop offset="0.991" stop-color="#fff"/>
    </linearGradient>
    <linearGradient id="linear-gradient-2" x1="1.257" y1="-0.259" x2="-0.999" y2="2.156" xlink:href="#linear-gradient"/>
    <linearGradient id="linear-gradient-4" x1="1.328" y1="-0.282" x2="-1.219" y2="2.216" xlink:href="#linear-gradient"/>
  </defs>
  <g id="thumbs_up_graphic" data-name="thumbs up graphic" transform="translate(-363.036 -117.808)">
    <rect id="Rectangle_38556" data-name="Rectangle 38556" width="26.235" height="54.578" transform="translate(413.595 273.26)" fill="#ccc"/>
    <path id="Path_357460" data-name="Path 357460" d="M439.83,273.26v15.868c-7.5,3.664-18.636,6.531-26.235,8.223V273.26Z" fill="#b9babc"/>
    <g id="Group_1016" data-name="Group 1016">
      <path id="Path_357461" data-name="Path 357461" d="M406.47,161.309l1.7,10.856,2.262-9.612Z" fill="#b66d4d"/>
      <path id="Path_357462" data-name="Path 357462" d="M446.953,161.309l-1.7,10.856L443,162.553Z" fill="#b66d4d"/>
    </g>
    <path id="Path_357463" data-name="Path 357463" d="M448.25,128.513c-1.838-6.182-11.6-10.705-18.95-10.705h-5.177c-7.354,0-17.112,4.523-18.951,10.705s.566,24.124.566,24.124l2.121,5.73,18.852-1.774,18.852,1.774,2.122-5.73S450.089,134.7,448.25,128.513Z" fill="#b66d4d"/>
    <path id="Path_357464" data-name="Path 357464" d="M366.035,210.047s1.3-2.187,5.71-2.977c6.729-1.207,10.065.32,10.065.32l-3.732,3.411-9.65-.264Z" fill="#abadaf"/>
    <path id="Path_357465" data-name="Path 357465" d="M406.8,203.828s-.688,2.6-1.846,6.522c-1.067,3.61-2.524,8.35-4.224,13.181-3.89,11.164-8.993,22.861-13.154,22.59-5.247-.335-12.385-18.03-16.592-29.908-.153-.435-.307-.86-.443-1.276-.335-.959-.651-1.864-.932-2.705-.416-1.221-.778-2.325-1.085-3.257q-.3-.9-.516-1.574c-.362-1.14-.561-1.791-.561-1.791L378.91,203.6c.109.877.326,2.279.6,3.808.217,1.285.48,2.651.742,3.854.226,1.068.452,2.008.642,2.642.018.063.037.135.055.2a70.429,70.429,0,0,0,5.952,13.669l1.529-6.559,2.633-11.326,1.972-8.477a6.687,6.687,0,0,1,5.41-5.3l7-.95Z" fill="#ffc387"/>
    <path id="Path_357466" data-name="Path 357466" d="M380.249,211.264c-2.714,1.855-5.717,3.646-5.717,3.646l-3.99.027c-.335-.959-.651-1.864-.932-2.705-.416-1.221-.778-2.325-1.085-3.257q-.3-.9-.516-1.574c3.067.073,7.744.154,11.5.009C379.724,208.7,379.987,210.061,380.249,211.264Z" fill="#ca916b"/>
    <path id="Path_357467" data-name="Path 357467" d="M407.027,197.872l-4.283-3.317s-8,1.508-8.91,3.769L385.2,222.147s-3.279-12.948-3.392-14.757c0,0-10.574,3.223-15.775,2.657,0,0,12.269,36.3,20.637,37.883,7.011,1.326,13.542-18.61,15.478-25.116.235.023.467.041.693.049C409.176,223.089,407.027,197.872,407.027,197.872Z" fill="#e9e9ea"/>
    <g id="Group_1025" data-name="Group 1025">
      <g id="Group_1020" data-name="Group 1020">
        <path id="Path_357468" data-name="Path 357468" d="M408.538,413.181l-18.333,10.847-5.5,1.986-1.375,3.514h39.722v-7.181l-2.139-7.18Z" fill="#3f1908"/>
        <rect id="Rectangle_38557" data-name="Rectangle 38557" width="40.333" height="3.743" transform="translate(383.025 429.451)" fill="#ad7a5a"/>
        <g id="Group_1017" data-name="Group 1017">
          <path id="Path_357469" data-name="Path 357469" d="M397.509,423.226a.917.917,0,0,1-.686-.309l-1.574-1.776a.916.916,0,1,1,1.371-1.216L398.2,421.7a.917.917,0,0,1-.686,1.525Z" fill="#ad7a5a"/>
        </g>
        <g id="Group_1018" data-name="Group 1018">
          <path id="Path_357470" data-name="Path 357470" d="M400.488,421.507a.913.913,0,0,1-.686-.309l-1.574-1.776a.916.916,0,1,1,1.371-1.216l1.575,1.776a.917.917,0,0,1-.686,1.525Z" fill="#ad7a5a"/>
        </g>
        <g id="Group_1019" data-name="Group 1019">
          <path id="Path_357471" data-name="Path 357471" d="M403.7,419.845a.914.914,0,0,1-.685-.308l-1.575-1.776a.917.917,0,0,1,1.372-1.217l1.574,1.776a.917.917,0,0,1-.686,1.525Z" fill="#ad7a5a"/>
        </g>
      </g>
      <g id="Group_1024" data-name="Group 1024">
        <path id="Path_357472" data-name="Path 357472" d="M444.886,413.181l18.333,10.847,5.5,1.986,1.375,3.514H430.373v-7.181l2.139-7.18Z" fill="#3f1908"/>
        <rect id="Rectangle_38558" data-name="Rectangle 38558" width="40.333" height="3.743" transform="translate(470.4 433.194) rotate(180)" fill="#ad7a5a"/>
        <g id="Group_1021" data-name="Group 1021">
          <path id="Path_357473" data-name="Path 357473" d="M455.916,423.226a.913.913,0,0,0,.685-.309l1.575-1.776a.916.916,0,1,0-1.371-1.216L455.23,421.7a.917.917,0,0,0,.686,1.525Z" fill="#ad7a5a"/>
        </g>
        <g id="Group_1022" data-name="Group 1022">
          <path id="Path_357474" data-name="Path 357474" d="M452.937,421.507a.911.911,0,0,0,.685-.309l1.575-1.776a.917.917,0,1,0-1.372-1.216l-1.574,1.776a.917.917,0,0,0,.686,1.525Z" fill="#ad7a5a"/>
        </g>
        <g id="Group_1023" data-name="Group 1023">
          <path id="Path_357475" data-name="Path 357475" d="M449.728,419.845a.914.914,0,0,0,.686-.308l1.575-1.776a.917.917,0,0,0-1.372-1.217l-1.574,1.776a.916.916,0,0,0,.685,1.525Z" fill="#ad7a5a"/>
        </g>
      </g>
    </g>
    <path id="Path_357476" data-name="Path 357476" d="M450.4,262.4c-.009,2.3-.054,5.437-.262,8.305a27.475,27.475,0,0,1-.968,6.17l-.018,1.465-.706,53.339-1.085,82.1a109.653,109.653,0,0,1-11.282,6.377h-5.428l1.837-86.367,1-46.961H419.936l1.032,48.209,1.809,85.119h-5.428a109.713,109.713,0,0,1-11.281-6.377L405.046,336.5l-.7-52.9-.09-6.721a13.311,13.311,0,0,1-.48-1.945,85.275,85.275,0,0,1-.751-12.53c0-1.972.027-3.32.027-3.32h47.314S450.4,260.432,450.4,262.4Z" fill="#315670"/>
    <path id="Path_357477" data-name="Path 357477" d="M450.4,262.4c-.009,2.3-.054,5.437-.262,8.305a27.475,27.475,0,0,1-.968,6.17l-.018,1.465-.706,53.339c-5.03.769-10.5,1.475-15.958,2.108l1-46.961H419.936l1.032,48.209c-6.061.606-11.616,1.1-15.922,1.457l-.7-52.9-.09-6.721a13.311,13.311,0,0,1-.48-1.945,85.275,85.275,0,0,1-.751-12.53c0-1.972.027-3.32.027-3.32h47.314S450.4,260.432,450.4,262.4Z" fill="#153246"/>
    <path id="Path_357478" data-name="Path 357478" d="M452.057,215.511a76.2,76.2,0,0,0,1.227-20.973s-10.735-4.557-20.2-5.109H420.339c-9.464.552-20.2,5.109-20.2,5.109a76.274,76.274,0,0,0,1.227,20.973c.339,5.183.836,13.917.7,18.8-.2,7.25-.994,31.411-.994,31.411s12.8,1.127,22.258,1.234v.009h6.757v-.009c9.459-.107,22.258-1.234,22.258-1.234s-.8-24.161-.994-31.411C451.221,229.428,451.718,220.7,452.057,215.511Z" fill="#477699"/>
    <path id="Path_357479" data-name="Path 357479" d="M432.629,265.145l-2.334,5.473-3.582,8.07-3.582-8.07-2.334-5.473,3.519-61.634.154-2.714.326-1.04h3.836l.326,1.04.118,2.026Z" fill="#3f1908"/>
    <path id="Path_357480" data-name="Path 357480" d="M429.074,202.824a18.508,18.508,0,0,1-4.759.687l.154-2.714.326-1.04h3.835l.326,1.04Z" fill="#280600"/>
    <path id="Path_357481" data-name="Path 357481" d="M427.6,193.85c0,.094-.464.02-.763-.037v-.049l-.123.025-.122-.025v.049c-.3.057-.764.131-.764.037l-3.421,5.37,1.942,2.685h4.73l1.942-2.685Z" fill="#3f1908"/>
    <path id="Path_357482" data-name="Path 357482" d="M431.616,178.57v14.167a6.9,6.9,0,0,1-.1,1.058h-9.589a5.783,5.783,0,0,1-.118-1.122v-14.1Z" fill="#ffc387"/>
    <path id="Path_357483" data-name="Path 357483" d="M431.616,179.248V188.1a52.792,52.792,0,0,1-9.807,1.963v-9.8Z" fill="#ca916b"/>
    <path id="Path_357484" data-name="Path 357484" d="M431.616,178.57v5.364a41.067,41.067,0,0,1-9.807,1.683V178.57Z" fill="#ca916b"/>
    <g id="Group_1026" data-name="Group 1026">
      <path id="Path_357485" data-name="Path 357485" d="M410.429,155.655l-.019,1.492-.045,3.809-.045,3.745c-8.368-2.035-11.987-13.8-6.676-15.831S410.429,155.655,410.429,155.655Z" fill="#ffc387"/>
      <path id="Path_357486" data-name="Path 357486" d="M442.991,155.655s1.47-8.821,6.785-6.785,1.7,13.8-6.671,15.831Z" fill="#ffc387"/>
      <path id="Path_357487" data-name="Path 357487" d="M442.991,157.147l.046,3.809c1.266.018,2.84-2.044,3-3.04.244-1.492.009-1.447,1.466-1.583,1.13-.1,1.483-.588,1.248-1.818C448.22,151.729,444.746,154.425,442.991,157.147Z" fill="#ca916b"/>
    </g>
    <path id="Path_357488" data-name="Path 357488" d="M444.838,173.748c-1.586-6.785-.366-31.512-.366-31.512l.366-6.936H408.584l.366,6.936s1.221,24.727-.366,31.512,14.643,7.991,14.643,7.991H430.2S446.424,180.533,444.838,173.748Z" fill="#ffc387"/>
    <path id="Path_357489" data-name="Path 357489" d="M413.623,145.056c.511.192,1.017-.206,1.438-.445a5.479,5.479,0,0,1,3.811-.422c.594.13,1.69.784,2.265.7.659-.09,1.1-1.586,1.008-2.174a4.826,4.826,0,0,0-2.749-1.061,8.558,8.558,0,0,0-3.389-.108,7.692,7.692,0,0,0-2.683,1.067,1.246,1.246,0,0,0-.464,1.3A1.456,1.456,0,0,0,413.623,145.056Z" fill="#b66d4d"/>
    <g id="Group_1027" data-name="Group 1027">
      <path id="Path_357490" data-name="Path 357490" d="M419.533,152.347c0,2.16-.909,3.911-2.031,3.911s-2.032-1.751-2.032-3.911.91-3.911,2.032-3.911S419.533,150.187,419.533,152.347Z" fill="#280600"/>
      <ellipse id="Ellipse_148" data-name="Ellipse 148" cx="0.528" cy="0.946" rx="0.528" ry="0.946" transform="translate(416.205 149.636)" fill="#fff"/>
    </g>
    <path id="Path_357491" data-name="Path 357491" d="M439.277,144.456c-.5.224-1.028-.141-1.463-.354a5.479,5.479,0,0,0-3.83-.18c-.584.167-1.637.889-2.216.846-.663-.049-1.2-1.514-1.143-2.106a4.826,4.826,0,0,1,2.676-1.233,8.583,8.583,0,0,1,3.376-.322,7.679,7.679,0,0,1,2.745.9,1.244,1.244,0,0,1,.545,1.273A1.451,1.451,0,0,1,439.277,144.456Z" fill="#b66d4d"/>
    <g id="Group_1028" data-name="Group 1028">
      <path id="Path_357492" data-name="Path 357492" d="M437.325,152.347c0,2.16-.91,3.911-2.032,3.911s-2.031-1.751-2.031-3.911.909-3.911,2.031-3.911S437.325,150.187,437.325,152.347Z" fill="#280600"/>
      <ellipse id="Ellipse_149" data-name="Ellipse 149" cx="0.528" cy="0.946" rx="0.528" ry="0.946" transform="translate(433.997 149.636)" fill="#fff"/>
    </g>
    <path id="Path_357493" data-name="Path 357493" d="M430.473,160.178c0,.916-1.722,1.659-3.845,1.659s-3.845-.743-3.845-1.659,1.721-1.658,3.845-1.658S430.473,159.262,430.473,160.178Z" fill="#f9ab7b"/>
    <path id="Path_357494" data-name="Path 357494" d="M410.41,157.147l-.045,3.809c-1.266.018-2.84-2.044-3-3.04-.244-1.492-.009-1.447-1.466-1.583-1.131-.1-1.484-.588-1.248-1.818C405.181,151.729,408.655,154.425,410.41,157.147Z" fill="#ca916b"/>
    <path id="Path_357495" data-name="Path 357495" d="M435.848,189.721l-4.127-1.385-5.009,5.362-5.008-5.362-4.128,1.385,4.152,10.6c.94-2.37,4.616-5.76,4.984-6.445.369.685,4.14,4.188,5.08,6.558Z" fill="#609dcb"/>
    <path id="Path_357496" data-name="Path 357496" d="M426.711,130.324c-8.813,0-19.817,1.018-19.817,1.018l.791,16.623,1.578,4.3h1.155l-.444-16.714c2.979,1.234,9.343,2.089,16.737,2.089s13.758-.855,16.737-2.089l-.443,16.714h1.155l1.577-4.3.792-16.623S435.525,130.324,426.711,130.324Z" fill="#b66d4d"/>
    <path id="Path_357497" data-name="Path 357497" d="M446.026,171.147c-.436-2.691-1.168-6.529-1.592-9.352l.71-12.774-1.282-.227-.171,1.3-.017.023-.747,2.148s-3.1,6.559-2.674,13.231c.036.56.035,1.125.017,1.691a20.9,20.9,0,0,0-13.422-4.621v-.01c-.047,0-.09.005-.137.005s-.089-.005-.136-.005v.01a20.9,20.9,0,0,0-13.423,4.621c-.017-.566-.018-1.131.018-1.691.427-6.672-2.675-13.231-2.675-13.231l-.747-2.148-.017-.023-.17-1.3-1.282.227.709,12.774c-.424,2.823-1.156,6.661-1.592,9.352-.641,3.958-.534,5.428,3.849,9.273,3.833,3.362,12.979,8.337,15.216,8.368v0h.5v0c2.237-.031,11.384-5.006,15.216-8.368C446.561,176.575,446.668,175.1,446.026,171.147ZM431.7,180.194l-2.566-3.129h-4.845l-2.566,3.129c-3.749-.382-6.519-3.9-7.8-8.2a24.153,24.153,0,0,1,7.963-5.588,11.364,11.364,0,0,1,9.648,0A24.132,24.132,0,0,1,439.5,172C438.218,176.292,435.448,179.812,431.7,180.194Z" fill="#b66d4d"/>
    <g id="Group_1029" data-name="Group 1029">
      <path id="Path_357498" data-name="Path 357498" d="M417.023,219.732V330.706H396.9s-.226-56.7,3.845-71.169c0,0-3.013-58.948-1.357-64.231,0,0,2.071-.977,4.93-2.153.507-.208,1.04-.425,1.583-.633a61.267,61.267,0,0,1,9.083-2.941Z" fill="#fff"/>
      <path id="Path_357499" data-name="Path 357499" d="M456.521,330.706H436.4V219.732l2.036-30.153a61.257,61.257,0,0,1,9.082,2.941c.543.208,1.077.425,1.584.633,2.858,1.176,4.93,2.153,4.93,2.153,1.656,5.283-1.357,64.231-1.357,64.231C456.747,274.011,456.521,330.706,456.521,330.706Z" fill="#fff"/>
    </g>
    <g id="Group_1032" data-name="Group 1032">
      <g id="Group_1030" data-name="Group 1030">
        <path id="Path_357500" data-name="Path 357500" d="M417.023,251.784v4.767l-10.53-27.628a.911.911,0,0,1,.018-.688l6.6-14.818-8.793-20.264c.507-.208,1.04-.425,1.583-.633l8.9,20.535a.933.933,0,0,1,0,.733l-6.613,14.845Z" fill="#d9d9db"/>
      </g>
      <g id="Group_1031" data-name="Group 1031">
        <path id="Path_357501" data-name="Path 357501" d="M446.913,228.235a.9.9,0,0,1,.018.688L436.4,256.551v-4.767l8.83-23.151-6.613-14.845a.933.933,0,0,1,0-.733l8.9-20.535c.543.208,1.077.425,1.584.633l-8.794,20.264Z" fill="#d9d9db"/>
      </g>
    </g>
    <g id="Group_1037" data-name="Group 1037">
      <line id="Line_47" data-name="Line 47" x1="14.275" transform="translate(398.707 270.516)" fill="none" stroke="#d9d9db" stroke-linecap="round" stroke-miterlimit="10" stroke-width="1"/>
      <g id="Group_1033" data-name="Group 1033">
        <path id="Path_357502" data-name="Path 357502" d="M391.065,293.515a1.211,1.211,0,0,0,.622-2.339l-2.986-.919c1.934-7.049,5.813-17.149,9.487-18.824a1.83,1.83,0,0,1,1.69,0c3.342,1.671,2.413,13.07.623,21.233l-3.315-.358a1.211,1.211,0,0,0-.26,2.408l5.449.588.247-1.04c.853-3.609,4.783-21.774-1.66-25a4.255,4.255,0,0,0-3.778-.04c-6.156,2.807-10.635,19.634-11.125,21.543l-.288,1.119,5.2,1.6C391.005,293.5,391.034,293.508,391.065,293.515Z" fill="#280600"/>
      </g>
      <g id="Group_1034" data-name="Group 1034">
        <path id="Path_357503" data-name="Path 357503" d="M398.745,269.388c.02-.044.042-.1.068-.158.537-1.255,2.171-5.072,6.425-5.173h.108c3.113,0,4.652,3.26,5.4,6.056H408.21c-.6-1.927-1.551-3.634-2.878-3.634H405.3c-2.391.057-3.53,2.01-4.256,3.7-.194.455-.489,1.141-1.323,1.141a1.212,1.212,0,0,1-.972-1.935Z" fill="#280600"/>
      </g>
      <g id="Group_1035" data-name="Group 1035">
        <path id="Path_357504" data-name="Path 357504" d="M402.023,256.142a1.213,1.213,0,0,1,1.623.544,35.589,35.589,0,0,1,3.231,13.426h-2.431a34.022,34.022,0,0,0-2.969-12.348A1.212,1.212,0,0,1,402.023,256.142Z" fill="#280600"/>
      </g>
      <g id="Group_1036" data-name="Group 1036">
        <path id="Path_357505" data-name="Path 357505" d="M399.415,256.185a4.486,4.486,0,1,0,5.343-3.294A4.439,4.439,0,0,0,399.415,256.185Z" fill="#bad0d8"/>
      </g>
      <path id="Path_357506" data-name="Path 357506" d="M401.779,257.174a2.011,2.011,0,1,0,2.011-1.969A1.99,1.99,0,0,0,401.779,257.174Z" fill="#5c96c2"/>
    </g>
    <path id="Path_357507" data-name="Path 357507" d="M456.856,266.322l-2.47,3.41-.317.434H442.607a7.668,7.668,0,0,1,2.488-1.954l.018-.036,2.47-3.89Z" fill="#ffc387"/>
    <line id="Line_48" data-name="Line 48" x1="12.288" transform="translate(441.404 270.516)" fill="none" stroke="#d9d9db" stroke-linecap="round" stroke-miterlimit="10" stroke-width="1"/>
    <path id="Path_357508" data-name="Path 357508" d="M456.856,266.322l-2.47,3.41a46.084,46.084,0,0,1-9.273-1.556l2.47-3.89Z" fill="#ca916b"/>
    <path id="Path_357509" data-name="Path 357509" d="M454.223,221.828c4.143,9.366,3.937,12.044,3.992,13.21.115,2.4-9.072,20.257-14.881,29.476,1.736,1.536,7.117,4.072,12.469,4.826.991-1.5,17.439-32.6,16.585-36.337-5.427-23.747-12.615-34.679-12.615-34.679-.521-1.3-3.393-2.352-5.738-3.01C454.724,197.539,454.6,209.108,454.223,221.828Z" fill="#e9e9ea"/>
    <path id="Path_357510" data-name="Path 357510" d="M431.951,168.546a4.822,4.822,0,0,1-1.219,1.518,5.842,5.842,0,0,1-1.807,1.024,6.72,6.72,0,0,1-4.427,0,5.859,5.859,0,0,1-1.808-1.024,4.834,4.834,0,0,1-1.218-1.518" fill="none" stroke="#ad7a5a" stroke-linecap="round" stroke-miterlimit="10" stroke-width="1"/>
    <g id="Group_1041" data-name="Group 1041">
      <path id="Path_357511" data-name="Path 357511" d="M386.356,194.435c-.039,1.69.4,4.1-.106,5.72a7.346,7.346,0,0,1-1.53,2.53,8.553,8.553,0,0,1-.794.787c-1.362,1.182-3.07,1.929-4.568,1.4a2.335,2.335,0,0,1-.4-.169L375,202.664l1.84-11.648c-1.7-.1-3.04-1-3.078-3.619-.038-3.538.746-5.73,1.577-7.014a4.611,4.611,0,0,1,1.762-1.769c-3.747-7.312.168-10.777,2.414-12.072a1.044,1.044,0,0,1,1.56.746l1.324,9.665,1.383,9.535.6.515a5.355,5.355,0,0,1,1.23,2.591A26.943,26.943,0,0,1,386.356,194.435Z" fill="#ffc387"/>
      <path id="Path_357512" data-name="Path 357512" d="M384.071,197.585a17.132,17.132,0,0,1-.145,5.887c-1.362,1.182-3.07,1.929-4.568,1.4a2.335,2.335,0,0,1-.4-.169L375,202.664l1.84-11.648c-1.7-.1-3.04-1-3.078-3.619-.038-3.538.746-5.73,1.577-7.014,1.883.328,4.951.989,5.891,1.9,1.383,1.339,2.6,4.231,2.334,7.836A31.847,31.847,0,0,0,384.071,197.585Z" fill="#ad7a5a"/>
      <path id="Path_357513" data-name="Path 357513" d="M379.775,183.242l-6.076-1.331-5.739.635a5.228,5.228,0,0,0-4.579,4.319l-.241,1.419-.1,5.717.548,6.294.673,1.94a5.228,5.228,0,0,0,4.914,3.516l7.723.037,3.711-.232a2,2,0,0,0,1.867-2.1l-1.014-18.236A2.144,2.144,0,0,0,379.775,183.242Z" fill="#ffc387"/>
      <g id="Group_1038" data-name="Group 1038">
        <path id="Path_357514" data-name="Path 357514" d="M382.271,189.954a.536.536,0,0,1-.127-.007c-.507-.042-5.965-.337-9.59-.531a.538.538,0,0,1-.509-.565.546.546,0,0,1,.566-.508l4.83.261c2.591.141,3.923.213,4.608.311a.492.492,0,0,1,.155-.033l0,.057c.569.1.57.229.571.476A.541.541,0,0,1,382.271,189.954Z" fill="#ad7a5a"/>
      </g>
      <g id="Group_1039" data-name="Group 1039">
        <path id="Path_357515" data-name="Path 357515" d="M382.775,195.843a.6.6,0,0,1-.127-.006c-.507-.042-5.965-.338-9.59-.532a.537.537,0,1,1,.056-1.073l4.831.261c2.59.141,3.923.213,4.608.311a.493.493,0,0,1,.155-.033l0,.058c.569.1.57.228.57.475A.54.54,0,0,1,382.775,195.843Z" fill="#ad7a5a"/>
      </g>
      <g id="Group_1040" data-name="Group 1040">
        <path id="Path_357516" data-name="Path 357516" d="M382.717,201.364a.524.524,0,0,1-.126-.007c-.508-.042-5.966-.337-9.591-.531a.537.537,0,1,1,.057-1.073l4.83.261c2.591.141,3.923.213,4.608.311a.5.5,0,0,1,.155-.033l0,.057c.568.1.569.229.57.476A.541.541,0,0,1,382.717,201.364Z" fill="#ad7a5a"/>
      </g>
    </g>
    <g id="Group_1105" data-name="Group 1105" transform="translate(406.801 150.115)">
      <path id="Path_357600" data-name="Path 357600" d="M428.1,152.4s-.284,8.821-6.643,15.287a18.421,18.421,0,0,1-1.35,1.263c-.263.218-.545.436-.828.676a30.539,30.539,0,0,1-8.384,4.225,18.1,18.1,0,0,1-2.721.5c-12.217,1.394-16.84-10.1-19.3-21.951,0,0,6.885-4.659,13.267-4.551C408.539,147.94,419.473,148.224,428.1,152.4Z" transform="translate(-387.961 -141.219)" fill="url(#linear-gradient)"/>
      <path id="Path_357601" data-name="Path 357601" d="M406.794,155.344l5.825-10.624.615.3s-3.369,7.151-4.889,10.907Z" transform="matrix(0.875, -0.485, 0.485, 0.875, -393.278, 72.663)" fill="url(#linear-gradient-2)"/>
      <path id="Path_357606" data-name="Path 357606" d="M404.555,153.4l8.064-8.676.615.3s-5.608,5.2-7.127,8.96Z" transform="translate(-386.387 202.551) rotate(-47)" fill="url(#linear-gradient-2)"/>
      <path id="Path_357602" data-name="Path 357602" d="M411.084,151.074,406,159.193l-.994,1.6a80.489,80.489,0,0,0,4.85-7.138C410.785,151.76,411.084,151.074,411.084,151.074Z" transform="translate(-368.887 -137.613)" fill="url(#linear-gradient-4)"/>
      <g id="Group_1089" data-name="Group 1089" transform="translate(3.619 12.253)">
        <path id="Path_357603" data-name="Path 357603" d="M389.669,152.576a44.218,44.218,0,0,1,12.713-2.072c6.672,0,19.385,2.072,19.385,2.072" transform="translate(-389.669 -150.504)" fill="none" stroke="#b3b3b3" stroke-linecap="round" stroke-linejoin="round" stroke-width="0.25"/>
        <path id="Path_357604" data-name="Path 357604" d="M390.433,155.226a44.176,44.176,0,0,1,12.713-2.074,132.415,132.415,0,0,1,16.891,1.689" transform="translate(-388.814 -147.541)" fill="none" stroke="#b3b3b3" stroke-linecap="round" stroke-linejoin="round" stroke-width="0.25"/>
        <path id="Path_357605" data-name="Path 357605" d="M391.574,157.444a44.177,44.177,0,0,1,12.713-2.074,82.292,82.292,0,0,1,12.743,1.079" transform="translate(-387.538 -145.06)" fill="none" stroke="#b3b3b3" stroke-linecap="round" stroke-linejoin="round" stroke-width="0.25"/>
      </g>
    </g>
  </g>
</svg>
