<svg id="Component_127_1" data-name="Component 127 – 1" xmlns="http://www.w3.org/2000/svg" xmlns:xlink="http://www.w3.org/1999/xlink" width="1024" height="109.235" viewBox="0 0 1024 109.235">
  <defs>
    <clipPath id="clip-path">
      <rect width="1022.366" height="109.235" fill="none"/>
    </clipPath>
  </defs>
  <g id="Repeat_Grid_31" data-name="Repeat Grid 31" clip-path="url(#clip-path)">
    <g id="Group_836" data-name="Group 836" transform="translate(-1.634 -0.721)">
      <g id="icon_aspire_and_dispense" data-name="icon aspire and dispense" transform="translate(95.5 -367.012) rotate(43)">
        <path id="Path_357246" data-name="Path 357246" d="M251.188,380.857l-8.5,15h2.17l-1.17,2.028h15l-1.171-2.028h2.171Zm0,2.028,6.784,11.972H256.94l-.152-.264-5.6-9.708-5.6,9.708-.152.264H244.4Zm-5.769,14,.745-1.292.577-1,4.447-7.707,4.446,7.707.577,1,.745,1.292Z" fill="#d8d8d8"/>
        <path id="Path_357247" data-name="Path 357247" d="M270.365,382.885l1.323-2.292h-15l1.322,2.292h-2.322l8.5,15,8.5-15Zm-11.946-1.292h11.537l-.745,1.292-.577,1-4.446,7.707-4.447-7.707-.577-1Zm-1.015,2.292h1.183l5.6,9.708,5.6-9.708h1.184l-6.784,11.972Z" fill="#d8d8d8"/>
      </g>
      <g id="icon_aspire_and_dispense-2" data-name="icon aspire and dispense" transform="translate(111.434 -437.012) rotate(43)">
        <path id="Path_357246-2" data-name="Path 357246" d="M251.188,380.857l-8.5,15h2.17l-1.17,2.028h15l-1.171-2.028h2.171Zm0,2.028,6.784,11.972H256.94l-.152-.264-5.6-9.708-5.6,9.708-.152.264H244.4Zm-5.769,14,.745-1.292.577-1,4.447-7.707,4.446,7.707.577,1,.745,1.292Z" fill="#d8d8d8"/>
        <path id="Path_357247-2" data-name="Path 357247" d="M270.365,382.885l1.323-2.292h-15l1.322,2.292h-2.322l8.5,15,8.5-15Zm-11.946-1.292h11.537l-.745,1.292-.577,1-4.446,7.707-4.447-7.707-.577-1Zm-1.015,2.292h1.183l5.6,9.708,5.6-9.708h1.184l-6.784,11.972Z" fill="#d8d8d8"/>
      </g>
      <g id="icon_aspire_and_dispense-3" data-name="icon aspire and dispense" transform="translate(159.567 -398.635) rotate(43)">
        <path id="Path_357246-3" data-name="Path 357246" d="M251.188,380.857l-8.5,15h2.17l-1.17,2.028h15l-1.171-2.028h2.171Zm0,2.028,6.784,11.972H256.94l-.152-.264-5.6-9.708-5.6,9.708-.152.264H244.4Zm-5.769,14,.745-1.292.577-1,4.447-7.707,4.446,7.707.577,1,.745,1.292Z" fill="#d8d8d8"/>
        <path id="Path_357247-3" data-name="Path 357247" d="M270.365,382.885l1.323-2.292h-15l1.322,2.292h-2.322l8.5,15,8.5-15Zm-11.946-1.292h11.537l-.745,1.292-.577,1-4.446,7.707-4.447-7.707-.577-1Zm-1.015,2.292h1.183l5.6,9.708,5.6-9.708h1.184l-6.784,11.972Z" fill="#d8d8d8"/>
      </g>
      <g id="icon_aspire_and_dispense-4" data-name="icon aspire and dispense" transform="matrix(0.946, -0.326, 0.326, 0.946, -237.805, -270.358)">
        <path id="Path_357246-4" data-name="Path 357246" d="M251.188,380.857l-8.5,15h2.17l-1.17,2.028h15l-1.171-2.028h2.171Zm0,2.028,6.784,11.972H256.94l-.152-.264-5.6-9.708-5.6,9.708-.152.264H244.4Zm-5.769,14,.745-1.292.577-1,4.447-7.707,4.446,7.707.577,1,.745,1.292Z" fill="#d8d8d8"/>
        <path id="Path_357247-4" data-name="Path 357247" d="M270.365,382.885l1.323-2.292h-15l1.322,2.292h-2.322l8.5,15,8.5-15Zm-11.946-1.292h11.537l-.745,1.292-.577,1-4.446,7.707-4.447-7.707-.577-1Zm-1.015,2.292h1.183l5.6,9.708,5.6-9.708h1.184l-6.784,11.972Z" fill="#d8d8d8"/>
      </g>
      <g id="icon_aspire_and_dispense-5" data-name="icon aspire and dispense" transform="matrix(0.809, 0.588, -0.588, 0.809, 174.532, -405.587)">
        <path id="Path_357246-5" data-name="Path 357246" d="M251.188,380.857l-8.5,15h2.17l-1.17,2.028h15l-1.171-2.028h2.171Zm0,2.028,6.784,11.972H256.94l-.152-.264-5.6-9.708-5.6,9.708-.152.264H244.4Zm-5.769,14,.745-1.292.577-1,4.447-7.707,4.446,7.707.577,1,.745,1.292Z" fill="#d8d8d8"/>
        <path id="Path_357247-5" data-name="Path 357247" d="M270.365,382.885l1.323-2.292h-15l1.322,2.292h-2.322l8.5,15,8.5-15Zm-11.946-1.292h11.537l-.745,1.292-.577,1-4.446,7.707-4.447-7.707-.577-1Zm-1.015,2.292h1.183l5.6,9.708,5.6-9.708h1.184l-6.784,11.972Z" fill="#d8d8d8"/>
      </g>
    </g>
    <g id="Group_836-2" data-name="Group 836" transform="translate(192.366 -0.721)">
      <g id="icon_aspire_and_dispense-6" data-name="icon aspire and dispense" transform="translate(95.5 -367.012) rotate(43)">
        <path id="Path_357246-6" data-name="Path 357246" d="M251.188,380.857l-8.5,15h2.17l-1.17,2.028h15l-1.171-2.028h2.171Zm0,2.028,6.784,11.972H256.94l-.152-.264-5.6-9.708-5.6,9.708-.152.264H244.4Zm-5.769,14,.745-1.292.577-1,4.447-7.707,4.446,7.707.577,1,.745,1.292Z" fill="#d8d8d8"/>
        <path id="Path_357247-6" data-name="Path 357247" d="M270.365,382.885l1.323-2.292h-15l1.322,2.292h-2.322l8.5,15,8.5-15Zm-11.946-1.292h11.537l-.745,1.292-.577,1-4.446,7.707-4.447-7.707-.577-1Zm-1.015,2.292h1.183l5.6,9.708,5.6-9.708h1.184l-6.784,11.972Z" fill="#d8d8d8"/>
      </g>
      <g id="icon_aspire_and_dispense-7" data-name="icon aspire and dispense" transform="translate(111.434 -437.012) rotate(43)">
        <path id="Path_357246-7" data-name="Path 357246" d="M251.188,380.857l-8.5,15h2.17l-1.17,2.028h15l-1.171-2.028h2.171Zm0,2.028,6.784,11.972H256.94l-.152-.264-5.6-9.708-5.6,9.708-.152.264H244.4Zm-5.769,14,.745-1.292.577-1,4.447-7.707,4.446,7.707.577,1,.745,1.292Z" fill="#d8d8d8"/>
        <path id="Path_357247-7" data-name="Path 357247" d="M270.365,382.885l1.323-2.292h-15l1.322,2.292h-2.322l8.5,15,8.5-15Zm-11.946-1.292h11.537l-.745,1.292-.577,1-4.446,7.707-4.447-7.707-.577-1Zm-1.015,2.292h1.183l5.6,9.708,5.6-9.708h1.184l-6.784,11.972Z" fill="#d8d8d8"/>
      </g>
      <g id="icon_aspire_and_dispense-8" data-name="icon aspire and dispense" transform="translate(159.567 -398.635) rotate(43)">
        <path id="Path_357246-8" data-name="Path 357246" d="M251.188,380.857l-8.5,15h2.17l-1.17,2.028h15l-1.171-2.028h2.171Zm0,2.028,6.784,11.972H256.94l-.152-.264-5.6-9.708-5.6,9.708-.152.264H244.4Zm-5.769,14,.745-1.292.577-1,4.447-7.707,4.446,7.707.577,1,.745,1.292Z" fill="#d8d8d8"/>
        <path id="Path_357247-8" data-name="Path 357247" d="M270.365,382.885l1.323-2.292h-15l1.322,2.292h-2.322l8.5,15,8.5-15Zm-11.946-1.292h11.537l-.745,1.292-.577,1-4.446,7.707-4.447-7.707-.577-1Zm-1.015,2.292h1.183l5.6,9.708,5.6-9.708h1.184l-6.784,11.972Z" fill="#d8d8d8"/>
      </g>
      <g id="icon_aspire_and_dispense-9" data-name="icon aspire and dispense" transform="matrix(0.946, -0.326, 0.326, 0.946, -237.805, -270.358)">
        <path id="Path_357246-9" data-name="Path 357246" d="M251.188,380.857l-8.5,15h2.17l-1.17,2.028h15l-1.171-2.028h2.171Zm0,2.028,6.784,11.972H256.94l-.152-.264-5.6-9.708-5.6,9.708-.152.264H244.4Zm-5.769,14,.745-1.292.577-1,4.447-7.707,4.446,7.707.577,1,.745,1.292Z" fill="#d8d8d8"/>
        <path id="Path_357247-9" data-name="Path 357247" d="M270.365,382.885l1.323-2.292h-15l1.322,2.292h-2.322l8.5,15,8.5-15Zm-11.946-1.292h11.537l-.745,1.292-.577,1-4.446,7.707-4.447-7.707-.577-1Zm-1.015,2.292h1.183l5.6,9.708,5.6-9.708h1.184l-6.784,11.972Z" fill="#d8d8d8"/>
      </g>
      <g id="icon_aspire_and_dispense-10" data-name="icon aspire and dispense" transform="matrix(0.809, 0.588, -0.588, 0.809, 174.532, -405.587)">
        <path id="Path_357246-10" data-name="Path 357246" d="M251.188,380.857l-8.5,15h2.17l-1.17,2.028h15l-1.171-2.028h2.171Zm0,2.028,6.784,11.972H256.94l-.152-.264-5.6-9.708-5.6,9.708-.152.264H244.4Zm-5.769,14,.745-1.292.577-1,4.447-7.707,4.446,7.707.577,1,.745,1.292Z" fill="#d8d8d8"/>
        <path id="Path_357247-10" data-name="Path 357247" d="M270.365,382.885l1.323-2.292h-15l1.322,2.292h-2.322l8.5,15,8.5-15Zm-11.946-1.292h11.537l-.745,1.292-.577,1-4.446,7.707-4.447-7.707-.577-1Zm-1.015,2.292h1.183l5.6,9.708,5.6-9.708h1.184l-6.784,11.972Z" fill="#d8d8d8"/>
      </g>
    </g>
    <g id="Group_836-3" data-name="Group 836" transform="translate(386.366 -0.721)">
      <g id="icon_aspire_and_dispense-11" data-name="icon aspire and dispense" transform="translate(95.5 -367.012) rotate(43)">
        <path id="Path_357246-11" data-name="Path 357246" d="M251.188,380.857l-8.5,15h2.17l-1.17,2.028h15l-1.171-2.028h2.171Zm0,2.028,6.784,11.972H256.94l-.152-.264-5.6-9.708-5.6,9.708-.152.264H244.4Zm-5.769,14,.745-1.292.577-1,4.447-7.707,4.446,7.707.577,1,.745,1.292Z" fill="#d8d8d8"/>
        <path id="Path_357247-11" data-name="Path 357247" d="M270.365,382.885l1.323-2.292h-15l1.322,2.292h-2.322l8.5,15,8.5-15Zm-11.946-1.292h11.537l-.745,1.292-.577,1-4.446,7.707-4.447-7.707-.577-1Zm-1.015,2.292h1.183l5.6,9.708,5.6-9.708h1.184l-6.784,11.972Z" fill="#d8d8d8"/>
      </g>
      <g id="icon_aspire_and_dispense-12" data-name="icon aspire and dispense" transform="translate(111.434 -437.012) rotate(43)">
        <path id="Path_357246-12" data-name="Path 357246" d="M251.188,380.857l-8.5,15h2.17l-1.17,2.028h15l-1.171-2.028h2.171Zm0,2.028,6.784,11.972H256.94l-.152-.264-5.6-9.708-5.6,9.708-.152.264H244.4Zm-5.769,14,.745-1.292.577-1,4.447-7.707,4.446,7.707.577,1,.745,1.292Z" fill="#d8d8d8"/>
        <path id="Path_357247-12" data-name="Path 357247" d="M270.365,382.885l1.323-2.292h-15l1.322,2.292h-2.322l8.5,15,8.5-15Zm-11.946-1.292h11.537l-.745,1.292-.577,1-4.446,7.707-4.447-7.707-.577-1Zm-1.015,2.292h1.183l5.6,9.708,5.6-9.708h1.184l-6.784,11.972Z" fill="#d8d8d8"/>
      </g>
      <g id="icon_aspire_and_dispense-13" data-name="icon aspire and dispense" transform="translate(159.567 -398.635) rotate(43)">
        <path id="Path_357246-13" data-name="Path 357246" d="M251.188,380.857l-8.5,15h2.17l-1.17,2.028h15l-1.171-2.028h2.171Zm0,2.028,6.784,11.972H256.94l-.152-.264-5.6-9.708-5.6,9.708-.152.264H244.4Zm-5.769,14,.745-1.292.577-1,4.447-7.707,4.446,7.707.577,1,.745,1.292Z" fill="#d8d8d8"/>
        <path id="Path_357247-13" data-name="Path 357247" d="M270.365,382.885l1.323-2.292h-15l1.322,2.292h-2.322l8.5,15,8.5-15Zm-11.946-1.292h11.537l-.745,1.292-.577,1-4.446,7.707-4.447-7.707-.577-1Zm-1.015,2.292h1.183l5.6,9.708,5.6-9.708h1.184l-6.784,11.972Z" fill="#d8d8d8"/>
      </g>
      <g id="icon_aspire_and_dispense-14" data-name="icon aspire and dispense" transform="matrix(0.946, -0.326, 0.326, 0.946, -237.805, -270.358)">
        <path id="Path_357246-14" data-name="Path 357246" d="M251.188,380.857l-8.5,15h2.17l-1.17,2.028h15l-1.171-2.028h2.171Zm0,2.028,6.784,11.972H256.94l-.152-.264-5.6-9.708-5.6,9.708-.152.264H244.4Zm-5.769,14,.745-1.292.577-1,4.447-7.707,4.446,7.707.577,1,.745,1.292Z" fill="#d8d8d8"/>
        <path id="Path_357247-14" data-name="Path 357247" d="M270.365,382.885l1.323-2.292h-15l1.322,2.292h-2.322l8.5,15,8.5-15Zm-11.946-1.292h11.537l-.745,1.292-.577,1-4.446,7.707-4.447-7.707-.577-1Zm-1.015,2.292h1.183l5.6,9.708,5.6-9.708h1.184l-6.784,11.972Z" fill="#d8d8d8"/>
      </g>
      <g id="icon_aspire_and_dispense-15" data-name="icon aspire and dispense" transform="matrix(0.809, 0.588, -0.588, 0.809, 174.532, -405.587)">
        <path id="Path_357246-15" data-name="Path 357246" d="M251.188,380.857l-8.5,15h2.17l-1.17,2.028h15l-1.171-2.028h2.171Zm0,2.028,6.784,11.972H256.94l-.152-.264-5.6-9.708-5.6,9.708-.152.264H244.4Zm-5.769,14,.745-1.292.577-1,4.447-7.707,4.446,7.707.577,1,.745,1.292Z" fill="#d8d8d8"/>
        <path id="Path_357247-15" data-name="Path 357247" d="M270.365,382.885l1.323-2.292h-15l1.322,2.292h-2.322l8.5,15,8.5-15Zm-11.946-1.292h11.537l-.745,1.292-.577,1-4.446,7.707-4.447-7.707-.577-1Zm-1.015,2.292h1.183l5.6,9.708,5.6-9.708h1.184l-6.784,11.972Z" fill="#d8d8d8"/>
      </g>
    </g>
    <g id="Group_836-4" data-name="Group 836" transform="translate(580.366 -0.721)">
      <g id="icon_aspire_and_dispense-16" data-name="icon aspire and dispense" transform="translate(95.5 -367.012) rotate(43)">
        <path id="Path_357246-16" data-name="Path 357246" d="M251.188,380.857l-8.5,15h2.17l-1.17,2.028h15l-1.171-2.028h2.171Zm0,2.028,6.784,11.972H256.94l-.152-.264-5.6-9.708-5.6,9.708-.152.264H244.4Zm-5.769,14,.745-1.292.577-1,4.447-7.707,4.446,7.707.577,1,.745,1.292Z" fill="#d8d8d8"/>
        <path id="Path_357247-16" data-name="Path 357247" d="M270.365,382.885l1.323-2.292h-15l1.322,2.292h-2.322l8.5,15,8.5-15Zm-11.946-1.292h11.537l-.745,1.292-.577,1-4.446,7.707-4.447-7.707-.577-1Zm-1.015,2.292h1.183l5.6,9.708,5.6-9.708h1.184l-6.784,11.972Z" fill="#d8d8d8"/>
      </g>
      <g id="icon_aspire_and_dispense-17" data-name="icon aspire and dispense" transform="translate(111.434 -437.012) rotate(43)">
        <path id="Path_357246-17" data-name="Path 357246" d="M251.188,380.857l-8.5,15h2.17l-1.17,2.028h15l-1.171-2.028h2.171Zm0,2.028,6.784,11.972H256.94l-.152-.264-5.6-9.708-5.6,9.708-.152.264H244.4Zm-5.769,14,.745-1.292.577-1,4.447-7.707,4.446,7.707.577,1,.745,1.292Z" fill="#d8d8d8"/>
        <path id="Path_357247-17" data-name="Path 357247" d="M270.365,382.885l1.323-2.292h-15l1.322,2.292h-2.322l8.5,15,8.5-15Zm-11.946-1.292h11.537l-.745,1.292-.577,1-4.446,7.707-4.447-7.707-.577-1Zm-1.015,2.292h1.183l5.6,9.708,5.6-9.708h1.184l-6.784,11.972Z" fill="#d8d8d8"/>
      </g>
      <g id="icon_aspire_and_dispense-18" data-name="icon aspire and dispense" transform="translate(159.567 -398.635) rotate(43)">
        <path id="Path_357246-18" data-name="Path 357246" d="M251.188,380.857l-8.5,15h2.17l-1.17,2.028h15l-1.171-2.028h2.171Zm0,2.028,6.784,11.972H256.94l-.152-.264-5.6-9.708-5.6,9.708-.152.264H244.4Zm-5.769,14,.745-1.292.577-1,4.447-7.707,4.446,7.707.577,1,.745,1.292Z" fill="#d8d8d8"/>
        <path id="Path_357247-18" data-name="Path 357247" d="M270.365,382.885l1.323-2.292h-15l1.322,2.292h-2.322l8.5,15,8.5-15Zm-11.946-1.292h11.537l-.745,1.292-.577,1-4.446,7.707-4.447-7.707-.577-1Zm-1.015,2.292h1.183l5.6,9.708,5.6-9.708h1.184l-6.784,11.972Z" fill="#d8d8d8"/>
      </g>
      <g id="icon_aspire_and_dispense-19" data-name="icon aspire and dispense" transform="matrix(0.946, -0.326, 0.326, 0.946, -237.805, -270.358)">
        <path id="Path_357246-19" data-name="Path 357246" d="M251.188,380.857l-8.5,15h2.17l-1.17,2.028h15l-1.171-2.028h2.171Zm0,2.028,6.784,11.972H256.94l-.152-.264-5.6-9.708-5.6,9.708-.152.264H244.4Zm-5.769,14,.745-1.292.577-1,4.447-7.707,4.446,7.707.577,1,.745,1.292Z" fill="#d8d8d8"/>
        <path id="Path_357247-19" data-name="Path 357247" d="M270.365,382.885l1.323-2.292h-15l1.322,2.292h-2.322l8.5,15,8.5-15Zm-11.946-1.292h11.537l-.745,1.292-.577,1-4.446,7.707-4.447-7.707-.577-1Zm-1.015,2.292h1.183l5.6,9.708,5.6-9.708h1.184l-6.784,11.972Z" fill="#d8d8d8"/>
      </g>
      <g id="icon_aspire_and_dispense-20" data-name="icon aspire and dispense" transform="matrix(0.809, 0.588, -0.588, 0.809, 174.532, -405.587)">
        <path id="Path_357246-20" data-name="Path 357246" d="M251.188,380.857l-8.5,15h2.17l-1.17,2.028h15l-1.171-2.028h2.171Zm0,2.028,6.784,11.972H256.94l-.152-.264-5.6-9.708-5.6,9.708-.152.264H244.4Zm-5.769,14,.745-1.292.577-1,4.447-7.707,4.446,7.707.577,1,.745,1.292Z" fill="#d8d8d8"/>
        <path id="Path_357247-20" data-name="Path 357247" d="M270.365,382.885l1.323-2.292h-15l1.322,2.292h-2.322l8.5,15,8.5-15Zm-11.946-1.292h11.537l-.745,1.292-.577,1-4.446,7.707-4.447-7.707-.577-1Zm-1.015,2.292h1.183l5.6,9.708,5.6-9.708h1.184l-6.784,11.972Z" fill="#d8d8d8"/>
      </g>
    </g>
    <g id="Group_836-5" data-name="Group 836" transform="translate(774.366 -0.721)">
      <g id="icon_aspire_and_dispense-21" data-name="icon aspire and dispense" transform="translate(95.5 -367.012) rotate(43)">
        <path id="Path_357246-21" data-name="Path 357246" d="M251.188,380.857l-8.5,15h2.17l-1.17,2.028h15l-1.171-2.028h2.171Zm0,2.028,6.784,11.972H256.94l-.152-.264-5.6-9.708-5.6,9.708-.152.264H244.4Zm-5.769,14,.745-1.292.577-1,4.447-7.707,4.446,7.707.577,1,.745,1.292Z" fill="#d8d8d8"/>
        <path id="Path_357247-21" data-name="Path 357247" d="M270.365,382.885l1.323-2.292h-15l1.322,2.292h-2.322l8.5,15,8.5-15Zm-11.946-1.292h11.537l-.745,1.292-.577,1-4.446,7.707-4.447-7.707-.577-1Zm-1.015,2.292h1.183l5.6,9.708,5.6-9.708h1.184l-6.784,11.972Z" fill="#d8d8d8"/>
      </g>
      <g id="icon_aspire_and_dispense-22" data-name="icon aspire and dispense" transform="translate(111.434 -437.012) rotate(43)">
        <path id="Path_357246-22" data-name="Path 357246" d="M251.188,380.857l-8.5,15h2.17l-1.17,2.028h15l-1.171-2.028h2.171Zm0,2.028,6.784,11.972H256.94l-.152-.264-5.6-9.708-5.6,9.708-.152.264H244.4Zm-5.769,14,.745-1.292.577-1,4.447-7.707,4.446,7.707.577,1,.745,1.292Z" fill="#d8d8d8"/>
        <path id="Path_357247-22" data-name="Path 357247" d="M270.365,382.885l1.323-2.292h-15l1.322,2.292h-2.322l8.5,15,8.5-15Zm-11.946-1.292h11.537l-.745,1.292-.577,1-4.446,7.707-4.447-7.707-.577-1Zm-1.015,2.292h1.183l5.6,9.708,5.6-9.708h1.184l-6.784,11.972Z" fill="#d8d8d8"/>
      </g>
      <g id="icon_aspire_and_dispense-23" data-name="icon aspire and dispense" transform="translate(159.567 -398.635) rotate(43)">
        <path id="Path_357246-23" data-name="Path 357246" d="M251.188,380.857l-8.5,15h2.17l-1.17,2.028h15l-1.171-2.028h2.171Zm0,2.028,6.784,11.972H256.94l-.152-.264-5.6-9.708-5.6,9.708-.152.264H244.4Zm-5.769,14,.745-1.292.577-1,4.447-7.707,4.446,7.707.577,1,.745,1.292Z" fill="#d8d8d8"/>
        <path id="Path_357247-23" data-name="Path 357247" d="M270.365,382.885l1.323-2.292h-15l1.322,2.292h-2.322l8.5,15,8.5-15Zm-11.946-1.292h11.537l-.745,1.292-.577,1-4.446,7.707-4.447-7.707-.577-1Zm-1.015,2.292h1.183l5.6,9.708,5.6-9.708h1.184l-6.784,11.972Z" fill="#d8d8d8"/>
      </g>
      <g id="icon_aspire_and_dispense-24" data-name="icon aspire and dispense" transform="matrix(0.946, -0.326, 0.326, 0.946, -237.805, -270.358)">
        <path id="Path_357246-24" data-name="Path 357246" d="M251.188,380.857l-8.5,15h2.17l-1.17,2.028h15l-1.171-2.028h2.171Zm0,2.028,6.784,11.972H256.94l-.152-.264-5.6-9.708-5.6,9.708-.152.264H244.4Zm-5.769,14,.745-1.292.577-1,4.447-7.707,4.446,7.707.577,1,.745,1.292Z" fill="#d8d8d8"/>
        <path id="Path_357247-24" data-name="Path 357247" d="M270.365,382.885l1.323-2.292h-15l1.322,2.292h-2.322l8.5,15,8.5-15Zm-11.946-1.292h11.537l-.745,1.292-.577,1-4.446,7.707-4.447-7.707-.577-1Zm-1.015,2.292h1.183l5.6,9.708,5.6-9.708h1.184l-6.784,11.972Z" fill="#d8d8d8"/>
      </g>
      <g id="icon_aspire_and_dispense-25" data-name="icon aspire and dispense" transform="matrix(0.809, 0.588, -0.588, 0.809, 174.532, -405.587)">
        <path id="Path_357246-25" data-name="Path 357246" d="M251.188,380.857l-8.5,15h2.17l-1.17,2.028h15l-1.171-2.028h2.171Zm0,2.028,6.784,11.972H256.94l-.152-.264-5.6-9.708-5.6,9.708-.152.264H244.4Zm-5.769,14,.745-1.292.577-1,4.447-7.707,4.446,7.707.577,1,.745,1.292Z" fill="#d8d8d8"/>
        <path id="Path_357247-25" data-name="Path 357247" d="M270.365,382.885l1.323-2.292h-15l1.322,2.292h-2.322l8.5,15,8.5-15Zm-11.946-1.292h11.537l-.745,1.292-.577,1-4.446,7.707-4.447-7.707-.577-1Zm-1.015,2.292h1.183l5.6,9.708,5.6-9.708h1.184l-6.784,11.972Z" fill="#d8d8d8"/>
      </g>
    </g>
    <g id="Group_836-6" data-name="Group 836" transform="translate(968.366 -0.721)">
      <g id="icon_aspire_and_dispense-26" data-name="icon aspire and dispense" transform="translate(95.5 -367.012) rotate(43)">
        <path id="Path_357246-26" data-name="Path 357246" d="M251.188,380.857l-8.5,15h2.17l-1.17,2.028h15l-1.171-2.028h2.171Zm0,2.028,6.784,11.972H256.94l-.152-.264-5.6-9.708-5.6,9.708-.152.264H244.4Zm-5.769,14,.745-1.292.577-1,4.447-7.707,4.446,7.707.577,1,.745,1.292Z" fill="#d8d8d8"/>
        <path id="Path_357247-26" data-name="Path 357247" d="M270.365,382.885l1.323-2.292h-15l1.322,2.292h-2.322l8.5,15,8.5-15Zm-11.946-1.292h11.537l-.745,1.292-.577,1-4.446,7.707-4.447-7.707-.577-1Zm-1.015,2.292h1.183l5.6,9.708,5.6-9.708h1.184l-6.784,11.972Z" fill="#d8d8d8"/>
      </g>
      <g id="icon_aspire_and_dispense-27" data-name="icon aspire and dispense" transform="translate(111.434 -437.012) rotate(43)">
        <path id="Path_357246-27" data-name="Path 357246" d="M251.188,380.857l-8.5,15h2.17l-1.17,2.028h15l-1.171-2.028h2.171Zm0,2.028,6.784,11.972H256.94l-.152-.264-5.6-9.708-5.6,9.708-.152.264H244.4Zm-5.769,14,.745-1.292.577-1,4.447-7.707,4.446,7.707.577,1,.745,1.292Z" fill="#d8d8d8"/>
        <path id="Path_357247-27" data-name="Path 357247" d="M270.365,382.885l1.323-2.292h-15l1.322,2.292h-2.322l8.5,15,8.5-15Zm-11.946-1.292h11.537l-.745,1.292-.577,1-4.446,7.707-4.447-7.707-.577-1Zm-1.015,2.292h1.183l5.6,9.708,5.6-9.708h1.184l-6.784,11.972Z" fill="#d8d8d8"/>
      </g>
      <g id="icon_aspire_and_dispense-28" data-name="icon aspire and dispense" transform="translate(159.567 -398.635) rotate(43)">
        <path id="Path_357246-28" data-name="Path 357246" d="M251.188,380.857l-8.5,15h2.17l-1.17,2.028h15l-1.171-2.028h2.171Zm0,2.028,6.784,11.972H256.94l-.152-.264-5.6-9.708-5.6,9.708-.152.264H244.4Zm-5.769,14,.745-1.292.577-1,4.447-7.707,4.446,7.707.577,1,.745,1.292Z" fill="#d8d8d8"/>
        <path id="Path_357247-28" data-name="Path 357247" d="M270.365,382.885l1.323-2.292h-15l1.322,2.292h-2.322l8.5,15,8.5-15Zm-11.946-1.292h11.537l-.745,1.292-.577,1-4.446,7.707-4.447-7.707-.577-1Zm-1.015,2.292h1.183l5.6,9.708,5.6-9.708h1.184l-6.784,11.972Z" fill="#d8d8d8"/>
      </g>
      <g id="icon_aspire_and_dispense-29" data-name="icon aspire and dispense" transform="matrix(0.946, -0.326, 0.326, 0.946, -237.805, -270.358)">
        <path id="Path_357246-29" data-name="Path 357246" d="M251.188,380.857l-8.5,15h2.17l-1.17,2.028h15l-1.171-2.028h2.171Zm0,2.028,6.784,11.972H256.94l-.152-.264-5.6-9.708-5.6,9.708-.152.264H244.4Zm-5.769,14,.745-1.292.577-1,4.447-7.707,4.446,7.707.577,1,.745,1.292Z" fill="#d8d8d8"/>
        <path id="Path_357247-29" data-name="Path 357247" d="M270.365,382.885l1.323-2.292h-15l1.322,2.292h-2.322l8.5,15,8.5-15Zm-11.946-1.292h11.537l-.745,1.292-.577,1-4.446,7.707-4.447-7.707-.577-1Zm-1.015,2.292h1.183l5.6,9.708,5.6-9.708h1.184l-6.784,11.972Z" fill="#d8d8d8"/>
      </g>
      <g id="icon_aspire_and_dispense-30" data-name="icon aspire and dispense" transform="matrix(0.809, 0.588, -0.588, 0.809, 174.532, -405.587)">
        <path id="Path_357246-30" data-name="Path 357246" d="M251.188,380.857l-8.5,15h2.17l-1.17,2.028h15l-1.171-2.028h2.171Zm0,2.028,6.784,11.972H256.94l-.152-.264-5.6-9.708-5.6,9.708-.152.264H244.4Zm-5.769,14,.745-1.292.577-1,4.447-7.707,4.446,7.707.577,1,.745,1.292Z" fill="#d8d8d8"/>
        <path id="Path_357247-30" data-name="Path 357247" d="M270.365,382.885l1.323-2.292h-15l1.322,2.292h-2.322l8.5,15,8.5-15Zm-11.946-1.292h11.537l-.745,1.292-.577,1-4.446,7.707-4.447-7.707-.577-1Zm-1.015,2.292h1.183l5.6,9.708,5.6-9.708h1.184l-6.784,11.972Z" fill="#d8d8d8"/>
      </g>
    </g>
  </g>
</svg>
