<svg xmlns="http://www.w3.org/2000/svg" xmlns:xlink="http://www.w3.org/1999/xlink" width="183" height="103.73" viewBox="0 0 183 103.73">
  <defs>
    <clipPath id="clip-path">
      <rect id="Rectangle_38348" data-name="Rectangle 38348" width="183" height="103.73" fill="#fff"/>
    </clipPath>
  </defs>
  <g id="Mask_Group_1" data-name="Mask Group 1" clip-path="url(#clip-path)">
    <g id="Group_662" data-name="Group 662" transform="translate(-1.047 -20.369)" opacity="0.4">
      <g id="Group_459" data-name="Group 459" transform="matrix(0.485, -0.875, 0.875, 0.485, 0, 116.528)">
        <g id="Group_442" data-name="Group 442" transform="translate(66.522 91.429)">
          <path id="Path_356745" data-name="Path 356745" d="M22.3.025l.048.028L44.612,12.924l.028,25.751-.048.028L22.355,51.526l-.048-.028L.043,38.626.014,12.875l.048-.028ZM44.42,13.036,22.3.247.207,12.987.235,38.515,22.355,51.3,44.448,38.564Z" transform="translate(0.016)" fill="#f38220"/>
        </g>
        <g id="Group_445" data-name="Group 445" transform="translate(88.752 52.966)">
          <path id="Path_356748" data-name="Path 356748" d="M22.272.025l.049.028L44.558,12.928l.028,25.757-.048.028L22.329,51.539l-.048-.028L.043,38.636.014,12.879l.049-.028ZM44.366,13.04,22.272.247.207,12.991.235,38.525,22.329,51.317,44.394,38.574Z" transform="translate(0 0.048)" fill="#f38220"/>
        </g>
        <g id="Group_446" data-name="Group 446" transform="translate(44.29 52.917)">
          <path id="Path_356749" data-name="Path 356749" d="M22.3.025l.049.028L44.612,12.928l.028,25.757-.048.028L22.356,51.538l-.048-.028L.043,38.635.014,12.878l.049-.028ZM44.42,13.039,22.3.247.207,12.99.235,38.524,22.356,51.315,44.448,38.573Z" transform="translate(0.002 0)" fill="#f38220"/>
        </g>
        <g id="Group_450" data-name="Group 450" transform="translate(66.522 14.387)">
          <path id="Path_356753" data-name="Path 356753" d="M22.264.025l.048.028L44.543,12.928l.028,25.757-.048.028-22.2,12.826-.048-.027L.043,38.636.014,12.879l.048-.028ZM44.351,13.04,22.264.247.207,12.991.235,38.525,22.321,51.317,44.379,38.574Z" transform="translate(0 0.06)" fill="#f38220"/>
        </g>
        <g id="Group_451" data-name="Group 451" transform="translate(22.198 14.387)">
          <path id="Path_356754" data-name="Path 356754" d="M22.293.025l.048.028L44.6,12.928l.028,25.757-.048.028L22.35,51.539l-.048-.027L.043,38.636.014,12.879l.048-.028ZM44.408,13.04,22.294.247.207,12.991.235,38.525,22.35,51.317,44.437,38.574Z" transform="translate(0 0.011)" fill="#f38220"/>
        </g>
        <g id="Group_453" data-name="Group 453" transform="translate(88.753 0)">
          <path id="Path_356756" data-name="Path 356756" d="M22.28,27.212.208,14.425.192,0H0L.016,14.536,22.232,27.407l.048.028,10-5.942Z" transform="translate(0 0.098)" fill="#f38220"/>
        </g>
        <g id="Group_454" data-name="Group 454" transform="translate(44.291 0)">
          <path id="Path_356757" data-name="Path 356757" d="M44.4.049l.016,14.417L22.328,27.2.209,14.417.193,0H0L.016,14.529,22.28,27.393l.048.028L44.563,14.606l.048-.028L44.595.049Z" transform="translate(0 0.049)" fill="#f38220"/>
        </g>
        <g id="Group_455" data-name="Group 455" transform="translate(0 0)">
          <path id="Path_356758" data-name="Path 356758" d="M44.433.049l.016,14.417L22.343,27.2.209,14.417.193,0H0L.016,14.529,22.295,27.393l.048.028,22.25-12.816.048-.028L44.626.049Z" fill="#f38220"/>
        </g>
      </g>
      <path id="Path_356783" data-name="Path 356783" d="M2.342,4.683A2.341,2.341,0,1,0,0,2.341,2.341,2.341,0,0,0,2.342,4.683Z" transform="matrix(0.485, -0.875, 0.875, 0.485, 164.469, 83.26)" fill="#f38220"/>
      <circle id="Ellipse_48" data-name="Ellipse 48" cx="0.206" cy="0.206" r="0.206" transform="matrix(0.485, -0.875, 0.875, 0.485, 189.377, 69.24)" fill="#f38220"/>
      <path id="Path_356786" data-name="Path 356786" d="M2.912,1.456A1.456,1.456,0,1,0,1.456,2.913,1.456,1.456,0,0,0,2.912,1.456Z" transform="matrix(0.485, -0.875, 0.875, 0.485, 144.117, 121.699)" fill="#f38220"/>
      <path id="Path_356794" data-name="Path 356794" d="M2.835,0A2.835,2.835,0,1,0,5.67,2.835,2.835,2.835,0,0,0,2.835,0Z" transform="matrix(0.485, -0.875, 0.875, 0.485, 164.246, 109.05)" fill="#f38220"/>
      <path id="Path_356795" data-name="Path 356795" d="M2.409,0A2.409,2.409,0,1,0,4.817,2.409,2.41,2.41,0,0,0,2.409,0Z" transform="matrix(0.485, -0.875, 0.875, 0.485, 120.369, 109.658)" fill="#f38220"/>
      <path id="Path_356799" data-name="Path 356799" d="M1.443,2.885A1.443,1.443,0,1,0,0,1.442,1.443,1.443,0,0,0,1.443,2.885Z" transform="matrix(0.485, -0.875, 0.875, 0.485, 98.334, 45.788)" fill="#f38220"/>
      <path id="Path_356800" data-name="Path 356800" d="M1.152,2.3A1.151,1.151,0,1,0,0,1.152,1.151,1.151,0,0,0,1.152,2.3Z" transform="matrix(0.485, -0.875, 0.875, 0.485, 120.734, 32.453)" fill="#f38220"/>
      <path id="Path_356801" data-name="Path 356801" d="M1.092.545a.546.546,0,1,0-.546.546A.545.545,0,0,0,1.092.545Z" transform="matrix(0.485, -0.875, 0.875, 0.485, 144.01, 44.548)" fill="#f38220"/>
      <circle id="Ellipse_52" data-name="Ellipse 52" cx="2.26" cy="2.26" r="2.26" transform="matrix(0.485, -0.875, 0.875, 0.485, 142.127, 70.817)" fill="#f38220"/>
      <path id="Path_356802" data-name="Path 356802" d="M3.726,1.863A1.863,1.863,0,1,0,1.863,3.726,1.863,1.863,0,0,0,3.726,1.863Z" transform="matrix(0.485, -0.875, 0.875, 0.485, 98.211, 71.618)" fill="#f38220"/>
      <path id="Path_356803" data-name="Path 356803" d="M0,1.277A1.277,1.277,0,1,0,1.277,0,1.278,1.278,0,0,0,0,1.277Z" transform="matrix(0.485, -0.875, 0.875, 0.485, 121.459, 83.619)" fill="#f38220"/>
      <path id="Path_356804" data-name="Path 356804" d="M1.046,2.093A1.047,1.047,0,1,0,0,1.046,1.047,1.047,0,0,0,1.046,2.093Z" transform="matrix(0.485, -0.875, 0.875, 0.485, 100.217, 122.314)" fill="#f38220"/>
      <path id="Path_356805" data-name="Path 356805" d="M3.521,1.76A1.76,1.76,0,1,0,1.76,3.521,1.761,1.761,0,0,0,3.521,1.76Z" transform="matrix(0.485, -0.875, 0.875, 0.485, 54.791, 123.687)" fill="#f38220"/>
      <path id="Path_356806" data-name="Path 356806" d="M2.536,5.072A2.536,2.536,0,1,0,0,2.536,2.536,2.536,0,0,0,2.536,5.072Z" transform="matrix(0.485, -0.875, 0.875, 0.485, 75.74, 110.482)" fill="#f38220"/>
      <path id="Path_356813" data-name="Path 356813" d="M3.37,1.685A1.685,1.685,0,1,0,1.685,3.371,1.685,1.685,0,0,0,3.37,1.685Z" transform="matrix(0.485, -0.875, 0.875, 0.485, 76.449, 84.77)" fill="#f38220"/>
      <path id="Path_356814" data-name="Path 356814" d="M2.758,0A2.758,2.758,0,1,0,5.516,2.758,2.758,2.758,0,0,0,2.758,0Z" transform="matrix(0.485, -0.875, 0.875, 0.485, 52.539, 72.743)" fill="#f38220"/>
      <path id="Path_356820" data-name="Path 356820" d="M1.386,2.772A1.386,1.386,0,1,0,0,1.386,1.386,1.386,0,0,0,1.386,2.772Z" transform="matrix(0.485, -0.875, 0.875, 0.485, 75.959, 33.32)" fill="#f38220"/>
      <circle id="Ellipse_57" data-name="Ellipse 57" cx="3.538" cy="3.538" r="3.538" transform="matrix(0.485, -0.875, 0.875, 0.485, 51.031, 47.38)" fill="#f38220"/>
      <circle id="Ellipse_58" data-name="Ellipse 58" cx="2.136" cy="2.136" r="2.136" transform="matrix(0.485, -0.875, 0.875, 0.485, 31.379, 85.722)" fill="#f38220"/>
      <path id="Path_356821" data-name="Path 356821" d="M2.432,0A2.432,2.432,0,1,0,4.864,2.432,2.432,2.432,0,0,0,2.432,0Z" transform="matrix(0.485, -0.875, 0.875, 0.485, 31.426, 111.504)" fill="#f38220"/>
      <path id="Subtraction_4" data-name="Subtraction 4" d="M5.54,3.155H.026A2.779,2.779,0,0,1,2.784,0,2.786,2.786,0,0,1,5.542,3.154Z" transform="translate(9.947 120.995)" fill="#f38220"/>
      <path id="Path_357208" data-name="Path 357208" d="M3.521,1.76A1.76,1.76,0,1,0,1.76,3.521,1.761,1.761,0,0,0,3.521,1.76Z" transform="matrix(0.485, -0.875, 0.875, 0.485, 54.79, 123.687)" fill="#f38220"/>
    </g>
  </g>
</svg>
