<svg id="Component_132_1" data-name="Component 132 – 1" xmlns="http://www.w3.org/2000/svg" xmlns:xlink="http://www.w3.org/1999/xlink" width="1023.804" height="88.669" viewBox="0 0 1023.804 88.669">
  <defs>
    <clipPath id="clip-path">
      <rect width="1023.804" height="88.669" fill="none"/>
    </clipPath>
  </defs>
  <g id="Repeat_Grid_36" data-name="Repeat Grid 36" clip-path="url(#clip-path)">
    <g id="Group_910" data-name="Group 910" transform="translate(0 -3.553)">
      <g id="icon_delay" data-name="icon delay" transform="translate(-226.802 -378.545)">
        <path id="Path_357272" data-name="Path 357272" d="M249.927,392.895a9.321,9.321,0,0,0-3.964,7.754l1.57-.481a7.773,7.773,0,1,1,7.758,8.142h0a.778.778,0,1,0,0,1.556h.005a9.334,9.334,0,1,0-5.369-16.971Z" fill="#d8d8d8"/>
        <path id="Path_357273" data-name="Path 357273" d="M256.071,400.532v-3.889a.778.778,0,1,0-1.556,0v3.57l-2.108,2.1a.781.781,0,0,0,1.1,1.1l2.333-2.333A.779.779,0,0,0,256.071,400.532Z" fill="#d8d8d8"/>
        <path id="Path_357274" data-name="Path 357274" d="M249.819,402.369l-.713,3.084a.687.687,0,0,1-.022.092l-.421,1.826-3.588-3.459.483-.157-.836-.779-1.539.5,6.056,5.839,1.952-8.444-1.585.516-.262,1.136Z" fill="#d8d8d8"/>
        <path id="Path_357275" data-name="Path 357275" d="M247.616,400.08l-1.57.481-2.946.9,1.622,1.513.836.779,2.153,2.007.251.234.481.448.085-.373.327-1.42.489-2.128.262-1.136.474-2.062Zm.62,2.8-.087.375-.292,1.272-1.212-1.129-.172-.161-.664-.619-.761-.71,1.067-.327,1.535-.47,1.068-.327-.221.96Z" fill="#d8d8d8"/>
      </g>
      <g id="icon_delay-2" data-name="icon delay" transform="translate(-184.1 -344.644)">
        <path id="Path_357272-2" data-name="Path 357272" d="M249.927,392.895a9.321,9.321,0,0,0-3.964,7.754l1.57-.481a7.773,7.773,0,1,1,7.758,8.142h0a.778.778,0,1,0,0,1.556h.005a9.334,9.334,0,1,0-5.369-16.971Z" fill="#d8d8d8"/>
        <path id="Path_357273-2" data-name="Path 357273" d="M256.071,400.532v-3.889a.778.778,0,1,0-1.556,0v3.57l-2.108,2.1a.781.781,0,0,0,1.1,1.1l2.333-2.333A.779.779,0,0,0,256.071,400.532Z" fill="#d8d8d8"/>
        <path id="Path_357274-2" data-name="Path 357274" d="M249.819,402.369l-.713,3.084a.687.687,0,0,1-.022.092l-.421,1.826-3.588-3.459.483-.157-.836-.779-1.539.5,6.056,5.839,1.952-8.444-1.585.516-.262,1.136Z" fill="#d8d8d8"/>
        <path id="Path_357275-2" data-name="Path 357275" d="M247.616,400.08l-1.57.481-2.946.9,1.622,1.513.836.779,2.153,2.007.251.234.481.448.085-.373.327-1.42.489-2.128.262-1.136.474-2.062Zm.62,2.8-.087.375-.292,1.272-1.212-1.129-.172-.161-.664-.619-.761-.71,1.067-.327,1.535-.47,1.068-.327-.221.96Z" fill="#d8d8d8"/>
      </g>
      <g id="icon_delay-3" data-name="icon delay" transform="translate(-243.1 -317.644)">
        <path id="Path_357272-3" data-name="Path 357272" d="M249.927,392.895a9.321,9.321,0,0,0-3.964,7.754l1.57-.481a7.773,7.773,0,1,1,7.758,8.142h0a.778.778,0,1,0,0,1.556h.005a9.334,9.334,0,1,0-5.369-16.971Z" fill="#d8d8d8"/>
        <path id="Path_357273-3" data-name="Path 357273" d="M256.071,400.532v-3.889a.778.778,0,1,0-1.556,0v3.57l-2.108,2.1a.781.781,0,0,0,1.1,1.1l2.333-2.333A.779.779,0,0,0,256.071,400.532Z" fill="#d8d8d8"/>
        <path id="Path_357274-3" data-name="Path 357274" d="M249.819,402.369l-.713,3.084a.687.687,0,0,1-.022.092l-.421,1.826-3.588-3.459.483-.157-.836-.779-1.539.5,6.056,5.839,1.952-8.444-1.585.516-.262,1.136Z" fill="#d8d8d8"/>
        <path id="Path_357275-3" data-name="Path 357275" d="M247.616,400.08l-1.57.481-2.946.9,1.622,1.513.836.779,2.153,2.007.251.234.481.448.085-.373.327-1.42.489-2.128.262-1.136.474-2.062Zm.62,2.8-.087.375-.292,1.272-1.212-1.129-.172-.161-.664-.619-.761-.71,1.067-.327,1.535-.47,1.068-.327-.221.96Z" fill="#d8d8d8"/>
      </g>
      <g id="icon_delay-4" data-name="icon delay" transform="translate(-133.575 -326.644)">
        <path id="Path_357272-4" data-name="Path 357272" d="M249.927,392.895a9.321,9.321,0,0,0-3.964,7.754l1.57-.481a7.773,7.773,0,1,1,7.758,8.142h0a.778.778,0,1,0,0,1.556h.005a9.334,9.334,0,1,0-5.369-16.971Z" fill="#d8d8d8"/>
        <path id="Path_357273-4" data-name="Path 357273" d="M256.071,400.532v-3.889a.778.778,0,1,0-1.556,0v3.57l-2.108,2.1a.781.781,0,0,0,1.1,1.1l2.333-2.333A.779.779,0,0,0,256.071,400.532Z" fill="#d8d8d8"/>
        <path id="Path_357274-4" data-name="Path 357274" d="M249.819,402.369l-.713,3.084a.687.687,0,0,1-.022.092l-.421,1.826-3.588-3.459.483-.157-.836-.779-1.539.5,6.056,5.839,1.952-8.444-1.585.516-.262,1.136Z" fill="#d8d8d8"/>
        <path id="Path_357275-4" data-name="Path 357275" d="M247.616,400.08l-1.57.481-2.946.9,1.622,1.513.836.779,2.153,2.007.251.234.481.448.085-.373.327-1.42.489-2.128.262-1.136.474-2.062Zm.62,2.8-.087.375-.292,1.272-1.212-1.129-.172-.161-.664-.619-.761-.71,1.067-.327,1.535-.47,1.068-.327-.221.96Z" fill="#d8d8d8"/>
      </g>
      <g id="icon_delay-5" data-name="icon delay" transform="translate(-143.575 -387.644)">
        <path id="Path_357272-5" data-name="Path 357272" d="M249.927,392.895a9.321,9.321,0,0,0-3.964,7.754l1.57-.481a7.773,7.773,0,1,1,7.758,8.142h0a.778.778,0,1,0,0,1.556h.005a9.334,9.334,0,1,0-5.369-16.971Z" fill="#d8d8d8"/>
        <path id="Path_357273-5" data-name="Path 357273" d="M256.071,400.532v-3.889a.778.778,0,1,0-1.556,0v3.57l-2.108,2.1a.781.781,0,0,0,1.1,1.1l2.333-2.333A.779.779,0,0,0,256.071,400.532Z" fill="#d8d8d8"/>
        <path id="Path_357274-5" data-name="Path 357274" d="M249.819,402.369l-.713,3.084a.687.687,0,0,1-.022.092l-.421,1.826-3.588-3.459.483-.157-.836-.779-1.539.5,6.056,5.839,1.952-8.444-1.585.516-.262,1.136Z" fill="#d8d8d8"/>
        <path id="Path_357275-5" data-name="Path 357275" d="M247.616,400.08l-1.57.481-2.946.9,1.622,1.513.836.779,2.153,2.007.251.234.481.448.085-.373.327-1.42.489-2.128.262-1.136.474-2.062Zm.62,2.8-.087.375-.292,1.272-1.212-1.129-.172-.161-.664-.619-.761-.71,1.067-.327,1.535-.47,1.068-.327-.221.96Z" fill="#d8d8d8"/>
      </g>
      <g id="icon_delay-6" data-name="icon delay" transform="translate(-90.575 -366.228)">
        <path id="Path_357272-6" data-name="Path 357272" d="M249.927,392.895a9.321,9.321,0,0,0-3.964,7.754l1.57-.481a7.773,7.773,0,1,1,7.758,8.142h0a.778.778,0,1,0,0,1.556h.005a9.334,9.334,0,1,0-5.369-16.971Z" fill="#d8d8d8"/>
        <path id="Path_357273-6" data-name="Path 357273" d="M256.071,400.532v-3.889a.778.778,0,1,0-1.556,0v3.57l-2.108,2.1a.781.781,0,0,0,1.1,1.1l2.333-2.333A.779.779,0,0,0,256.071,400.532Z" fill="#d8d8d8"/>
        <path id="Path_357274-6" data-name="Path 357274" d="M249.819,402.369l-.713,3.084a.687.687,0,0,1-.022.092l-.421,1.826-3.588-3.459.483-.157-.836-.779-1.539.5,6.056,5.839,1.952-8.444-1.585.516-.262,1.136Z" fill="#d8d8d8"/>
        <path id="Path_357275-6" data-name="Path 357275" d="M247.616,400.08l-1.57.481-2.946.9,1.622,1.513.836.779,2.153,2.007.251.234.481.448.085-.373.327-1.42.489-2.128.262-1.136.474-2.062Zm.62,2.8-.087.375-.292,1.272-1.212-1.129-.172-.161-.664-.619-.761-.71,1.067-.327,1.535-.47,1.068-.327-.221.96Z" fill="#d8d8d8"/>
      </g>
    </g>
    <g id="Group_910-2" data-name="Group 910" transform="translate(196 -3.553)">
      <g id="icon_delay-7" data-name="icon delay" transform="translate(-226.802 -378.545)">
        <path id="Path_357272-7" data-name="Path 357272" d="M249.927,392.895a9.321,9.321,0,0,0-3.964,7.754l1.57-.481a7.773,7.773,0,1,1,7.758,8.142h0a.778.778,0,1,0,0,1.556h.005a9.334,9.334,0,1,0-5.369-16.971Z" fill="#d8d8d8"/>
        <path id="Path_357273-7" data-name="Path 357273" d="M256.071,400.532v-3.889a.778.778,0,1,0-1.556,0v3.57l-2.108,2.1a.781.781,0,0,0,1.1,1.1l2.333-2.333A.779.779,0,0,0,256.071,400.532Z" fill="#d8d8d8"/>
        <path id="Path_357274-7" data-name="Path 357274" d="M249.819,402.369l-.713,3.084a.687.687,0,0,1-.022.092l-.421,1.826-3.588-3.459.483-.157-.836-.779-1.539.5,6.056,5.839,1.952-8.444-1.585.516-.262,1.136Z" fill="#d8d8d8"/>
        <path id="Path_357275-7" data-name="Path 357275" d="M247.616,400.08l-1.57.481-2.946.9,1.622,1.513.836.779,2.153,2.007.251.234.481.448.085-.373.327-1.42.489-2.128.262-1.136.474-2.062Zm.62,2.8-.087.375-.292,1.272-1.212-1.129-.172-.161-.664-.619-.761-.71,1.067-.327,1.535-.47,1.068-.327-.221.96Z" fill="#d8d8d8"/>
      </g>
      <g id="icon_delay-8" data-name="icon delay" transform="translate(-184.1 -344.644)">
        <path id="Path_357272-8" data-name="Path 357272" d="M249.927,392.895a9.321,9.321,0,0,0-3.964,7.754l1.57-.481a7.773,7.773,0,1,1,7.758,8.142h0a.778.778,0,1,0,0,1.556h.005a9.334,9.334,0,1,0-5.369-16.971Z" fill="#d8d8d8"/>
        <path id="Path_357273-8" data-name="Path 357273" d="M256.071,400.532v-3.889a.778.778,0,1,0-1.556,0v3.57l-2.108,2.1a.781.781,0,0,0,1.1,1.1l2.333-2.333A.779.779,0,0,0,256.071,400.532Z" fill="#d8d8d8"/>
        <path id="Path_357274-8" data-name="Path 357274" d="M249.819,402.369l-.713,3.084a.687.687,0,0,1-.022.092l-.421,1.826-3.588-3.459.483-.157-.836-.779-1.539.5,6.056,5.839,1.952-8.444-1.585.516-.262,1.136Z" fill="#d8d8d8"/>
        <path id="Path_357275-8" data-name="Path 357275" d="M247.616,400.08l-1.57.481-2.946.9,1.622,1.513.836.779,2.153,2.007.251.234.481.448.085-.373.327-1.42.489-2.128.262-1.136.474-2.062Zm.62,2.8-.087.375-.292,1.272-1.212-1.129-.172-.161-.664-.619-.761-.71,1.067-.327,1.535-.47,1.068-.327-.221.96Z" fill="#d8d8d8"/>
      </g>
      <g id="icon_delay-9" data-name="icon delay" transform="translate(-243.1 -317.644)">
        <path id="Path_357272-9" data-name="Path 357272" d="M249.927,392.895a9.321,9.321,0,0,0-3.964,7.754l1.57-.481a7.773,7.773,0,1,1,7.758,8.142h0a.778.778,0,1,0,0,1.556h.005a9.334,9.334,0,1,0-5.369-16.971Z" fill="#d8d8d8"/>
        <path id="Path_357273-9" data-name="Path 357273" d="M256.071,400.532v-3.889a.778.778,0,1,0-1.556,0v3.57l-2.108,2.1a.781.781,0,0,0,1.1,1.1l2.333-2.333A.779.779,0,0,0,256.071,400.532Z" fill="#d8d8d8"/>
        <path id="Path_357274-9" data-name="Path 357274" d="M249.819,402.369l-.713,3.084a.687.687,0,0,1-.022.092l-.421,1.826-3.588-3.459.483-.157-.836-.779-1.539.5,6.056,5.839,1.952-8.444-1.585.516-.262,1.136Z" fill="#d8d8d8"/>
        <path id="Path_357275-9" data-name="Path 357275" d="M247.616,400.08l-1.57.481-2.946.9,1.622,1.513.836.779,2.153,2.007.251.234.481.448.085-.373.327-1.42.489-2.128.262-1.136.474-2.062Zm.62,2.8-.087.375-.292,1.272-1.212-1.129-.172-.161-.664-.619-.761-.71,1.067-.327,1.535-.47,1.068-.327-.221.96Z" fill="#d8d8d8"/>
      </g>
      <g id="icon_delay-10" data-name="icon delay" transform="translate(-133.575 -326.644)">
        <path id="Path_357272-10" data-name="Path 357272" d="M249.927,392.895a9.321,9.321,0,0,0-3.964,7.754l1.57-.481a7.773,7.773,0,1,1,7.758,8.142h0a.778.778,0,1,0,0,1.556h.005a9.334,9.334,0,1,0-5.369-16.971Z" fill="#d8d8d8"/>
        <path id="Path_357273-10" data-name="Path 357273" d="M256.071,400.532v-3.889a.778.778,0,1,0-1.556,0v3.57l-2.108,2.1a.781.781,0,0,0,1.1,1.1l2.333-2.333A.779.779,0,0,0,256.071,400.532Z" fill="#d8d8d8"/>
        <path id="Path_357274-10" data-name="Path 357274" d="M249.819,402.369l-.713,3.084a.687.687,0,0,1-.022.092l-.421,1.826-3.588-3.459.483-.157-.836-.779-1.539.5,6.056,5.839,1.952-8.444-1.585.516-.262,1.136Z" fill="#d8d8d8"/>
        <path id="Path_357275-10" data-name="Path 357275" d="M247.616,400.08l-1.57.481-2.946.9,1.622,1.513.836.779,2.153,2.007.251.234.481.448.085-.373.327-1.42.489-2.128.262-1.136.474-2.062Zm.62,2.8-.087.375-.292,1.272-1.212-1.129-.172-.161-.664-.619-.761-.71,1.067-.327,1.535-.47,1.068-.327-.221.96Z" fill="#d8d8d8"/>
      </g>
      <g id="icon_delay-11" data-name="icon delay" transform="translate(-143.575 -387.644)">
        <path id="Path_357272-11" data-name="Path 357272" d="M249.927,392.895a9.321,9.321,0,0,0-3.964,7.754l1.57-.481a7.773,7.773,0,1,1,7.758,8.142h0a.778.778,0,1,0,0,1.556h.005a9.334,9.334,0,1,0-5.369-16.971Z" fill="#d8d8d8"/>
        <path id="Path_357273-11" data-name="Path 357273" d="M256.071,400.532v-3.889a.778.778,0,1,0-1.556,0v3.57l-2.108,2.1a.781.781,0,0,0,1.1,1.1l2.333-2.333A.779.779,0,0,0,256.071,400.532Z" fill="#d8d8d8"/>
        <path id="Path_357274-11" data-name="Path 357274" d="M249.819,402.369l-.713,3.084a.687.687,0,0,1-.022.092l-.421,1.826-3.588-3.459.483-.157-.836-.779-1.539.5,6.056,5.839,1.952-8.444-1.585.516-.262,1.136Z" fill="#d8d8d8"/>
        <path id="Path_357275-11" data-name="Path 357275" d="M247.616,400.08l-1.57.481-2.946.9,1.622,1.513.836.779,2.153,2.007.251.234.481.448.085-.373.327-1.42.489-2.128.262-1.136.474-2.062Zm.62,2.8-.087.375-.292,1.272-1.212-1.129-.172-.161-.664-.619-.761-.71,1.067-.327,1.535-.47,1.068-.327-.221.96Z" fill="#d8d8d8"/>
      </g>
      <g id="icon_delay-12" data-name="icon delay" transform="translate(-90.575 -366.228)">
        <path id="Path_357272-12" data-name="Path 357272" d="M249.927,392.895a9.321,9.321,0,0,0-3.964,7.754l1.57-.481a7.773,7.773,0,1,1,7.758,8.142h0a.778.778,0,1,0,0,1.556h.005a9.334,9.334,0,1,0-5.369-16.971Z" fill="#d8d8d8"/>
        <path id="Path_357273-12" data-name="Path 357273" d="M256.071,400.532v-3.889a.778.778,0,1,0-1.556,0v3.57l-2.108,2.1a.781.781,0,0,0,1.1,1.1l2.333-2.333A.779.779,0,0,0,256.071,400.532Z" fill="#d8d8d8"/>
        <path id="Path_357274-12" data-name="Path 357274" d="M249.819,402.369l-.713,3.084a.687.687,0,0,1-.022.092l-.421,1.826-3.588-3.459.483-.157-.836-.779-1.539.5,6.056,5.839,1.952-8.444-1.585.516-.262,1.136Z" fill="#d8d8d8"/>
        <path id="Path_357275-12" data-name="Path 357275" d="M247.616,400.08l-1.57.481-2.946.9,1.622,1.513.836.779,2.153,2.007.251.234.481.448.085-.373.327-1.42.489-2.128.262-1.136.474-2.062Zm.62,2.8-.087.375-.292,1.272-1.212-1.129-.172-.161-.664-.619-.761-.71,1.067-.327,1.535-.47,1.068-.327-.221.96Z" fill="#d8d8d8"/>
      </g>
    </g>
    <g id="Group_910-3" data-name="Group 910" transform="translate(392 -3.553)">
      <g id="icon_delay-13" data-name="icon delay" transform="translate(-226.802 -378.545)">
        <path id="Path_357272-13" data-name="Path 357272" d="M249.927,392.895a9.321,9.321,0,0,0-3.964,7.754l1.57-.481a7.773,7.773,0,1,1,7.758,8.142h0a.778.778,0,1,0,0,1.556h.005a9.334,9.334,0,1,0-5.369-16.971Z" fill="#d8d8d8"/>
        <path id="Path_357273-13" data-name="Path 357273" d="M256.071,400.532v-3.889a.778.778,0,1,0-1.556,0v3.57l-2.108,2.1a.781.781,0,0,0,1.1,1.1l2.333-2.333A.779.779,0,0,0,256.071,400.532Z" fill="#d8d8d8"/>
        <path id="Path_357274-13" data-name="Path 357274" d="M249.819,402.369l-.713,3.084a.687.687,0,0,1-.022.092l-.421,1.826-3.588-3.459.483-.157-.836-.779-1.539.5,6.056,5.839,1.952-8.444-1.585.516-.262,1.136Z" fill="#d8d8d8"/>
        <path id="Path_357275-13" data-name="Path 357275" d="M247.616,400.08l-1.57.481-2.946.9,1.622,1.513.836.779,2.153,2.007.251.234.481.448.085-.373.327-1.42.489-2.128.262-1.136.474-2.062Zm.62,2.8-.087.375-.292,1.272-1.212-1.129-.172-.161-.664-.619-.761-.71,1.067-.327,1.535-.47,1.068-.327-.221.96Z" fill="#d8d8d8"/>
      </g>
      <g id="icon_delay-14" data-name="icon delay" transform="translate(-184.1 -344.644)">
        <path id="Path_357272-14" data-name="Path 357272" d="M249.927,392.895a9.321,9.321,0,0,0-3.964,7.754l1.57-.481a7.773,7.773,0,1,1,7.758,8.142h0a.778.778,0,1,0,0,1.556h.005a9.334,9.334,0,1,0-5.369-16.971Z" fill="#d8d8d8"/>
        <path id="Path_357273-14" data-name="Path 357273" d="M256.071,400.532v-3.889a.778.778,0,1,0-1.556,0v3.57l-2.108,2.1a.781.781,0,0,0,1.1,1.1l2.333-2.333A.779.779,0,0,0,256.071,400.532Z" fill="#d8d8d8"/>
        <path id="Path_357274-14" data-name="Path 357274" d="M249.819,402.369l-.713,3.084a.687.687,0,0,1-.022.092l-.421,1.826-3.588-3.459.483-.157-.836-.779-1.539.5,6.056,5.839,1.952-8.444-1.585.516-.262,1.136Z" fill="#d8d8d8"/>
        <path id="Path_357275-14" data-name="Path 357275" d="M247.616,400.08l-1.57.481-2.946.9,1.622,1.513.836.779,2.153,2.007.251.234.481.448.085-.373.327-1.42.489-2.128.262-1.136.474-2.062Zm.62,2.8-.087.375-.292,1.272-1.212-1.129-.172-.161-.664-.619-.761-.71,1.067-.327,1.535-.47,1.068-.327-.221.96Z" fill="#d8d8d8"/>
      </g>
      <g id="icon_delay-15" data-name="icon delay" transform="translate(-243.1 -317.644)">
        <path id="Path_357272-15" data-name="Path 357272" d="M249.927,392.895a9.321,9.321,0,0,0-3.964,7.754l1.57-.481a7.773,7.773,0,1,1,7.758,8.142h0a.778.778,0,1,0,0,1.556h.005a9.334,9.334,0,1,0-5.369-16.971Z" fill="#d8d8d8"/>
        <path id="Path_357273-15" data-name="Path 357273" d="M256.071,400.532v-3.889a.778.778,0,1,0-1.556,0v3.57l-2.108,2.1a.781.781,0,0,0,1.1,1.1l2.333-2.333A.779.779,0,0,0,256.071,400.532Z" fill="#d8d8d8"/>
        <path id="Path_357274-15" data-name="Path 357274" d="M249.819,402.369l-.713,3.084a.687.687,0,0,1-.022.092l-.421,1.826-3.588-3.459.483-.157-.836-.779-1.539.5,6.056,5.839,1.952-8.444-1.585.516-.262,1.136Z" fill="#d8d8d8"/>
        <path id="Path_357275-15" data-name="Path 357275" d="M247.616,400.08l-1.57.481-2.946.9,1.622,1.513.836.779,2.153,2.007.251.234.481.448.085-.373.327-1.42.489-2.128.262-1.136.474-2.062Zm.62,2.8-.087.375-.292,1.272-1.212-1.129-.172-.161-.664-.619-.761-.71,1.067-.327,1.535-.47,1.068-.327-.221.96Z" fill="#d8d8d8"/>
      </g>
      <g id="icon_delay-16" data-name="icon delay" transform="translate(-133.575 -326.644)">
        <path id="Path_357272-16" data-name="Path 357272" d="M249.927,392.895a9.321,9.321,0,0,0-3.964,7.754l1.57-.481a7.773,7.773,0,1,1,7.758,8.142h0a.778.778,0,1,0,0,1.556h.005a9.334,9.334,0,1,0-5.369-16.971Z" fill="#d8d8d8"/>
        <path id="Path_357273-16" data-name="Path 357273" d="M256.071,400.532v-3.889a.778.778,0,1,0-1.556,0v3.57l-2.108,2.1a.781.781,0,0,0,1.1,1.1l2.333-2.333A.779.779,0,0,0,256.071,400.532Z" fill="#d8d8d8"/>
        <path id="Path_357274-16" data-name="Path 357274" d="M249.819,402.369l-.713,3.084a.687.687,0,0,1-.022.092l-.421,1.826-3.588-3.459.483-.157-.836-.779-1.539.5,6.056,5.839,1.952-8.444-1.585.516-.262,1.136Z" fill="#d8d8d8"/>
        <path id="Path_357275-16" data-name="Path 357275" d="M247.616,400.08l-1.57.481-2.946.9,1.622,1.513.836.779,2.153,2.007.251.234.481.448.085-.373.327-1.42.489-2.128.262-1.136.474-2.062Zm.62,2.8-.087.375-.292,1.272-1.212-1.129-.172-.161-.664-.619-.761-.71,1.067-.327,1.535-.47,1.068-.327-.221.96Z" fill="#d8d8d8"/>
      </g>
      <g id="icon_delay-17" data-name="icon delay" transform="translate(-143.575 -387.644)">
        <path id="Path_357272-17" data-name="Path 357272" d="M249.927,392.895a9.321,9.321,0,0,0-3.964,7.754l1.57-.481a7.773,7.773,0,1,1,7.758,8.142h0a.778.778,0,1,0,0,1.556h.005a9.334,9.334,0,1,0-5.369-16.971Z" fill="#d8d8d8"/>
        <path id="Path_357273-17" data-name="Path 357273" d="M256.071,400.532v-3.889a.778.778,0,1,0-1.556,0v3.57l-2.108,2.1a.781.781,0,0,0,1.1,1.1l2.333-2.333A.779.779,0,0,0,256.071,400.532Z" fill="#d8d8d8"/>
        <path id="Path_357274-17" data-name="Path 357274" d="M249.819,402.369l-.713,3.084a.687.687,0,0,1-.022.092l-.421,1.826-3.588-3.459.483-.157-.836-.779-1.539.5,6.056,5.839,1.952-8.444-1.585.516-.262,1.136Z" fill="#d8d8d8"/>
        <path id="Path_357275-17" data-name="Path 357275" d="M247.616,400.08l-1.57.481-2.946.9,1.622,1.513.836.779,2.153,2.007.251.234.481.448.085-.373.327-1.42.489-2.128.262-1.136.474-2.062Zm.62,2.8-.087.375-.292,1.272-1.212-1.129-.172-.161-.664-.619-.761-.71,1.067-.327,1.535-.47,1.068-.327-.221.96Z" fill="#d8d8d8"/>
      </g>
      <g id="icon_delay-18" data-name="icon delay" transform="translate(-90.575 -366.228)">
        <path id="Path_357272-18" data-name="Path 357272" d="M249.927,392.895a9.321,9.321,0,0,0-3.964,7.754l1.57-.481a7.773,7.773,0,1,1,7.758,8.142h0a.778.778,0,1,0,0,1.556h.005a9.334,9.334,0,1,0-5.369-16.971Z" fill="#d8d8d8"/>
        <path id="Path_357273-18" data-name="Path 357273" d="M256.071,400.532v-3.889a.778.778,0,1,0-1.556,0v3.57l-2.108,2.1a.781.781,0,0,0,1.1,1.1l2.333-2.333A.779.779,0,0,0,256.071,400.532Z" fill="#d8d8d8"/>
        <path id="Path_357274-18" data-name="Path 357274" d="M249.819,402.369l-.713,3.084a.687.687,0,0,1-.022.092l-.421,1.826-3.588-3.459.483-.157-.836-.779-1.539.5,6.056,5.839,1.952-8.444-1.585.516-.262,1.136Z" fill="#d8d8d8"/>
        <path id="Path_357275-18" data-name="Path 357275" d="M247.616,400.08l-1.57.481-2.946.9,1.622,1.513.836.779,2.153,2.007.251.234.481.448.085-.373.327-1.42.489-2.128.262-1.136.474-2.062Zm.62,2.8-.087.375-.292,1.272-1.212-1.129-.172-.161-.664-.619-.761-.71,1.067-.327,1.535-.47,1.068-.327-.221.96Z" fill="#d8d8d8"/>
      </g>
    </g>
    <g id="Group_910-4" data-name="Group 910" transform="translate(588 -3.553)">
      <g id="icon_delay-19" data-name="icon delay" transform="translate(-226.802 -378.545)">
        <path id="Path_357272-19" data-name="Path 357272" d="M249.927,392.895a9.321,9.321,0,0,0-3.964,7.754l1.57-.481a7.773,7.773,0,1,1,7.758,8.142h0a.778.778,0,1,0,0,1.556h.005a9.334,9.334,0,1,0-5.369-16.971Z" fill="#d8d8d8"/>
        <path id="Path_357273-19" data-name="Path 357273" d="M256.071,400.532v-3.889a.778.778,0,1,0-1.556,0v3.57l-2.108,2.1a.781.781,0,0,0,1.1,1.1l2.333-2.333A.779.779,0,0,0,256.071,400.532Z" fill="#d8d8d8"/>
        <path id="Path_357274-19" data-name="Path 357274" d="M249.819,402.369l-.713,3.084a.687.687,0,0,1-.022.092l-.421,1.826-3.588-3.459.483-.157-.836-.779-1.539.5,6.056,5.839,1.952-8.444-1.585.516-.262,1.136Z" fill="#d8d8d8"/>
        <path id="Path_357275-19" data-name="Path 357275" d="M247.616,400.08l-1.57.481-2.946.9,1.622,1.513.836.779,2.153,2.007.251.234.481.448.085-.373.327-1.42.489-2.128.262-1.136.474-2.062Zm.62,2.8-.087.375-.292,1.272-1.212-1.129-.172-.161-.664-.619-.761-.71,1.067-.327,1.535-.47,1.068-.327-.221.96Z" fill="#d8d8d8"/>
      </g>
      <g id="icon_delay-20" data-name="icon delay" transform="translate(-184.1 -344.644)">
        <path id="Path_357272-20" data-name="Path 357272" d="M249.927,392.895a9.321,9.321,0,0,0-3.964,7.754l1.57-.481a7.773,7.773,0,1,1,7.758,8.142h0a.778.778,0,1,0,0,1.556h.005a9.334,9.334,0,1,0-5.369-16.971Z" fill="#d8d8d8"/>
        <path id="Path_357273-20" data-name="Path 357273" d="M256.071,400.532v-3.889a.778.778,0,1,0-1.556,0v3.57l-2.108,2.1a.781.781,0,0,0,1.1,1.1l2.333-2.333A.779.779,0,0,0,256.071,400.532Z" fill="#d8d8d8"/>
        <path id="Path_357274-20" data-name="Path 357274" d="M249.819,402.369l-.713,3.084a.687.687,0,0,1-.022.092l-.421,1.826-3.588-3.459.483-.157-.836-.779-1.539.5,6.056,5.839,1.952-8.444-1.585.516-.262,1.136Z" fill="#d8d8d8"/>
        <path id="Path_357275-20" data-name="Path 357275" d="M247.616,400.08l-1.57.481-2.946.9,1.622,1.513.836.779,2.153,2.007.251.234.481.448.085-.373.327-1.42.489-2.128.262-1.136.474-2.062Zm.62,2.8-.087.375-.292,1.272-1.212-1.129-.172-.161-.664-.619-.761-.71,1.067-.327,1.535-.47,1.068-.327-.221.96Z" fill="#d8d8d8"/>
      </g>
      <g id="icon_delay-21" data-name="icon delay" transform="translate(-243.1 -317.644)">
        <path id="Path_357272-21" data-name="Path 357272" d="M249.927,392.895a9.321,9.321,0,0,0-3.964,7.754l1.57-.481a7.773,7.773,0,1,1,7.758,8.142h0a.778.778,0,1,0,0,1.556h.005a9.334,9.334,0,1,0-5.369-16.971Z" fill="#d8d8d8"/>
        <path id="Path_357273-21" data-name="Path 357273" d="M256.071,400.532v-3.889a.778.778,0,1,0-1.556,0v3.57l-2.108,2.1a.781.781,0,0,0,1.1,1.1l2.333-2.333A.779.779,0,0,0,256.071,400.532Z" fill="#d8d8d8"/>
        <path id="Path_357274-21" data-name="Path 357274" d="M249.819,402.369l-.713,3.084a.687.687,0,0,1-.022.092l-.421,1.826-3.588-3.459.483-.157-.836-.779-1.539.5,6.056,5.839,1.952-8.444-1.585.516-.262,1.136Z" fill="#d8d8d8"/>
        <path id="Path_357275-21" data-name="Path 357275" d="M247.616,400.08l-1.57.481-2.946.9,1.622,1.513.836.779,2.153,2.007.251.234.481.448.085-.373.327-1.42.489-2.128.262-1.136.474-2.062Zm.62,2.8-.087.375-.292,1.272-1.212-1.129-.172-.161-.664-.619-.761-.71,1.067-.327,1.535-.47,1.068-.327-.221.96Z" fill="#d8d8d8"/>
      </g>
      <g id="icon_delay-22" data-name="icon delay" transform="translate(-133.575 -326.644)">
        <path id="Path_357272-22" data-name="Path 357272" d="M249.927,392.895a9.321,9.321,0,0,0-3.964,7.754l1.57-.481a7.773,7.773,0,1,1,7.758,8.142h0a.778.778,0,1,0,0,1.556h.005a9.334,9.334,0,1,0-5.369-16.971Z" fill="#d8d8d8"/>
        <path id="Path_357273-22" data-name="Path 357273" d="M256.071,400.532v-3.889a.778.778,0,1,0-1.556,0v3.57l-2.108,2.1a.781.781,0,0,0,1.1,1.1l2.333-2.333A.779.779,0,0,0,256.071,400.532Z" fill="#d8d8d8"/>
        <path id="Path_357274-22" data-name="Path 357274" d="M249.819,402.369l-.713,3.084a.687.687,0,0,1-.022.092l-.421,1.826-3.588-3.459.483-.157-.836-.779-1.539.5,6.056,5.839,1.952-8.444-1.585.516-.262,1.136Z" fill="#d8d8d8"/>
        <path id="Path_357275-22" data-name="Path 357275" d="M247.616,400.08l-1.57.481-2.946.9,1.622,1.513.836.779,2.153,2.007.251.234.481.448.085-.373.327-1.42.489-2.128.262-1.136.474-2.062Zm.62,2.8-.087.375-.292,1.272-1.212-1.129-.172-.161-.664-.619-.761-.71,1.067-.327,1.535-.47,1.068-.327-.221.96Z" fill="#d8d8d8"/>
      </g>
      <g id="icon_delay-23" data-name="icon delay" transform="translate(-143.575 -387.644)">
        <path id="Path_357272-23" data-name="Path 357272" d="M249.927,392.895a9.321,9.321,0,0,0-3.964,7.754l1.57-.481a7.773,7.773,0,1,1,7.758,8.142h0a.778.778,0,1,0,0,1.556h.005a9.334,9.334,0,1,0-5.369-16.971Z" fill="#d8d8d8"/>
        <path id="Path_357273-23" data-name="Path 357273" d="M256.071,400.532v-3.889a.778.778,0,1,0-1.556,0v3.57l-2.108,2.1a.781.781,0,0,0,1.1,1.1l2.333-2.333A.779.779,0,0,0,256.071,400.532Z" fill="#d8d8d8"/>
        <path id="Path_357274-23" data-name="Path 357274" d="M249.819,402.369l-.713,3.084a.687.687,0,0,1-.022.092l-.421,1.826-3.588-3.459.483-.157-.836-.779-1.539.5,6.056,5.839,1.952-8.444-1.585.516-.262,1.136Z" fill="#d8d8d8"/>
        <path id="Path_357275-23" data-name="Path 357275" d="M247.616,400.08l-1.57.481-2.946.9,1.622,1.513.836.779,2.153,2.007.251.234.481.448.085-.373.327-1.42.489-2.128.262-1.136.474-2.062Zm.62,2.8-.087.375-.292,1.272-1.212-1.129-.172-.161-.664-.619-.761-.71,1.067-.327,1.535-.47,1.068-.327-.221.96Z" fill="#d8d8d8"/>
      </g>
      <g id="icon_delay-24" data-name="icon delay" transform="translate(-90.575 -366.228)">
        <path id="Path_357272-24" data-name="Path 357272" d="M249.927,392.895a9.321,9.321,0,0,0-3.964,7.754l1.57-.481a7.773,7.773,0,1,1,7.758,8.142h0a.778.778,0,1,0,0,1.556h.005a9.334,9.334,0,1,0-5.369-16.971Z" fill="#d8d8d8"/>
        <path id="Path_357273-24" data-name="Path 357273" d="M256.071,400.532v-3.889a.778.778,0,1,0-1.556,0v3.57l-2.108,2.1a.781.781,0,0,0,1.1,1.1l2.333-2.333A.779.779,0,0,0,256.071,400.532Z" fill="#d8d8d8"/>
        <path id="Path_357274-24" data-name="Path 357274" d="M249.819,402.369l-.713,3.084a.687.687,0,0,1-.022.092l-.421,1.826-3.588-3.459.483-.157-.836-.779-1.539.5,6.056,5.839,1.952-8.444-1.585.516-.262,1.136Z" fill="#d8d8d8"/>
        <path id="Path_357275-24" data-name="Path 357275" d="M247.616,400.08l-1.57.481-2.946.9,1.622,1.513.836.779,2.153,2.007.251.234.481.448.085-.373.327-1.42.489-2.128.262-1.136.474-2.062Zm.62,2.8-.087.375-.292,1.272-1.212-1.129-.172-.161-.664-.619-.761-.71,1.067-.327,1.535-.47,1.068-.327-.221.96Z" fill="#d8d8d8"/>
      </g>
    </g>
    <g id="Group_910-5" data-name="Group 910" transform="translate(784 -3.553)">
      <g id="icon_delay-25" data-name="icon delay" transform="translate(-226.802 -378.545)">
        <path id="Path_357272-25" data-name="Path 357272" d="M249.927,392.895a9.321,9.321,0,0,0-3.964,7.754l1.57-.481a7.773,7.773,0,1,1,7.758,8.142h0a.778.778,0,1,0,0,1.556h.005a9.334,9.334,0,1,0-5.369-16.971Z" fill="#d8d8d8"/>
        <path id="Path_357273-25" data-name="Path 357273" d="M256.071,400.532v-3.889a.778.778,0,1,0-1.556,0v3.57l-2.108,2.1a.781.781,0,0,0,1.1,1.1l2.333-2.333A.779.779,0,0,0,256.071,400.532Z" fill="#d8d8d8"/>
        <path id="Path_357274-25" data-name="Path 357274" d="M249.819,402.369l-.713,3.084a.687.687,0,0,1-.022.092l-.421,1.826-3.588-3.459.483-.157-.836-.779-1.539.5,6.056,5.839,1.952-8.444-1.585.516-.262,1.136Z" fill="#d8d8d8"/>
        <path id="Path_357275-25" data-name="Path 357275" d="M247.616,400.08l-1.57.481-2.946.9,1.622,1.513.836.779,2.153,2.007.251.234.481.448.085-.373.327-1.42.489-2.128.262-1.136.474-2.062Zm.62,2.8-.087.375-.292,1.272-1.212-1.129-.172-.161-.664-.619-.761-.71,1.067-.327,1.535-.47,1.068-.327-.221.96Z" fill="#d8d8d8"/>
      </g>
      <g id="icon_delay-26" data-name="icon delay" transform="translate(-184.1 -344.644)">
        <path id="Path_357272-26" data-name="Path 357272" d="M249.927,392.895a9.321,9.321,0,0,0-3.964,7.754l1.57-.481a7.773,7.773,0,1,1,7.758,8.142h0a.778.778,0,1,0,0,1.556h.005a9.334,9.334,0,1,0-5.369-16.971Z" fill="#d8d8d8"/>
        <path id="Path_357273-26" data-name="Path 357273" d="M256.071,400.532v-3.889a.778.778,0,1,0-1.556,0v3.57l-2.108,2.1a.781.781,0,0,0,1.1,1.1l2.333-2.333A.779.779,0,0,0,256.071,400.532Z" fill="#d8d8d8"/>
        <path id="Path_357274-26" data-name="Path 357274" d="M249.819,402.369l-.713,3.084a.687.687,0,0,1-.022.092l-.421,1.826-3.588-3.459.483-.157-.836-.779-1.539.5,6.056,5.839,1.952-8.444-1.585.516-.262,1.136Z" fill="#d8d8d8"/>
        <path id="Path_357275-26" data-name="Path 357275" d="M247.616,400.08l-1.57.481-2.946.9,1.622,1.513.836.779,2.153,2.007.251.234.481.448.085-.373.327-1.42.489-2.128.262-1.136.474-2.062Zm.62,2.8-.087.375-.292,1.272-1.212-1.129-.172-.161-.664-.619-.761-.71,1.067-.327,1.535-.47,1.068-.327-.221.96Z" fill="#d8d8d8"/>
      </g>
      <g id="icon_delay-27" data-name="icon delay" transform="translate(-243.1 -317.644)">
        <path id="Path_357272-27" data-name="Path 357272" d="M249.927,392.895a9.321,9.321,0,0,0-3.964,7.754l1.57-.481a7.773,7.773,0,1,1,7.758,8.142h0a.778.778,0,1,0,0,1.556h.005a9.334,9.334,0,1,0-5.369-16.971Z" fill="#d8d8d8"/>
        <path id="Path_357273-27" data-name="Path 357273" d="M256.071,400.532v-3.889a.778.778,0,1,0-1.556,0v3.57l-2.108,2.1a.781.781,0,0,0,1.1,1.1l2.333-2.333A.779.779,0,0,0,256.071,400.532Z" fill="#d8d8d8"/>
        <path id="Path_357274-27" data-name="Path 357274" d="M249.819,402.369l-.713,3.084a.687.687,0,0,1-.022.092l-.421,1.826-3.588-3.459.483-.157-.836-.779-1.539.5,6.056,5.839,1.952-8.444-1.585.516-.262,1.136Z" fill="#d8d8d8"/>
        <path id="Path_357275-27" data-name="Path 357275" d="M247.616,400.08l-1.57.481-2.946.9,1.622,1.513.836.779,2.153,2.007.251.234.481.448.085-.373.327-1.42.489-2.128.262-1.136.474-2.062Zm.62,2.8-.087.375-.292,1.272-1.212-1.129-.172-.161-.664-.619-.761-.71,1.067-.327,1.535-.47,1.068-.327-.221.96Z" fill="#d8d8d8"/>
      </g>
      <g id="icon_delay-28" data-name="icon delay" transform="translate(-133.575 -326.644)">
        <path id="Path_357272-28" data-name="Path 357272" d="M249.927,392.895a9.321,9.321,0,0,0-3.964,7.754l1.57-.481a7.773,7.773,0,1,1,7.758,8.142h0a.778.778,0,1,0,0,1.556h.005a9.334,9.334,0,1,0-5.369-16.971Z" fill="#d8d8d8"/>
        <path id="Path_357273-28" data-name="Path 357273" d="M256.071,400.532v-3.889a.778.778,0,1,0-1.556,0v3.57l-2.108,2.1a.781.781,0,0,0,1.1,1.1l2.333-2.333A.779.779,0,0,0,256.071,400.532Z" fill="#d8d8d8"/>
        <path id="Path_357274-28" data-name="Path 357274" d="M249.819,402.369l-.713,3.084a.687.687,0,0,1-.022.092l-.421,1.826-3.588-3.459.483-.157-.836-.779-1.539.5,6.056,5.839,1.952-8.444-1.585.516-.262,1.136Z" fill="#d8d8d8"/>
        <path id="Path_357275-28" data-name="Path 357275" d="M247.616,400.08l-1.57.481-2.946.9,1.622,1.513.836.779,2.153,2.007.251.234.481.448.085-.373.327-1.42.489-2.128.262-1.136.474-2.062Zm.62,2.8-.087.375-.292,1.272-1.212-1.129-.172-.161-.664-.619-.761-.71,1.067-.327,1.535-.47,1.068-.327-.221.96Z" fill="#d8d8d8"/>
      </g>
      <g id="icon_delay-29" data-name="icon delay" transform="translate(-143.575 -387.644)">
        <path id="Path_357272-29" data-name="Path 357272" d="M249.927,392.895a9.321,9.321,0,0,0-3.964,7.754l1.57-.481a7.773,7.773,0,1,1,7.758,8.142h0a.778.778,0,1,0,0,1.556h.005a9.334,9.334,0,1,0-5.369-16.971Z" fill="#d8d8d8"/>
        <path id="Path_357273-29" data-name="Path 357273" d="M256.071,400.532v-3.889a.778.778,0,1,0-1.556,0v3.57l-2.108,2.1a.781.781,0,0,0,1.1,1.1l2.333-2.333A.779.779,0,0,0,256.071,400.532Z" fill="#d8d8d8"/>
        <path id="Path_357274-29" data-name="Path 357274" d="M249.819,402.369l-.713,3.084a.687.687,0,0,1-.022.092l-.421,1.826-3.588-3.459.483-.157-.836-.779-1.539.5,6.056,5.839,1.952-8.444-1.585.516-.262,1.136Z" fill="#d8d8d8"/>
        <path id="Path_357275-29" data-name="Path 357275" d="M247.616,400.08l-1.57.481-2.946.9,1.622,1.513.836.779,2.153,2.007.251.234.481.448.085-.373.327-1.42.489-2.128.262-1.136.474-2.062Zm.62,2.8-.087.375-.292,1.272-1.212-1.129-.172-.161-.664-.619-.761-.71,1.067-.327,1.535-.47,1.068-.327-.221.96Z" fill="#d8d8d8"/>
      </g>
      <g id="icon_delay-30" data-name="icon delay" transform="translate(-90.575 -366.228)">
        <path id="Path_357272-30" data-name="Path 357272" d="M249.927,392.895a9.321,9.321,0,0,0-3.964,7.754l1.57-.481a7.773,7.773,0,1,1,7.758,8.142h0a.778.778,0,1,0,0,1.556h.005a9.334,9.334,0,1,0-5.369-16.971Z" fill="#d8d8d8"/>
        <path id="Path_357273-30" data-name="Path 357273" d="M256.071,400.532v-3.889a.778.778,0,1,0-1.556,0v3.57l-2.108,2.1a.781.781,0,0,0,1.1,1.1l2.333-2.333A.779.779,0,0,0,256.071,400.532Z" fill="#d8d8d8"/>
        <path id="Path_357274-30" data-name="Path 357274" d="M249.819,402.369l-.713,3.084a.687.687,0,0,1-.022.092l-.421,1.826-3.588-3.459.483-.157-.836-.779-1.539.5,6.056,5.839,1.952-8.444-1.585.516-.262,1.136Z" fill="#d8d8d8"/>
        <path id="Path_357275-30" data-name="Path 357275" d="M247.616,400.08l-1.57.481-2.946.9,1.622,1.513.836.779,2.153,2.007.251.234.481.448.085-.373.327-1.42.489-2.128.262-1.136.474-2.062Zm.62,2.8-.087.375-.292,1.272-1.212-1.129-.172-.161-.664-.619-.761-.71,1.067-.327,1.535-.47,1.068-.327-.221.96Z" fill="#d8d8d8"/>
      </g>
    </g>
    <g id="Group_910-6" data-name="Group 910" transform="translate(980 -3.553)">
      <g id="icon_delay-31" data-name="icon delay" transform="translate(-226.802 -378.545)">
        <path id="Path_357272-31" data-name="Path 357272" d="M249.927,392.895a9.321,9.321,0,0,0-3.964,7.754l1.57-.481a7.773,7.773,0,1,1,7.758,8.142h0a.778.778,0,1,0,0,1.556h.005a9.334,9.334,0,1,0-5.369-16.971Z" fill="#d8d8d8"/>
        <path id="Path_357273-31" data-name="Path 357273" d="M256.071,400.532v-3.889a.778.778,0,1,0-1.556,0v3.57l-2.108,2.1a.781.781,0,0,0,1.1,1.1l2.333-2.333A.779.779,0,0,0,256.071,400.532Z" fill="#d8d8d8"/>
        <path id="Path_357274-31" data-name="Path 357274" d="M249.819,402.369l-.713,3.084a.687.687,0,0,1-.022.092l-.421,1.826-3.588-3.459.483-.157-.836-.779-1.539.5,6.056,5.839,1.952-8.444-1.585.516-.262,1.136Z" fill="#d8d8d8"/>
        <path id="Path_357275-31" data-name="Path 357275" d="M247.616,400.08l-1.57.481-2.946.9,1.622,1.513.836.779,2.153,2.007.251.234.481.448.085-.373.327-1.42.489-2.128.262-1.136.474-2.062Zm.62,2.8-.087.375-.292,1.272-1.212-1.129-.172-.161-.664-.619-.761-.71,1.067-.327,1.535-.47,1.068-.327-.221.96Z" fill="#d8d8d8"/>
      </g>
      <g id="icon_delay-32" data-name="icon delay" transform="translate(-184.1 -344.644)">
        <path id="Path_357272-32" data-name="Path 357272" d="M249.927,392.895a9.321,9.321,0,0,0-3.964,7.754l1.57-.481a7.773,7.773,0,1,1,7.758,8.142h0a.778.778,0,1,0,0,1.556h.005a9.334,9.334,0,1,0-5.369-16.971Z" fill="#d8d8d8"/>
        <path id="Path_357273-32" data-name="Path 357273" d="M256.071,400.532v-3.889a.778.778,0,1,0-1.556,0v3.57l-2.108,2.1a.781.781,0,0,0,1.1,1.1l2.333-2.333A.779.779,0,0,0,256.071,400.532Z" fill="#d8d8d8"/>
        <path id="Path_357274-32" data-name="Path 357274" d="M249.819,402.369l-.713,3.084a.687.687,0,0,1-.022.092l-.421,1.826-3.588-3.459.483-.157-.836-.779-1.539.5,6.056,5.839,1.952-8.444-1.585.516-.262,1.136Z" fill="#d8d8d8"/>
        <path id="Path_357275-32" data-name="Path 357275" d="M247.616,400.08l-1.57.481-2.946.9,1.622,1.513.836.779,2.153,2.007.251.234.481.448.085-.373.327-1.42.489-2.128.262-1.136.474-2.062Zm.62,2.8-.087.375-.292,1.272-1.212-1.129-.172-.161-.664-.619-.761-.71,1.067-.327,1.535-.47,1.068-.327-.221.96Z" fill="#d8d8d8"/>
      </g>
      <g id="icon_delay-33" data-name="icon delay" transform="translate(-243.1 -317.644)">
        <path id="Path_357272-33" data-name="Path 357272" d="M249.927,392.895a9.321,9.321,0,0,0-3.964,7.754l1.57-.481a7.773,7.773,0,1,1,7.758,8.142h0a.778.778,0,1,0,0,1.556h.005a9.334,9.334,0,1,0-5.369-16.971Z" fill="#d8d8d8"/>
        <path id="Path_357273-33" data-name="Path 357273" d="M256.071,400.532v-3.889a.778.778,0,1,0-1.556,0v3.57l-2.108,2.1a.781.781,0,0,0,1.1,1.1l2.333-2.333A.779.779,0,0,0,256.071,400.532Z" fill="#d8d8d8"/>
        <path id="Path_357274-33" data-name="Path 357274" d="M249.819,402.369l-.713,3.084a.687.687,0,0,1-.022.092l-.421,1.826-3.588-3.459.483-.157-.836-.779-1.539.5,6.056,5.839,1.952-8.444-1.585.516-.262,1.136Z" fill="#d8d8d8"/>
        <path id="Path_357275-33" data-name="Path 357275" d="M247.616,400.08l-1.57.481-2.946.9,1.622,1.513.836.779,2.153,2.007.251.234.481.448.085-.373.327-1.42.489-2.128.262-1.136.474-2.062Zm.62,2.8-.087.375-.292,1.272-1.212-1.129-.172-.161-.664-.619-.761-.71,1.067-.327,1.535-.47,1.068-.327-.221.96Z" fill="#d8d8d8"/>
      </g>
      <g id="icon_delay-34" data-name="icon delay" transform="translate(-133.575 -326.644)">
        <path id="Path_357272-34" data-name="Path 357272" d="M249.927,392.895a9.321,9.321,0,0,0-3.964,7.754l1.57-.481a7.773,7.773,0,1,1,7.758,8.142h0a.778.778,0,1,0,0,1.556h.005a9.334,9.334,0,1,0-5.369-16.971Z" fill="#d8d8d8"/>
        <path id="Path_357273-34" data-name="Path 357273" d="M256.071,400.532v-3.889a.778.778,0,1,0-1.556,0v3.57l-2.108,2.1a.781.781,0,0,0,1.1,1.1l2.333-2.333A.779.779,0,0,0,256.071,400.532Z" fill="#d8d8d8"/>
        <path id="Path_357274-34" data-name="Path 357274" d="M249.819,402.369l-.713,3.084a.687.687,0,0,1-.022.092l-.421,1.826-3.588-3.459.483-.157-.836-.779-1.539.5,6.056,5.839,1.952-8.444-1.585.516-.262,1.136Z" fill="#d8d8d8"/>
        <path id="Path_357275-34" data-name="Path 357275" d="M247.616,400.08l-1.57.481-2.946.9,1.622,1.513.836.779,2.153,2.007.251.234.481.448.085-.373.327-1.42.489-2.128.262-1.136.474-2.062Zm.62,2.8-.087.375-.292,1.272-1.212-1.129-.172-.161-.664-.619-.761-.71,1.067-.327,1.535-.47,1.068-.327-.221.96Z" fill="#d8d8d8"/>
      </g>
      <g id="icon_delay-35" data-name="icon delay" transform="translate(-143.575 -387.644)">
        <path id="Path_357272-35" data-name="Path 357272" d="M249.927,392.895a9.321,9.321,0,0,0-3.964,7.754l1.57-.481a7.773,7.773,0,1,1,7.758,8.142h0a.778.778,0,1,0,0,1.556h.005a9.334,9.334,0,1,0-5.369-16.971Z" fill="#d8d8d8"/>
        <path id="Path_357273-35" data-name="Path 357273" d="M256.071,400.532v-3.889a.778.778,0,1,0-1.556,0v3.57l-2.108,2.1a.781.781,0,0,0,1.1,1.1l2.333-2.333A.779.779,0,0,0,256.071,400.532Z" fill="#d8d8d8"/>
        <path id="Path_357274-35" data-name="Path 357274" d="M249.819,402.369l-.713,3.084a.687.687,0,0,1-.022.092l-.421,1.826-3.588-3.459.483-.157-.836-.779-1.539.5,6.056,5.839,1.952-8.444-1.585.516-.262,1.136Z" fill="#d8d8d8"/>
        <path id="Path_357275-35" data-name="Path 357275" d="M247.616,400.08l-1.57.481-2.946.9,1.622,1.513.836.779,2.153,2.007.251.234.481.448.085-.373.327-1.42.489-2.128.262-1.136.474-2.062Zm.62,2.8-.087.375-.292,1.272-1.212-1.129-.172-.161-.664-.619-.761-.71,1.067-.327,1.535-.47,1.068-.327-.221.96Z" fill="#d8d8d8"/>
      </g>
      <g id="icon_delay-36" data-name="icon delay" transform="translate(-90.575 -366.228)">
        <path id="Path_357272-36" data-name="Path 357272" d="M249.927,392.895a9.321,9.321,0,0,0-3.964,7.754l1.57-.481a7.773,7.773,0,1,1,7.758,8.142h0a.778.778,0,1,0,0,1.556h.005a9.334,9.334,0,1,0-5.369-16.971Z" fill="#d8d8d8"/>
        <path id="Path_357273-36" data-name="Path 357273" d="M256.071,400.532v-3.889a.778.778,0,1,0-1.556,0v3.57l-2.108,2.1a.781.781,0,0,0,1.1,1.1l2.333-2.333A.779.779,0,0,0,256.071,400.532Z" fill="#d8d8d8"/>
        <path id="Path_357274-36" data-name="Path 357274" d="M249.819,402.369l-.713,3.084a.687.687,0,0,1-.022.092l-.421,1.826-3.588-3.459.483-.157-.836-.779-1.539.5,6.056,5.839,1.952-8.444-1.585.516-.262,1.136Z" fill="#d8d8d8"/>
        <path id="Path_357275-36" data-name="Path 357275" d="M247.616,400.08l-1.57.481-2.946.9,1.622,1.513.836.779,2.153,2.007.251.234.481.448.085-.373.327-1.42.489-2.128.262-1.136.474-2.062Zm.62,2.8-.087.375-.292,1.272-1.212-1.129-.172-.161-.664-.619-.761-.71,1.067-.327,1.535-.47,1.068-.327-.221.96Z" fill="#d8d8d8"/>
      </g>
    </g>
  </g>
</svg>
