<svg id="bg_heating" data-name="bg heating" xmlns="http://www.w3.org/2000/svg" xmlns:xlink="http://www.w3.org/1999/xlink" width="1024.218" height="86.037" viewBox="0 0 1024.218 86.037">
  <defs>
    <clipPath id="clip-path">
      <rect width="1024.218" height="86.037" fill="none"/>
    </clipPath>
  </defs>
  <g id="Repeat_Grid_33" data-name="Repeat Grid 33" clip-path="url(#clip-path)">
    <g id="Group_848" data-name="Group 848" transform="translate(1.519 0.238)">
      <g id="icon_heating" data-name="icon heating" transform="translate(-375.376 -223.748) rotate(-25)">
        <g id="Path_357213" data-name="Path 357213">
          <path id="Path_357254" data-name="Path 357254" d="M269.99,399.692a7.9,7.9,0,0,1-5.887-2.636c-2.2-2.538-2.869-6.578-2.007-12.016a1.35,1.35,0,0,1,2.624-.19,4.46,4.46,0,0,0,.837,1.519A11.64,11.64,0,0,1,269.562,378a1.356,1.356,0,0,1,2.193.893c.216,2.233.918,5.929,1.743,6.815a.711.711,0,0,0,.487.308,3.793,3.793,0,0,0,1.389-2.425,1.349,1.349,0,0,1,2.617-.088c.108.387,2.248,8.277-1.09,12.918a8.191,8.191,0,0,1-6.428,3.254C270.467,399.679,270.266,399.693,269.99,399.692Zm-6.511-14.454c-.9,5.047-.326,8.732,1.6,10.959a6.6,6.6,0,0,0,4.944,2.2c.224,0,.368-.011.38-.012a6.91,6.91,0,0,0,5.45-2.727c2.981-4.144.971-11.491.884-11.8l0-.009c0-.011-.015-.011-.024-.018-.36,1.429-1.433,3.488-2.8,3.488a1.978,1.978,0,0,1-1.408-.77c-1.448-1.55-2.016-7.265-2.039-7.508-3.256,2.55-3.679,6.563-3.649,8.726l.018,1.226-1.025-.674A5.786,5.786,0,0,1,263.479,385.238Z" fill="#d8d8d8"/>
        </g>
      </g>
      <g id="icon_heating-2" data-name="icon heating" transform="matrix(0.616, 0.788, -0.788, 0.616, 151.37, -378.493)">
        <g id="Path_357213-2" data-name="Path 357213" transform="translate(261.733 377.702)">
          <path id="Path_357254-2" data-name="Path 357254" d="M269.545,398.507a7.475,7.475,0,0,1-5.57-2.494c-2.078-2.4-2.714-6.223-1.9-11.368a1.277,1.277,0,0,1,2.483-.18,4.219,4.219,0,0,0,.792,1.437,11.012,11.012,0,0,1,3.789-7.916,1.283,1.283,0,0,1,2.075.845c.2,2.113.869,5.609,1.649,6.448a.673.673,0,0,0,.461.291,3.588,3.588,0,0,0,1.314-2.294,1.276,1.276,0,0,1,2.476-.083c.1.366,2.127,7.831-1.031,12.222A7.75,7.75,0,0,1,270,398.493C270,398.495,269.806,398.508,269.545,398.507Zm-6.16-13.675c-.85,4.775-.308,8.261,1.515,10.368a6.243,6.243,0,0,0,4.678,2.077c.212,0,.348-.01.36-.011a6.538,6.538,0,0,0,5.156-2.58c2.82-3.921.919-10.872.836-11.165l0-.009c0-.01-.014-.01-.023-.017-.341,1.352-1.356,3.3-2.65,3.3a1.871,1.871,0,0,1-1.332-.728c-1.37-1.466-1.907-6.873-1.929-7.1-3.081,2.413-3.481,6.209-3.452,8.256l.017,1.16-.97-.638A5.474,5.474,0,0,1,263.385,384.832Z" transform="translate(-261.733 -377.702)" fill="#d8d8d8"/>
        </g>
      </g>
      <g id="icon_heating-3" data-name="icon heating" transform="translate(-51.19 497.954) rotate(-129)">
        <g id="Path_357213-3" data-name="Path 357213" transform="translate(261.733 377.702)">
          <path id="Path_357254-3" data-name="Path 357254" d="M269.545,398.507a7.475,7.475,0,0,1-5.57-2.494c-2.078-2.4-2.714-6.223-1.9-11.368a1.277,1.277,0,0,1,2.483-.18,4.219,4.219,0,0,0,.792,1.437,11.012,11.012,0,0,1,3.789-7.916,1.283,1.283,0,0,1,2.075.845c.2,2.113.869,5.609,1.649,6.448a.673.673,0,0,0,.461.291,3.588,3.588,0,0,0,1.314-2.294,1.276,1.276,0,0,1,2.476-.083c.1.366,2.127,7.831-1.031,12.222A7.75,7.75,0,0,1,270,398.493C270,398.495,269.806,398.508,269.545,398.507Zm-6.16-13.675c-.85,4.775-.308,8.261,1.515,10.368a6.243,6.243,0,0,0,4.678,2.077c.212,0,.348-.01.36-.011a6.538,6.538,0,0,0,5.156-2.58c2.82-3.921.919-10.872.836-11.165l0-.009c0-.01-.014-.01-.023-.017-.341,1.352-1.356,3.3-2.65,3.3a1.871,1.871,0,0,1-1.332-.728c-1.37-1.466-1.907-6.873-1.929-7.1-3.081,2.413-3.481,6.209-3.452,8.256l.017,1.16-.97-.638A5.474,5.474,0,0,1,263.385,384.832Z" transform="translate(-261.733 -377.702)" fill="#d8d8d8"/>
        </g>
      </g>
      <g id="icon_heating-4" data-name="icon heating" transform="matrix(0.559, 0.829, -0.829, 0.559, 315.183, -376.637)">
        <g id="Path_357213-4" data-name="Path 357213" transform="translate(261.733 377.702)">
          <path id="Path_357254-4" data-name="Path 357254" d="M268.917,396.834a6.874,6.874,0,0,1-5.122-2.293c-1.911-2.208-2.5-5.723-1.746-10.454a1.174,1.174,0,0,1,2.283-.165,3.88,3.88,0,0,0,.728,1.322,10.127,10.127,0,0,1,3.485-7.28,1.18,1.18,0,0,1,1.908.777c.188,1.943.8,5.158,1.516,5.929a.619.619,0,0,0,.424.268,3.3,3.3,0,0,0,1.208-2.11,1.174,1.174,0,0,1,2.277-.077c.094.337,1.956,7.2-.948,11.239a7.127,7.127,0,0,1-5.593,2.831C269.332,396.823,269.157,396.835,268.917,396.834Zm-5.665-12.576c-.781,4.391-.284,7.6,1.393,9.535a5.741,5.741,0,0,0,4.3,1.91c.195,0,.32-.01.331-.01a6.012,6.012,0,0,0,4.742-2.373c2.594-3.605.845-10,.769-10.267l0-.008c0-.01-.013-.01-.021-.016-.313,1.243-1.247,3.035-2.437,3.035a1.721,1.721,0,0,1-1.225-.67c-1.26-1.349-1.754-6.321-1.774-6.532-2.833,2.219-3.2,5.71-3.175,7.592l.016,1.067-.892-.586A5.034,5.034,0,0,1,263.252,384.259Z" transform="translate(-261.733 -377.702)" fill="#d8d8d8"/>
        </g>
      </g>
      <g id="icon_heating-5" data-name="icon heating" transform="translate(-80.95 -403.229) rotate(6)">
        <g id="Path_357213-5" data-name="Path 357213" transform="translate(261.733 377.702)">
          <path id="Path_357254-5" data-name="Path 357254" d="M268.917,396.834a6.874,6.874,0,0,1-5.122-2.293c-1.911-2.208-2.5-5.723-1.746-10.454a1.174,1.174,0,0,1,2.283-.165,3.88,3.88,0,0,0,.728,1.322,10.127,10.127,0,0,1,3.485-7.28,1.18,1.18,0,0,1,1.908.777c.188,1.943.8,5.158,1.516,5.929a.619.619,0,0,0,.424.268,3.3,3.3,0,0,0,1.208-2.11,1.174,1.174,0,0,1,2.277-.077c.094.337,1.956,7.2-.948,11.239a7.127,7.127,0,0,1-5.593,2.831C269.332,396.823,269.157,396.835,268.917,396.834Zm-5.665-12.576c-.781,4.391-.284,7.6,1.393,9.535a5.741,5.741,0,0,0,4.3,1.91c.195,0,.32-.01.331-.01a6.012,6.012,0,0,0,4.742-2.373c2.594-3.605.845-10,.769-10.267l0-.008c0-.01-.013-.01-.021-.016-.313,1.243-1.247,3.035-2.437,3.035a1.721,1.721,0,0,1-1.225-.67c-1.26-1.349-1.754-6.321-1.774-6.532-2.833,2.219-3.2,5.71-3.175,7.592l.016,1.067-.892-.586A5.034,5.034,0,0,1,263.252,384.259Z" transform="translate(-261.733 -377.702)" fill="#d8d8d8"/>
        </g>
      </g>
    </g>
    <g id="Group_848-2" data-name="Group 848" transform="translate(197.519 0.238)">
      <g id="icon_heating-6" data-name="icon heating" transform="translate(-375.376 -223.748) rotate(-25)">
        <g id="Path_357213-6" data-name="Path 357213">
          <path id="Path_357254-6" data-name="Path 357254" d="M269.99,399.692a7.9,7.9,0,0,1-5.887-2.636c-2.2-2.538-2.869-6.578-2.007-12.016a1.35,1.35,0,0,1,2.624-.19,4.46,4.46,0,0,0,.837,1.519A11.64,11.64,0,0,1,269.562,378a1.356,1.356,0,0,1,2.193.893c.216,2.233.918,5.929,1.743,6.815a.711.711,0,0,0,.487.308,3.793,3.793,0,0,0,1.389-2.425,1.349,1.349,0,0,1,2.617-.088c.108.387,2.248,8.277-1.09,12.918a8.191,8.191,0,0,1-6.428,3.254C270.467,399.679,270.266,399.693,269.99,399.692Zm-6.511-14.454c-.9,5.047-.326,8.732,1.6,10.959a6.6,6.6,0,0,0,4.944,2.2c.224,0,.368-.011.38-.012a6.91,6.91,0,0,0,5.45-2.727c2.981-4.144.971-11.491.884-11.8l0-.009c0-.011-.015-.011-.024-.018-.36,1.429-1.433,3.488-2.8,3.488a1.978,1.978,0,0,1-1.408-.77c-1.448-1.55-2.016-7.265-2.039-7.508-3.256,2.55-3.679,6.563-3.649,8.726l.018,1.226-1.025-.674A5.786,5.786,0,0,1,263.479,385.238Z" fill="#d8d8d8"/>
        </g>
      </g>
      <g id="icon_heating-7" data-name="icon heating" transform="matrix(0.616, 0.788, -0.788, 0.616, 151.37, -378.493)">
        <g id="Path_357213-7" data-name="Path 357213" transform="translate(261.733 377.702)">
          <path id="Path_357254-7" data-name="Path 357254" d="M269.545,398.507a7.475,7.475,0,0,1-5.57-2.494c-2.078-2.4-2.714-6.223-1.9-11.368a1.277,1.277,0,0,1,2.483-.18,4.219,4.219,0,0,0,.792,1.437,11.012,11.012,0,0,1,3.789-7.916,1.283,1.283,0,0,1,2.075.845c.2,2.113.869,5.609,1.649,6.448a.673.673,0,0,0,.461.291,3.588,3.588,0,0,0,1.314-2.294,1.276,1.276,0,0,1,2.476-.083c.1.366,2.127,7.831-1.031,12.222A7.75,7.75,0,0,1,270,398.493C270,398.495,269.806,398.508,269.545,398.507Zm-6.16-13.675c-.85,4.775-.308,8.261,1.515,10.368a6.243,6.243,0,0,0,4.678,2.077c.212,0,.348-.01.36-.011a6.538,6.538,0,0,0,5.156-2.58c2.82-3.921.919-10.872.836-11.165l0-.009c0-.01-.014-.01-.023-.017-.341,1.352-1.356,3.3-2.65,3.3a1.871,1.871,0,0,1-1.332-.728c-1.37-1.466-1.907-6.873-1.929-7.1-3.081,2.413-3.481,6.209-3.452,8.256l.017,1.16-.97-.638A5.474,5.474,0,0,1,263.385,384.832Z" transform="translate(-261.733 -377.702)" fill="#d8d8d8"/>
        </g>
      </g>
      <g id="icon_heating-8" data-name="icon heating" transform="translate(-51.19 497.954) rotate(-129)">
        <g id="Path_357213-8" data-name="Path 357213" transform="translate(261.733 377.702)">
          <path id="Path_357254-8" data-name="Path 357254" d="M269.545,398.507a7.475,7.475,0,0,1-5.57-2.494c-2.078-2.4-2.714-6.223-1.9-11.368a1.277,1.277,0,0,1,2.483-.18,4.219,4.219,0,0,0,.792,1.437,11.012,11.012,0,0,1,3.789-7.916,1.283,1.283,0,0,1,2.075.845c.2,2.113.869,5.609,1.649,6.448a.673.673,0,0,0,.461.291,3.588,3.588,0,0,0,1.314-2.294,1.276,1.276,0,0,1,2.476-.083c.1.366,2.127,7.831-1.031,12.222A7.75,7.75,0,0,1,270,398.493C270,398.495,269.806,398.508,269.545,398.507Zm-6.16-13.675c-.85,4.775-.308,8.261,1.515,10.368a6.243,6.243,0,0,0,4.678,2.077c.212,0,.348-.01.36-.011a6.538,6.538,0,0,0,5.156-2.58c2.82-3.921.919-10.872.836-11.165l0-.009c0-.01-.014-.01-.023-.017-.341,1.352-1.356,3.3-2.65,3.3a1.871,1.871,0,0,1-1.332-.728c-1.37-1.466-1.907-6.873-1.929-7.1-3.081,2.413-3.481,6.209-3.452,8.256l.017,1.16-.97-.638A5.474,5.474,0,0,1,263.385,384.832Z" transform="translate(-261.733 -377.702)" fill="#d8d8d8"/>
        </g>
      </g>
      <g id="icon_heating-9" data-name="icon heating" transform="matrix(0.559, 0.829, -0.829, 0.559, 315.183, -376.637)">
        <g id="Path_357213-9" data-name="Path 357213" transform="translate(261.733 377.702)">
          <path id="Path_357254-9" data-name="Path 357254" d="M268.917,396.834a6.874,6.874,0,0,1-5.122-2.293c-1.911-2.208-2.5-5.723-1.746-10.454a1.174,1.174,0,0,1,2.283-.165,3.88,3.88,0,0,0,.728,1.322,10.127,10.127,0,0,1,3.485-7.28,1.18,1.18,0,0,1,1.908.777c.188,1.943.8,5.158,1.516,5.929a.619.619,0,0,0,.424.268,3.3,3.3,0,0,0,1.208-2.11,1.174,1.174,0,0,1,2.277-.077c.094.337,1.956,7.2-.948,11.239a7.127,7.127,0,0,1-5.593,2.831C269.332,396.823,269.157,396.835,268.917,396.834Zm-5.665-12.576c-.781,4.391-.284,7.6,1.393,9.535a5.741,5.741,0,0,0,4.3,1.91c.195,0,.32-.01.331-.01a6.012,6.012,0,0,0,4.742-2.373c2.594-3.605.845-10,.769-10.267l0-.008c0-.01-.013-.01-.021-.016-.313,1.243-1.247,3.035-2.437,3.035a1.721,1.721,0,0,1-1.225-.67c-1.26-1.349-1.754-6.321-1.774-6.532-2.833,2.219-3.2,5.71-3.175,7.592l.016,1.067-.892-.586A5.034,5.034,0,0,1,263.252,384.259Z" transform="translate(-261.733 -377.702)" fill="#d8d8d8"/>
        </g>
      </g>
      <g id="icon_heating-10" data-name="icon heating" transform="translate(-80.95 -403.229) rotate(6)">
        <g id="Path_357213-10" data-name="Path 357213" transform="translate(261.733 377.702)">
          <path id="Path_357254-10" data-name="Path 357254" d="M268.917,396.834a6.874,6.874,0,0,1-5.122-2.293c-1.911-2.208-2.5-5.723-1.746-10.454a1.174,1.174,0,0,1,2.283-.165,3.88,3.88,0,0,0,.728,1.322,10.127,10.127,0,0,1,3.485-7.28,1.18,1.18,0,0,1,1.908.777c.188,1.943.8,5.158,1.516,5.929a.619.619,0,0,0,.424.268,3.3,3.3,0,0,0,1.208-2.11,1.174,1.174,0,0,1,2.277-.077c.094.337,1.956,7.2-.948,11.239a7.127,7.127,0,0,1-5.593,2.831C269.332,396.823,269.157,396.835,268.917,396.834Zm-5.665-12.576c-.781,4.391-.284,7.6,1.393,9.535a5.741,5.741,0,0,0,4.3,1.91c.195,0,.32-.01.331-.01a6.012,6.012,0,0,0,4.742-2.373c2.594-3.605.845-10,.769-10.267l0-.008c0-.01-.013-.01-.021-.016-.313,1.243-1.247,3.035-2.437,3.035a1.721,1.721,0,0,1-1.225-.67c-1.26-1.349-1.754-6.321-1.774-6.532-2.833,2.219-3.2,5.71-3.175,7.592l.016,1.067-.892-.586A5.034,5.034,0,0,1,263.252,384.259Z" transform="translate(-261.733 -377.702)" fill="#d8d8d8"/>
        </g>
      </g>
    </g>
    <g id="Group_848-3" data-name="Group 848" transform="translate(393.519 0.238)">
      <g id="icon_heating-11" data-name="icon heating" transform="translate(-375.376 -223.748) rotate(-25)">
        <g id="Path_357213-11" data-name="Path 357213">
          <path id="Path_357254-11" data-name="Path 357254" d="M269.99,399.692a7.9,7.9,0,0,1-5.887-2.636c-2.2-2.538-2.869-6.578-2.007-12.016a1.35,1.35,0,0,1,2.624-.19,4.46,4.46,0,0,0,.837,1.519A11.64,11.64,0,0,1,269.562,378a1.356,1.356,0,0,1,2.193.893c.216,2.233.918,5.929,1.743,6.815a.711.711,0,0,0,.487.308,3.793,3.793,0,0,0,1.389-2.425,1.349,1.349,0,0,1,2.617-.088c.108.387,2.248,8.277-1.09,12.918a8.191,8.191,0,0,1-6.428,3.254C270.467,399.679,270.266,399.693,269.99,399.692Zm-6.511-14.454c-.9,5.047-.326,8.732,1.6,10.959a6.6,6.6,0,0,0,4.944,2.2c.224,0,.368-.011.38-.012a6.91,6.91,0,0,0,5.45-2.727c2.981-4.144.971-11.491.884-11.8l0-.009c0-.011-.015-.011-.024-.018-.36,1.429-1.433,3.488-2.8,3.488a1.978,1.978,0,0,1-1.408-.77c-1.448-1.55-2.016-7.265-2.039-7.508-3.256,2.55-3.679,6.563-3.649,8.726l.018,1.226-1.025-.674A5.786,5.786,0,0,1,263.479,385.238Z" fill="#d8d8d8"/>
        </g>
      </g>
      <g id="icon_heating-12" data-name="icon heating" transform="matrix(0.616, 0.788, -0.788, 0.616, 151.37, -378.493)">
        <g id="Path_357213-12" data-name="Path 357213" transform="translate(261.733 377.702)">
          <path id="Path_357254-12" data-name="Path 357254" d="M269.545,398.507a7.475,7.475,0,0,1-5.57-2.494c-2.078-2.4-2.714-6.223-1.9-11.368a1.277,1.277,0,0,1,2.483-.18,4.219,4.219,0,0,0,.792,1.437,11.012,11.012,0,0,1,3.789-7.916,1.283,1.283,0,0,1,2.075.845c.2,2.113.869,5.609,1.649,6.448a.673.673,0,0,0,.461.291,3.588,3.588,0,0,0,1.314-2.294,1.276,1.276,0,0,1,2.476-.083c.1.366,2.127,7.831-1.031,12.222A7.75,7.75,0,0,1,270,398.493C270,398.495,269.806,398.508,269.545,398.507Zm-6.16-13.675c-.85,4.775-.308,8.261,1.515,10.368a6.243,6.243,0,0,0,4.678,2.077c.212,0,.348-.01.36-.011a6.538,6.538,0,0,0,5.156-2.58c2.82-3.921.919-10.872.836-11.165l0-.009c0-.01-.014-.01-.023-.017-.341,1.352-1.356,3.3-2.65,3.3a1.871,1.871,0,0,1-1.332-.728c-1.37-1.466-1.907-6.873-1.929-7.1-3.081,2.413-3.481,6.209-3.452,8.256l.017,1.16-.97-.638A5.474,5.474,0,0,1,263.385,384.832Z" transform="translate(-261.733 -377.702)" fill="#d8d8d8"/>
        </g>
      </g>
      <g id="icon_heating-13" data-name="icon heating" transform="translate(-51.19 497.954) rotate(-129)">
        <g id="Path_357213-13" data-name="Path 357213" transform="translate(261.733 377.702)">
          <path id="Path_357254-13" data-name="Path 357254" d="M269.545,398.507a7.475,7.475,0,0,1-5.57-2.494c-2.078-2.4-2.714-6.223-1.9-11.368a1.277,1.277,0,0,1,2.483-.18,4.219,4.219,0,0,0,.792,1.437,11.012,11.012,0,0,1,3.789-7.916,1.283,1.283,0,0,1,2.075.845c.2,2.113.869,5.609,1.649,6.448a.673.673,0,0,0,.461.291,3.588,3.588,0,0,0,1.314-2.294,1.276,1.276,0,0,1,2.476-.083c.1.366,2.127,7.831-1.031,12.222A7.75,7.75,0,0,1,270,398.493C270,398.495,269.806,398.508,269.545,398.507Zm-6.16-13.675c-.85,4.775-.308,8.261,1.515,10.368a6.243,6.243,0,0,0,4.678,2.077c.212,0,.348-.01.36-.011a6.538,6.538,0,0,0,5.156-2.58c2.82-3.921.919-10.872.836-11.165l0-.009c0-.01-.014-.01-.023-.017-.341,1.352-1.356,3.3-2.65,3.3a1.871,1.871,0,0,1-1.332-.728c-1.37-1.466-1.907-6.873-1.929-7.1-3.081,2.413-3.481,6.209-3.452,8.256l.017,1.16-.97-.638A5.474,5.474,0,0,1,263.385,384.832Z" transform="translate(-261.733 -377.702)" fill="#d8d8d8"/>
        </g>
      </g>
      <g id="icon_heating-14" data-name="icon heating" transform="matrix(0.559, 0.829, -0.829, 0.559, 315.183, -376.637)">
        <g id="Path_357213-14" data-name="Path 357213" transform="translate(261.733 377.702)">
          <path id="Path_357254-14" data-name="Path 357254" d="M268.917,396.834a6.874,6.874,0,0,1-5.122-2.293c-1.911-2.208-2.5-5.723-1.746-10.454a1.174,1.174,0,0,1,2.283-.165,3.88,3.88,0,0,0,.728,1.322,10.127,10.127,0,0,1,3.485-7.28,1.18,1.18,0,0,1,1.908.777c.188,1.943.8,5.158,1.516,5.929a.619.619,0,0,0,.424.268,3.3,3.3,0,0,0,1.208-2.11,1.174,1.174,0,0,1,2.277-.077c.094.337,1.956,7.2-.948,11.239a7.127,7.127,0,0,1-5.593,2.831C269.332,396.823,269.157,396.835,268.917,396.834Zm-5.665-12.576c-.781,4.391-.284,7.6,1.393,9.535a5.741,5.741,0,0,0,4.3,1.91c.195,0,.32-.01.331-.01a6.012,6.012,0,0,0,4.742-2.373c2.594-3.605.845-10,.769-10.267l0-.008c0-.01-.013-.01-.021-.016-.313,1.243-1.247,3.035-2.437,3.035a1.721,1.721,0,0,1-1.225-.67c-1.26-1.349-1.754-6.321-1.774-6.532-2.833,2.219-3.2,5.71-3.175,7.592l.016,1.067-.892-.586A5.034,5.034,0,0,1,263.252,384.259Z" transform="translate(-261.733 -377.702)" fill="#d8d8d8"/>
        </g>
      </g>
      <g id="icon_heating-15" data-name="icon heating" transform="translate(-80.95 -403.229) rotate(6)">
        <g id="Path_357213-15" data-name="Path 357213" transform="translate(261.733 377.702)">
          <path id="Path_357254-15" data-name="Path 357254" d="M268.917,396.834a6.874,6.874,0,0,1-5.122-2.293c-1.911-2.208-2.5-5.723-1.746-10.454a1.174,1.174,0,0,1,2.283-.165,3.88,3.88,0,0,0,.728,1.322,10.127,10.127,0,0,1,3.485-7.28,1.18,1.18,0,0,1,1.908.777c.188,1.943.8,5.158,1.516,5.929a.619.619,0,0,0,.424.268,3.3,3.3,0,0,0,1.208-2.11,1.174,1.174,0,0,1,2.277-.077c.094.337,1.956,7.2-.948,11.239a7.127,7.127,0,0,1-5.593,2.831C269.332,396.823,269.157,396.835,268.917,396.834Zm-5.665-12.576c-.781,4.391-.284,7.6,1.393,9.535a5.741,5.741,0,0,0,4.3,1.91c.195,0,.32-.01.331-.01a6.012,6.012,0,0,0,4.742-2.373c2.594-3.605.845-10,.769-10.267l0-.008c0-.01-.013-.01-.021-.016-.313,1.243-1.247,3.035-2.437,3.035a1.721,1.721,0,0,1-1.225-.67c-1.26-1.349-1.754-6.321-1.774-6.532-2.833,2.219-3.2,5.71-3.175,7.592l.016,1.067-.892-.586A5.034,5.034,0,0,1,263.252,384.259Z" transform="translate(-261.733 -377.702)" fill="#d8d8d8"/>
        </g>
      </g>
    </g>
    <g id="Group_848-4" data-name="Group 848" transform="translate(589.519 0.238)">
      <g id="icon_heating-16" data-name="icon heating" transform="translate(-375.376 -223.748) rotate(-25)">
        <g id="Path_357213-16" data-name="Path 357213">
          <path id="Path_357254-16" data-name="Path 357254" d="M269.99,399.692a7.9,7.9,0,0,1-5.887-2.636c-2.2-2.538-2.869-6.578-2.007-12.016a1.35,1.35,0,0,1,2.624-.19,4.46,4.46,0,0,0,.837,1.519A11.64,11.64,0,0,1,269.562,378a1.356,1.356,0,0,1,2.193.893c.216,2.233.918,5.929,1.743,6.815a.711.711,0,0,0,.487.308,3.793,3.793,0,0,0,1.389-2.425,1.349,1.349,0,0,1,2.617-.088c.108.387,2.248,8.277-1.09,12.918a8.191,8.191,0,0,1-6.428,3.254C270.467,399.679,270.266,399.693,269.99,399.692Zm-6.511-14.454c-.9,5.047-.326,8.732,1.6,10.959a6.6,6.6,0,0,0,4.944,2.2c.224,0,.368-.011.38-.012a6.91,6.91,0,0,0,5.45-2.727c2.981-4.144.971-11.491.884-11.8l0-.009c0-.011-.015-.011-.024-.018-.36,1.429-1.433,3.488-2.8,3.488a1.978,1.978,0,0,1-1.408-.77c-1.448-1.55-2.016-7.265-2.039-7.508-3.256,2.55-3.679,6.563-3.649,8.726l.018,1.226-1.025-.674A5.786,5.786,0,0,1,263.479,385.238Z" fill="#d8d8d8"/>
        </g>
      </g>
      <g id="icon_heating-17" data-name="icon heating" transform="matrix(0.616, 0.788, -0.788, 0.616, 151.37, -378.493)">
        <g id="Path_357213-17" data-name="Path 357213" transform="translate(261.733 377.702)">
          <path id="Path_357254-17" data-name="Path 357254" d="M269.545,398.507a7.475,7.475,0,0,1-5.57-2.494c-2.078-2.4-2.714-6.223-1.9-11.368a1.277,1.277,0,0,1,2.483-.18,4.219,4.219,0,0,0,.792,1.437,11.012,11.012,0,0,1,3.789-7.916,1.283,1.283,0,0,1,2.075.845c.2,2.113.869,5.609,1.649,6.448a.673.673,0,0,0,.461.291,3.588,3.588,0,0,0,1.314-2.294,1.276,1.276,0,0,1,2.476-.083c.1.366,2.127,7.831-1.031,12.222A7.75,7.75,0,0,1,270,398.493C270,398.495,269.806,398.508,269.545,398.507Zm-6.16-13.675c-.85,4.775-.308,8.261,1.515,10.368a6.243,6.243,0,0,0,4.678,2.077c.212,0,.348-.01.36-.011a6.538,6.538,0,0,0,5.156-2.58c2.82-3.921.919-10.872.836-11.165l0-.009c0-.01-.014-.01-.023-.017-.341,1.352-1.356,3.3-2.65,3.3a1.871,1.871,0,0,1-1.332-.728c-1.37-1.466-1.907-6.873-1.929-7.1-3.081,2.413-3.481,6.209-3.452,8.256l.017,1.16-.97-.638A5.474,5.474,0,0,1,263.385,384.832Z" transform="translate(-261.733 -377.702)" fill="#d8d8d8"/>
        </g>
      </g>
      <g id="icon_heating-18" data-name="icon heating" transform="translate(-51.19 497.954) rotate(-129)">
        <g id="Path_357213-18" data-name="Path 357213" transform="translate(261.733 377.702)">
          <path id="Path_357254-18" data-name="Path 357254" d="M269.545,398.507a7.475,7.475,0,0,1-5.57-2.494c-2.078-2.4-2.714-6.223-1.9-11.368a1.277,1.277,0,0,1,2.483-.18,4.219,4.219,0,0,0,.792,1.437,11.012,11.012,0,0,1,3.789-7.916,1.283,1.283,0,0,1,2.075.845c.2,2.113.869,5.609,1.649,6.448a.673.673,0,0,0,.461.291,3.588,3.588,0,0,0,1.314-2.294,1.276,1.276,0,0,1,2.476-.083c.1.366,2.127,7.831-1.031,12.222A7.75,7.75,0,0,1,270,398.493C270,398.495,269.806,398.508,269.545,398.507Zm-6.16-13.675c-.85,4.775-.308,8.261,1.515,10.368a6.243,6.243,0,0,0,4.678,2.077c.212,0,.348-.01.36-.011a6.538,6.538,0,0,0,5.156-2.58c2.82-3.921.919-10.872.836-11.165l0-.009c0-.01-.014-.01-.023-.017-.341,1.352-1.356,3.3-2.65,3.3a1.871,1.871,0,0,1-1.332-.728c-1.37-1.466-1.907-6.873-1.929-7.1-3.081,2.413-3.481,6.209-3.452,8.256l.017,1.16-.97-.638A5.474,5.474,0,0,1,263.385,384.832Z" transform="translate(-261.733 -377.702)" fill="#d8d8d8"/>
        </g>
      </g>
      <g id="icon_heating-19" data-name="icon heating" transform="matrix(0.559, 0.829, -0.829, 0.559, 315.183, -376.637)">
        <g id="Path_357213-19" data-name="Path 357213" transform="translate(261.733 377.702)">
          <path id="Path_357254-19" data-name="Path 357254" d="M268.917,396.834a6.874,6.874,0,0,1-5.122-2.293c-1.911-2.208-2.5-5.723-1.746-10.454a1.174,1.174,0,0,1,2.283-.165,3.88,3.88,0,0,0,.728,1.322,10.127,10.127,0,0,1,3.485-7.28,1.18,1.18,0,0,1,1.908.777c.188,1.943.8,5.158,1.516,5.929a.619.619,0,0,0,.424.268,3.3,3.3,0,0,0,1.208-2.11,1.174,1.174,0,0,1,2.277-.077c.094.337,1.956,7.2-.948,11.239a7.127,7.127,0,0,1-5.593,2.831C269.332,396.823,269.157,396.835,268.917,396.834Zm-5.665-12.576c-.781,4.391-.284,7.6,1.393,9.535a5.741,5.741,0,0,0,4.3,1.91c.195,0,.32-.01.331-.01a6.012,6.012,0,0,0,4.742-2.373c2.594-3.605.845-10,.769-10.267l0-.008c0-.01-.013-.01-.021-.016-.313,1.243-1.247,3.035-2.437,3.035a1.721,1.721,0,0,1-1.225-.67c-1.26-1.349-1.754-6.321-1.774-6.532-2.833,2.219-3.2,5.71-3.175,7.592l.016,1.067-.892-.586A5.034,5.034,0,0,1,263.252,384.259Z" transform="translate(-261.733 -377.702)" fill="#d8d8d8"/>
        </g>
      </g>
      <g id="icon_heating-20" data-name="icon heating" transform="translate(-80.95 -403.229) rotate(6)">
        <g id="Path_357213-20" data-name="Path 357213" transform="translate(261.733 377.702)">
          <path id="Path_357254-20" data-name="Path 357254" d="M268.917,396.834a6.874,6.874,0,0,1-5.122-2.293c-1.911-2.208-2.5-5.723-1.746-10.454a1.174,1.174,0,0,1,2.283-.165,3.88,3.88,0,0,0,.728,1.322,10.127,10.127,0,0,1,3.485-7.28,1.18,1.18,0,0,1,1.908.777c.188,1.943.8,5.158,1.516,5.929a.619.619,0,0,0,.424.268,3.3,3.3,0,0,0,1.208-2.11,1.174,1.174,0,0,1,2.277-.077c.094.337,1.956,7.2-.948,11.239a7.127,7.127,0,0,1-5.593,2.831C269.332,396.823,269.157,396.835,268.917,396.834Zm-5.665-12.576c-.781,4.391-.284,7.6,1.393,9.535a5.741,5.741,0,0,0,4.3,1.91c.195,0,.32-.01.331-.01a6.012,6.012,0,0,0,4.742-2.373c2.594-3.605.845-10,.769-10.267l0-.008c0-.01-.013-.01-.021-.016-.313,1.243-1.247,3.035-2.437,3.035a1.721,1.721,0,0,1-1.225-.67c-1.26-1.349-1.754-6.321-1.774-6.532-2.833,2.219-3.2,5.71-3.175,7.592l.016,1.067-.892-.586A5.034,5.034,0,0,1,263.252,384.259Z" transform="translate(-261.733 -377.702)" fill="#d8d8d8"/>
        </g>
      </g>
    </g>
    <g id="Group_848-5" data-name="Group 848" transform="translate(785.519 0.238)">
      <g id="icon_heating-21" data-name="icon heating" transform="translate(-375.376 -223.748) rotate(-25)">
        <g id="Path_357213-21" data-name="Path 357213">
          <path id="Path_357254-21" data-name="Path 357254" d="M269.99,399.692a7.9,7.9,0,0,1-5.887-2.636c-2.2-2.538-2.869-6.578-2.007-12.016a1.35,1.35,0,0,1,2.624-.19,4.46,4.46,0,0,0,.837,1.519A11.64,11.64,0,0,1,269.562,378a1.356,1.356,0,0,1,2.193.893c.216,2.233.918,5.929,1.743,6.815a.711.711,0,0,0,.487.308,3.793,3.793,0,0,0,1.389-2.425,1.349,1.349,0,0,1,2.617-.088c.108.387,2.248,8.277-1.09,12.918a8.191,8.191,0,0,1-6.428,3.254C270.467,399.679,270.266,399.693,269.99,399.692Zm-6.511-14.454c-.9,5.047-.326,8.732,1.6,10.959a6.6,6.6,0,0,0,4.944,2.2c.224,0,.368-.011.38-.012a6.91,6.91,0,0,0,5.45-2.727c2.981-4.144.971-11.491.884-11.8l0-.009c0-.011-.015-.011-.024-.018-.36,1.429-1.433,3.488-2.8,3.488a1.978,1.978,0,0,1-1.408-.77c-1.448-1.55-2.016-7.265-2.039-7.508-3.256,2.55-3.679,6.563-3.649,8.726l.018,1.226-1.025-.674A5.786,5.786,0,0,1,263.479,385.238Z" fill="#d8d8d8"/>
        </g>
      </g>
      <g id="icon_heating-22" data-name="icon heating" transform="matrix(0.616, 0.788, -0.788, 0.616, 151.37, -378.493)">
        <g id="Path_357213-22" data-name="Path 357213" transform="translate(261.733 377.702)">
          <path id="Path_357254-22" data-name="Path 357254" d="M269.545,398.507a7.475,7.475,0,0,1-5.57-2.494c-2.078-2.4-2.714-6.223-1.9-11.368a1.277,1.277,0,0,1,2.483-.18,4.219,4.219,0,0,0,.792,1.437,11.012,11.012,0,0,1,3.789-7.916,1.283,1.283,0,0,1,2.075.845c.2,2.113.869,5.609,1.649,6.448a.673.673,0,0,0,.461.291,3.588,3.588,0,0,0,1.314-2.294,1.276,1.276,0,0,1,2.476-.083c.1.366,2.127,7.831-1.031,12.222A7.75,7.75,0,0,1,270,398.493C270,398.495,269.806,398.508,269.545,398.507Zm-6.16-13.675c-.85,4.775-.308,8.261,1.515,10.368a6.243,6.243,0,0,0,4.678,2.077c.212,0,.348-.01.36-.011a6.538,6.538,0,0,0,5.156-2.58c2.82-3.921.919-10.872.836-11.165l0-.009c0-.01-.014-.01-.023-.017-.341,1.352-1.356,3.3-2.65,3.3a1.871,1.871,0,0,1-1.332-.728c-1.37-1.466-1.907-6.873-1.929-7.1-3.081,2.413-3.481,6.209-3.452,8.256l.017,1.16-.97-.638A5.474,5.474,0,0,1,263.385,384.832Z" transform="translate(-261.733 -377.702)" fill="#d8d8d8"/>
        </g>
      </g>
      <g id="icon_heating-23" data-name="icon heating" transform="translate(-51.19 497.954) rotate(-129)">
        <g id="Path_357213-23" data-name="Path 357213" transform="translate(261.733 377.702)">
          <path id="Path_357254-23" data-name="Path 357254" d="M269.545,398.507a7.475,7.475,0,0,1-5.57-2.494c-2.078-2.4-2.714-6.223-1.9-11.368a1.277,1.277,0,0,1,2.483-.18,4.219,4.219,0,0,0,.792,1.437,11.012,11.012,0,0,1,3.789-7.916,1.283,1.283,0,0,1,2.075.845c.2,2.113.869,5.609,1.649,6.448a.673.673,0,0,0,.461.291,3.588,3.588,0,0,0,1.314-2.294,1.276,1.276,0,0,1,2.476-.083c.1.366,2.127,7.831-1.031,12.222A7.75,7.75,0,0,1,270,398.493C270,398.495,269.806,398.508,269.545,398.507Zm-6.16-13.675c-.85,4.775-.308,8.261,1.515,10.368a6.243,6.243,0,0,0,4.678,2.077c.212,0,.348-.01.36-.011a6.538,6.538,0,0,0,5.156-2.58c2.82-3.921.919-10.872.836-11.165l0-.009c0-.01-.014-.01-.023-.017-.341,1.352-1.356,3.3-2.65,3.3a1.871,1.871,0,0,1-1.332-.728c-1.37-1.466-1.907-6.873-1.929-7.1-3.081,2.413-3.481,6.209-3.452,8.256l.017,1.16-.97-.638A5.474,5.474,0,0,1,263.385,384.832Z" transform="translate(-261.733 -377.702)" fill="#d8d8d8"/>
        </g>
      </g>
      <g id="icon_heating-24" data-name="icon heating" transform="matrix(0.559, 0.829, -0.829, 0.559, 315.183, -376.637)">
        <g id="Path_357213-24" data-name="Path 357213" transform="translate(261.733 377.702)">
          <path id="Path_357254-24" data-name="Path 357254" d="M268.917,396.834a6.874,6.874,0,0,1-5.122-2.293c-1.911-2.208-2.5-5.723-1.746-10.454a1.174,1.174,0,0,1,2.283-.165,3.88,3.88,0,0,0,.728,1.322,10.127,10.127,0,0,1,3.485-7.28,1.18,1.18,0,0,1,1.908.777c.188,1.943.8,5.158,1.516,5.929a.619.619,0,0,0,.424.268,3.3,3.3,0,0,0,1.208-2.11,1.174,1.174,0,0,1,2.277-.077c.094.337,1.956,7.2-.948,11.239a7.127,7.127,0,0,1-5.593,2.831C269.332,396.823,269.157,396.835,268.917,396.834Zm-5.665-12.576c-.781,4.391-.284,7.6,1.393,9.535a5.741,5.741,0,0,0,4.3,1.91c.195,0,.32-.01.331-.01a6.012,6.012,0,0,0,4.742-2.373c2.594-3.605.845-10,.769-10.267l0-.008c0-.01-.013-.01-.021-.016-.313,1.243-1.247,3.035-2.437,3.035a1.721,1.721,0,0,1-1.225-.67c-1.26-1.349-1.754-6.321-1.774-6.532-2.833,2.219-3.2,5.71-3.175,7.592l.016,1.067-.892-.586A5.034,5.034,0,0,1,263.252,384.259Z" transform="translate(-261.733 -377.702)" fill="#d8d8d8"/>
        </g>
      </g>
      <g id="icon_heating-25" data-name="icon heating" transform="translate(-80.95 -403.229) rotate(6)">
        <g id="Path_357213-25" data-name="Path 357213" transform="translate(261.733 377.702)">
          <path id="Path_357254-25" data-name="Path 357254" d="M268.917,396.834a6.874,6.874,0,0,1-5.122-2.293c-1.911-2.208-2.5-5.723-1.746-10.454a1.174,1.174,0,0,1,2.283-.165,3.88,3.88,0,0,0,.728,1.322,10.127,10.127,0,0,1,3.485-7.28,1.18,1.18,0,0,1,1.908.777c.188,1.943.8,5.158,1.516,5.929a.619.619,0,0,0,.424.268,3.3,3.3,0,0,0,1.208-2.11,1.174,1.174,0,0,1,2.277-.077c.094.337,1.956,7.2-.948,11.239a7.127,7.127,0,0,1-5.593,2.831C269.332,396.823,269.157,396.835,268.917,396.834Zm-5.665-12.576c-.781,4.391-.284,7.6,1.393,9.535a5.741,5.741,0,0,0,4.3,1.91c.195,0,.32-.01.331-.01a6.012,6.012,0,0,0,4.742-2.373c2.594-3.605.845-10,.769-10.267l0-.008c0-.01-.013-.01-.021-.016-.313,1.243-1.247,3.035-2.437,3.035a1.721,1.721,0,0,1-1.225-.67c-1.26-1.349-1.754-6.321-1.774-6.532-2.833,2.219-3.2,5.71-3.175,7.592l.016,1.067-.892-.586A5.034,5.034,0,0,1,263.252,384.259Z" transform="translate(-261.733 -377.702)" fill="#d8d8d8"/>
        </g>
      </g>
    </g>
    <g id="Group_848-6" data-name="Group 848" transform="translate(981.519 0.238)">
      <g id="icon_heating-26" data-name="icon heating" transform="translate(-375.376 -223.748) rotate(-25)">
        <g id="Path_357213-26" data-name="Path 357213">
          <path id="Path_357254-26" data-name="Path 357254" d="M269.99,399.692a7.9,7.9,0,0,1-5.887-2.636c-2.2-2.538-2.869-6.578-2.007-12.016a1.35,1.35,0,0,1,2.624-.19,4.46,4.46,0,0,0,.837,1.519A11.64,11.64,0,0,1,269.562,378a1.356,1.356,0,0,1,2.193.893c.216,2.233.918,5.929,1.743,6.815a.711.711,0,0,0,.487.308,3.793,3.793,0,0,0,1.389-2.425,1.349,1.349,0,0,1,2.617-.088c.108.387,2.248,8.277-1.09,12.918a8.191,8.191,0,0,1-6.428,3.254C270.467,399.679,270.266,399.693,269.99,399.692Zm-6.511-14.454c-.9,5.047-.326,8.732,1.6,10.959a6.6,6.6,0,0,0,4.944,2.2c.224,0,.368-.011.38-.012a6.91,6.91,0,0,0,5.45-2.727c2.981-4.144.971-11.491.884-11.8l0-.009c0-.011-.015-.011-.024-.018-.36,1.429-1.433,3.488-2.8,3.488a1.978,1.978,0,0,1-1.408-.77c-1.448-1.55-2.016-7.265-2.039-7.508-3.256,2.55-3.679,6.563-3.649,8.726l.018,1.226-1.025-.674A5.786,5.786,0,0,1,263.479,385.238Z" fill="#d8d8d8"/>
        </g>
      </g>
      <g id="icon_heating-27" data-name="icon heating" transform="matrix(0.616, 0.788, -0.788, 0.616, 151.37, -378.493)">
        <g id="Path_357213-27" data-name="Path 357213" transform="translate(261.733 377.702)">
          <path id="Path_357254-27" data-name="Path 357254" d="M269.545,398.507a7.475,7.475,0,0,1-5.57-2.494c-2.078-2.4-2.714-6.223-1.9-11.368a1.277,1.277,0,0,1,2.483-.18,4.219,4.219,0,0,0,.792,1.437,11.012,11.012,0,0,1,3.789-7.916,1.283,1.283,0,0,1,2.075.845c.2,2.113.869,5.609,1.649,6.448a.673.673,0,0,0,.461.291,3.588,3.588,0,0,0,1.314-2.294,1.276,1.276,0,0,1,2.476-.083c.1.366,2.127,7.831-1.031,12.222A7.75,7.75,0,0,1,270,398.493C270,398.495,269.806,398.508,269.545,398.507Zm-6.16-13.675c-.85,4.775-.308,8.261,1.515,10.368a6.243,6.243,0,0,0,4.678,2.077c.212,0,.348-.01.36-.011a6.538,6.538,0,0,0,5.156-2.58c2.82-3.921.919-10.872.836-11.165l0-.009c0-.01-.014-.01-.023-.017-.341,1.352-1.356,3.3-2.65,3.3a1.871,1.871,0,0,1-1.332-.728c-1.37-1.466-1.907-6.873-1.929-7.1-3.081,2.413-3.481,6.209-3.452,8.256l.017,1.16-.97-.638A5.474,5.474,0,0,1,263.385,384.832Z" transform="translate(-261.733 -377.702)" fill="#d8d8d8"/>
        </g>
      </g>
      <g id="icon_heating-28" data-name="icon heating" transform="translate(-51.19 497.954) rotate(-129)">
        <g id="Path_357213-28" data-name="Path 357213" transform="translate(261.733 377.702)">
          <path id="Path_357254-28" data-name="Path 357254" d="M269.545,398.507a7.475,7.475,0,0,1-5.57-2.494c-2.078-2.4-2.714-6.223-1.9-11.368a1.277,1.277,0,0,1,2.483-.18,4.219,4.219,0,0,0,.792,1.437,11.012,11.012,0,0,1,3.789-7.916,1.283,1.283,0,0,1,2.075.845c.2,2.113.869,5.609,1.649,6.448a.673.673,0,0,0,.461.291,3.588,3.588,0,0,0,1.314-2.294,1.276,1.276,0,0,1,2.476-.083c.1.366,2.127,7.831-1.031,12.222A7.75,7.75,0,0,1,270,398.493C270,398.495,269.806,398.508,269.545,398.507Zm-6.16-13.675c-.85,4.775-.308,8.261,1.515,10.368a6.243,6.243,0,0,0,4.678,2.077c.212,0,.348-.01.36-.011a6.538,6.538,0,0,0,5.156-2.58c2.82-3.921.919-10.872.836-11.165l0-.009c0-.01-.014-.01-.023-.017-.341,1.352-1.356,3.3-2.65,3.3a1.871,1.871,0,0,1-1.332-.728c-1.37-1.466-1.907-6.873-1.929-7.1-3.081,2.413-3.481,6.209-3.452,8.256l.017,1.16-.97-.638A5.474,5.474,0,0,1,263.385,384.832Z" transform="translate(-261.733 -377.702)" fill="#d8d8d8"/>
        </g>
      </g>
      <g id="icon_heating-29" data-name="icon heating" transform="matrix(0.559, 0.829, -0.829, 0.559, 315.183, -376.637)">
        <g id="Path_357213-29" data-name="Path 357213" transform="translate(261.733 377.702)">
          <path id="Path_357254-29" data-name="Path 357254" d="M268.917,396.834a6.874,6.874,0,0,1-5.122-2.293c-1.911-2.208-2.5-5.723-1.746-10.454a1.174,1.174,0,0,1,2.283-.165,3.88,3.88,0,0,0,.728,1.322,10.127,10.127,0,0,1,3.485-7.28,1.18,1.18,0,0,1,1.908.777c.188,1.943.8,5.158,1.516,5.929a.619.619,0,0,0,.424.268,3.3,3.3,0,0,0,1.208-2.11,1.174,1.174,0,0,1,2.277-.077c.094.337,1.956,7.2-.948,11.239a7.127,7.127,0,0,1-5.593,2.831C269.332,396.823,269.157,396.835,268.917,396.834Zm-5.665-12.576c-.781,4.391-.284,7.6,1.393,9.535a5.741,5.741,0,0,0,4.3,1.91c.195,0,.32-.01.331-.01a6.012,6.012,0,0,0,4.742-2.373c2.594-3.605.845-10,.769-10.267l0-.008c0-.01-.013-.01-.021-.016-.313,1.243-1.247,3.035-2.437,3.035a1.721,1.721,0,0,1-1.225-.67c-1.26-1.349-1.754-6.321-1.774-6.532-2.833,2.219-3.2,5.71-3.175,7.592l.016,1.067-.892-.586A5.034,5.034,0,0,1,263.252,384.259Z" transform="translate(-261.733 -377.702)" fill="#d8d8d8"/>
        </g>
      </g>
      <g id="icon_heating-30" data-name="icon heating" transform="translate(-80.95 -403.229) rotate(6)">
        <g id="Path_357213-30" data-name="Path 357213" transform="translate(261.733 377.702)">
          <path id="Path_357254-30" data-name="Path 357254" d="M268.917,396.834a6.874,6.874,0,0,1-5.122-2.293c-1.911-2.208-2.5-5.723-1.746-10.454a1.174,1.174,0,0,1,2.283-.165,3.88,3.88,0,0,0,.728,1.322,10.127,10.127,0,0,1,3.485-7.28,1.18,1.18,0,0,1,1.908.777c.188,1.943.8,5.158,1.516,5.929a.619.619,0,0,0,.424.268,3.3,3.3,0,0,0,1.208-2.11,1.174,1.174,0,0,1,2.277-.077c.094.337,1.956,7.2-.948,11.239a7.127,7.127,0,0,1-5.593,2.831C269.332,396.823,269.157,396.835,268.917,396.834Zm-5.665-12.576c-.781,4.391-.284,7.6,1.393,9.535a5.741,5.741,0,0,0,4.3,1.91c.195,0,.32-.01.331-.01a6.012,6.012,0,0,0,4.742-2.373c2.594-3.605.845-10,.769-10.267l0-.008c0-.01-.013-.01-.021-.016-.313,1.243-1.247,3.035-2.437,3.035a1.721,1.721,0,0,1-1.225-.67c-1.26-1.349-1.754-6.321-1.774-6.532-2.833,2.219-3.2,5.71-3.175,7.592l.016,1.067-.892-.586A5.034,5.034,0,0,1,263.252,384.259Z" transform="translate(-261.733 -377.702)" fill="#d8d8d8"/>
        </g>
      </g>
    </g>
  </g>
</svg>
