<svg id="Component_130_1" data-name="Component 130 – 1" xmlns="http://www.w3.org/2000/svg" xmlns:xlink="http://www.w3.org/1999/xlink" width="1024.431" height="105.518" viewBox="0 0 1024.431 105.518">
  <defs>
    <clipPath id="clip-path">
      <rect width="1024.431" height="105.518" fill="none"/>
    </clipPath>
  </defs>
  <g id="Repeat_Grid_34" data-name="Repeat Grid 34" clip-path="url(#clip-path)">
    <g id="Group_854" data-name="Group 854" transform="translate(0.431 -0.382)">
      <g id="icon_magnet" data-name="icon magnet" transform="translate(-452.076 167.649) rotate(-65)">
        <path id="Path_357261" data-name="Path 357261" d="M287.933,388.7l-15-8.5v2.322l1,.577v-1.183L285.9,388.7l-11.972,6.784V394.3l-1,.577V397.2Z" fill="#d8d8d8"/>
        <path id="Path_357262" data-name="Path 357262" d="M273.933,383.1l-1-.577-2.292-1.322v15l2.292-1.322,1-.577,9.708-5.6Zm-1,10.624-1.292.746V382.928l1.292.746,1,.577,7.706,4.446-7.706,4.446Z" fill="#d8d8d8"/>
        <path id="Path_357263" data-name="Path 357263" d="M267.349,395.481,255.377,388.7l11.972-6.784V383.1l1-.577V380.2l-15,8.5,15,8.5v-2.322l-1-.577Z" fill="#d8d8d8"/>
        <path id="Path_357264" data-name="Path 357264" d="M268.349,382.519l-1,.577-9.708,5.6,9.708,5.6,1,.577,2.292,1.322v-15Zm1.292,11.947-1.292-.746-1-.577-7.707-4.446,7.707-4.446,1-.577,1.292-.746Z" fill="#d8d8d8"/>
      </g>
      <g id="icon_magnet-2" data-name="icon magnet" transform="matrix(0.875, -0.485, 0.485, 0.875, -388.574, -177.116)">
        <path id="Path_357261-2" data-name="Path 357261" d="M287.933,388.7l-15-8.5v2.322l1,.577v-1.183L285.9,388.7l-11.972,6.784V394.3l-1,.577V397.2Z" fill="#d8d8d8"/>
        <path id="Path_357262-2" data-name="Path 357262" d="M273.933,383.1l-1-.577-2.292-1.322v15l2.292-1.322,1-.577,9.708-5.6Zm-1,10.624-1.292.746V382.928l1.292.746,1,.577,7.706,4.446-7.706,4.446Z" fill="#d8d8d8"/>
        <path id="Path_357263-2" data-name="Path 357263" d="M267.349,395.481,255.377,388.7l11.972-6.784V383.1l1-.577V380.2l-15,8.5,15,8.5v-2.322l-1-.577Z" fill="#d8d8d8"/>
        <path id="Path_357264-2" data-name="Path 357264" d="M268.349,382.519l-1,.577-9.708,5.6,9.708,5.6,1,.577,2.292,1.322v-15Zm1.292,11.947-1.292-.746-1-.577-7.707-4.446,7.707-4.446,1-.577,1.292-.746Z" fill="#d8d8d8"/>
      </g>
      <g id="icon_magnet-3" data-name="icon magnet" transform="translate(346.387 -382.703) rotate(66)">
        <path id="Path_357261-3" data-name="Path 357261" d="M287.933,388.7l-15-8.5v2.322l1,.577v-1.183L285.9,388.7l-11.972,6.784V394.3l-1,.577V397.2Z" fill="#d8d8d8"/>
        <path id="Path_357262-3" data-name="Path 357262" d="M273.933,383.1l-1-.577-2.292-1.322v15l2.292-1.322,1-.577,9.708-5.6Zm-1,10.624-1.292.746V382.928l1.292.746,1,.577,7.706,4.446-7.706,4.446Z" fill="#d8d8d8"/>
        <path id="Path_357263-3" data-name="Path 357263" d="M267.349,395.481,255.377,388.7l11.972-6.784V383.1l1-.577V380.2l-15,8.5,15,8.5v-2.322l-1-.577Z" fill="#d8d8d8"/>
        <path id="Path_357264-3" data-name="Path 357264" d="M268.349,382.519l-1,.577-9.708,5.6,9.708,5.6,1,.577,2.292,1.322v-15Zm1.292,11.947-1.292-.746-1-.577-7.707-4.446,7.707-4.446,1-.577,1.292-.746Z" fill="#d8d8d8"/>
      </g>
      <g id="icon_magnet-4" data-name="icon magnet" transform="matrix(0.719, 0.695, -0.695, 0.719, 236.598, -423.662)">
        <path id="Path_357261-4" data-name="Path 357261" d="M287.933,388.7l-15-8.5v2.322l1,.577v-1.183L285.9,388.7l-11.972,6.784V394.3l-1,.577V397.2Z" fill="#d8d8d8"/>
        <path id="Path_357262-4" data-name="Path 357262" d="M273.933,383.1l-1-.577-2.292-1.322v15l2.292-1.322,1-.577,9.708-5.6Zm-1,10.624-1.292.746V382.928l1.292.746,1,.577,7.706,4.446-7.706,4.446Z" fill="#d8d8d8"/>
        <path id="Path_357263-4" data-name="Path 357263" d="M267.349,395.481,255.377,388.7l11.972-6.784V383.1l1-.577V380.2l-15,8.5,15,8.5v-2.322l-1-.577Z" fill="#d8d8d8"/>
        <path id="Path_357264-4" data-name="Path 357264" d="M268.349,382.519l-1,.577-9.708,5.6,9.708,5.6,1,.577,2.292,1.322v-15Zm1.292,11.947-1.292-.746-1-.577-7.707-4.446,7.707-4.446,1-.577,1.292-.746Z" fill="#d8d8d8"/>
      </g>
      <g id="icon_magnet-5" data-name="icon magnet" transform="translate(-202.967 -303.379) rotate(-2)">
        <path id="Path_357261-5" data-name="Path 357261" d="M287.933,388.7l-15-8.5v2.322l1,.577v-1.183L285.9,388.7l-11.972,6.784V394.3l-1,.577V397.2Z" fill="#d8d8d8"/>
        <path id="Path_357262-5" data-name="Path 357262" d="M273.933,383.1l-1-.577-2.292-1.322v15l2.292-1.322,1-.577,9.708-5.6Zm-1,10.624-1.292.746V382.928l1.292.746,1,.577,7.706,4.446-7.706,4.446Z" fill="#d8d8d8"/>
        <path id="Path_357263-5" data-name="Path 357263" d="M267.349,395.481,255.377,388.7l11.972-6.784V383.1l1-.577V380.2l-15,8.5,15,8.5v-2.322l-1-.577Z" fill="#d8d8d8"/>
        <path id="Path_357264-5" data-name="Path 357264" d="M268.349,382.519l-1,.577-9.708,5.6,9.708,5.6,1,.577,2.292,1.322v-15Zm1.292,11.947-1.292-.746-1-.577-7.707-4.446,7.707-4.446,1-.577,1.292-.746Z" fill="#d8d8d8"/>
      </g>
      <g id="icon_magnet-6" data-name="icon magnet" transform="translate(-130.943 -292.061)">
        <path id="Path_357261-6" data-name="Path 357261" d="M287.933,388.7l-15-8.5v2.322l1,.577v-1.183L285.9,388.7l-11.972,6.784V394.3l-1,.577V397.2Z" fill="#d8d8d8"/>
        <path id="Path_357262-6" data-name="Path 357262" d="M273.933,383.1l-1-.577-2.292-1.322v15l2.292-1.322,1-.577,9.708-5.6Zm-1,10.624-1.292.746V382.928l1.292.746,1,.577,7.706,4.446-7.706,4.446Z" fill="#d8d8d8"/>
        <path id="Path_357263-6" data-name="Path 357263" d="M267.349,395.481,255.377,388.7l11.972-6.784V383.1l1-.577V380.2l-15,8.5,15,8.5v-2.322l-1-.577Z" fill="#d8d8d8"/>
        <path id="Path_357264-6" data-name="Path 357264" d="M268.349,382.519l-1,.577-9.708,5.6,9.708,5.6,1,.577,2.292,1.322v-15Zm1.292,11.947-1.292-.746-1-.577-7.707-4.446,7.707-4.446,1-.577,1.292-.746Z" fill="#d8d8d8"/>
      </g>
    </g>
    <g id="Group_854-2" data-name="Group 854" transform="translate(192.431 -0.382)">
      <g id="icon_magnet-7" data-name="icon magnet" transform="translate(-452.076 167.649) rotate(-65)">
        <path id="Path_357261-7" data-name="Path 357261" d="M287.933,388.7l-15-8.5v2.322l1,.577v-1.183L285.9,388.7l-11.972,6.784V394.3l-1,.577V397.2Z" fill="#d8d8d8"/>
        <path id="Path_357262-7" data-name="Path 357262" d="M273.933,383.1l-1-.577-2.292-1.322v15l2.292-1.322,1-.577,9.708-5.6Zm-1,10.624-1.292.746V382.928l1.292.746,1,.577,7.706,4.446-7.706,4.446Z" fill="#d8d8d8"/>
        <path id="Path_357263-7" data-name="Path 357263" d="M267.349,395.481,255.377,388.7l11.972-6.784V383.1l1-.577V380.2l-15,8.5,15,8.5v-2.322l-1-.577Z" fill="#d8d8d8"/>
        <path id="Path_357264-7" data-name="Path 357264" d="M268.349,382.519l-1,.577-9.708,5.6,9.708,5.6,1,.577,2.292,1.322v-15Zm1.292,11.947-1.292-.746-1-.577-7.707-4.446,7.707-4.446,1-.577,1.292-.746Z" fill="#d8d8d8"/>
      </g>
      <g id="icon_magnet-8" data-name="icon magnet" transform="matrix(0.875, -0.485, 0.485, 0.875, -388.574, -177.116)">
        <path id="Path_357261-8" data-name="Path 357261" d="M287.933,388.7l-15-8.5v2.322l1,.577v-1.183L285.9,388.7l-11.972,6.784V394.3l-1,.577V397.2Z" fill="#d8d8d8"/>
        <path id="Path_357262-8" data-name="Path 357262" d="M273.933,383.1l-1-.577-2.292-1.322v15l2.292-1.322,1-.577,9.708-5.6Zm-1,10.624-1.292.746V382.928l1.292.746,1,.577,7.706,4.446-7.706,4.446Z" fill="#d8d8d8"/>
        <path id="Path_357263-8" data-name="Path 357263" d="M267.349,395.481,255.377,388.7l11.972-6.784V383.1l1-.577V380.2l-15,8.5,15,8.5v-2.322l-1-.577Z" fill="#d8d8d8"/>
        <path id="Path_357264-8" data-name="Path 357264" d="M268.349,382.519l-1,.577-9.708,5.6,9.708,5.6,1,.577,2.292,1.322v-15Zm1.292,11.947-1.292-.746-1-.577-7.707-4.446,7.707-4.446,1-.577,1.292-.746Z" fill="#d8d8d8"/>
      </g>
      <g id="icon_magnet-9" data-name="icon magnet" transform="translate(346.387 -382.703) rotate(66)">
        <path id="Path_357261-9" data-name="Path 357261" d="M287.933,388.7l-15-8.5v2.322l1,.577v-1.183L285.9,388.7l-11.972,6.784V394.3l-1,.577V397.2Z" fill="#d8d8d8"/>
        <path id="Path_357262-9" data-name="Path 357262" d="M273.933,383.1l-1-.577-2.292-1.322v15l2.292-1.322,1-.577,9.708-5.6Zm-1,10.624-1.292.746V382.928l1.292.746,1,.577,7.706,4.446-7.706,4.446Z" fill="#d8d8d8"/>
        <path id="Path_357263-9" data-name="Path 357263" d="M267.349,395.481,255.377,388.7l11.972-6.784V383.1l1-.577V380.2l-15,8.5,15,8.5v-2.322l-1-.577Z" fill="#d8d8d8"/>
        <path id="Path_357264-9" data-name="Path 357264" d="M268.349,382.519l-1,.577-9.708,5.6,9.708,5.6,1,.577,2.292,1.322v-15Zm1.292,11.947-1.292-.746-1-.577-7.707-4.446,7.707-4.446,1-.577,1.292-.746Z" fill="#d8d8d8"/>
      </g>
      <g id="icon_magnet-10" data-name="icon magnet" transform="matrix(0.719, 0.695, -0.695, 0.719, 236.598, -423.662)">
        <path id="Path_357261-10" data-name="Path 357261" d="M287.933,388.7l-15-8.5v2.322l1,.577v-1.183L285.9,388.7l-11.972,6.784V394.3l-1,.577V397.2Z" fill="#d8d8d8"/>
        <path id="Path_357262-10" data-name="Path 357262" d="M273.933,383.1l-1-.577-2.292-1.322v15l2.292-1.322,1-.577,9.708-5.6Zm-1,10.624-1.292.746V382.928l1.292.746,1,.577,7.706,4.446-7.706,4.446Z" fill="#d8d8d8"/>
        <path id="Path_357263-10" data-name="Path 357263" d="M267.349,395.481,255.377,388.7l11.972-6.784V383.1l1-.577V380.2l-15,8.5,15,8.5v-2.322l-1-.577Z" fill="#d8d8d8"/>
        <path id="Path_357264-10" data-name="Path 357264" d="M268.349,382.519l-1,.577-9.708,5.6,9.708,5.6,1,.577,2.292,1.322v-15Zm1.292,11.947-1.292-.746-1-.577-7.707-4.446,7.707-4.446,1-.577,1.292-.746Z" fill="#d8d8d8"/>
      </g>
      <g id="icon_magnet-11" data-name="icon magnet" transform="translate(-202.967 -303.379) rotate(-2)">
        <path id="Path_357261-11" data-name="Path 357261" d="M287.933,388.7l-15-8.5v2.322l1,.577v-1.183L285.9,388.7l-11.972,6.784V394.3l-1,.577V397.2Z" fill="#d8d8d8"/>
        <path id="Path_357262-11" data-name="Path 357262" d="M273.933,383.1l-1-.577-2.292-1.322v15l2.292-1.322,1-.577,9.708-5.6Zm-1,10.624-1.292.746V382.928l1.292.746,1,.577,7.706,4.446-7.706,4.446Z" fill="#d8d8d8"/>
        <path id="Path_357263-11" data-name="Path 357263" d="M267.349,395.481,255.377,388.7l11.972-6.784V383.1l1-.577V380.2l-15,8.5,15,8.5v-2.322l-1-.577Z" fill="#d8d8d8"/>
        <path id="Path_357264-11" data-name="Path 357264" d="M268.349,382.519l-1,.577-9.708,5.6,9.708,5.6,1,.577,2.292,1.322v-15Zm1.292,11.947-1.292-.746-1-.577-7.707-4.446,7.707-4.446,1-.577,1.292-.746Z" fill="#d8d8d8"/>
      </g>
      <g id="icon_magnet-12" data-name="icon magnet" transform="translate(-130.943 -292.061)">
        <path id="Path_357261-12" data-name="Path 357261" d="M287.933,388.7l-15-8.5v2.322l1,.577v-1.183L285.9,388.7l-11.972,6.784V394.3l-1,.577V397.2Z" fill="#d8d8d8"/>
        <path id="Path_357262-12" data-name="Path 357262" d="M273.933,383.1l-1-.577-2.292-1.322v15l2.292-1.322,1-.577,9.708-5.6Zm-1,10.624-1.292.746V382.928l1.292.746,1,.577,7.706,4.446-7.706,4.446Z" fill="#d8d8d8"/>
        <path id="Path_357263-12" data-name="Path 357263" d="M267.349,395.481,255.377,388.7l11.972-6.784V383.1l1-.577V380.2l-15,8.5,15,8.5v-2.322l-1-.577Z" fill="#d8d8d8"/>
        <path id="Path_357264-12" data-name="Path 357264" d="M268.349,382.519l-1,.577-9.708,5.6,9.708,5.6,1,.577,2.292,1.322v-15Zm1.292,11.947-1.292-.746-1-.577-7.707-4.446,7.707-4.446,1-.577,1.292-.746Z" fill="#d8d8d8"/>
      </g>
    </g>
    <g id="Group_854-3" data-name="Group 854" transform="translate(384.431 -0.382)">
      <g id="icon_magnet-13" data-name="icon magnet" transform="translate(-452.076 167.649) rotate(-65)">
        <path id="Path_357261-13" data-name="Path 357261" d="M287.933,388.7l-15-8.5v2.322l1,.577v-1.183L285.9,388.7l-11.972,6.784V394.3l-1,.577V397.2Z" fill="#d8d8d8"/>
        <path id="Path_357262-13" data-name="Path 357262" d="M273.933,383.1l-1-.577-2.292-1.322v15l2.292-1.322,1-.577,9.708-5.6Zm-1,10.624-1.292.746V382.928l1.292.746,1,.577,7.706,4.446-7.706,4.446Z" fill="#d8d8d8"/>
        <path id="Path_357263-13" data-name="Path 357263" d="M267.349,395.481,255.377,388.7l11.972-6.784V383.1l1-.577V380.2l-15,8.5,15,8.5v-2.322l-1-.577Z" fill="#d8d8d8"/>
        <path id="Path_357264-13" data-name="Path 357264" d="M268.349,382.519l-1,.577-9.708,5.6,9.708,5.6,1,.577,2.292,1.322v-15Zm1.292,11.947-1.292-.746-1-.577-7.707-4.446,7.707-4.446,1-.577,1.292-.746Z" fill="#d8d8d8"/>
      </g>
      <g id="icon_magnet-14" data-name="icon magnet" transform="matrix(0.875, -0.485, 0.485, 0.875, -388.574, -177.116)">
        <path id="Path_357261-14" data-name="Path 357261" d="M287.933,388.7l-15-8.5v2.322l1,.577v-1.183L285.9,388.7l-11.972,6.784V394.3l-1,.577V397.2Z" fill="#d8d8d8"/>
        <path id="Path_357262-14" data-name="Path 357262" d="M273.933,383.1l-1-.577-2.292-1.322v15l2.292-1.322,1-.577,9.708-5.6Zm-1,10.624-1.292.746V382.928l1.292.746,1,.577,7.706,4.446-7.706,4.446Z" fill="#d8d8d8"/>
        <path id="Path_357263-14" data-name="Path 357263" d="M267.349,395.481,255.377,388.7l11.972-6.784V383.1l1-.577V380.2l-15,8.5,15,8.5v-2.322l-1-.577Z" fill="#d8d8d8"/>
        <path id="Path_357264-14" data-name="Path 357264" d="M268.349,382.519l-1,.577-9.708,5.6,9.708,5.6,1,.577,2.292,1.322v-15Zm1.292,11.947-1.292-.746-1-.577-7.707-4.446,7.707-4.446,1-.577,1.292-.746Z" fill="#d8d8d8"/>
      </g>
      <g id="icon_magnet-15" data-name="icon magnet" transform="translate(346.387 -382.703) rotate(66)">
        <path id="Path_357261-15" data-name="Path 357261" d="M287.933,388.7l-15-8.5v2.322l1,.577v-1.183L285.9,388.7l-11.972,6.784V394.3l-1,.577V397.2Z" fill="#d8d8d8"/>
        <path id="Path_357262-15" data-name="Path 357262" d="M273.933,383.1l-1-.577-2.292-1.322v15l2.292-1.322,1-.577,9.708-5.6Zm-1,10.624-1.292.746V382.928l1.292.746,1,.577,7.706,4.446-7.706,4.446Z" fill="#d8d8d8"/>
        <path id="Path_357263-15" data-name="Path 357263" d="M267.349,395.481,255.377,388.7l11.972-6.784V383.1l1-.577V380.2l-15,8.5,15,8.5v-2.322l-1-.577Z" fill="#d8d8d8"/>
        <path id="Path_357264-15" data-name="Path 357264" d="M268.349,382.519l-1,.577-9.708,5.6,9.708,5.6,1,.577,2.292,1.322v-15Zm1.292,11.947-1.292-.746-1-.577-7.707-4.446,7.707-4.446,1-.577,1.292-.746Z" fill="#d8d8d8"/>
      </g>
      <g id="icon_magnet-16" data-name="icon magnet" transform="matrix(0.719, 0.695, -0.695, 0.719, 236.598, -423.662)">
        <path id="Path_357261-16" data-name="Path 357261" d="M287.933,388.7l-15-8.5v2.322l1,.577v-1.183L285.9,388.7l-11.972,6.784V394.3l-1,.577V397.2Z" fill="#d8d8d8"/>
        <path id="Path_357262-16" data-name="Path 357262" d="M273.933,383.1l-1-.577-2.292-1.322v15l2.292-1.322,1-.577,9.708-5.6Zm-1,10.624-1.292.746V382.928l1.292.746,1,.577,7.706,4.446-7.706,4.446Z" fill="#d8d8d8"/>
        <path id="Path_357263-16" data-name="Path 357263" d="M267.349,395.481,255.377,388.7l11.972-6.784V383.1l1-.577V380.2l-15,8.5,15,8.5v-2.322l-1-.577Z" fill="#d8d8d8"/>
        <path id="Path_357264-16" data-name="Path 357264" d="M268.349,382.519l-1,.577-9.708,5.6,9.708,5.6,1,.577,2.292,1.322v-15Zm1.292,11.947-1.292-.746-1-.577-7.707-4.446,7.707-4.446,1-.577,1.292-.746Z" fill="#d8d8d8"/>
      </g>
      <g id="icon_magnet-17" data-name="icon magnet" transform="translate(-202.967 -303.379) rotate(-2)">
        <path id="Path_357261-17" data-name="Path 357261" d="M287.933,388.7l-15-8.5v2.322l1,.577v-1.183L285.9,388.7l-11.972,6.784V394.3l-1,.577V397.2Z" fill="#d8d8d8"/>
        <path id="Path_357262-17" data-name="Path 357262" d="M273.933,383.1l-1-.577-2.292-1.322v15l2.292-1.322,1-.577,9.708-5.6Zm-1,10.624-1.292.746V382.928l1.292.746,1,.577,7.706,4.446-7.706,4.446Z" fill="#d8d8d8"/>
        <path id="Path_357263-17" data-name="Path 357263" d="M267.349,395.481,255.377,388.7l11.972-6.784V383.1l1-.577V380.2l-15,8.5,15,8.5v-2.322l-1-.577Z" fill="#d8d8d8"/>
        <path id="Path_357264-17" data-name="Path 357264" d="M268.349,382.519l-1,.577-9.708,5.6,9.708,5.6,1,.577,2.292,1.322v-15Zm1.292,11.947-1.292-.746-1-.577-7.707-4.446,7.707-4.446,1-.577,1.292-.746Z" fill="#d8d8d8"/>
      </g>
      <g id="icon_magnet-18" data-name="icon magnet" transform="translate(-130.943 -292.061)">
        <path id="Path_357261-18" data-name="Path 357261" d="M287.933,388.7l-15-8.5v2.322l1,.577v-1.183L285.9,388.7l-11.972,6.784V394.3l-1,.577V397.2Z" fill="#d8d8d8"/>
        <path id="Path_357262-18" data-name="Path 357262" d="M273.933,383.1l-1-.577-2.292-1.322v15l2.292-1.322,1-.577,9.708-5.6Zm-1,10.624-1.292.746V382.928l1.292.746,1,.577,7.706,4.446-7.706,4.446Z" fill="#d8d8d8"/>
        <path id="Path_357263-18" data-name="Path 357263" d="M267.349,395.481,255.377,388.7l11.972-6.784V383.1l1-.577V380.2l-15,8.5,15,8.5v-2.322l-1-.577Z" fill="#d8d8d8"/>
        <path id="Path_357264-18" data-name="Path 357264" d="M268.349,382.519l-1,.577-9.708,5.6,9.708,5.6,1,.577,2.292,1.322v-15Zm1.292,11.947-1.292-.746-1-.577-7.707-4.446,7.707-4.446,1-.577,1.292-.746Z" fill="#d8d8d8"/>
      </g>
    </g>
    <g id="Group_854-4" data-name="Group 854" transform="translate(576.431 -0.382)">
      <g id="icon_magnet-19" data-name="icon magnet" transform="translate(-452.076 167.649) rotate(-65)">
        <path id="Path_357261-19" data-name="Path 357261" d="M287.933,388.7l-15-8.5v2.322l1,.577v-1.183L285.9,388.7l-11.972,6.784V394.3l-1,.577V397.2Z" fill="#d8d8d8"/>
        <path id="Path_357262-19" data-name="Path 357262" d="M273.933,383.1l-1-.577-2.292-1.322v15l2.292-1.322,1-.577,9.708-5.6Zm-1,10.624-1.292.746V382.928l1.292.746,1,.577,7.706,4.446-7.706,4.446Z" fill="#d8d8d8"/>
        <path id="Path_357263-19" data-name="Path 357263" d="M267.349,395.481,255.377,388.7l11.972-6.784V383.1l1-.577V380.2l-15,8.5,15,8.5v-2.322l-1-.577Z" fill="#d8d8d8"/>
        <path id="Path_357264-19" data-name="Path 357264" d="M268.349,382.519l-1,.577-9.708,5.6,9.708,5.6,1,.577,2.292,1.322v-15Zm1.292,11.947-1.292-.746-1-.577-7.707-4.446,7.707-4.446,1-.577,1.292-.746Z" fill="#d8d8d8"/>
      </g>
      <g id="icon_magnet-20" data-name="icon magnet" transform="matrix(0.875, -0.485, 0.485, 0.875, -388.574, -177.116)">
        <path id="Path_357261-20" data-name="Path 357261" d="M287.933,388.7l-15-8.5v2.322l1,.577v-1.183L285.9,388.7l-11.972,6.784V394.3l-1,.577V397.2Z" fill="#d8d8d8"/>
        <path id="Path_357262-20" data-name="Path 357262" d="M273.933,383.1l-1-.577-2.292-1.322v15l2.292-1.322,1-.577,9.708-5.6Zm-1,10.624-1.292.746V382.928l1.292.746,1,.577,7.706,4.446-7.706,4.446Z" fill="#d8d8d8"/>
        <path id="Path_357263-20" data-name="Path 357263" d="M267.349,395.481,255.377,388.7l11.972-6.784V383.1l1-.577V380.2l-15,8.5,15,8.5v-2.322l-1-.577Z" fill="#d8d8d8"/>
        <path id="Path_357264-20" data-name="Path 357264" d="M268.349,382.519l-1,.577-9.708,5.6,9.708,5.6,1,.577,2.292,1.322v-15Zm1.292,11.947-1.292-.746-1-.577-7.707-4.446,7.707-4.446,1-.577,1.292-.746Z" fill="#d8d8d8"/>
      </g>
      <g id="icon_magnet-21" data-name="icon magnet" transform="translate(346.387 -382.703) rotate(66)">
        <path id="Path_357261-21" data-name="Path 357261" d="M287.933,388.7l-15-8.5v2.322l1,.577v-1.183L285.9,388.7l-11.972,6.784V394.3l-1,.577V397.2Z" fill="#d8d8d8"/>
        <path id="Path_357262-21" data-name="Path 357262" d="M273.933,383.1l-1-.577-2.292-1.322v15l2.292-1.322,1-.577,9.708-5.6Zm-1,10.624-1.292.746V382.928l1.292.746,1,.577,7.706,4.446-7.706,4.446Z" fill="#d8d8d8"/>
        <path id="Path_357263-21" data-name="Path 357263" d="M267.349,395.481,255.377,388.7l11.972-6.784V383.1l1-.577V380.2l-15,8.5,15,8.5v-2.322l-1-.577Z" fill="#d8d8d8"/>
        <path id="Path_357264-21" data-name="Path 357264" d="M268.349,382.519l-1,.577-9.708,5.6,9.708,5.6,1,.577,2.292,1.322v-15Zm1.292,11.947-1.292-.746-1-.577-7.707-4.446,7.707-4.446,1-.577,1.292-.746Z" fill="#d8d8d8"/>
      </g>
      <g id="icon_magnet-22" data-name="icon magnet" transform="matrix(0.719, 0.695, -0.695, 0.719, 236.598, -423.662)">
        <path id="Path_357261-22" data-name="Path 357261" d="M287.933,388.7l-15-8.5v2.322l1,.577v-1.183L285.9,388.7l-11.972,6.784V394.3l-1,.577V397.2Z" fill="#d8d8d8"/>
        <path id="Path_357262-22" data-name="Path 357262" d="M273.933,383.1l-1-.577-2.292-1.322v15l2.292-1.322,1-.577,9.708-5.6Zm-1,10.624-1.292.746V382.928l1.292.746,1,.577,7.706,4.446-7.706,4.446Z" fill="#d8d8d8"/>
        <path id="Path_357263-22" data-name="Path 357263" d="M267.349,395.481,255.377,388.7l11.972-6.784V383.1l1-.577V380.2l-15,8.5,15,8.5v-2.322l-1-.577Z" fill="#d8d8d8"/>
        <path id="Path_357264-22" data-name="Path 357264" d="M268.349,382.519l-1,.577-9.708,5.6,9.708,5.6,1,.577,2.292,1.322v-15Zm1.292,11.947-1.292-.746-1-.577-7.707-4.446,7.707-4.446,1-.577,1.292-.746Z" fill="#d8d8d8"/>
      </g>
      <g id="icon_magnet-23" data-name="icon magnet" transform="translate(-202.967 -303.379) rotate(-2)">
        <path id="Path_357261-23" data-name="Path 357261" d="M287.933,388.7l-15-8.5v2.322l1,.577v-1.183L285.9,388.7l-11.972,6.784V394.3l-1,.577V397.2Z" fill="#d8d8d8"/>
        <path id="Path_357262-23" data-name="Path 357262" d="M273.933,383.1l-1-.577-2.292-1.322v15l2.292-1.322,1-.577,9.708-5.6Zm-1,10.624-1.292.746V382.928l1.292.746,1,.577,7.706,4.446-7.706,4.446Z" fill="#d8d8d8"/>
        <path id="Path_357263-23" data-name="Path 357263" d="M267.349,395.481,255.377,388.7l11.972-6.784V383.1l1-.577V380.2l-15,8.5,15,8.5v-2.322l-1-.577Z" fill="#d8d8d8"/>
        <path id="Path_357264-23" data-name="Path 357264" d="M268.349,382.519l-1,.577-9.708,5.6,9.708,5.6,1,.577,2.292,1.322v-15Zm1.292,11.947-1.292-.746-1-.577-7.707-4.446,7.707-4.446,1-.577,1.292-.746Z" fill="#d8d8d8"/>
      </g>
      <g id="icon_magnet-24" data-name="icon magnet" transform="translate(-130.943 -292.061)">
        <path id="Path_357261-24" data-name="Path 357261" d="M287.933,388.7l-15-8.5v2.322l1,.577v-1.183L285.9,388.7l-11.972,6.784V394.3l-1,.577V397.2Z" fill="#d8d8d8"/>
        <path id="Path_357262-24" data-name="Path 357262" d="M273.933,383.1l-1-.577-2.292-1.322v15l2.292-1.322,1-.577,9.708-5.6Zm-1,10.624-1.292.746V382.928l1.292.746,1,.577,7.706,4.446-7.706,4.446Z" fill="#d8d8d8"/>
        <path id="Path_357263-24" data-name="Path 357263" d="M267.349,395.481,255.377,388.7l11.972-6.784V383.1l1-.577V380.2l-15,8.5,15,8.5v-2.322l-1-.577Z" fill="#d8d8d8"/>
        <path id="Path_357264-24" data-name="Path 357264" d="M268.349,382.519l-1,.577-9.708,5.6,9.708,5.6,1,.577,2.292,1.322v-15Zm1.292,11.947-1.292-.746-1-.577-7.707-4.446,7.707-4.446,1-.577,1.292-.746Z" fill="#d8d8d8"/>
      </g>
    </g>
    <g id="Group_854-5" data-name="Group 854" transform="translate(768.431 -0.382)">
      <g id="icon_magnet-25" data-name="icon magnet" transform="translate(-452.076 167.649) rotate(-65)">
        <path id="Path_357261-25" data-name="Path 357261" d="M287.933,388.7l-15-8.5v2.322l1,.577v-1.183L285.9,388.7l-11.972,6.784V394.3l-1,.577V397.2Z" fill="#d8d8d8"/>
        <path id="Path_357262-25" data-name="Path 357262" d="M273.933,383.1l-1-.577-2.292-1.322v15l2.292-1.322,1-.577,9.708-5.6Zm-1,10.624-1.292.746V382.928l1.292.746,1,.577,7.706,4.446-7.706,4.446Z" fill="#d8d8d8"/>
        <path id="Path_357263-25" data-name="Path 357263" d="M267.349,395.481,255.377,388.7l11.972-6.784V383.1l1-.577V380.2l-15,8.5,15,8.5v-2.322l-1-.577Z" fill="#d8d8d8"/>
        <path id="Path_357264-25" data-name="Path 357264" d="M268.349,382.519l-1,.577-9.708,5.6,9.708,5.6,1,.577,2.292,1.322v-15Zm1.292,11.947-1.292-.746-1-.577-7.707-4.446,7.707-4.446,1-.577,1.292-.746Z" fill="#d8d8d8"/>
      </g>
      <g id="icon_magnet-26" data-name="icon magnet" transform="matrix(0.875, -0.485, 0.485, 0.875, -388.574, -177.116)">
        <path id="Path_357261-26" data-name="Path 357261" d="M287.933,388.7l-15-8.5v2.322l1,.577v-1.183L285.9,388.7l-11.972,6.784V394.3l-1,.577V397.2Z" fill="#d8d8d8"/>
        <path id="Path_357262-26" data-name="Path 357262" d="M273.933,383.1l-1-.577-2.292-1.322v15l2.292-1.322,1-.577,9.708-5.6Zm-1,10.624-1.292.746V382.928l1.292.746,1,.577,7.706,4.446-7.706,4.446Z" fill="#d8d8d8"/>
        <path id="Path_357263-26" data-name="Path 357263" d="M267.349,395.481,255.377,388.7l11.972-6.784V383.1l1-.577V380.2l-15,8.5,15,8.5v-2.322l-1-.577Z" fill="#d8d8d8"/>
        <path id="Path_357264-26" data-name="Path 357264" d="M268.349,382.519l-1,.577-9.708,5.6,9.708,5.6,1,.577,2.292,1.322v-15Zm1.292,11.947-1.292-.746-1-.577-7.707-4.446,7.707-4.446,1-.577,1.292-.746Z" fill="#d8d8d8"/>
      </g>
      <g id="icon_magnet-27" data-name="icon magnet" transform="translate(346.387 -382.703) rotate(66)">
        <path id="Path_357261-27" data-name="Path 357261" d="M287.933,388.7l-15-8.5v2.322l1,.577v-1.183L285.9,388.7l-11.972,6.784V394.3l-1,.577V397.2Z" fill="#d8d8d8"/>
        <path id="Path_357262-27" data-name="Path 357262" d="M273.933,383.1l-1-.577-2.292-1.322v15l2.292-1.322,1-.577,9.708-5.6Zm-1,10.624-1.292.746V382.928l1.292.746,1,.577,7.706,4.446-7.706,4.446Z" fill="#d8d8d8"/>
        <path id="Path_357263-27" data-name="Path 357263" d="M267.349,395.481,255.377,388.7l11.972-6.784V383.1l1-.577V380.2l-15,8.5,15,8.5v-2.322l-1-.577Z" fill="#d8d8d8"/>
        <path id="Path_357264-27" data-name="Path 357264" d="M268.349,382.519l-1,.577-9.708,5.6,9.708,5.6,1,.577,2.292,1.322v-15Zm1.292,11.947-1.292-.746-1-.577-7.707-4.446,7.707-4.446,1-.577,1.292-.746Z" fill="#d8d8d8"/>
      </g>
      <g id="icon_magnet-28" data-name="icon magnet" transform="matrix(0.719, 0.695, -0.695, 0.719, 236.598, -423.662)">
        <path id="Path_357261-28" data-name="Path 357261" d="M287.933,388.7l-15-8.5v2.322l1,.577v-1.183L285.9,388.7l-11.972,6.784V394.3l-1,.577V397.2Z" fill="#d8d8d8"/>
        <path id="Path_357262-28" data-name="Path 357262" d="M273.933,383.1l-1-.577-2.292-1.322v15l2.292-1.322,1-.577,9.708-5.6Zm-1,10.624-1.292.746V382.928l1.292.746,1,.577,7.706,4.446-7.706,4.446Z" fill="#d8d8d8"/>
        <path id="Path_357263-28" data-name="Path 357263" d="M267.349,395.481,255.377,388.7l11.972-6.784V383.1l1-.577V380.2l-15,8.5,15,8.5v-2.322l-1-.577Z" fill="#d8d8d8"/>
        <path id="Path_357264-28" data-name="Path 357264" d="M268.349,382.519l-1,.577-9.708,5.6,9.708,5.6,1,.577,2.292,1.322v-15Zm1.292,11.947-1.292-.746-1-.577-7.707-4.446,7.707-4.446,1-.577,1.292-.746Z" fill="#d8d8d8"/>
      </g>
      <g id="icon_magnet-29" data-name="icon magnet" transform="translate(-202.967 -303.379) rotate(-2)">
        <path id="Path_357261-29" data-name="Path 357261" d="M287.933,388.7l-15-8.5v2.322l1,.577v-1.183L285.9,388.7l-11.972,6.784V394.3l-1,.577V397.2Z" fill="#d8d8d8"/>
        <path id="Path_357262-29" data-name="Path 357262" d="M273.933,383.1l-1-.577-2.292-1.322v15l2.292-1.322,1-.577,9.708-5.6Zm-1,10.624-1.292.746V382.928l1.292.746,1,.577,7.706,4.446-7.706,4.446Z" fill="#d8d8d8"/>
        <path id="Path_357263-29" data-name="Path 357263" d="M267.349,395.481,255.377,388.7l11.972-6.784V383.1l1-.577V380.2l-15,8.5,15,8.5v-2.322l-1-.577Z" fill="#d8d8d8"/>
        <path id="Path_357264-29" data-name="Path 357264" d="M268.349,382.519l-1,.577-9.708,5.6,9.708,5.6,1,.577,2.292,1.322v-15Zm1.292,11.947-1.292-.746-1-.577-7.707-4.446,7.707-4.446,1-.577,1.292-.746Z" fill="#d8d8d8"/>
      </g>
      <g id="icon_magnet-30" data-name="icon magnet" transform="translate(-130.943 -292.061)">
        <path id="Path_357261-30" data-name="Path 357261" d="M287.933,388.7l-15-8.5v2.322l1,.577v-1.183L285.9,388.7l-11.972,6.784V394.3l-1,.577V397.2Z" fill="#d8d8d8"/>
        <path id="Path_357262-30" data-name="Path 357262" d="M273.933,383.1l-1-.577-2.292-1.322v15l2.292-1.322,1-.577,9.708-5.6Zm-1,10.624-1.292.746V382.928l1.292.746,1,.577,7.706,4.446-7.706,4.446Z" fill="#d8d8d8"/>
        <path id="Path_357263-30" data-name="Path 357263" d="M267.349,395.481,255.377,388.7l11.972-6.784V383.1l1-.577V380.2l-15,8.5,15,8.5v-2.322l-1-.577Z" fill="#d8d8d8"/>
        <path id="Path_357264-30" data-name="Path 357264" d="M268.349,382.519l-1,.577-9.708,5.6,9.708,5.6,1,.577,2.292,1.322v-15Zm1.292,11.947-1.292-.746-1-.577-7.707-4.446,7.707-4.446,1-.577,1.292-.746Z" fill="#d8d8d8"/>
      </g>
    </g>
    <g id="Group_854-6" data-name="Group 854" transform="translate(960.431 -0.382)">
      <g id="icon_magnet-31" data-name="icon magnet" transform="translate(-452.076 167.649) rotate(-65)">
        <path id="Path_357261-31" data-name="Path 357261" d="M287.933,388.7l-15-8.5v2.322l1,.577v-1.183L285.9,388.7l-11.972,6.784V394.3l-1,.577V397.2Z" fill="#d8d8d8"/>
        <path id="Path_357262-31" data-name="Path 357262" d="M273.933,383.1l-1-.577-2.292-1.322v15l2.292-1.322,1-.577,9.708-5.6Zm-1,10.624-1.292.746V382.928l1.292.746,1,.577,7.706,4.446-7.706,4.446Z" fill="#d8d8d8"/>
        <path id="Path_357263-31" data-name="Path 357263" d="M267.349,395.481,255.377,388.7l11.972-6.784V383.1l1-.577V380.2l-15,8.5,15,8.5v-2.322l-1-.577Z" fill="#d8d8d8"/>
        <path id="Path_357264-31" data-name="Path 357264" d="M268.349,382.519l-1,.577-9.708,5.6,9.708,5.6,1,.577,2.292,1.322v-15Zm1.292,11.947-1.292-.746-1-.577-7.707-4.446,7.707-4.446,1-.577,1.292-.746Z" fill="#d8d8d8"/>
      </g>
      <g id="icon_magnet-32" data-name="icon magnet" transform="matrix(0.875, -0.485, 0.485, 0.875, -388.574, -177.116)">
        <path id="Path_357261-32" data-name="Path 357261" d="M287.933,388.7l-15-8.5v2.322l1,.577v-1.183L285.9,388.7l-11.972,6.784V394.3l-1,.577V397.2Z" fill="#d8d8d8"/>
        <path id="Path_357262-32" data-name="Path 357262" d="M273.933,383.1l-1-.577-2.292-1.322v15l2.292-1.322,1-.577,9.708-5.6Zm-1,10.624-1.292.746V382.928l1.292.746,1,.577,7.706,4.446-7.706,4.446Z" fill="#d8d8d8"/>
        <path id="Path_357263-32" data-name="Path 357263" d="M267.349,395.481,255.377,388.7l11.972-6.784V383.1l1-.577V380.2l-15,8.5,15,8.5v-2.322l-1-.577Z" fill="#d8d8d8"/>
        <path id="Path_357264-32" data-name="Path 357264" d="M268.349,382.519l-1,.577-9.708,5.6,9.708,5.6,1,.577,2.292,1.322v-15Zm1.292,11.947-1.292-.746-1-.577-7.707-4.446,7.707-4.446,1-.577,1.292-.746Z" fill="#d8d8d8"/>
      </g>
      <g id="icon_magnet-33" data-name="icon magnet" transform="translate(346.387 -382.703) rotate(66)">
        <path id="Path_357261-33" data-name="Path 357261" d="M287.933,388.7l-15-8.5v2.322l1,.577v-1.183L285.9,388.7l-11.972,6.784V394.3l-1,.577V397.2Z" fill="#d8d8d8"/>
        <path id="Path_357262-33" data-name="Path 357262" d="M273.933,383.1l-1-.577-2.292-1.322v15l2.292-1.322,1-.577,9.708-5.6Zm-1,10.624-1.292.746V382.928l1.292.746,1,.577,7.706,4.446-7.706,4.446Z" fill="#d8d8d8"/>
        <path id="Path_357263-33" data-name="Path 357263" d="M267.349,395.481,255.377,388.7l11.972-6.784V383.1l1-.577V380.2l-15,8.5,15,8.5v-2.322l-1-.577Z" fill="#d8d8d8"/>
        <path id="Path_357264-33" data-name="Path 357264" d="M268.349,382.519l-1,.577-9.708,5.6,9.708,5.6,1,.577,2.292,1.322v-15Zm1.292,11.947-1.292-.746-1-.577-7.707-4.446,7.707-4.446,1-.577,1.292-.746Z" fill="#d8d8d8"/>
      </g>
      <g id="icon_magnet-34" data-name="icon magnet" transform="matrix(0.719, 0.695, -0.695, 0.719, 236.598, -423.662)">
        <path id="Path_357261-34" data-name="Path 357261" d="M287.933,388.7l-15-8.5v2.322l1,.577v-1.183L285.9,388.7l-11.972,6.784V394.3l-1,.577V397.2Z" fill="#d8d8d8"/>
        <path id="Path_357262-34" data-name="Path 357262" d="M273.933,383.1l-1-.577-2.292-1.322v15l2.292-1.322,1-.577,9.708-5.6Zm-1,10.624-1.292.746V382.928l1.292.746,1,.577,7.706,4.446-7.706,4.446Z" fill="#d8d8d8"/>
        <path id="Path_357263-34" data-name="Path 357263" d="M267.349,395.481,255.377,388.7l11.972-6.784V383.1l1-.577V380.2l-15,8.5,15,8.5v-2.322l-1-.577Z" fill="#d8d8d8"/>
        <path id="Path_357264-34" data-name="Path 357264" d="M268.349,382.519l-1,.577-9.708,5.6,9.708,5.6,1,.577,2.292,1.322v-15Zm1.292,11.947-1.292-.746-1-.577-7.707-4.446,7.707-4.446,1-.577,1.292-.746Z" fill="#d8d8d8"/>
      </g>
      <g id="icon_magnet-35" data-name="icon magnet" transform="translate(-202.967 -303.379) rotate(-2)">
        <path id="Path_357261-35" data-name="Path 357261" d="M287.933,388.7l-15-8.5v2.322l1,.577v-1.183L285.9,388.7l-11.972,6.784V394.3l-1,.577V397.2Z" fill="#d8d8d8"/>
        <path id="Path_357262-35" data-name="Path 357262" d="M273.933,383.1l-1-.577-2.292-1.322v15l2.292-1.322,1-.577,9.708-5.6Zm-1,10.624-1.292.746V382.928l1.292.746,1,.577,7.706,4.446-7.706,4.446Z" fill="#d8d8d8"/>
        <path id="Path_357263-35" data-name="Path 357263" d="M267.349,395.481,255.377,388.7l11.972-6.784V383.1l1-.577V380.2l-15,8.5,15,8.5v-2.322l-1-.577Z" fill="#d8d8d8"/>
        <path id="Path_357264-35" data-name="Path 357264" d="M268.349,382.519l-1,.577-9.708,5.6,9.708,5.6,1,.577,2.292,1.322v-15Zm1.292,11.947-1.292-.746-1-.577-7.707-4.446,7.707-4.446,1-.577,1.292-.746Z" fill="#d8d8d8"/>
      </g>
      <g id="icon_magnet-36" data-name="icon magnet" transform="translate(-130.943 -292.061)">
        <path id="Path_357261-36" data-name="Path 357261" d="M287.933,388.7l-15-8.5v2.322l1,.577v-1.183L285.9,388.7l-11.972,6.784V394.3l-1,.577V397.2Z" fill="#d8d8d8"/>
        <path id="Path_357262-36" data-name="Path 357262" d="M273.933,383.1l-1-.577-2.292-1.322v15l2.292-1.322,1-.577,9.708-5.6Zm-1,10.624-1.292.746V382.928l1.292.746,1,.577,7.706,4.446-7.706,4.446Z" fill="#d8d8d8"/>
        <path id="Path_357263-36" data-name="Path 357263" d="M267.349,395.481,255.377,388.7l11.972-6.784V383.1l1-.577V380.2l-15,8.5,15,8.5v-2.322l-1-.577Z" fill="#d8d8d8"/>
        <path id="Path_357264-36" data-name="Path 357264" d="M268.349,382.519l-1,.577-9.708,5.6,9.708,5.6,1,.577,2.292,1.322v-15Zm1.292,11.947-1.292-.746-1-.577-7.707-4.446,7.707-4.446,1-.577,1.292-.746Z" fill="#d8d8d8"/>
      </g>
    </g>
  </g>
</svg>
