<svg id="Component_128_1" data-name="Component 128 – 1" xmlns="http://www.w3.org/2000/svg" xmlns:xlink="http://www.w3.org/1999/xlink" width="1024" height="94.745" viewBox="0 0 1024 94.745">
  <defs>
    <clipPath id="clip-path">
      <rect width="1024" height="94.745" fill="none"/>
    </clipPath>
  </defs>
  <g id="Repeat_Grid_32" data-name="Repeat Grid 32" clip-path="url(#clip-path)">
    <g id="Group_842" data-name="Group 842" transform="translate(0 -0.807)">
      <g id="icon_shaking" data-name="icon shaking" transform="translate(-228.288 -364.622)">
        <path id="Path_357248" data-name="Path 357248" d="M251.285,383.1l4.794,17.264,2.806-2.8-.149-.557-.149-.557-2,1.994-3.864-13.916,13.97,3.849-1.608,1.6.558.15.558.15,2.417-2.408Z" fill="#d8d8d8"/>
        <path id="Path_357249" data-name="Path 357249" d="M266.2,390.286l-.558-.15-.558-.15-8.872-2.38,2.375,8.852.15.557.149.556L260.1,402.1l10.607-10.607Zm-6.646,5.915-.15-.557-1.777-6.623,6.638,1.781.558.15.558.149,3.4.911-8.158,8.158-.916-3.412Z" fill="#d8d8d8"/>
        <path id="Path_357250" data-name="Path 357250" d="M254.22,380.49a4.6,4.6,0,0,1,3.075-.683,3.235,3.235,0,0,1,2.049,1.59.5.5,0,0,0,.426.237.508.508,0,0,0,.263-.075.5.5,0,0,0,.161-.689,4.193,4.193,0,0,0-2.694-2.043,5.561,5.561,0,0,0-3.838.833.5.5,0,0,0,.558.83Z" fill="#d8d8d8"/>
        <path id="Path_357251" data-name="Path 357251" d="M255.192,377.975a2.766,2.766,0,0,1,3.926.5.5.5,0,1,0,.8-.6l-.062-.079a3.764,3.764,0,0,0-5.29-.612.5.5,0,1,0,.621.784Z" fill="#d8d8d8"/>
        <path id="Path_357252" data-name="Path 357252" d="M250.08,391.3a4.552,4.552,0,0,1-2.127-2.315,3.233,3.233,0,0,1,.351-2.575.5.5,0,1,0-.882-.472,4.193,4.193,0,0,0-.421,3.354,5.541,5.541,0,0,0,2.64,2.907.488.488,0,0,0,.219.051.5.5,0,0,0,.22-.95Z" fill="#d8d8d8"/>
        <path id="Path_357253" data-name="Path 357253" d="M247.4,391.436a2.471,2.471,0,0,1-1.415-1.32,2.524,2.524,0,0,1-.016-2,.451.451,0,0,0-.243-.6.472.472,0,0,0-.609.252l-.035.086a3.387,3.387,0,0,0,1.98,4.439.473.473,0,0,0,.6-.272A.45.45,0,0,0,247.4,391.436Z" fill="#d8d8d8"/>
      </g>
      <g id="icon_shaking-2" data-name="icon shaking" transform="translate(402.102 -175.154) rotate(90)">
        <path id="Path_357248-2" data-name="Path 357248" d="M251.285,383.1l4.794,17.264,2.806-2.8-.149-.557-.149-.557-2,1.994-3.864-13.916,13.97,3.849-1.608,1.6.558.15.558.15,2.417-2.408Z" fill="#d8d8d8"/>
        <path id="Path_357249-2" data-name="Path 357249" d="M266.2,390.286l-.558-.15-.558-.15-8.872-2.38,2.375,8.852.15.557.149.556L260.1,402.1l10.607-10.607Zm-6.646,5.915-.15-.557-1.777-6.623,6.638,1.781.558.15.558.149,3.4.911-8.158,8.158-.916-3.412Z" fill="#d8d8d8"/>
        <path id="Path_357250-2" data-name="Path 357250" d="M254.22,380.49a4.6,4.6,0,0,1,3.075-.683,3.235,3.235,0,0,1,2.049,1.59.5.5,0,0,0,.426.237.508.508,0,0,0,.263-.075.5.5,0,0,0,.161-.689,4.193,4.193,0,0,0-2.694-2.043,5.561,5.561,0,0,0-3.838.833.5.5,0,0,0,.558.83Z" fill="#d8d8d8"/>
        <path id="Path_357251-2" data-name="Path 357251" d="M255.192,377.975a2.766,2.766,0,0,1,3.926.5.5.5,0,1,0,.8-.6l-.062-.079a3.764,3.764,0,0,0-5.29-.612.5.5,0,1,0,.621.784Z" fill="#d8d8d8"/>
        <path id="Path_357252-2" data-name="Path 357252" d="M250.08,391.3a4.552,4.552,0,0,1-2.127-2.315,3.233,3.233,0,0,1,.351-2.575.5.5,0,1,0-.882-.472,4.193,4.193,0,0,0-.421,3.354,5.541,5.541,0,0,0,2.64,2.907.488.488,0,0,0,.219.051.5.5,0,0,0,.22-.95Z" fill="#d8d8d8"/>
        <path id="Path_357253-2" data-name="Path 357253" d="M247.4,391.436a2.471,2.471,0,0,1-1.415-1.32,2.524,2.524,0,0,1-.016-2,.451.451,0,0,0-.243-.6.472.472,0,0,0-.609.252l-.035.086a3.387,3.387,0,0,0,1.98,4.439.473.473,0,0,0,.6-.272A.45.45,0,0,0,247.4,391.436Z" fill="#d8d8d8"/>
      </g>
      <g id="icon_shaking-3" data-name="icon shaking" transform="translate(494.439 -294.027) rotate(82)">
        <path id="Path_357248-3" data-name="Path 357248" d="M251.285,383.1l4.794,17.264,2.806-2.8-.149-.557-.149-.557-2,1.994-3.864-13.916,13.97,3.849-1.608,1.6.558.15.558.15,2.417-2.408Z" fill="#d8d8d8"/>
        <path id="Path_357249-3" data-name="Path 357249" d="M266.2,390.286l-.558-.15-.558-.15-8.872-2.38,2.375,8.852.15.557.149.556L260.1,402.1l10.607-10.607Zm-6.646,5.915-.15-.557-1.777-6.623,6.638,1.781.558.15.558.149,3.4.911-8.158,8.158-.916-3.412Z" fill="#d8d8d8"/>
        <path id="Path_357250-3" data-name="Path 357250" d="M254.22,380.49a4.6,4.6,0,0,1,3.075-.683,3.235,3.235,0,0,1,2.049,1.59.5.5,0,0,0,.426.237.508.508,0,0,0,.263-.075.5.5,0,0,0,.161-.689,4.193,4.193,0,0,0-2.694-2.043,5.561,5.561,0,0,0-3.838.833.5.5,0,0,0,.558.83Z" fill="#d8d8d8"/>
        <path id="Path_357251-3" data-name="Path 357251" d="M255.192,377.975a2.766,2.766,0,0,1,3.926.5.5.5,0,1,0,.8-.6l-.062-.079a3.764,3.764,0,0,0-5.29-.612.5.5,0,1,0,.621.784Z" fill="#d8d8d8"/>
        <path id="Path_357252-3" data-name="Path 357252" d="M250.08,391.3a4.552,4.552,0,0,1-2.127-2.315,3.233,3.233,0,0,1,.351-2.575.5.5,0,1,0-.882-.472,4.193,4.193,0,0,0-.421,3.354,5.541,5.541,0,0,0,2.64,2.907.488.488,0,0,0,.219.051.5.5,0,0,0,.22-.95Z" fill="#d8d8d8"/>
        <path id="Path_357253-3" data-name="Path 357253" d="M247.4,391.436a2.471,2.471,0,0,1-1.415-1.32,2.524,2.524,0,0,1-.016-2,.451.451,0,0,0-.243-.6.472.472,0,0,0-.609.252l-.035.086a3.387,3.387,0,0,0,1.98,4.439.473.473,0,0,0,.6-.272A.45.45,0,0,0,247.4,391.436Z" fill="#d8d8d8"/>
      </g>
      <g id="icon_shaking-4" data-name="icon shaking" transform="translate(496.438 -241.05) rotate(82)">
        <path id="Path_357248-4" data-name="Path 357248" d="M251.285,383.1l4.794,17.264,2.806-2.8-.149-.557-.149-.557-2,1.994-3.864-13.916,13.97,3.849-1.608,1.6.558.15.558.15,2.417-2.408Z" fill="#d8d8d8"/>
        <path id="Path_357249-4" data-name="Path 357249" d="M266.2,390.286l-.558-.15-.558-.15-8.872-2.38,2.375,8.852.15.557.149.556L260.1,402.1l10.607-10.607Zm-6.646,5.915-.15-.557-1.777-6.623,6.638,1.781.558.15.558.149,3.4.911-8.158,8.158-.916-3.412Z" fill="#d8d8d8"/>
        <path id="Path_357250-4" data-name="Path 357250" d="M254.22,380.49a4.6,4.6,0,0,1,3.075-.683,3.235,3.235,0,0,1,2.049,1.59.5.5,0,0,0,.426.237.508.508,0,0,0,.263-.075.5.5,0,0,0,.161-.689,4.193,4.193,0,0,0-2.694-2.043,5.561,5.561,0,0,0-3.838.833.5.5,0,0,0,.558.83Z" fill="#d8d8d8"/>
        <path id="Path_357251-4" data-name="Path 357251" d="M255.192,377.975a2.766,2.766,0,0,1,3.926.5.5.5,0,1,0,.8-.6l-.062-.079a3.764,3.764,0,0,0-5.29-.612.5.5,0,1,0,.621.784Z" fill="#d8d8d8"/>
        <path id="Path_357252-4" data-name="Path 357252" d="M250.08,391.3a4.552,4.552,0,0,1-2.127-2.315,3.233,3.233,0,0,1,.351-2.575.5.5,0,1,0-.882-.472,4.193,4.193,0,0,0-.421,3.354,5.541,5.541,0,0,0,2.64,2.907.488.488,0,0,0,.219.051.5.5,0,0,0,.22-.95Z" fill="#d8d8d8"/>
        <path id="Path_357253-4" data-name="Path 357253" d="M247.4,391.436a2.471,2.471,0,0,1-1.415-1.32,2.524,2.524,0,0,1-.016-2,.451.451,0,0,0-.243-.6.472.472,0,0,0-.609.252l-.035.086a3.387,3.387,0,0,0,1.98,4.439.473.473,0,0,0,.6-.272A.45.45,0,0,0,247.4,391.436Z" fill="#d8d8d8"/>
      </g>
      <g id="icon_shaking-5" data-name="icon shaking" transform="matrix(0.017, -1, 1, 0.017, -307.4, 302.324)">
        <path id="Path_357248-5" data-name="Path 357248" d="M251.285,383.1l4.794,17.264,2.806-2.8-.149-.557-.149-.557-2,1.994-3.864-13.916,13.97,3.849-1.608,1.6.558.15.558.15,2.417-2.408Z" fill="#d8d8d8"/>
        <path id="Path_357249-5" data-name="Path 357249" d="M266.2,390.286l-.558-.15-.558-.15-8.872-2.38,2.375,8.852.15.557.149.556L260.1,402.1l10.607-10.607Zm-6.646,5.915-.15-.557-1.777-6.623,6.638,1.781.558.15.558.149,3.4.911-8.158,8.158-.916-3.412Z" fill="#d8d8d8"/>
        <path id="Path_357250-5" data-name="Path 357250" d="M254.22,380.49a4.6,4.6,0,0,1,3.075-.683,3.235,3.235,0,0,1,2.049,1.59.5.5,0,0,0,.426.237.508.508,0,0,0,.263-.075.5.5,0,0,0,.161-.689,4.193,4.193,0,0,0-2.694-2.043,5.561,5.561,0,0,0-3.838.833.5.5,0,0,0,.558.83Z" fill="#d8d8d8"/>
        <path id="Path_357251-5" data-name="Path 357251" d="M255.192,377.975a2.766,2.766,0,0,1,3.926.5.5.5,0,1,0,.8-.6l-.062-.079a3.764,3.764,0,0,0-5.29-.612.5.5,0,1,0,.621.784Z" fill="#d8d8d8"/>
        <path id="Path_357252-5" data-name="Path 357252" d="M250.08,391.3a4.552,4.552,0,0,1-2.127-2.315,3.233,3.233,0,0,1,.351-2.575.5.5,0,1,0-.882-.472,4.193,4.193,0,0,0-.421,3.354,5.541,5.541,0,0,0,2.64,2.907.488.488,0,0,0,.219.051.5.5,0,0,0,.22-.95Z" fill="#d8d8d8"/>
        <path id="Path_357253-5" data-name="Path 357253" d="M247.4,391.436a2.471,2.471,0,0,1-1.415-1.32,2.524,2.524,0,0,1-.016-2,.451.451,0,0,0-.243-.6.472.472,0,0,0-.609.252l-.035.086a3.387,3.387,0,0,0,1.98,4.439.473.473,0,0,0,.6-.272A.45.45,0,0,0,247.4,391.436Z" fill="#d8d8d8"/>
      </g>
    </g>
    <g id="Group_842-2" data-name="Group 842" transform="translate(196 -0.807)">
      <g id="icon_shaking-6" data-name="icon shaking" transform="translate(-228.288 -364.622)">
        <path id="Path_357248-6" data-name="Path 357248" d="M251.285,383.1l4.794,17.264,2.806-2.8-.149-.557-.149-.557-2,1.994-3.864-13.916,13.97,3.849-1.608,1.6.558.15.558.15,2.417-2.408Z" fill="#d8d8d8"/>
        <path id="Path_357249-6" data-name="Path 357249" d="M266.2,390.286l-.558-.15-.558-.15-8.872-2.38,2.375,8.852.15.557.149.556L260.1,402.1l10.607-10.607Zm-6.646,5.915-.15-.557-1.777-6.623,6.638,1.781.558.15.558.149,3.4.911-8.158,8.158-.916-3.412Z" fill="#d8d8d8"/>
        <path id="Path_357250-6" data-name="Path 357250" d="M254.22,380.49a4.6,4.6,0,0,1,3.075-.683,3.235,3.235,0,0,1,2.049,1.59.5.5,0,0,0,.426.237.508.508,0,0,0,.263-.075.5.5,0,0,0,.161-.689,4.193,4.193,0,0,0-2.694-2.043,5.561,5.561,0,0,0-3.838.833.5.5,0,0,0,.558.83Z" fill="#d8d8d8"/>
        <path id="Path_357251-6" data-name="Path 357251" d="M255.192,377.975a2.766,2.766,0,0,1,3.926.5.5.5,0,1,0,.8-.6l-.062-.079a3.764,3.764,0,0,0-5.29-.612.5.5,0,1,0,.621.784Z" fill="#d8d8d8"/>
        <path id="Path_357252-6" data-name="Path 357252" d="M250.08,391.3a4.552,4.552,0,0,1-2.127-2.315,3.233,3.233,0,0,1,.351-2.575.5.5,0,1,0-.882-.472,4.193,4.193,0,0,0-.421,3.354,5.541,5.541,0,0,0,2.64,2.907.488.488,0,0,0,.219.051.5.5,0,0,0,.22-.95Z" fill="#d8d8d8"/>
        <path id="Path_357253-6" data-name="Path 357253" d="M247.4,391.436a2.471,2.471,0,0,1-1.415-1.32,2.524,2.524,0,0,1-.016-2,.451.451,0,0,0-.243-.6.472.472,0,0,0-.609.252l-.035.086a3.387,3.387,0,0,0,1.98,4.439.473.473,0,0,0,.6-.272A.45.45,0,0,0,247.4,391.436Z" fill="#d8d8d8"/>
      </g>
      <g id="icon_shaking-7" data-name="icon shaking" transform="translate(402.102 -175.154) rotate(90)">
        <path id="Path_357248-7" data-name="Path 357248" d="M251.285,383.1l4.794,17.264,2.806-2.8-.149-.557-.149-.557-2,1.994-3.864-13.916,13.97,3.849-1.608,1.6.558.15.558.15,2.417-2.408Z" fill="#d8d8d8"/>
        <path id="Path_357249-7" data-name="Path 357249" d="M266.2,390.286l-.558-.15-.558-.15-8.872-2.38,2.375,8.852.15.557.149.556L260.1,402.1l10.607-10.607Zm-6.646,5.915-.15-.557-1.777-6.623,6.638,1.781.558.15.558.149,3.4.911-8.158,8.158-.916-3.412Z" fill="#d8d8d8"/>
        <path id="Path_357250-7" data-name="Path 357250" d="M254.22,380.49a4.6,4.6,0,0,1,3.075-.683,3.235,3.235,0,0,1,2.049,1.59.5.5,0,0,0,.426.237.508.508,0,0,0,.263-.075.5.5,0,0,0,.161-.689,4.193,4.193,0,0,0-2.694-2.043,5.561,5.561,0,0,0-3.838.833.5.5,0,0,0,.558.83Z" fill="#d8d8d8"/>
        <path id="Path_357251-7" data-name="Path 357251" d="M255.192,377.975a2.766,2.766,0,0,1,3.926.5.5.5,0,1,0,.8-.6l-.062-.079a3.764,3.764,0,0,0-5.29-.612.5.5,0,1,0,.621.784Z" fill="#d8d8d8"/>
        <path id="Path_357252-7" data-name="Path 357252" d="M250.08,391.3a4.552,4.552,0,0,1-2.127-2.315,3.233,3.233,0,0,1,.351-2.575.5.5,0,1,0-.882-.472,4.193,4.193,0,0,0-.421,3.354,5.541,5.541,0,0,0,2.64,2.907.488.488,0,0,0,.219.051.5.5,0,0,0,.22-.95Z" fill="#d8d8d8"/>
        <path id="Path_357253-7" data-name="Path 357253" d="M247.4,391.436a2.471,2.471,0,0,1-1.415-1.32,2.524,2.524,0,0,1-.016-2,.451.451,0,0,0-.243-.6.472.472,0,0,0-.609.252l-.035.086a3.387,3.387,0,0,0,1.98,4.439.473.473,0,0,0,.6-.272A.45.45,0,0,0,247.4,391.436Z" fill="#d8d8d8"/>
      </g>
      <g id="icon_shaking-8" data-name="icon shaking" transform="translate(494.439 -294.027) rotate(82)">
        <path id="Path_357248-8" data-name="Path 357248" d="M251.285,383.1l4.794,17.264,2.806-2.8-.149-.557-.149-.557-2,1.994-3.864-13.916,13.97,3.849-1.608,1.6.558.15.558.15,2.417-2.408Z" fill="#d8d8d8"/>
        <path id="Path_357249-8" data-name="Path 357249" d="M266.2,390.286l-.558-.15-.558-.15-8.872-2.38,2.375,8.852.15.557.149.556L260.1,402.1l10.607-10.607Zm-6.646,5.915-.15-.557-1.777-6.623,6.638,1.781.558.15.558.149,3.4.911-8.158,8.158-.916-3.412Z" fill="#d8d8d8"/>
        <path id="Path_357250-8" data-name="Path 357250" d="M254.22,380.49a4.6,4.6,0,0,1,3.075-.683,3.235,3.235,0,0,1,2.049,1.59.5.5,0,0,0,.426.237.508.508,0,0,0,.263-.075.5.5,0,0,0,.161-.689,4.193,4.193,0,0,0-2.694-2.043,5.561,5.561,0,0,0-3.838.833.5.5,0,0,0,.558.83Z" fill="#d8d8d8"/>
        <path id="Path_357251-8" data-name="Path 357251" d="M255.192,377.975a2.766,2.766,0,0,1,3.926.5.5.5,0,1,0,.8-.6l-.062-.079a3.764,3.764,0,0,0-5.29-.612.5.5,0,1,0,.621.784Z" fill="#d8d8d8"/>
        <path id="Path_357252-8" data-name="Path 357252" d="M250.08,391.3a4.552,4.552,0,0,1-2.127-2.315,3.233,3.233,0,0,1,.351-2.575.5.5,0,1,0-.882-.472,4.193,4.193,0,0,0-.421,3.354,5.541,5.541,0,0,0,2.64,2.907.488.488,0,0,0,.219.051.5.5,0,0,0,.22-.95Z" fill="#d8d8d8"/>
        <path id="Path_357253-8" data-name="Path 357253" d="M247.4,391.436a2.471,2.471,0,0,1-1.415-1.32,2.524,2.524,0,0,1-.016-2,.451.451,0,0,0-.243-.6.472.472,0,0,0-.609.252l-.035.086a3.387,3.387,0,0,0,1.98,4.439.473.473,0,0,0,.6-.272A.45.45,0,0,0,247.4,391.436Z" fill="#d8d8d8"/>
      </g>
      <g id="icon_shaking-9" data-name="icon shaking" transform="translate(496.438 -241.05) rotate(82)">
        <path id="Path_357248-9" data-name="Path 357248" d="M251.285,383.1l4.794,17.264,2.806-2.8-.149-.557-.149-.557-2,1.994-3.864-13.916,13.97,3.849-1.608,1.6.558.15.558.15,2.417-2.408Z" fill="#d8d8d8"/>
        <path id="Path_357249-9" data-name="Path 357249" d="M266.2,390.286l-.558-.15-.558-.15-8.872-2.38,2.375,8.852.15.557.149.556L260.1,402.1l10.607-10.607Zm-6.646,5.915-.15-.557-1.777-6.623,6.638,1.781.558.15.558.149,3.4.911-8.158,8.158-.916-3.412Z" fill="#d8d8d8"/>
        <path id="Path_357250-9" data-name="Path 357250" d="M254.22,380.49a4.6,4.6,0,0,1,3.075-.683,3.235,3.235,0,0,1,2.049,1.59.5.5,0,0,0,.426.237.508.508,0,0,0,.263-.075.5.5,0,0,0,.161-.689,4.193,4.193,0,0,0-2.694-2.043,5.561,5.561,0,0,0-3.838.833.5.5,0,0,0,.558.83Z" fill="#d8d8d8"/>
        <path id="Path_357251-9" data-name="Path 357251" d="M255.192,377.975a2.766,2.766,0,0,1,3.926.5.5.5,0,1,0,.8-.6l-.062-.079a3.764,3.764,0,0,0-5.29-.612.5.5,0,1,0,.621.784Z" fill="#d8d8d8"/>
        <path id="Path_357252-9" data-name="Path 357252" d="M250.08,391.3a4.552,4.552,0,0,1-2.127-2.315,3.233,3.233,0,0,1,.351-2.575.5.5,0,1,0-.882-.472,4.193,4.193,0,0,0-.421,3.354,5.541,5.541,0,0,0,2.64,2.907.488.488,0,0,0,.219.051.5.5,0,0,0,.22-.95Z" fill="#d8d8d8"/>
        <path id="Path_357253-9" data-name="Path 357253" d="M247.4,391.436a2.471,2.471,0,0,1-1.415-1.32,2.524,2.524,0,0,1-.016-2,.451.451,0,0,0-.243-.6.472.472,0,0,0-.609.252l-.035.086a3.387,3.387,0,0,0,1.98,4.439.473.473,0,0,0,.6-.272A.45.45,0,0,0,247.4,391.436Z" fill="#d8d8d8"/>
      </g>
      <g id="icon_shaking-10" data-name="icon shaking" transform="matrix(0.017, -1, 1, 0.017, -307.4, 302.324)">
        <path id="Path_357248-10" data-name="Path 357248" d="M251.285,383.1l4.794,17.264,2.806-2.8-.149-.557-.149-.557-2,1.994-3.864-13.916,13.97,3.849-1.608,1.6.558.15.558.15,2.417-2.408Z" fill="#d8d8d8"/>
        <path id="Path_357249-10" data-name="Path 357249" d="M266.2,390.286l-.558-.15-.558-.15-8.872-2.38,2.375,8.852.15.557.149.556L260.1,402.1l10.607-10.607Zm-6.646,5.915-.15-.557-1.777-6.623,6.638,1.781.558.15.558.149,3.4.911-8.158,8.158-.916-3.412Z" fill="#d8d8d8"/>
        <path id="Path_357250-10" data-name="Path 357250" d="M254.22,380.49a4.6,4.6,0,0,1,3.075-.683,3.235,3.235,0,0,1,2.049,1.59.5.5,0,0,0,.426.237.508.508,0,0,0,.263-.075.5.5,0,0,0,.161-.689,4.193,4.193,0,0,0-2.694-2.043,5.561,5.561,0,0,0-3.838.833.5.5,0,0,0,.558.83Z" fill="#d8d8d8"/>
        <path id="Path_357251-10" data-name="Path 357251" d="M255.192,377.975a2.766,2.766,0,0,1,3.926.5.5.5,0,1,0,.8-.6l-.062-.079a3.764,3.764,0,0,0-5.29-.612.5.5,0,1,0,.621.784Z" fill="#d8d8d8"/>
        <path id="Path_357252-10" data-name="Path 357252" d="M250.08,391.3a4.552,4.552,0,0,1-2.127-2.315,3.233,3.233,0,0,1,.351-2.575.5.5,0,1,0-.882-.472,4.193,4.193,0,0,0-.421,3.354,5.541,5.541,0,0,0,2.64,2.907.488.488,0,0,0,.219.051.5.5,0,0,0,.22-.95Z" fill="#d8d8d8"/>
        <path id="Path_357253-10" data-name="Path 357253" d="M247.4,391.436a2.471,2.471,0,0,1-1.415-1.32,2.524,2.524,0,0,1-.016-2,.451.451,0,0,0-.243-.6.472.472,0,0,0-.609.252l-.035.086a3.387,3.387,0,0,0,1.98,4.439.473.473,0,0,0,.6-.272A.45.45,0,0,0,247.4,391.436Z" fill="#d8d8d8"/>
      </g>
    </g>
    <g id="Group_842-3" data-name="Group 842" transform="translate(392 -0.807)">
      <g id="icon_shaking-11" data-name="icon shaking" transform="translate(-228.288 -364.622)">
        <path id="Path_357248-11" data-name="Path 357248" d="M251.285,383.1l4.794,17.264,2.806-2.8-.149-.557-.149-.557-2,1.994-3.864-13.916,13.97,3.849-1.608,1.6.558.15.558.15,2.417-2.408Z" fill="#d8d8d8"/>
        <path id="Path_357249-11" data-name="Path 357249" d="M266.2,390.286l-.558-.15-.558-.15-8.872-2.38,2.375,8.852.15.557.149.556L260.1,402.1l10.607-10.607Zm-6.646,5.915-.15-.557-1.777-6.623,6.638,1.781.558.15.558.149,3.4.911-8.158,8.158-.916-3.412Z" fill="#d8d8d8"/>
        <path id="Path_357250-11" data-name="Path 357250" d="M254.22,380.49a4.6,4.6,0,0,1,3.075-.683,3.235,3.235,0,0,1,2.049,1.59.5.5,0,0,0,.426.237.508.508,0,0,0,.263-.075.5.5,0,0,0,.161-.689,4.193,4.193,0,0,0-2.694-2.043,5.561,5.561,0,0,0-3.838.833.5.5,0,0,0,.558.83Z" fill="#d8d8d8"/>
        <path id="Path_357251-11" data-name="Path 357251" d="M255.192,377.975a2.766,2.766,0,0,1,3.926.5.5.5,0,1,0,.8-.6l-.062-.079a3.764,3.764,0,0,0-5.29-.612.5.5,0,1,0,.621.784Z" fill="#d8d8d8"/>
        <path id="Path_357252-11" data-name="Path 357252" d="M250.08,391.3a4.552,4.552,0,0,1-2.127-2.315,3.233,3.233,0,0,1,.351-2.575.5.5,0,1,0-.882-.472,4.193,4.193,0,0,0-.421,3.354,5.541,5.541,0,0,0,2.64,2.907.488.488,0,0,0,.219.051.5.5,0,0,0,.22-.95Z" fill="#d8d8d8"/>
        <path id="Path_357253-11" data-name="Path 357253" d="M247.4,391.436a2.471,2.471,0,0,1-1.415-1.32,2.524,2.524,0,0,1-.016-2,.451.451,0,0,0-.243-.6.472.472,0,0,0-.609.252l-.035.086a3.387,3.387,0,0,0,1.98,4.439.473.473,0,0,0,.6-.272A.45.45,0,0,0,247.4,391.436Z" fill="#d8d8d8"/>
      </g>
      <g id="icon_shaking-12" data-name="icon shaking" transform="translate(402.102 -175.154) rotate(90)">
        <path id="Path_357248-12" data-name="Path 357248" d="M251.285,383.1l4.794,17.264,2.806-2.8-.149-.557-.149-.557-2,1.994-3.864-13.916,13.97,3.849-1.608,1.6.558.15.558.15,2.417-2.408Z" fill="#d8d8d8"/>
        <path id="Path_357249-12" data-name="Path 357249" d="M266.2,390.286l-.558-.15-.558-.15-8.872-2.38,2.375,8.852.15.557.149.556L260.1,402.1l10.607-10.607Zm-6.646,5.915-.15-.557-1.777-6.623,6.638,1.781.558.15.558.149,3.4.911-8.158,8.158-.916-3.412Z" fill="#d8d8d8"/>
        <path id="Path_357250-12" data-name="Path 357250" d="M254.22,380.49a4.6,4.6,0,0,1,3.075-.683,3.235,3.235,0,0,1,2.049,1.59.5.5,0,0,0,.426.237.508.508,0,0,0,.263-.075.5.5,0,0,0,.161-.689,4.193,4.193,0,0,0-2.694-2.043,5.561,5.561,0,0,0-3.838.833.5.5,0,0,0,.558.83Z" fill="#d8d8d8"/>
        <path id="Path_357251-12" data-name="Path 357251" d="M255.192,377.975a2.766,2.766,0,0,1,3.926.5.5.5,0,1,0,.8-.6l-.062-.079a3.764,3.764,0,0,0-5.29-.612.5.5,0,1,0,.621.784Z" fill="#d8d8d8"/>
        <path id="Path_357252-12" data-name="Path 357252" d="M250.08,391.3a4.552,4.552,0,0,1-2.127-2.315,3.233,3.233,0,0,1,.351-2.575.5.5,0,1,0-.882-.472,4.193,4.193,0,0,0-.421,3.354,5.541,5.541,0,0,0,2.64,2.907.488.488,0,0,0,.219.051.5.5,0,0,0,.22-.95Z" fill="#d8d8d8"/>
        <path id="Path_357253-12" data-name="Path 357253" d="M247.4,391.436a2.471,2.471,0,0,1-1.415-1.32,2.524,2.524,0,0,1-.016-2,.451.451,0,0,0-.243-.6.472.472,0,0,0-.609.252l-.035.086a3.387,3.387,0,0,0,1.98,4.439.473.473,0,0,0,.6-.272A.45.45,0,0,0,247.4,391.436Z" fill="#d8d8d8"/>
      </g>
      <g id="icon_shaking-13" data-name="icon shaking" transform="translate(494.439 -294.027) rotate(82)">
        <path id="Path_357248-13" data-name="Path 357248" d="M251.285,383.1l4.794,17.264,2.806-2.8-.149-.557-.149-.557-2,1.994-3.864-13.916,13.97,3.849-1.608,1.6.558.15.558.15,2.417-2.408Z" fill="#d8d8d8"/>
        <path id="Path_357249-13" data-name="Path 357249" d="M266.2,390.286l-.558-.15-.558-.15-8.872-2.38,2.375,8.852.15.557.149.556L260.1,402.1l10.607-10.607Zm-6.646,5.915-.15-.557-1.777-6.623,6.638,1.781.558.15.558.149,3.4.911-8.158,8.158-.916-3.412Z" fill="#d8d8d8"/>
        <path id="Path_357250-13" data-name="Path 357250" d="M254.22,380.49a4.6,4.6,0,0,1,3.075-.683,3.235,3.235,0,0,1,2.049,1.59.5.5,0,0,0,.426.237.508.508,0,0,0,.263-.075.5.5,0,0,0,.161-.689,4.193,4.193,0,0,0-2.694-2.043,5.561,5.561,0,0,0-3.838.833.5.5,0,0,0,.558.83Z" fill="#d8d8d8"/>
        <path id="Path_357251-13" data-name="Path 357251" d="M255.192,377.975a2.766,2.766,0,0,1,3.926.5.5.5,0,1,0,.8-.6l-.062-.079a3.764,3.764,0,0,0-5.29-.612.5.5,0,1,0,.621.784Z" fill="#d8d8d8"/>
        <path id="Path_357252-13" data-name="Path 357252" d="M250.08,391.3a4.552,4.552,0,0,1-2.127-2.315,3.233,3.233,0,0,1,.351-2.575.5.5,0,1,0-.882-.472,4.193,4.193,0,0,0-.421,3.354,5.541,5.541,0,0,0,2.64,2.907.488.488,0,0,0,.219.051.5.5,0,0,0,.22-.95Z" fill="#d8d8d8"/>
        <path id="Path_357253-13" data-name="Path 357253" d="M247.4,391.436a2.471,2.471,0,0,1-1.415-1.32,2.524,2.524,0,0,1-.016-2,.451.451,0,0,0-.243-.6.472.472,0,0,0-.609.252l-.035.086a3.387,3.387,0,0,0,1.98,4.439.473.473,0,0,0,.6-.272A.45.45,0,0,0,247.4,391.436Z" fill="#d8d8d8"/>
      </g>
      <g id="icon_shaking-14" data-name="icon shaking" transform="translate(496.438 -241.05) rotate(82)">
        <path id="Path_357248-14" data-name="Path 357248" d="M251.285,383.1l4.794,17.264,2.806-2.8-.149-.557-.149-.557-2,1.994-3.864-13.916,13.97,3.849-1.608,1.6.558.15.558.15,2.417-2.408Z" fill="#d8d8d8"/>
        <path id="Path_357249-14" data-name="Path 357249" d="M266.2,390.286l-.558-.15-.558-.15-8.872-2.38,2.375,8.852.15.557.149.556L260.1,402.1l10.607-10.607Zm-6.646,5.915-.15-.557-1.777-6.623,6.638,1.781.558.15.558.149,3.4.911-8.158,8.158-.916-3.412Z" fill="#d8d8d8"/>
        <path id="Path_357250-14" data-name="Path 357250" d="M254.22,380.49a4.6,4.6,0,0,1,3.075-.683,3.235,3.235,0,0,1,2.049,1.59.5.5,0,0,0,.426.237.508.508,0,0,0,.263-.075.5.5,0,0,0,.161-.689,4.193,4.193,0,0,0-2.694-2.043,5.561,5.561,0,0,0-3.838.833.5.5,0,0,0,.558.83Z" fill="#d8d8d8"/>
        <path id="Path_357251-14" data-name="Path 357251" d="M255.192,377.975a2.766,2.766,0,0,1,3.926.5.5.5,0,1,0,.8-.6l-.062-.079a3.764,3.764,0,0,0-5.29-.612.5.5,0,1,0,.621.784Z" fill="#d8d8d8"/>
        <path id="Path_357252-14" data-name="Path 357252" d="M250.08,391.3a4.552,4.552,0,0,1-2.127-2.315,3.233,3.233,0,0,1,.351-2.575.5.5,0,1,0-.882-.472,4.193,4.193,0,0,0-.421,3.354,5.541,5.541,0,0,0,2.64,2.907.488.488,0,0,0,.219.051.5.5,0,0,0,.22-.95Z" fill="#d8d8d8"/>
        <path id="Path_357253-14" data-name="Path 357253" d="M247.4,391.436a2.471,2.471,0,0,1-1.415-1.32,2.524,2.524,0,0,1-.016-2,.451.451,0,0,0-.243-.6.472.472,0,0,0-.609.252l-.035.086a3.387,3.387,0,0,0,1.98,4.439.473.473,0,0,0,.6-.272A.45.45,0,0,0,247.4,391.436Z" fill="#d8d8d8"/>
      </g>
      <g id="icon_shaking-15" data-name="icon shaking" transform="matrix(0.017, -1, 1, 0.017, -307.4, 302.324)">
        <path id="Path_357248-15" data-name="Path 357248" d="M251.285,383.1l4.794,17.264,2.806-2.8-.149-.557-.149-.557-2,1.994-3.864-13.916,13.97,3.849-1.608,1.6.558.15.558.15,2.417-2.408Z" fill="#d8d8d8"/>
        <path id="Path_357249-15" data-name="Path 357249" d="M266.2,390.286l-.558-.15-.558-.15-8.872-2.38,2.375,8.852.15.557.149.556L260.1,402.1l10.607-10.607Zm-6.646,5.915-.15-.557-1.777-6.623,6.638,1.781.558.15.558.149,3.4.911-8.158,8.158-.916-3.412Z" fill="#d8d8d8"/>
        <path id="Path_357250-15" data-name="Path 357250" d="M254.22,380.49a4.6,4.6,0,0,1,3.075-.683,3.235,3.235,0,0,1,2.049,1.59.5.5,0,0,0,.426.237.508.508,0,0,0,.263-.075.5.5,0,0,0,.161-.689,4.193,4.193,0,0,0-2.694-2.043,5.561,5.561,0,0,0-3.838.833.5.5,0,0,0,.558.83Z" fill="#d8d8d8"/>
        <path id="Path_357251-15" data-name="Path 357251" d="M255.192,377.975a2.766,2.766,0,0,1,3.926.5.5.5,0,1,0,.8-.6l-.062-.079a3.764,3.764,0,0,0-5.29-.612.5.5,0,1,0,.621.784Z" fill="#d8d8d8"/>
        <path id="Path_357252-15" data-name="Path 357252" d="M250.08,391.3a4.552,4.552,0,0,1-2.127-2.315,3.233,3.233,0,0,1,.351-2.575.5.5,0,1,0-.882-.472,4.193,4.193,0,0,0-.421,3.354,5.541,5.541,0,0,0,2.64,2.907.488.488,0,0,0,.219.051.5.5,0,0,0,.22-.95Z" fill="#d8d8d8"/>
        <path id="Path_357253-15" data-name="Path 357253" d="M247.4,391.436a2.471,2.471,0,0,1-1.415-1.32,2.524,2.524,0,0,1-.016-2,.451.451,0,0,0-.243-.6.472.472,0,0,0-.609.252l-.035.086a3.387,3.387,0,0,0,1.98,4.439.473.473,0,0,0,.6-.272A.45.45,0,0,0,247.4,391.436Z" fill="#d8d8d8"/>
      </g>
    </g>
    <g id="Group_842-4" data-name="Group 842" transform="translate(588 -0.807)">
      <g id="icon_shaking-16" data-name="icon shaking" transform="translate(-228.288 -364.622)">
        <path id="Path_357248-16" data-name="Path 357248" d="M251.285,383.1l4.794,17.264,2.806-2.8-.149-.557-.149-.557-2,1.994-3.864-13.916,13.97,3.849-1.608,1.6.558.15.558.15,2.417-2.408Z" fill="#d8d8d8"/>
        <path id="Path_357249-16" data-name="Path 357249" d="M266.2,390.286l-.558-.15-.558-.15-8.872-2.38,2.375,8.852.15.557.149.556L260.1,402.1l10.607-10.607Zm-6.646,5.915-.15-.557-1.777-6.623,6.638,1.781.558.15.558.149,3.4.911-8.158,8.158-.916-3.412Z" fill="#d8d8d8"/>
        <path id="Path_357250-16" data-name="Path 357250" d="M254.22,380.49a4.6,4.6,0,0,1,3.075-.683,3.235,3.235,0,0,1,2.049,1.59.5.5,0,0,0,.426.237.508.508,0,0,0,.263-.075.5.5,0,0,0,.161-.689,4.193,4.193,0,0,0-2.694-2.043,5.561,5.561,0,0,0-3.838.833.5.5,0,0,0,.558.83Z" fill="#d8d8d8"/>
        <path id="Path_357251-16" data-name="Path 357251" d="M255.192,377.975a2.766,2.766,0,0,1,3.926.5.5.5,0,1,0,.8-.6l-.062-.079a3.764,3.764,0,0,0-5.29-.612.5.5,0,1,0,.621.784Z" fill="#d8d8d8"/>
        <path id="Path_357252-16" data-name="Path 357252" d="M250.08,391.3a4.552,4.552,0,0,1-2.127-2.315,3.233,3.233,0,0,1,.351-2.575.5.5,0,1,0-.882-.472,4.193,4.193,0,0,0-.421,3.354,5.541,5.541,0,0,0,2.64,2.907.488.488,0,0,0,.219.051.5.5,0,0,0,.22-.95Z" fill="#d8d8d8"/>
        <path id="Path_357253-16" data-name="Path 357253" d="M247.4,391.436a2.471,2.471,0,0,1-1.415-1.32,2.524,2.524,0,0,1-.016-2,.451.451,0,0,0-.243-.6.472.472,0,0,0-.609.252l-.035.086a3.387,3.387,0,0,0,1.98,4.439.473.473,0,0,0,.6-.272A.45.45,0,0,0,247.4,391.436Z" fill="#d8d8d8"/>
      </g>
      <g id="icon_shaking-17" data-name="icon shaking" transform="translate(402.102 -175.154) rotate(90)">
        <path id="Path_357248-17" data-name="Path 357248" d="M251.285,383.1l4.794,17.264,2.806-2.8-.149-.557-.149-.557-2,1.994-3.864-13.916,13.97,3.849-1.608,1.6.558.15.558.15,2.417-2.408Z" fill="#d8d8d8"/>
        <path id="Path_357249-17" data-name="Path 357249" d="M266.2,390.286l-.558-.15-.558-.15-8.872-2.38,2.375,8.852.15.557.149.556L260.1,402.1l10.607-10.607Zm-6.646,5.915-.15-.557-1.777-6.623,6.638,1.781.558.15.558.149,3.4.911-8.158,8.158-.916-3.412Z" fill="#d8d8d8"/>
        <path id="Path_357250-17" data-name="Path 357250" d="M254.22,380.49a4.6,4.6,0,0,1,3.075-.683,3.235,3.235,0,0,1,2.049,1.59.5.5,0,0,0,.426.237.508.508,0,0,0,.263-.075.5.5,0,0,0,.161-.689,4.193,4.193,0,0,0-2.694-2.043,5.561,5.561,0,0,0-3.838.833.5.5,0,0,0,.558.83Z" fill="#d8d8d8"/>
        <path id="Path_357251-17" data-name="Path 357251" d="M255.192,377.975a2.766,2.766,0,0,1,3.926.5.5.5,0,1,0,.8-.6l-.062-.079a3.764,3.764,0,0,0-5.29-.612.5.5,0,1,0,.621.784Z" fill="#d8d8d8"/>
        <path id="Path_357252-17" data-name="Path 357252" d="M250.08,391.3a4.552,4.552,0,0,1-2.127-2.315,3.233,3.233,0,0,1,.351-2.575.5.5,0,1,0-.882-.472,4.193,4.193,0,0,0-.421,3.354,5.541,5.541,0,0,0,2.64,2.907.488.488,0,0,0,.219.051.5.5,0,0,0,.22-.95Z" fill="#d8d8d8"/>
        <path id="Path_357253-17" data-name="Path 357253" d="M247.4,391.436a2.471,2.471,0,0,1-1.415-1.32,2.524,2.524,0,0,1-.016-2,.451.451,0,0,0-.243-.6.472.472,0,0,0-.609.252l-.035.086a3.387,3.387,0,0,0,1.98,4.439.473.473,0,0,0,.6-.272A.45.45,0,0,0,247.4,391.436Z" fill="#d8d8d8"/>
      </g>
      <g id="icon_shaking-18" data-name="icon shaking" transform="translate(494.439 -294.027) rotate(82)">
        <path id="Path_357248-18" data-name="Path 357248" d="M251.285,383.1l4.794,17.264,2.806-2.8-.149-.557-.149-.557-2,1.994-3.864-13.916,13.97,3.849-1.608,1.6.558.15.558.15,2.417-2.408Z" fill="#d8d8d8"/>
        <path id="Path_357249-18" data-name="Path 357249" d="M266.2,390.286l-.558-.15-.558-.15-8.872-2.38,2.375,8.852.15.557.149.556L260.1,402.1l10.607-10.607Zm-6.646,5.915-.15-.557-1.777-6.623,6.638,1.781.558.15.558.149,3.4.911-8.158,8.158-.916-3.412Z" fill="#d8d8d8"/>
        <path id="Path_357250-18" data-name="Path 357250" d="M254.22,380.49a4.6,4.6,0,0,1,3.075-.683,3.235,3.235,0,0,1,2.049,1.59.5.5,0,0,0,.426.237.508.508,0,0,0,.263-.075.5.5,0,0,0,.161-.689,4.193,4.193,0,0,0-2.694-2.043,5.561,5.561,0,0,0-3.838.833.5.5,0,0,0,.558.83Z" fill="#d8d8d8"/>
        <path id="Path_357251-18" data-name="Path 357251" d="M255.192,377.975a2.766,2.766,0,0,1,3.926.5.5.5,0,1,0,.8-.6l-.062-.079a3.764,3.764,0,0,0-5.29-.612.5.5,0,1,0,.621.784Z" fill="#d8d8d8"/>
        <path id="Path_357252-18" data-name="Path 357252" d="M250.08,391.3a4.552,4.552,0,0,1-2.127-2.315,3.233,3.233,0,0,1,.351-2.575.5.5,0,1,0-.882-.472,4.193,4.193,0,0,0-.421,3.354,5.541,5.541,0,0,0,2.64,2.907.488.488,0,0,0,.219.051.5.5,0,0,0,.22-.95Z" fill="#d8d8d8"/>
        <path id="Path_357253-18" data-name="Path 357253" d="M247.4,391.436a2.471,2.471,0,0,1-1.415-1.32,2.524,2.524,0,0,1-.016-2,.451.451,0,0,0-.243-.6.472.472,0,0,0-.609.252l-.035.086a3.387,3.387,0,0,0,1.98,4.439.473.473,0,0,0,.6-.272A.45.45,0,0,0,247.4,391.436Z" fill="#d8d8d8"/>
      </g>
      <g id="icon_shaking-19" data-name="icon shaking" transform="translate(496.438 -241.05) rotate(82)">
        <path id="Path_357248-19" data-name="Path 357248" d="M251.285,383.1l4.794,17.264,2.806-2.8-.149-.557-.149-.557-2,1.994-3.864-13.916,13.97,3.849-1.608,1.6.558.15.558.15,2.417-2.408Z" fill="#d8d8d8"/>
        <path id="Path_357249-19" data-name="Path 357249" d="M266.2,390.286l-.558-.15-.558-.15-8.872-2.38,2.375,8.852.15.557.149.556L260.1,402.1l10.607-10.607Zm-6.646,5.915-.15-.557-1.777-6.623,6.638,1.781.558.15.558.149,3.4.911-8.158,8.158-.916-3.412Z" fill="#d8d8d8"/>
        <path id="Path_357250-19" data-name="Path 357250" d="M254.22,380.49a4.6,4.6,0,0,1,3.075-.683,3.235,3.235,0,0,1,2.049,1.59.5.5,0,0,0,.426.237.508.508,0,0,0,.263-.075.5.5,0,0,0,.161-.689,4.193,4.193,0,0,0-2.694-2.043,5.561,5.561,0,0,0-3.838.833.5.5,0,0,0,.558.83Z" fill="#d8d8d8"/>
        <path id="Path_357251-19" data-name="Path 357251" d="M255.192,377.975a2.766,2.766,0,0,1,3.926.5.5.5,0,1,0,.8-.6l-.062-.079a3.764,3.764,0,0,0-5.29-.612.5.5,0,1,0,.621.784Z" fill="#d8d8d8"/>
        <path id="Path_357252-19" data-name="Path 357252" d="M250.08,391.3a4.552,4.552,0,0,1-2.127-2.315,3.233,3.233,0,0,1,.351-2.575.5.5,0,1,0-.882-.472,4.193,4.193,0,0,0-.421,3.354,5.541,5.541,0,0,0,2.64,2.907.488.488,0,0,0,.219.051.5.5,0,0,0,.22-.95Z" fill="#d8d8d8"/>
        <path id="Path_357253-19" data-name="Path 357253" d="M247.4,391.436a2.471,2.471,0,0,1-1.415-1.32,2.524,2.524,0,0,1-.016-2,.451.451,0,0,0-.243-.6.472.472,0,0,0-.609.252l-.035.086a3.387,3.387,0,0,0,1.98,4.439.473.473,0,0,0,.6-.272A.45.45,0,0,0,247.4,391.436Z" fill="#d8d8d8"/>
      </g>
      <g id="icon_shaking-20" data-name="icon shaking" transform="matrix(0.017, -1, 1, 0.017, -307.4, 302.324)">
        <path id="Path_357248-20" data-name="Path 357248" d="M251.285,383.1l4.794,17.264,2.806-2.8-.149-.557-.149-.557-2,1.994-3.864-13.916,13.97,3.849-1.608,1.6.558.15.558.15,2.417-2.408Z" fill="#d8d8d8"/>
        <path id="Path_357249-20" data-name="Path 357249" d="M266.2,390.286l-.558-.15-.558-.15-8.872-2.38,2.375,8.852.15.557.149.556L260.1,402.1l10.607-10.607Zm-6.646,5.915-.15-.557-1.777-6.623,6.638,1.781.558.15.558.149,3.4.911-8.158,8.158-.916-3.412Z" fill="#d8d8d8"/>
        <path id="Path_357250-20" data-name="Path 357250" d="M254.22,380.49a4.6,4.6,0,0,1,3.075-.683,3.235,3.235,0,0,1,2.049,1.59.5.5,0,0,0,.426.237.508.508,0,0,0,.263-.075.5.5,0,0,0,.161-.689,4.193,4.193,0,0,0-2.694-2.043,5.561,5.561,0,0,0-3.838.833.5.5,0,0,0,.558.83Z" fill="#d8d8d8"/>
        <path id="Path_357251-20" data-name="Path 357251" d="M255.192,377.975a2.766,2.766,0,0,1,3.926.5.5.5,0,1,0,.8-.6l-.062-.079a3.764,3.764,0,0,0-5.29-.612.5.5,0,1,0,.621.784Z" fill="#d8d8d8"/>
        <path id="Path_357252-20" data-name="Path 357252" d="M250.08,391.3a4.552,4.552,0,0,1-2.127-2.315,3.233,3.233,0,0,1,.351-2.575.5.5,0,1,0-.882-.472,4.193,4.193,0,0,0-.421,3.354,5.541,5.541,0,0,0,2.64,2.907.488.488,0,0,0,.219.051.5.5,0,0,0,.22-.95Z" fill="#d8d8d8"/>
        <path id="Path_357253-20" data-name="Path 357253" d="M247.4,391.436a2.471,2.471,0,0,1-1.415-1.32,2.524,2.524,0,0,1-.016-2,.451.451,0,0,0-.243-.6.472.472,0,0,0-.609.252l-.035.086a3.387,3.387,0,0,0,1.98,4.439.473.473,0,0,0,.6-.272A.45.45,0,0,0,247.4,391.436Z" fill="#d8d8d8"/>
      </g>
    </g>
    <g id="Group_842-5" data-name="Group 842" transform="translate(784 -0.807)">
      <g id="icon_shaking-21" data-name="icon shaking" transform="translate(-228.288 -364.622)">
        <path id="Path_357248-21" data-name="Path 357248" d="M251.285,383.1l4.794,17.264,2.806-2.8-.149-.557-.149-.557-2,1.994-3.864-13.916,13.97,3.849-1.608,1.6.558.15.558.15,2.417-2.408Z" fill="#d8d8d8"/>
        <path id="Path_357249-21" data-name="Path 357249" d="M266.2,390.286l-.558-.15-.558-.15-8.872-2.38,2.375,8.852.15.557.149.556L260.1,402.1l10.607-10.607Zm-6.646,5.915-.15-.557-1.777-6.623,6.638,1.781.558.15.558.149,3.4.911-8.158,8.158-.916-3.412Z" fill="#d8d8d8"/>
        <path id="Path_357250-21" data-name="Path 357250" d="M254.22,380.49a4.6,4.6,0,0,1,3.075-.683,3.235,3.235,0,0,1,2.049,1.59.5.5,0,0,0,.426.237.508.508,0,0,0,.263-.075.5.5,0,0,0,.161-.689,4.193,4.193,0,0,0-2.694-2.043,5.561,5.561,0,0,0-3.838.833.5.5,0,0,0,.558.83Z" fill="#d8d8d8"/>
        <path id="Path_357251-21" data-name="Path 357251" d="M255.192,377.975a2.766,2.766,0,0,1,3.926.5.5.5,0,1,0,.8-.6l-.062-.079a3.764,3.764,0,0,0-5.29-.612.5.5,0,1,0,.621.784Z" fill="#d8d8d8"/>
        <path id="Path_357252-21" data-name="Path 357252" d="M250.08,391.3a4.552,4.552,0,0,1-2.127-2.315,3.233,3.233,0,0,1,.351-2.575.5.5,0,1,0-.882-.472,4.193,4.193,0,0,0-.421,3.354,5.541,5.541,0,0,0,2.64,2.907.488.488,0,0,0,.219.051.5.5,0,0,0,.22-.95Z" fill="#d8d8d8"/>
        <path id="Path_357253-21" data-name="Path 357253" d="M247.4,391.436a2.471,2.471,0,0,1-1.415-1.32,2.524,2.524,0,0,1-.016-2,.451.451,0,0,0-.243-.6.472.472,0,0,0-.609.252l-.035.086a3.387,3.387,0,0,0,1.98,4.439.473.473,0,0,0,.6-.272A.45.45,0,0,0,247.4,391.436Z" fill="#d8d8d8"/>
      </g>
      <g id="icon_shaking-22" data-name="icon shaking" transform="translate(402.102 -175.154) rotate(90)">
        <path id="Path_357248-22" data-name="Path 357248" d="M251.285,383.1l4.794,17.264,2.806-2.8-.149-.557-.149-.557-2,1.994-3.864-13.916,13.97,3.849-1.608,1.6.558.15.558.15,2.417-2.408Z" fill="#d8d8d8"/>
        <path id="Path_357249-22" data-name="Path 357249" d="M266.2,390.286l-.558-.15-.558-.15-8.872-2.38,2.375,8.852.15.557.149.556L260.1,402.1l10.607-10.607Zm-6.646,5.915-.15-.557-1.777-6.623,6.638,1.781.558.15.558.149,3.4.911-8.158,8.158-.916-3.412Z" fill="#d8d8d8"/>
        <path id="Path_357250-22" data-name="Path 357250" d="M254.22,380.49a4.6,4.6,0,0,1,3.075-.683,3.235,3.235,0,0,1,2.049,1.59.5.5,0,0,0,.426.237.508.508,0,0,0,.263-.075.5.5,0,0,0,.161-.689,4.193,4.193,0,0,0-2.694-2.043,5.561,5.561,0,0,0-3.838.833.5.5,0,0,0,.558.83Z" fill="#d8d8d8"/>
        <path id="Path_357251-22" data-name="Path 357251" d="M255.192,377.975a2.766,2.766,0,0,1,3.926.5.5.5,0,1,0,.8-.6l-.062-.079a3.764,3.764,0,0,0-5.29-.612.5.5,0,1,0,.621.784Z" fill="#d8d8d8"/>
        <path id="Path_357252-22" data-name="Path 357252" d="M250.08,391.3a4.552,4.552,0,0,1-2.127-2.315,3.233,3.233,0,0,1,.351-2.575.5.5,0,1,0-.882-.472,4.193,4.193,0,0,0-.421,3.354,5.541,5.541,0,0,0,2.64,2.907.488.488,0,0,0,.219.051.5.5,0,0,0,.22-.95Z" fill="#d8d8d8"/>
        <path id="Path_357253-22" data-name="Path 357253" d="M247.4,391.436a2.471,2.471,0,0,1-1.415-1.32,2.524,2.524,0,0,1-.016-2,.451.451,0,0,0-.243-.6.472.472,0,0,0-.609.252l-.035.086a3.387,3.387,0,0,0,1.98,4.439.473.473,0,0,0,.6-.272A.45.45,0,0,0,247.4,391.436Z" fill="#d8d8d8"/>
      </g>
      <g id="icon_shaking-23" data-name="icon shaking" transform="translate(494.439 -294.027) rotate(82)">
        <path id="Path_357248-23" data-name="Path 357248" d="M251.285,383.1l4.794,17.264,2.806-2.8-.149-.557-.149-.557-2,1.994-3.864-13.916,13.97,3.849-1.608,1.6.558.15.558.15,2.417-2.408Z" fill="#d8d8d8"/>
        <path id="Path_357249-23" data-name="Path 357249" d="M266.2,390.286l-.558-.15-.558-.15-8.872-2.38,2.375,8.852.15.557.149.556L260.1,402.1l10.607-10.607Zm-6.646,5.915-.15-.557-1.777-6.623,6.638,1.781.558.15.558.149,3.4.911-8.158,8.158-.916-3.412Z" fill="#d8d8d8"/>
        <path id="Path_357250-23" data-name="Path 357250" d="M254.22,380.49a4.6,4.6,0,0,1,3.075-.683,3.235,3.235,0,0,1,2.049,1.59.5.5,0,0,0,.426.237.508.508,0,0,0,.263-.075.5.5,0,0,0,.161-.689,4.193,4.193,0,0,0-2.694-2.043,5.561,5.561,0,0,0-3.838.833.5.5,0,0,0,.558.83Z" fill="#d8d8d8"/>
        <path id="Path_357251-23" data-name="Path 357251" d="M255.192,377.975a2.766,2.766,0,0,1,3.926.5.5.5,0,1,0,.8-.6l-.062-.079a3.764,3.764,0,0,0-5.29-.612.5.5,0,1,0,.621.784Z" fill="#d8d8d8"/>
        <path id="Path_357252-23" data-name="Path 357252" d="M250.08,391.3a4.552,4.552,0,0,1-2.127-2.315,3.233,3.233,0,0,1,.351-2.575.5.5,0,1,0-.882-.472,4.193,4.193,0,0,0-.421,3.354,5.541,5.541,0,0,0,2.64,2.907.488.488,0,0,0,.219.051.5.5,0,0,0,.22-.95Z" fill="#d8d8d8"/>
        <path id="Path_357253-23" data-name="Path 357253" d="M247.4,391.436a2.471,2.471,0,0,1-1.415-1.32,2.524,2.524,0,0,1-.016-2,.451.451,0,0,0-.243-.6.472.472,0,0,0-.609.252l-.035.086a3.387,3.387,0,0,0,1.98,4.439.473.473,0,0,0,.6-.272A.45.45,0,0,0,247.4,391.436Z" fill="#d8d8d8"/>
      </g>
      <g id="icon_shaking-24" data-name="icon shaking" transform="translate(496.438 -241.05) rotate(82)">
        <path id="Path_357248-24" data-name="Path 357248" d="M251.285,383.1l4.794,17.264,2.806-2.8-.149-.557-.149-.557-2,1.994-3.864-13.916,13.97,3.849-1.608,1.6.558.15.558.15,2.417-2.408Z" fill="#d8d8d8"/>
        <path id="Path_357249-24" data-name="Path 357249" d="M266.2,390.286l-.558-.15-.558-.15-8.872-2.38,2.375,8.852.15.557.149.556L260.1,402.1l10.607-10.607Zm-6.646,5.915-.15-.557-1.777-6.623,6.638,1.781.558.15.558.149,3.4.911-8.158,8.158-.916-3.412Z" fill="#d8d8d8"/>
        <path id="Path_357250-24" data-name="Path 357250" d="M254.22,380.49a4.6,4.6,0,0,1,3.075-.683,3.235,3.235,0,0,1,2.049,1.59.5.5,0,0,0,.426.237.508.508,0,0,0,.263-.075.5.5,0,0,0,.161-.689,4.193,4.193,0,0,0-2.694-2.043,5.561,5.561,0,0,0-3.838.833.5.5,0,0,0,.558.83Z" fill="#d8d8d8"/>
        <path id="Path_357251-24" data-name="Path 357251" d="M255.192,377.975a2.766,2.766,0,0,1,3.926.5.5.5,0,1,0,.8-.6l-.062-.079a3.764,3.764,0,0,0-5.29-.612.5.5,0,1,0,.621.784Z" fill="#d8d8d8"/>
        <path id="Path_357252-24" data-name="Path 357252" d="M250.08,391.3a4.552,4.552,0,0,1-2.127-2.315,3.233,3.233,0,0,1,.351-2.575.5.5,0,1,0-.882-.472,4.193,4.193,0,0,0-.421,3.354,5.541,5.541,0,0,0,2.64,2.907.488.488,0,0,0,.219.051.5.5,0,0,0,.22-.95Z" fill="#d8d8d8"/>
        <path id="Path_357253-24" data-name="Path 357253" d="M247.4,391.436a2.471,2.471,0,0,1-1.415-1.32,2.524,2.524,0,0,1-.016-2,.451.451,0,0,0-.243-.6.472.472,0,0,0-.609.252l-.035.086a3.387,3.387,0,0,0,1.98,4.439.473.473,0,0,0,.6-.272A.45.45,0,0,0,247.4,391.436Z" fill="#d8d8d8"/>
      </g>
      <g id="icon_shaking-25" data-name="icon shaking" transform="matrix(0.017, -1, 1, 0.017, -307.4, 302.324)">
        <path id="Path_357248-25" data-name="Path 357248" d="M251.285,383.1l4.794,17.264,2.806-2.8-.149-.557-.149-.557-2,1.994-3.864-13.916,13.97,3.849-1.608,1.6.558.15.558.15,2.417-2.408Z" fill="#d8d8d8"/>
        <path id="Path_357249-25" data-name="Path 357249" d="M266.2,390.286l-.558-.15-.558-.15-8.872-2.38,2.375,8.852.15.557.149.556L260.1,402.1l10.607-10.607Zm-6.646,5.915-.15-.557-1.777-6.623,6.638,1.781.558.15.558.149,3.4.911-8.158,8.158-.916-3.412Z" fill="#d8d8d8"/>
        <path id="Path_357250-25" data-name="Path 357250" d="M254.22,380.49a4.6,4.6,0,0,1,3.075-.683,3.235,3.235,0,0,1,2.049,1.59.5.5,0,0,0,.426.237.508.508,0,0,0,.263-.075.5.5,0,0,0,.161-.689,4.193,4.193,0,0,0-2.694-2.043,5.561,5.561,0,0,0-3.838.833.5.5,0,0,0,.558.83Z" fill="#d8d8d8"/>
        <path id="Path_357251-25" data-name="Path 357251" d="M255.192,377.975a2.766,2.766,0,0,1,3.926.5.5.5,0,1,0,.8-.6l-.062-.079a3.764,3.764,0,0,0-5.29-.612.5.5,0,1,0,.621.784Z" fill="#d8d8d8"/>
        <path id="Path_357252-25" data-name="Path 357252" d="M250.08,391.3a4.552,4.552,0,0,1-2.127-2.315,3.233,3.233,0,0,1,.351-2.575.5.5,0,1,0-.882-.472,4.193,4.193,0,0,0-.421,3.354,5.541,5.541,0,0,0,2.64,2.907.488.488,0,0,0,.219.051.5.5,0,0,0,.22-.95Z" fill="#d8d8d8"/>
        <path id="Path_357253-25" data-name="Path 357253" d="M247.4,391.436a2.471,2.471,0,0,1-1.415-1.32,2.524,2.524,0,0,1-.016-2,.451.451,0,0,0-.243-.6.472.472,0,0,0-.609.252l-.035.086a3.387,3.387,0,0,0,1.98,4.439.473.473,0,0,0,.6-.272A.45.45,0,0,0,247.4,391.436Z" fill="#d8d8d8"/>
      </g>
    </g>
    <g id="Group_842-6" data-name="Group 842" transform="translate(980 -0.807)">
      <g id="icon_shaking-26" data-name="icon shaking" transform="translate(-228.288 -364.622)">
        <path id="Path_357248-26" data-name="Path 357248" d="M251.285,383.1l4.794,17.264,2.806-2.8-.149-.557-.149-.557-2,1.994-3.864-13.916,13.97,3.849-1.608,1.6.558.15.558.15,2.417-2.408Z" fill="#d8d8d8"/>
        <path id="Path_357249-26" data-name="Path 357249" d="M266.2,390.286l-.558-.15-.558-.15-8.872-2.38,2.375,8.852.15.557.149.556L260.1,402.1l10.607-10.607Zm-6.646,5.915-.15-.557-1.777-6.623,6.638,1.781.558.15.558.149,3.4.911-8.158,8.158-.916-3.412Z" fill="#d8d8d8"/>
        <path id="Path_357250-26" data-name="Path 357250" d="M254.22,380.49a4.6,4.6,0,0,1,3.075-.683,3.235,3.235,0,0,1,2.049,1.59.5.5,0,0,0,.426.237.508.508,0,0,0,.263-.075.5.5,0,0,0,.161-.689,4.193,4.193,0,0,0-2.694-2.043,5.561,5.561,0,0,0-3.838.833.5.5,0,0,0,.558.83Z" fill="#d8d8d8"/>
        <path id="Path_357251-26" data-name="Path 357251" d="M255.192,377.975a2.766,2.766,0,0,1,3.926.5.5.5,0,1,0,.8-.6l-.062-.079a3.764,3.764,0,0,0-5.29-.612.5.5,0,1,0,.621.784Z" fill="#d8d8d8"/>
        <path id="Path_357252-26" data-name="Path 357252" d="M250.08,391.3a4.552,4.552,0,0,1-2.127-2.315,3.233,3.233,0,0,1,.351-2.575.5.5,0,1,0-.882-.472,4.193,4.193,0,0,0-.421,3.354,5.541,5.541,0,0,0,2.64,2.907.488.488,0,0,0,.219.051.5.5,0,0,0,.22-.95Z" fill="#d8d8d8"/>
        <path id="Path_357253-26" data-name="Path 357253" d="M247.4,391.436a2.471,2.471,0,0,1-1.415-1.32,2.524,2.524,0,0,1-.016-2,.451.451,0,0,0-.243-.6.472.472,0,0,0-.609.252l-.035.086a3.387,3.387,0,0,0,1.98,4.439.473.473,0,0,0,.6-.272A.45.45,0,0,0,247.4,391.436Z" fill="#d8d8d8"/>
      </g>
      <g id="icon_shaking-27" data-name="icon shaking" transform="translate(402.102 -175.154) rotate(90)">
        <path id="Path_357248-27" data-name="Path 357248" d="M251.285,383.1l4.794,17.264,2.806-2.8-.149-.557-.149-.557-2,1.994-3.864-13.916,13.97,3.849-1.608,1.6.558.15.558.15,2.417-2.408Z" fill="#d8d8d8"/>
        <path id="Path_357249-27" data-name="Path 357249" d="M266.2,390.286l-.558-.15-.558-.15-8.872-2.38,2.375,8.852.15.557.149.556L260.1,402.1l10.607-10.607Zm-6.646,5.915-.15-.557-1.777-6.623,6.638,1.781.558.15.558.149,3.4.911-8.158,8.158-.916-3.412Z" fill="#d8d8d8"/>
        <path id="Path_357250-27" data-name="Path 357250" d="M254.22,380.49a4.6,4.6,0,0,1,3.075-.683,3.235,3.235,0,0,1,2.049,1.59.5.5,0,0,0,.426.237.508.508,0,0,0,.263-.075.5.5,0,0,0,.161-.689,4.193,4.193,0,0,0-2.694-2.043,5.561,5.561,0,0,0-3.838.833.5.5,0,0,0,.558.83Z" fill="#d8d8d8"/>
        <path id="Path_357251-27" data-name="Path 357251" d="M255.192,377.975a2.766,2.766,0,0,1,3.926.5.5.5,0,1,0,.8-.6l-.062-.079a3.764,3.764,0,0,0-5.29-.612.5.5,0,1,0,.621.784Z" fill="#d8d8d8"/>
        <path id="Path_357252-27" data-name="Path 357252" d="M250.08,391.3a4.552,4.552,0,0,1-2.127-2.315,3.233,3.233,0,0,1,.351-2.575.5.5,0,1,0-.882-.472,4.193,4.193,0,0,0-.421,3.354,5.541,5.541,0,0,0,2.64,2.907.488.488,0,0,0,.219.051.5.5,0,0,0,.22-.95Z" fill="#d8d8d8"/>
        <path id="Path_357253-27" data-name="Path 357253" d="M247.4,391.436a2.471,2.471,0,0,1-1.415-1.32,2.524,2.524,0,0,1-.016-2,.451.451,0,0,0-.243-.6.472.472,0,0,0-.609.252l-.035.086a3.387,3.387,0,0,0,1.98,4.439.473.473,0,0,0,.6-.272A.45.45,0,0,0,247.4,391.436Z" fill="#d8d8d8"/>
      </g>
      <g id="icon_shaking-28" data-name="icon shaking" transform="translate(494.439 -294.027) rotate(82)">
        <path id="Path_357248-28" data-name="Path 357248" d="M251.285,383.1l4.794,17.264,2.806-2.8-.149-.557-.149-.557-2,1.994-3.864-13.916,13.97,3.849-1.608,1.6.558.15.558.15,2.417-2.408Z" fill="#d8d8d8"/>
        <path id="Path_357249-28" data-name="Path 357249" d="M266.2,390.286l-.558-.15-.558-.15-8.872-2.38,2.375,8.852.15.557.149.556L260.1,402.1l10.607-10.607Zm-6.646,5.915-.15-.557-1.777-6.623,6.638,1.781.558.15.558.149,3.4.911-8.158,8.158-.916-3.412Z" fill="#d8d8d8"/>
        <path id="Path_357250-28" data-name="Path 357250" d="M254.22,380.49a4.6,4.6,0,0,1,3.075-.683,3.235,3.235,0,0,1,2.049,1.59.5.5,0,0,0,.426.237.508.508,0,0,0,.263-.075.5.5,0,0,0,.161-.689,4.193,4.193,0,0,0-2.694-2.043,5.561,5.561,0,0,0-3.838.833.5.5,0,0,0,.558.83Z" fill="#d8d8d8"/>
        <path id="Path_357251-28" data-name="Path 357251" d="M255.192,377.975a2.766,2.766,0,0,1,3.926.5.5.5,0,1,0,.8-.6l-.062-.079a3.764,3.764,0,0,0-5.29-.612.5.5,0,1,0,.621.784Z" fill="#d8d8d8"/>
        <path id="Path_357252-28" data-name="Path 357252" d="M250.08,391.3a4.552,4.552,0,0,1-2.127-2.315,3.233,3.233,0,0,1,.351-2.575.5.5,0,1,0-.882-.472,4.193,4.193,0,0,0-.421,3.354,5.541,5.541,0,0,0,2.64,2.907.488.488,0,0,0,.219.051.5.5,0,0,0,.22-.95Z" fill="#d8d8d8"/>
        <path id="Path_357253-28" data-name="Path 357253" d="M247.4,391.436a2.471,2.471,0,0,1-1.415-1.32,2.524,2.524,0,0,1-.016-2,.451.451,0,0,0-.243-.6.472.472,0,0,0-.609.252l-.035.086a3.387,3.387,0,0,0,1.98,4.439.473.473,0,0,0,.6-.272A.45.45,0,0,0,247.4,391.436Z" fill="#d8d8d8"/>
      </g>
      <g id="icon_shaking-29" data-name="icon shaking" transform="translate(496.438 -241.05) rotate(82)">
        <path id="Path_357248-29" data-name="Path 357248" d="M251.285,383.1l4.794,17.264,2.806-2.8-.149-.557-.149-.557-2,1.994-3.864-13.916,13.97,3.849-1.608,1.6.558.15.558.15,2.417-2.408Z" fill="#d8d8d8"/>
        <path id="Path_357249-29" data-name="Path 357249" d="M266.2,390.286l-.558-.15-.558-.15-8.872-2.38,2.375,8.852.15.557.149.556L260.1,402.1l10.607-10.607Zm-6.646,5.915-.15-.557-1.777-6.623,6.638,1.781.558.15.558.149,3.4.911-8.158,8.158-.916-3.412Z" fill="#d8d8d8"/>
        <path id="Path_357250-29" data-name="Path 357250" d="M254.22,380.49a4.6,4.6,0,0,1,3.075-.683,3.235,3.235,0,0,1,2.049,1.59.5.5,0,0,0,.426.237.508.508,0,0,0,.263-.075.5.5,0,0,0,.161-.689,4.193,4.193,0,0,0-2.694-2.043,5.561,5.561,0,0,0-3.838.833.5.5,0,0,0,.558.83Z" fill="#d8d8d8"/>
        <path id="Path_357251-29" data-name="Path 357251" d="M255.192,377.975a2.766,2.766,0,0,1,3.926.5.5.5,0,1,0,.8-.6l-.062-.079a3.764,3.764,0,0,0-5.29-.612.5.5,0,1,0,.621.784Z" fill="#d8d8d8"/>
        <path id="Path_357252-29" data-name="Path 357252" d="M250.08,391.3a4.552,4.552,0,0,1-2.127-2.315,3.233,3.233,0,0,1,.351-2.575.5.5,0,1,0-.882-.472,4.193,4.193,0,0,0-.421,3.354,5.541,5.541,0,0,0,2.64,2.907.488.488,0,0,0,.219.051.5.5,0,0,0,.22-.95Z" fill="#d8d8d8"/>
        <path id="Path_357253-29" data-name="Path 357253" d="M247.4,391.436a2.471,2.471,0,0,1-1.415-1.32,2.524,2.524,0,0,1-.016-2,.451.451,0,0,0-.243-.6.472.472,0,0,0-.609.252l-.035.086a3.387,3.387,0,0,0,1.98,4.439.473.473,0,0,0,.6-.272A.45.45,0,0,0,247.4,391.436Z" fill="#d8d8d8"/>
      </g>
      <g id="icon_shaking-30" data-name="icon shaking" transform="matrix(0.017, -1, 1, 0.017, -307.4, 302.324)">
        <path id="Path_357248-30" data-name="Path 357248" d="M251.285,383.1l4.794,17.264,2.806-2.8-.149-.557-.149-.557-2,1.994-3.864-13.916,13.97,3.849-1.608,1.6.558.15.558.15,2.417-2.408Z" fill="#d8d8d8"/>
        <path id="Path_357249-30" data-name="Path 357249" d="M266.2,390.286l-.558-.15-.558-.15-8.872-2.38,2.375,8.852.15.557.149.556L260.1,402.1l10.607-10.607Zm-6.646,5.915-.15-.557-1.777-6.623,6.638,1.781.558.15.558.149,3.4.911-8.158,8.158-.916-3.412Z" fill="#d8d8d8"/>
        <path id="Path_357250-30" data-name="Path 357250" d="M254.22,380.49a4.6,4.6,0,0,1,3.075-.683,3.235,3.235,0,0,1,2.049,1.59.5.5,0,0,0,.426.237.508.508,0,0,0,.263-.075.5.5,0,0,0,.161-.689,4.193,4.193,0,0,0-2.694-2.043,5.561,5.561,0,0,0-3.838.833.5.5,0,0,0,.558.83Z" fill="#d8d8d8"/>
        <path id="Path_357251-30" data-name="Path 357251" d="M255.192,377.975a2.766,2.766,0,0,1,3.926.5.5.5,0,1,0,.8-.6l-.062-.079a3.764,3.764,0,0,0-5.29-.612.5.5,0,1,0,.621.784Z" fill="#d8d8d8"/>
        <path id="Path_357252-30" data-name="Path 357252" d="M250.08,391.3a4.552,4.552,0,0,1-2.127-2.315,3.233,3.233,0,0,1,.351-2.575.5.5,0,1,0-.882-.472,4.193,4.193,0,0,0-.421,3.354,5.541,5.541,0,0,0,2.64,2.907.488.488,0,0,0,.219.051.5.5,0,0,0,.22-.95Z" fill="#d8d8d8"/>
        <path id="Path_357253-30" data-name="Path 357253" d="M247.4,391.436a2.471,2.471,0,0,1-1.415-1.32,2.524,2.524,0,0,1-.016-2,.451.451,0,0,0-.243-.6.472.472,0,0,0-.609.252l-.035.086a3.387,3.387,0,0,0,1.98,4.439.473.473,0,0,0,.6-.272A.45.45,0,0,0,247.4,391.436Z" fill="#d8d8d8"/>
      </g>
    </g>
  </g>
</svg>
