<svg id="Component_133_1" data-name="Component 133 – 1" xmlns="http://www.w3.org/2000/svg" xmlns:xlink="http://www.w3.org/1999/xlink" width="1024" height="99.189" viewBox="0 0 1024 99.189">
  <defs>
    <clipPath id="clip-path">
      <rect width="1024" height="99.189" fill="none"/>
    </clipPath>
  </defs>
  <g id="Repeat_Grid_37" data-name="Repeat Grid 37" clip-path="url(#clip-path)">
    <g id="Group_872" data-name="Group 872" transform="translate(-2 0.001)">
      <g id="icon_tip_position" data-name="icon tip position" transform="translate(-232.575 -378.351)">
        <path id="Path_357276" data-name="Path 357276" d="M236.291,409.039l6.784-11.972,6.784,11.972h-1.015l.577,1h2.154l-8.5-15-8.5,15h2.154l.577-1Z" fill="#d8d8d8"/>
        <path id="Path_357277" data-name="Path 357277" d="M249.421,410.039l-.577-1-5.769-10-5.769,10-.577,1-1.154,2h15Zm-12.115,1,.577-1,.577-1,4.615-8,4.615,8,.577,1,.577,1Z" fill="#d8d8d8"/>
        <rect id="Rectangle_38337" data-name="Rectangle 38337" width="15" height="2" transform="translate(235.575 413.039)" fill="#d8d8d8"/>
        <rect id="Rectangle_38344" data-name="Rectangle 38344" width="15" height="2" transform="translate(235.575 417.039)" fill="#d8d8d8"/>
      </g>
      <g id="icon_tip_position-2" data-name="icon tip position" transform="translate(33.796 -393.405) rotate(31)">
        <path id="Path_357276-2" data-name="Path 357276" d="M236.291,409.039l6.784-11.972,6.784,11.972h-1.015l.577,1h2.154l-8.5-15-8.5,15h2.154l.577-1Z" fill="#d8d8d8"/>
        <path id="Path_357277-2" data-name="Path 357277" d="M249.421,410.039l-.577-1-5.769-10-5.769,10-.577,1-1.154,2h15Zm-12.115,1,.577-1,.577-1,4.615-8,4.615,8,.577,1,.577,1Z" fill="#d8d8d8"/>
        <rect id="Rectangle_38337-2" data-name="Rectangle 38337" width="15" height="2" transform="translate(235.575 413.039)" fill="#d8d8d8"/>
        <rect id="Rectangle_38344-2" data-name="Rectangle 38344" width="15" height="2" transform="translate(235.575 417.039)" fill="#d8d8d8"/>
      </g>
      <g id="icon_tip_position-3" data-name="icon tip position" transform="matrix(-0.438, -0.899, 0.899, -0.438, -177.831, 450.442)">
        <path id="Path_357276-3" data-name="Path 357276" d="M236.291,409.039l6.784-11.972,6.784,11.972h-1.015l.577,1h2.154l-8.5-15-8.5,15h2.154l.577-1Z" fill="#d8d8d8"/>
        <path id="Path_357277-3" data-name="Path 357277" d="M249.421,410.039l-.577-1-5.769-10-5.769,10-.577,1-1.154,2h15Zm-12.115,1,.577-1,.577-1,4.615-8,4.615,8,.577,1,.577,1Z" fill="#d8d8d8"/>
        <rect id="Rectangle_38337-3" data-name="Rectangle 38337" width="15" height="2" transform="translate(235.575 413.039)" fill="#d8d8d8"/>
        <rect id="Rectangle_38344-3" data-name="Rectangle 38344" width="15" height="2" transform="translate(235.575 417.039)" fill="#d8d8d8"/>
      </g>
      <g id="icon_tip_position-4" data-name="icon tip position" transform="matrix(-0.788, 0.616, -0.616, -0.788, 576.142, 185.788)">
        <path id="Path_357276-4" data-name="Path 357276" d="M236.291,409.039l6.784-11.972,6.784,11.972h-1.015l.577,1h2.154l-8.5-15-8.5,15h2.154l.577-1Z" fill="#d8d8d8"/>
        <path id="Path_357277-4" data-name="Path 357277" d="M249.421,410.039l-.577-1-5.769-10-5.769,10-.577,1-1.154,2h15Zm-12.115,1,.577-1,.577-1,4.615-8,4.615,8,.577,1,.577,1Z" fill="#d8d8d8"/>
        <rect id="Rectangle_38337-4" data-name="Rectangle 38337" width="15" height="2" transform="translate(235.575 413.039)" fill="#d8d8d8"/>
        <rect id="Rectangle_38344-4" data-name="Rectangle 38344" width="15" height="2" transform="translate(235.575 417.039)" fill="#d8d8d8"/>
      </g>
      <g id="icon_tip_position-5" data-name="icon tip position" transform="matrix(0.966, -0.259, 0.259, 0.966, -197.804, -244.86)">
        <path id="Path_357276-5" data-name="Path 357276" d="M236.291,409.039l6.784-11.972,6.784,11.972h-1.015l.577,1h2.154l-8.5-15-8.5,15h2.154l.577-1Z" fill="#d8d8d8"/>
        <path id="Path_357277-5" data-name="Path 357277" d="M249.421,410.039l-.577-1-5.769-10-5.769,10-.577,1-1.154,2h15Zm-12.115,1,.577-1,.577-1,4.615-8,4.615,8,.577,1,.577,1Z" fill="#d8d8d8"/>
        <rect id="Rectangle_38337-5" data-name="Rectangle 38337" width="15" height="2" transform="translate(235.575 413.039)" fill="#d8d8d8"/>
        <rect id="Rectangle_38344-5" data-name="Rectangle 38344" width="15" height="2" transform="translate(235.575 417.039)" fill="#d8d8d8"/>
      </g>
    </g>
    <g id="Group_872-2" data-name="Group 872" transform="translate(193 0.001)">
      <g id="icon_tip_position-6" data-name="icon tip position" transform="translate(-232.575 -378.351)">
        <path id="Path_357276-6" data-name="Path 357276" d="M236.291,409.039l6.784-11.972,6.784,11.972h-1.015l.577,1h2.154l-8.5-15-8.5,15h2.154l.577-1Z" fill="#d8d8d8"/>
        <path id="Path_357277-6" data-name="Path 357277" d="M249.421,410.039l-.577-1-5.769-10-5.769,10-.577,1-1.154,2h15Zm-12.115,1,.577-1,.577-1,4.615-8,4.615,8,.577,1,.577,1Z" fill="#d8d8d8"/>
        <rect id="Rectangle_38337-6" data-name="Rectangle 38337" width="15" height="2" transform="translate(235.575 413.039)" fill="#d8d8d8"/>
        <rect id="Rectangle_38344-6" data-name="Rectangle 38344" width="15" height="2" transform="translate(235.575 417.039)" fill="#d8d8d8"/>
      </g>
      <g id="icon_tip_position-7" data-name="icon tip position" transform="translate(33.796 -393.405) rotate(31)">
        <path id="Path_357276-7" data-name="Path 357276" d="M236.291,409.039l6.784-11.972,6.784,11.972h-1.015l.577,1h2.154l-8.5-15-8.5,15h2.154l.577-1Z" fill="#d8d8d8"/>
        <path id="Path_357277-7" data-name="Path 357277" d="M249.421,410.039l-.577-1-5.769-10-5.769,10-.577,1-1.154,2h15Zm-12.115,1,.577-1,.577-1,4.615-8,4.615,8,.577,1,.577,1Z" fill="#d8d8d8"/>
        <rect id="Rectangle_38337-7" data-name="Rectangle 38337" width="15" height="2" transform="translate(235.575 413.039)" fill="#d8d8d8"/>
        <rect id="Rectangle_38344-7" data-name="Rectangle 38344" width="15" height="2" transform="translate(235.575 417.039)" fill="#d8d8d8"/>
      </g>
      <g id="icon_tip_position-8" data-name="icon tip position" transform="matrix(-0.438, -0.899, 0.899, -0.438, -177.831, 450.442)">
        <path id="Path_357276-8" data-name="Path 357276" d="M236.291,409.039l6.784-11.972,6.784,11.972h-1.015l.577,1h2.154l-8.5-15-8.5,15h2.154l.577-1Z" fill="#d8d8d8"/>
        <path id="Path_357277-8" data-name="Path 357277" d="M249.421,410.039l-.577-1-5.769-10-5.769,10-.577,1-1.154,2h15Zm-12.115,1,.577-1,.577-1,4.615-8,4.615,8,.577,1,.577,1Z" fill="#d8d8d8"/>
        <rect id="Rectangle_38337-8" data-name="Rectangle 38337" width="15" height="2" transform="translate(235.575 413.039)" fill="#d8d8d8"/>
        <rect id="Rectangle_38344-8" data-name="Rectangle 38344" width="15" height="2" transform="translate(235.575 417.039)" fill="#d8d8d8"/>
      </g>
      <g id="icon_tip_position-9" data-name="icon tip position" transform="matrix(-0.788, 0.616, -0.616, -0.788, 576.142, 185.788)">
        <path id="Path_357276-9" data-name="Path 357276" d="M236.291,409.039l6.784-11.972,6.784,11.972h-1.015l.577,1h2.154l-8.5-15-8.5,15h2.154l.577-1Z" fill="#d8d8d8"/>
        <path id="Path_357277-9" data-name="Path 357277" d="M249.421,410.039l-.577-1-5.769-10-5.769,10-.577,1-1.154,2h15Zm-12.115,1,.577-1,.577-1,4.615-8,4.615,8,.577,1,.577,1Z" fill="#d8d8d8"/>
        <rect id="Rectangle_38337-9" data-name="Rectangle 38337" width="15" height="2" transform="translate(235.575 413.039)" fill="#d8d8d8"/>
        <rect id="Rectangle_38344-9" data-name="Rectangle 38344" width="15" height="2" transform="translate(235.575 417.039)" fill="#d8d8d8"/>
      </g>
      <g id="icon_tip_position-10" data-name="icon tip position" transform="matrix(0.966, -0.259, 0.259, 0.966, -197.804, -244.86)">
        <path id="Path_357276-10" data-name="Path 357276" d="M236.291,409.039l6.784-11.972,6.784,11.972h-1.015l.577,1h2.154l-8.5-15-8.5,15h2.154l.577-1Z" fill="#d8d8d8"/>
        <path id="Path_357277-10" data-name="Path 357277" d="M249.421,410.039l-.577-1-5.769-10-5.769,10-.577,1-1.154,2h15Zm-12.115,1,.577-1,.577-1,4.615-8,4.615,8,.577,1,.577,1Z" fill="#d8d8d8"/>
        <rect id="Rectangle_38337-10" data-name="Rectangle 38337" width="15" height="2" transform="translate(235.575 413.039)" fill="#d8d8d8"/>
        <rect id="Rectangle_38344-10" data-name="Rectangle 38344" width="15" height="2" transform="translate(235.575 417.039)" fill="#d8d8d8"/>
      </g>
    </g>
    <g id="Group_872-3" data-name="Group 872" transform="translate(388 0.001)">
      <g id="icon_tip_position-11" data-name="icon tip position" transform="translate(-232.575 -378.351)">
        <path id="Path_357276-11" data-name="Path 357276" d="M236.291,409.039l6.784-11.972,6.784,11.972h-1.015l.577,1h2.154l-8.5-15-8.5,15h2.154l.577-1Z" fill="#d8d8d8"/>
        <path id="Path_357277-11" data-name="Path 357277" d="M249.421,410.039l-.577-1-5.769-10-5.769,10-.577,1-1.154,2h15Zm-12.115,1,.577-1,.577-1,4.615-8,4.615,8,.577,1,.577,1Z" fill="#d8d8d8"/>
        <rect id="Rectangle_38337-11" data-name="Rectangle 38337" width="15" height="2" transform="translate(235.575 413.039)" fill="#d8d8d8"/>
        <rect id="Rectangle_38344-11" data-name="Rectangle 38344" width="15" height="2" transform="translate(235.575 417.039)" fill="#d8d8d8"/>
      </g>
      <g id="icon_tip_position-12" data-name="icon tip position" transform="translate(33.796 -393.405) rotate(31)">
        <path id="Path_357276-12" data-name="Path 357276" d="M236.291,409.039l6.784-11.972,6.784,11.972h-1.015l.577,1h2.154l-8.5-15-8.5,15h2.154l.577-1Z" fill="#d8d8d8"/>
        <path id="Path_357277-12" data-name="Path 357277" d="M249.421,410.039l-.577-1-5.769-10-5.769,10-.577,1-1.154,2h15Zm-12.115,1,.577-1,.577-1,4.615-8,4.615,8,.577,1,.577,1Z" fill="#d8d8d8"/>
        <rect id="Rectangle_38337-12" data-name="Rectangle 38337" width="15" height="2" transform="translate(235.575 413.039)" fill="#d8d8d8"/>
        <rect id="Rectangle_38344-12" data-name="Rectangle 38344" width="15" height="2" transform="translate(235.575 417.039)" fill="#d8d8d8"/>
      </g>
      <g id="icon_tip_position-13" data-name="icon tip position" transform="matrix(-0.438, -0.899, 0.899, -0.438, -177.831, 450.442)">
        <path id="Path_357276-13" data-name="Path 357276" d="M236.291,409.039l6.784-11.972,6.784,11.972h-1.015l.577,1h2.154l-8.5-15-8.5,15h2.154l.577-1Z" fill="#d8d8d8"/>
        <path id="Path_357277-13" data-name="Path 357277" d="M249.421,410.039l-.577-1-5.769-10-5.769,10-.577,1-1.154,2h15Zm-12.115,1,.577-1,.577-1,4.615-8,4.615,8,.577,1,.577,1Z" fill="#d8d8d8"/>
        <rect id="Rectangle_38337-13" data-name="Rectangle 38337" width="15" height="2" transform="translate(235.575 413.039)" fill="#d8d8d8"/>
        <rect id="Rectangle_38344-13" data-name="Rectangle 38344" width="15" height="2" transform="translate(235.575 417.039)" fill="#d8d8d8"/>
      </g>
      <g id="icon_tip_position-14" data-name="icon tip position" transform="matrix(-0.788, 0.616, -0.616, -0.788, 576.142, 185.788)">
        <path id="Path_357276-14" data-name="Path 357276" d="M236.291,409.039l6.784-11.972,6.784,11.972h-1.015l.577,1h2.154l-8.5-15-8.5,15h2.154l.577-1Z" fill="#d8d8d8"/>
        <path id="Path_357277-14" data-name="Path 357277" d="M249.421,410.039l-.577-1-5.769-10-5.769,10-.577,1-1.154,2h15Zm-12.115,1,.577-1,.577-1,4.615-8,4.615,8,.577,1,.577,1Z" fill="#d8d8d8"/>
        <rect id="Rectangle_38337-14" data-name="Rectangle 38337" width="15" height="2" transform="translate(235.575 413.039)" fill="#d8d8d8"/>
        <rect id="Rectangle_38344-14" data-name="Rectangle 38344" width="15" height="2" transform="translate(235.575 417.039)" fill="#d8d8d8"/>
      </g>
      <g id="icon_tip_position-15" data-name="icon tip position" transform="matrix(0.966, -0.259, 0.259, 0.966, -197.804, -244.86)">
        <path id="Path_357276-15" data-name="Path 357276" d="M236.291,409.039l6.784-11.972,6.784,11.972h-1.015l.577,1h2.154l-8.5-15-8.5,15h2.154l.577-1Z" fill="#d8d8d8"/>
        <path id="Path_357277-15" data-name="Path 357277" d="M249.421,410.039l-.577-1-5.769-10-5.769,10-.577,1-1.154,2h15Zm-12.115,1,.577-1,.577-1,4.615-8,4.615,8,.577,1,.577,1Z" fill="#d8d8d8"/>
        <rect id="Rectangle_38337-15" data-name="Rectangle 38337" width="15" height="2" transform="translate(235.575 413.039)" fill="#d8d8d8"/>
        <rect id="Rectangle_38344-15" data-name="Rectangle 38344" width="15" height="2" transform="translate(235.575 417.039)" fill="#d8d8d8"/>
      </g>
    </g>
    <g id="Group_872-4" data-name="Group 872" transform="translate(583 0.001)">
      <g id="icon_tip_position-16" data-name="icon tip position" transform="translate(-232.575 -378.351)">
        <path id="Path_357276-16" data-name="Path 357276" d="M236.291,409.039l6.784-11.972,6.784,11.972h-1.015l.577,1h2.154l-8.5-15-8.5,15h2.154l.577-1Z" fill="#d8d8d8"/>
        <path id="Path_357277-16" data-name="Path 357277" d="M249.421,410.039l-.577-1-5.769-10-5.769,10-.577,1-1.154,2h15Zm-12.115,1,.577-1,.577-1,4.615-8,4.615,8,.577,1,.577,1Z" fill="#d8d8d8"/>
        <rect id="Rectangle_38337-16" data-name="Rectangle 38337" width="15" height="2" transform="translate(235.575 413.039)" fill="#d8d8d8"/>
        <rect id="Rectangle_38344-16" data-name="Rectangle 38344" width="15" height="2" transform="translate(235.575 417.039)" fill="#d8d8d8"/>
      </g>
      <g id="icon_tip_position-17" data-name="icon tip position" transform="translate(33.796 -393.405) rotate(31)">
        <path id="Path_357276-17" data-name="Path 357276" d="M236.291,409.039l6.784-11.972,6.784,11.972h-1.015l.577,1h2.154l-8.5-15-8.5,15h2.154l.577-1Z" fill="#d8d8d8"/>
        <path id="Path_357277-17" data-name="Path 357277" d="M249.421,410.039l-.577-1-5.769-10-5.769,10-.577,1-1.154,2h15Zm-12.115,1,.577-1,.577-1,4.615-8,4.615,8,.577,1,.577,1Z" fill="#d8d8d8"/>
        <rect id="Rectangle_38337-17" data-name="Rectangle 38337" width="15" height="2" transform="translate(235.575 413.039)" fill="#d8d8d8"/>
        <rect id="Rectangle_38344-17" data-name="Rectangle 38344" width="15" height="2" transform="translate(235.575 417.039)" fill="#d8d8d8"/>
      </g>
      <g id="icon_tip_position-18" data-name="icon tip position" transform="matrix(-0.438, -0.899, 0.899, -0.438, -177.831, 450.442)">
        <path id="Path_357276-18" data-name="Path 357276" d="M236.291,409.039l6.784-11.972,6.784,11.972h-1.015l.577,1h2.154l-8.5-15-8.5,15h2.154l.577-1Z" fill="#d8d8d8"/>
        <path id="Path_357277-18" data-name="Path 357277" d="M249.421,410.039l-.577-1-5.769-10-5.769,10-.577,1-1.154,2h15Zm-12.115,1,.577-1,.577-1,4.615-8,4.615,8,.577,1,.577,1Z" fill="#d8d8d8"/>
        <rect id="Rectangle_38337-18" data-name="Rectangle 38337" width="15" height="2" transform="translate(235.575 413.039)" fill="#d8d8d8"/>
        <rect id="Rectangle_38344-18" data-name="Rectangle 38344" width="15" height="2" transform="translate(235.575 417.039)" fill="#d8d8d8"/>
      </g>
      <g id="icon_tip_position-19" data-name="icon tip position" transform="matrix(-0.788, 0.616, -0.616, -0.788, 576.142, 185.788)">
        <path id="Path_357276-19" data-name="Path 357276" d="M236.291,409.039l6.784-11.972,6.784,11.972h-1.015l.577,1h2.154l-8.5-15-8.5,15h2.154l.577-1Z" fill="#d8d8d8"/>
        <path id="Path_357277-19" data-name="Path 357277" d="M249.421,410.039l-.577-1-5.769-10-5.769,10-.577,1-1.154,2h15Zm-12.115,1,.577-1,.577-1,4.615-8,4.615,8,.577,1,.577,1Z" fill="#d8d8d8"/>
        <rect id="Rectangle_38337-19" data-name="Rectangle 38337" width="15" height="2" transform="translate(235.575 413.039)" fill="#d8d8d8"/>
        <rect id="Rectangle_38344-19" data-name="Rectangle 38344" width="15" height="2" transform="translate(235.575 417.039)" fill="#d8d8d8"/>
      </g>
      <g id="icon_tip_position-20" data-name="icon tip position" transform="matrix(0.966, -0.259, 0.259, 0.966, -197.804, -244.86)">
        <path id="Path_357276-20" data-name="Path 357276" d="M236.291,409.039l6.784-11.972,6.784,11.972h-1.015l.577,1h2.154l-8.5-15-8.5,15h2.154l.577-1Z" fill="#d8d8d8"/>
        <path id="Path_357277-20" data-name="Path 357277" d="M249.421,410.039l-.577-1-5.769-10-5.769,10-.577,1-1.154,2h15Zm-12.115,1,.577-1,.577-1,4.615-8,4.615,8,.577,1,.577,1Z" fill="#d8d8d8"/>
        <rect id="Rectangle_38337-20" data-name="Rectangle 38337" width="15" height="2" transform="translate(235.575 413.039)" fill="#d8d8d8"/>
        <rect id="Rectangle_38344-20" data-name="Rectangle 38344" width="15" height="2" transform="translate(235.575 417.039)" fill="#d8d8d8"/>
      </g>
    </g>
    <g id="Group_872-5" data-name="Group 872" transform="translate(778 0.001)">
      <g id="icon_tip_position-21" data-name="icon tip position" transform="translate(-232.575 -378.351)">
        <path id="Path_357276-21" data-name="Path 357276" d="M236.291,409.039l6.784-11.972,6.784,11.972h-1.015l.577,1h2.154l-8.5-15-8.5,15h2.154l.577-1Z" fill="#d8d8d8"/>
        <path id="Path_357277-21" data-name="Path 357277" d="M249.421,410.039l-.577-1-5.769-10-5.769,10-.577,1-1.154,2h15Zm-12.115,1,.577-1,.577-1,4.615-8,4.615,8,.577,1,.577,1Z" fill="#d8d8d8"/>
        <rect id="Rectangle_38337-21" data-name="Rectangle 38337" width="15" height="2" transform="translate(235.575 413.039)" fill="#d8d8d8"/>
        <rect id="Rectangle_38344-21" data-name="Rectangle 38344" width="15" height="2" transform="translate(235.575 417.039)" fill="#d8d8d8"/>
      </g>
      <g id="icon_tip_position-22" data-name="icon tip position" transform="translate(33.796 -393.405) rotate(31)">
        <path id="Path_357276-22" data-name="Path 357276" d="M236.291,409.039l6.784-11.972,6.784,11.972h-1.015l.577,1h2.154l-8.5-15-8.5,15h2.154l.577-1Z" fill="#d8d8d8"/>
        <path id="Path_357277-22" data-name="Path 357277" d="M249.421,410.039l-.577-1-5.769-10-5.769,10-.577,1-1.154,2h15Zm-12.115,1,.577-1,.577-1,4.615-8,4.615,8,.577,1,.577,1Z" fill="#d8d8d8"/>
        <rect id="Rectangle_38337-22" data-name="Rectangle 38337" width="15" height="2" transform="translate(235.575 413.039)" fill="#d8d8d8"/>
        <rect id="Rectangle_38344-22" data-name="Rectangle 38344" width="15" height="2" transform="translate(235.575 417.039)" fill="#d8d8d8"/>
      </g>
      <g id="icon_tip_position-23" data-name="icon tip position" transform="matrix(-0.438, -0.899, 0.899, -0.438, -177.831, 450.442)">
        <path id="Path_357276-23" data-name="Path 357276" d="M236.291,409.039l6.784-11.972,6.784,11.972h-1.015l.577,1h2.154l-8.5-15-8.5,15h2.154l.577-1Z" fill="#d8d8d8"/>
        <path id="Path_357277-23" data-name="Path 357277" d="M249.421,410.039l-.577-1-5.769-10-5.769,10-.577,1-1.154,2h15Zm-12.115,1,.577-1,.577-1,4.615-8,4.615,8,.577,1,.577,1Z" fill="#d8d8d8"/>
        <rect id="Rectangle_38337-23" data-name="Rectangle 38337" width="15" height="2" transform="translate(235.575 413.039)" fill="#d8d8d8"/>
        <rect id="Rectangle_38344-23" data-name="Rectangle 38344" width="15" height="2" transform="translate(235.575 417.039)" fill="#d8d8d8"/>
      </g>
      <g id="icon_tip_position-24" data-name="icon tip position" transform="matrix(-0.788, 0.616, -0.616, -0.788, 576.142, 185.788)">
        <path id="Path_357276-24" data-name="Path 357276" d="M236.291,409.039l6.784-11.972,6.784,11.972h-1.015l.577,1h2.154l-8.5-15-8.5,15h2.154l.577-1Z" fill="#d8d8d8"/>
        <path id="Path_357277-24" data-name="Path 357277" d="M249.421,410.039l-.577-1-5.769-10-5.769,10-.577,1-1.154,2h15Zm-12.115,1,.577-1,.577-1,4.615-8,4.615,8,.577,1,.577,1Z" fill="#d8d8d8"/>
        <rect id="Rectangle_38337-24" data-name="Rectangle 38337" width="15" height="2" transform="translate(235.575 413.039)" fill="#d8d8d8"/>
        <rect id="Rectangle_38344-24" data-name="Rectangle 38344" width="15" height="2" transform="translate(235.575 417.039)" fill="#d8d8d8"/>
      </g>
      <g id="icon_tip_position-25" data-name="icon tip position" transform="matrix(0.966, -0.259, 0.259, 0.966, -197.804, -244.86)">
        <path id="Path_357276-25" data-name="Path 357276" d="M236.291,409.039l6.784-11.972,6.784,11.972h-1.015l.577,1h2.154l-8.5-15-8.5,15h2.154l.577-1Z" fill="#d8d8d8"/>
        <path id="Path_357277-25" data-name="Path 357277" d="M249.421,410.039l-.577-1-5.769-10-5.769,10-.577,1-1.154,2h15Zm-12.115,1,.577-1,.577-1,4.615-8,4.615,8,.577,1,.577,1Z" fill="#d8d8d8"/>
        <rect id="Rectangle_38337-25" data-name="Rectangle 38337" width="15" height="2" transform="translate(235.575 413.039)" fill="#d8d8d8"/>
        <rect id="Rectangle_38344-25" data-name="Rectangle 38344" width="15" height="2" transform="translate(235.575 417.039)" fill="#d8d8d8"/>
      </g>
    </g>
    <g id="Group_872-6" data-name="Group 872" transform="translate(973 0.001)">
      <g id="icon_tip_position-26" data-name="icon tip position" transform="translate(-232.575 -378.351)">
        <path id="Path_357276-26" data-name="Path 357276" d="M236.291,409.039l6.784-11.972,6.784,11.972h-1.015l.577,1h2.154l-8.5-15-8.5,15h2.154l.577-1Z" fill="#d8d8d8"/>
        <path id="Path_357277-26" data-name="Path 357277" d="M249.421,410.039l-.577-1-5.769-10-5.769,10-.577,1-1.154,2h15Zm-12.115,1,.577-1,.577-1,4.615-8,4.615,8,.577,1,.577,1Z" fill="#d8d8d8"/>
        <rect id="Rectangle_38337-26" data-name="Rectangle 38337" width="15" height="2" transform="translate(235.575 413.039)" fill="#d8d8d8"/>
        <rect id="Rectangle_38344-26" data-name="Rectangle 38344" width="15" height="2" transform="translate(235.575 417.039)" fill="#d8d8d8"/>
      </g>
      <g id="icon_tip_position-27" data-name="icon tip position" transform="translate(33.796 -393.405) rotate(31)">
        <path id="Path_357276-27" data-name="Path 357276" d="M236.291,409.039l6.784-11.972,6.784,11.972h-1.015l.577,1h2.154l-8.5-15-8.5,15h2.154l.577-1Z" fill="#d8d8d8"/>
        <path id="Path_357277-27" data-name="Path 357277" d="M249.421,410.039l-.577-1-5.769-10-5.769,10-.577,1-1.154,2h15Zm-12.115,1,.577-1,.577-1,4.615-8,4.615,8,.577,1,.577,1Z" fill="#d8d8d8"/>
        <rect id="Rectangle_38337-27" data-name="Rectangle 38337" width="15" height="2" transform="translate(235.575 413.039)" fill="#d8d8d8"/>
        <rect id="Rectangle_38344-27" data-name="Rectangle 38344" width="15" height="2" transform="translate(235.575 417.039)" fill="#d8d8d8"/>
      </g>
      <g id="icon_tip_position-28" data-name="icon tip position" transform="matrix(-0.438, -0.899, 0.899, -0.438, -177.831, 450.442)">
        <path id="Path_357276-28" data-name="Path 357276" d="M236.291,409.039l6.784-11.972,6.784,11.972h-1.015l.577,1h2.154l-8.5-15-8.5,15h2.154l.577-1Z" fill="#d8d8d8"/>
        <path id="Path_357277-28" data-name="Path 357277" d="M249.421,410.039l-.577-1-5.769-10-5.769,10-.577,1-1.154,2h15Zm-12.115,1,.577-1,.577-1,4.615-8,4.615,8,.577,1,.577,1Z" fill="#d8d8d8"/>
        <rect id="Rectangle_38337-28" data-name="Rectangle 38337" width="15" height="2" transform="translate(235.575 413.039)" fill="#d8d8d8"/>
        <rect id="Rectangle_38344-28" data-name="Rectangle 38344" width="15" height="2" transform="translate(235.575 417.039)" fill="#d8d8d8"/>
      </g>
      <g id="icon_tip_position-29" data-name="icon tip position" transform="matrix(-0.788, 0.616, -0.616, -0.788, 576.142, 185.788)">
        <path id="Path_357276-29" data-name="Path 357276" d="M236.291,409.039l6.784-11.972,6.784,11.972h-1.015l.577,1h2.154l-8.5-15-8.5,15h2.154l.577-1Z" fill="#d8d8d8"/>
        <path id="Path_357277-29" data-name="Path 357277" d="M249.421,410.039l-.577-1-5.769-10-5.769,10-.577,1-1.154,2h15Zm-12.115,1,.577-1,.577-1,4.615-8,4.615,8,.577,1,.577,1Z" fill="#d8d8d8"/>
        <rect id="Rectangle_38337-29" data-name="Rectangle 38337" width="15" height="2" transform="translate(235.575 413.039)" fill="#d8d8d8"/>
        <rect id="Rectangle_38344-29" data-name="Rectangle 38344" width="15" height="2" transform="translate(235.575 417.039)" fill="#d8d8d8"/>
      </g>
      <g id="icon_tip_position-30" data-name="icon tip position" transform="matrix(0.966, -0.259, 0.259, 0.966, -197.804, -244.86)">
        <path id="Path_357276-30" data-name="Path 357276" d="M236.291,409.039l6.784-11.972,6.784,11.972h-1.015l.577,1h2.154l-8.5-15-8.5,15h2.154l.577-1Z" fill="#d8d8d8"/>
        <path id="Path_357277-30" data-name="Path 357277" d="M249.421,410.039l-.577-1-5.769-10-5.769,10-.577,1-1.154,2h15Zm-12.115,1,.577-1,.577-1,4.615-8,4.615,8,.577,1,.577,1Z" fill="#d8d8d8"/>
        <rect id="Rectangle_38337-30" data-name="Rectangle 38337" width="15" height="2" transform="translate(235.575 413.039)" fill="#d8d8d8"/>
        <rect id="Rectangle_38344-30" data-name="Rectangle 38344" width="15" height="2" transform="translate(235.575 417.039)" fill="#d8d8d8"/>
      </g>
    </g>
  </g>
</svg>
