<svg id="Component_126_1" data-name="Component 126 – 1" xmlns="http://www.w3.org/2000/svg" xmlns:xlink="http://www.w3.org/1999/xlink" width="1024" height="88.418" viewBox="0 0 1024 88.418">
  <defs>
    <clipPath id="clip-path">
      <rect width="1024" height="88.418" fill="none"/>
    </clipPath>
  </defs>
  <g id="Repeat_Grid_30" data-name="Repeat Grid 30" clip-path="url(#clip-path)">
    <g id="Group_830" data-name="Group 830" transform="translate(0 -2.393)">
      <g id="icon_tip_pickup" data-name="icon tip pickup" transform="translate(-189.999 -330.794)">
        <g id="Group_899" data-name="Group 899">
          <path id="Path_357242" data-name="Path 357242" d="M260.163,384.221a2.5,2.5,0,1,1,2.5-2.5A2.5,2.5,0,0,1,260.163,384.221Z" fill="#d8d8d8"/>
        </g>
        <path id="Path_357244" data-name="Path 357244" d="M266.356,397.747l-3.668-13.262,13.262,3.668-.658.658,1.115.3,1.464-1.464-16.617-4.6,4.6,16.617,1.82-1.82-.3-1.115Z" fill="#d8d8d8"/>
        <rect id="Rectangle_38377" data-name="Rectangle 38377" width="2" height="5.209" transform="translate(272.773 395.984) rotate(-45)" fill="#d8d8d8"/>
        <path id="Path_357245" data-name="Path 357245" d="M276.407,389.11l-1.115-.3-10.826-2.9,2.9,10.825.3,1.115.685,2.555,4.418-4.418,1.414-1.414,4.775-4.774Zm-2.927,4.753-1.414,1.414-3.194,3.194-.386-1.44-.3-1.115-2.306-8.594,8.594,2.306,1.115.3,1.44.386Z" fill="#d8d8d8"/>
      </g>
      <g id="icon_tip_pickup-2" data-name="icon tip pickup" transform="translate(-414.83 191.66) rotate(-76)">
        <g id="Group_899-2" data-name="Group 899">
          <path id="Path_357242-2" data-name="Path 357242" d="M260.163,384.221a2.5,2.5,0,1,1,2.5-2.5A2.5,2.5,0,0,1,260.163,384.221Z" fill="#d8d8d8"/>
        </g>
        <path id="Path_357244-2" data-name="Path 357244" d="M266.356,397.747l-3.668-13.262,13.262,3.668-.658.658,1.115.3,1.464-1.464-16.617-4.6,4.6,16.617,1.82-1.82-.3-1.115Z" fill="#d8d8d8"/>
        <rect id="Rectangle_38377-2" data-name="Rectangle 38377" width="2" height="5.209" transform="translate(272.773 395.984) rotate(-45)" fill="#d8d8d8"/>
        <path id="Path_357245-2" data-name="Path 357245" d="M276.407,389.11l-1.115-.3-10.826-2.9,2.9,10.825.3,1.115.685,2.555,4.418-4.418,1.414-1.414,4.775-4.774Zm-2.927,4.753-1.414,1.414-3.194,3.194-.386-1.44-.3-1.115-2.306-8.594,8.594,2.306,1.115.3,1.44.386Z" fill="#d8d8d8"/>
      </g>
      <g id="icon_tip_pickup-3" data-name="icon tip pickup" transform="translate(414.454 -167.922) rotate(93)">
        <g id="Group_899-3" data-name="Group 899">
          <path id="Path_357242-3" data-name="Path 357242" d="M260.163,384.221a2.5,2.5,0,1,1,2.5-2.5A2.5,2.5,0,0,1,260.163,384.221Z" fill="#d8d8d8"/>
        </g>
        <path id="Path_357244-3" data-name="Path 357244" d="M266.356,397.747l-3.668-13.262,13.262,3.668-.658.658,1.115.3,1.464-1.464-16.617-4.6,4.6,16.617,1.82-1.82-.3-1.115Z" fill="#d8d8d8"/>
        <rect id="Rectangle_38377-3" data-name="Rectangle 38377" width="2" height="5.209" transform="translate(272.773 395.984) rotate(-45)" fill="#d8d8d8"/>
        <path id="Path_357245-3" data-name="Path 357245" d="M276.407,389.11l-1.115-.3-10.826-2.9,2.9,10.825.3,1.115.685,2.555,4.418-4.418,1.414-1.414,4.775-4.774Zm-2.927,4.753-1.414,1.414-3.194,3.194-.386-1.44-.3-1.115-2.306-8.594,8.594,2.306,1.115.3,1.44.386Z" fill="#d8d8d8"/>
      </g>
      <g id="icon_tip_pickup-4" data-name="icon tip pickup" transform="translate(527.846 -226.738) rotate(87)">
        <g id="Group_899-4" data-name="Group 899">
          <path id="Path_357242-4" data-name="Path 357242" d="M260.163,384.221a2.5,2.5,0,1,1,2.5-2.5A2.5,2.5,0,0,1,260.163,384.221Z" fill="#d8d8d8"/>
        </g>
        <path id="Path_357244-4" data-name="Path 357244" d="M266.356,397.747l-3.668-13.262,13.262,3.668-.658.658,1.115.3,1.464-1.464-16.617-4.6,4.6,16.617,1.82-1.82-.3-1.115Z" fill="#d8d8d8"/>
        <rect id="Rectangle_38377-4" data-name="Rectangle 38377" width="2" height="5.209" transform="translate(272.773 395.984) rotate(-45)" fill="#d8d8d8"/>
        <path id="Path_357245-4" data-name="Path 357245" d="M276.407,389.11l-1.115-.3-10.826-2.9,2.9,10.825.3,1.115.685,2.555,4.418-4.418,1.414-1.414,4.775-4.774Zm-2.927,4.753-1.414,1.414-3.194,3.194-.386-1.44-.3-1.115-2.306-8.594,8.594,2.306,1.115.3,1.44.386Z" fill="#d8d8d8"/>
      </g>
      <g id="icon_tip_pickup-5" data-name="icon tip pickup" transform="matrix(-0.438, 0.899, -0.899, -0.438, 589.62, -53.668)">
        <g id="Group_899-5" data-name="Group 899">
          <path id="Path_357242-5" data-name="Path 357242" d="M260.163,384.221a2.5,2.5,0,1,1,2.5-2.5A2.5,2.5,0,0,1,260.163,384.221Z" fill="#d8d8d8"/>
        </g>
        <path id="Path_357244-5" data-name="Path 357244" d="M266.356,397.747l-3.668-13.262,13.262,3.668-.658.658,1.115.3,1.464-1.464-16.617-4.6,4.6,16.617,1.82-1.82-.3-1.115Z" fill="#d8d8d8"/>
        <rect id="Rectangle_38377-5" data-name="Rectangle 38377" width="2" height="5.209" transform="translate(272.773 395.984) rotate(-45)" fill="#d8d8d8"/>
        <path id="Path_357245-5" data-name="Path 357245" d="M276.407,389.11l-1.115-.3-10.826-2.9,2.9,10.825.3,1.115.685,2.555,4.418-4.418,1.414-1.414,4.775-4.774Zm-2.927,4.753-1.414,1.414-3.194,3.194-.386-1.44-.3-1.115-2.306-8.594,8.594,2.306,1.115.3,1.44.386Z" fill="#d8d8d8"/>
      </g>
    </g>
    <g id="Group_830-2" data-name="Group 830" transform="translate(197 -2.393)">
      <g id="icon_tip_pickup-6" data-name="icon tip pickup" transform="translate(-189.999 -330.794)">
        <g id="Group_899-6" data-name="Group 899">
          <path id="Path_357242-6" data-name="Path 357242" d="M260.163,384.221a2.5,2.5,0,1,1,2.5-2.5A2.5,2.5,0,0,1,260.163,384.221Z" fill="#d8d8d8"/>
        </g>
        <path id="Path_357244-6" data-name="Path 357244" d="M266.356,397.747l-3.668-13.262,13.262,3.668-.658.658,1.115.3,1.464-1.464-16.617-4.6,4.6,16.617,1.82-1.82-.3-1.115Z" fill="#d8d8d8"/>
        <rect id="Rectangle_38377-6" data-name="Rectangle 38377" width="2" height="5.209" transform="translate(272.773 395.984) rotate(-45)" fill="#d8d8d8"/>
        <path id="Path_357245-6" data-name="Path 357245" d="M276.407,389.11l-1.115-.3-10.826-2.9,2.9,10.825.3,1.115.685,2.555,4.418-4.418,1.414-1.414,4.775-4.774Zm-2.927,4.753-1.414,1.414-3.194,3.194-.386-1.44-.3-1.115-2.306-8.594,8.594,2.306,1.115.3,1.44.386Z" fill="#d8d8d8"/>
      </g>
      <g id="icon_tip_pickup-7" data-name="icon tip pickup" transform="translate(-414.83 191.66) rotate(-76)">
        <g id="Group_899-7" data-name="Group 899">
          <path id="Path_357242-7" data-name="Path 357242" d="M260.163,384.221a2.5,2.5,0,1,1,2.5-2.5A2.5,2.5,0,0,1,260.163,384.221Z" fill="#d8d8d8"/>
        </g>
        <path id="Path_357244-7" data-name="Path 357244" d="M266.356,397.747l-3.668-13.262,13.262,3.668-.658.658,1.115.3,1.464-1.464-16.617-4.6,4.6,16.617,1.82-1.82-.3-1.115Z" fill="#d8d8d8"/>
        <rect id="Rectangle_38377-7" data-name="Rectangle 38377" width="2" height="5.209" transform="translate(272.773 395.984) rotate(-45)" fill="#d8d8d8"/>
        <path id="Path_357245-7" data-name="Path 357245" d="M276.407,389.11l-1.115-.3-10.826-2.9,2.9,10.825.3,1.115.685,2.555,4.418-4.418,1.414-1.414,4.775-4.774Zm-2.927,4.753-1.414,1.414-3.194,3.194-.386-1.44-.3-1.115-2.306-8.594,8.594,2.306,1.115.3,1.44.386Z" fill="#d8d8d8"/>
      </g>
      <g id="icon_tip_pickup-8" data-name="icon tip pickup" transform="translate(414.454 -167.922) rotate(93)">
        <g id="Group_899-8" data-name="Group 899">
          <path id="Path_357242-8" data-name="Path 357242" d="M260.163,384.221a2.5,2.5,0,1,1,2.5-2.5A2.5,2.5,0,0,1,260.163,384.221Z" fill="#d8d8d8"/>
        </g>
        <path id="Path_357244-8" data-name="Path 357244" d="M266.356,397.747l-3.668-13.262,13.262,3.668-.658.658,1.115.3,1.464-1.464-16.617-4.6,4.6,16.617,1.82-1.82-.3-1.115Z" fill="#d8d8d8"/>
        <rect id="Rectangle_38377-8" data-name="Rectangle 38377" width="2" height="5.209" transform="translate(272.773 395.984) rotate(-45)" fill="#d8d8d8"/>
        <path id="Path_357245-8" data-name="Path 357245" d="M276.407,389.11l-1.115-.3-10.826-2.9,2.9,10.825.3,1.115.685,2.555,4.418-4.418,1.414-1.414,4.775-4.774Zm-2.927,4.753-1.414,1.414-3.194,3.194-.386-1.44-.3-1.115-2.306-8.594,8.594,2.306,1.115.3,1.44.386Z" fill="#d8d8d8"/>
      </g>
      <g id="icon_tip_pickup-9" data-name="icon tip pickup" transform="translate(527.846 -226.738) rotate(87)">
        <g id="Group_899-9" data-name="Group 899">
          <path id="Path_357242-9" data-name="Path 357242" d="M260.163,384.221a2.5,2.5,0,1,1,2.5-2.5A2.5,2.5,0,0,1,260.163,384.221Z" fill="#d8d8d8"/>
        </g>
        <path id="Path_357244-9" data-name="Path 357244" d="M266.356,397.747l-3.668-13.262,13.262,3.668-.658.658,1.115.3,1.464-1.464-16.617-4.6,4.6,16.617,1.82-1.82-.3-1.115Z" fill="#d8d8d8"/>
        <rect id="Rectangle_38377-9" data-name="Rectangle 38377" width="2" height="5.209" transform="translate(272.773 395.984) rotate(-45)" fill="#d8d8d8"/>
        <path id="Path_357245-9" data-name="Path 357245" d="M276.407,389.11l-1.115-.3-10.826-2.9,2.9,10.825.3,1.115.685,2.555,4.418-4.418,1.414-1.414,4.775-4.774Zm-2.927,4.753-1.414,1.414-3.194,3.194-.386-1.44-.3-1.115-2.306-8.594,8.594,2.306,1.115.3,1.44.386Z" fill="#d8d8d8"/>
      </g>
      <g id="icon_tip_pickup-10" data-name="icon tip pickup" transform="matrix(-0.438, 0.899, -0.899, -0.438, 589.62, -53.668)">
        <g id="Group_899-10" data-name="Group 899">
          <path id="Path_357242-10" data-name="Path 357242" d="M260.163,384.221a2.5,2.5,0,1,1,2.5-2.5A2.5,2.5,0,0,1,260.163,384.221Z" fill="#d8d8d8"/>
        </g>
        <path id="Path_357244-10" data-name="Path 357244" d="M266.356,397.747l-3.668-13.262,13.262,3.668-.658.658,1.115.3,1.464-1.464-16.617-4.6,4.6,16.617,1.82-1.82-.3-1.115Z" fill="#d8d8d8"/>
        <rect id="Rectangle_38377-10" data-name="Rectangle 38377" width="2" height="5.209" transform="translate(272.773 395.984) rotate(-45)" fill="#d8d8d8"/>
        <path id="Path_357245-10" data-name="Path 357245" d="M276.407,389.11l-1.115-.3-10.826-2.9,2.9,10.825.3,1.115.685,2.555,4.418-4.418,1.414-1.414,4.775-4.774Zm-2.927,4.753-1.414,1.414-3.194,3.194-.386-1.44-.3-1.115-2.306-8.594,8.594,2.306,1.115.3,1.44.386Z" fill="#d8d8d8"/>
      </g>
    </g>
    <g id="Group_830-3" data-name="Group 830" transform="translate(394 -2.393)">
      <g id="icon_tip_pickup-11" data-name="icon tip pickup" transform="translate(-189.999 -330.794)">
        <g id="Group_899-11" data-name="Group 899">
          <path id="Path_357242-11" data-name="Path 357242" d="M260.163,384.221a2.5,2.5,0,1,1,2.5-2.5A2.5,2.5,0,0,1,260.163,384.221Z" fill="#d8d8d8"/>
        </g>
        <path id="Path_357244-11" data-name="Path 357244" d="M266.356,397.747l-3.668-13.262,13.262,3.668-.658.658,1.115.3,1.464-1.464-16.617-4.6,4.6,16.617,1.82-1.82-.3-1.115Z" fill="#d8d8d8"/>
        <rect id="Rectangle_38377-11" data-name="Rectangle 38377" width="2" height="5.209" transform="translate(272.773 395.984) rotate(-45)" fill="#d8d8d8"/>
        <path id="Path_357245-11" data-name="Path 357245" d="M276.407,389.11l-1.115-.3-10.826-2.9,2.9,10.825.3,1.115.685,2.555,4.418-4.418,1.414-1.414,4.775-4.774Zm-2.927,4.753-1.414,1.414-3.194,3.194-.386-1.44-.3-1.115-2.306-8.594,8.594,2.306,1.115.3,1.44.386Z" fill="#d8d8d8"/>
      </g>
      <g id="icon_tip_pickup-12" data-name="icon tip pickup" transform="translate(-414.83 191.66) rotate(-76)">
        <g id="Group_899-12" data-name="Group 899">
          <path id="Path_357242-12" data-name="Path 357242" d="M260.163,384.221a2.5,2.5,0,1,1,2.5-2.5A2.5,2.5,0,0,1,260.163,384.221Z" fill="#d8d8d8"/>
        </g>
        <path id="Path_357244-12" data-name="Path 357244" d="M266.356,397.747l-3.668-13.262,13.262,3.668-.658.658,1.115.3,1.464-1.464-16.617-4.6,4.6,16.617,1.82-1.82-.3-1.115Z" fill="#d8d8d8"/>
        <rect id="Rectangle_38377-12" data-name="Rectangle 38377" width="2" height="5.209" transform="translate(272.773 395.984) rotate(-45)" fill="#d8d8d8"/>
        <path id="Path_357245-12" data-name="Path 357245" d="M276.407,389.11l-1.115-.3-10.826-2.9,2.9,10.825.3,1.115.685,2.555,4.418-4.418,1.414-1.414,4.775-4.774Zm-2.927,4.753-1.414,1.414-3.194,3.194-.386-1.44-.3-1.115-2.306-8.594,8.594,2.306,1.115.3,1.44.386Z" fill="#d8d8d8"/>
      </g>
      <g id="icon_tip_pickup-13" data-name="icon tip pickup" transform="translate(414.454 -167.922) rotate(93)">
        <g id="Group_899-13" data-name="Group 899">
          <path id="Path_357242-13" data-name="Path 357242" d="M260.163,384.221a2.5,2.5,0,1,1,2.5-2.5A2.5,2.5,0,0,1,260.163,384.221Z" fill="#d8d8d8"/>
        </g>
        <path id="Path_357244-13" data-name="Path 357244" d="M266.356,397.747l-3.668-13.262,13.262,3.668-.658.658,1.115.3,1.464-1.464-16.617-4.6,4.6,16.617,1.82-1.82-.3-1.115Z" fill="#d8d8d8"/>
        <rect id="Rectangle_38377-13" data-name="Rectangle 38377" width="2" height="5.209" transform="translate(272.773 395.984) rotate(-45)" fill="#d8d8d8"/>
        <path id="Path_357245-13" data-name="Path 357245" d="M276.407,389.11l-1.115-.3-10.826-2.9,2.9,10.825.3,1.115.685,2.555,4.418-4.418,1.414-1.414,4.775-4.774Zm-2.927,4.753-1.414,1.414-3.194,3.194-.386-1.44-.3-1.115-2.306-8.594,8.594,2.306,1.115.3,1.44.386Z" fill="#d8d8d8"/>
      </g>
      <g id="icon_tip_pickup-14" data-name="icon tip pickup" transform="translate(527.846 -226.738) rotate(87)">
        <g id="Group_899-14" data-name="Group 899">
          <path id="Path_357242-14" data-name="Path 357242" d="M260.163,384.221a2.5,2.5,0,1,1,2.5-2.5A2.5,2.5,0,0,1,260.163,384.221Z" fill="#d8d8d8"/>
        </g>
        <path id="Path_357244-14" data-name="Path 357244" d="M266.356,397.747l-3.668-13.262,13.262,3.668-.658.658,1.115.3,1.464-1.464-16.617-4.6,4.6,16.617,1.82-1.82-.3-1.115Z" fill="#d8d8d8"/>
        <rect id="Rectangle_38377-14" data-name="Rectangle 38377" width="2" height="5.209" transform="translate(272.773 395.984) rotate(-45)" fill="#d8d8d8"/>
        <path id="Path_357245-14" data-name="Path 357245" d="M276.407,389.11l-1.115-.3-10.826-2.9,2.9,10.825.3,1.115.685,2.555,4.418-4.418,1.414-1.414,4.775-4.774Zm-2.927,4.753-1.414,1.414-3.194,3.194-.386-1.44-.3-1.115-2.306-8.594,8.594,2.306,1.115.3,1.44.386Z" fill="#d8d8d8"/>
      </g>
      <g id="icon_tip_pickup-15" data-name="icon tip pickup" transform="matrix(-0.438, 0.899, -0.899, -0.438, 589.62, -53.668)">
        <g id="Group_899-15" data-name="Group 899">
          <path id="Path_357242-15" data-name="Path 357242" d="M260.163,384.221a2.5,2.5,0,1,1,2.5-2.5A2.5,2.5,0,0,1,260.163,384.221Z" fill="#d8d8d8"/>
        </g>
        <path id="Path_357244-15" data-name="Path 357244" d="M266.356,397.747l-3.668-13.262,13.262,3.668-.658.658,1.115.3,1.464-1.464-16.617-4.6,4.6,16.617,1.82-1.82-.3-1.115Z" fill="#d8d8d8"/>
        <rect id="Rectangle_38377-15" data-name="Rectangle 38377" width="2" height="5.209" transform="translate(272.773 395.984) rotate(-45)" fill="#d8d8d8"/>
        <path id="Path_357245-15" data-name="Path 357245" d="M276.407,389.11l-1.115-.3-10.826-2.9,2.9,10.825.3,1.115.685,2.555,4.418-4.418,1.414-1.414,4.775-4.774Zm-2.927,4.753-1.414,1.414-3.194,3.194-.386-1.44-.3-1.115-2.306-8.594,8.594,2.306,1.115.3,1.44.386Z" fill="#d8d8d8"/>
      </g>
    </g>
    <g id="Group_830-4" data-name="Group 830" transform="translate(591 -2.393)">
      <g id="icon_tip_pickup-16" data-name="icon tip pickup" transform="translate(-189.999 -330.794)">
        <g id="Group_899-16" data-name="Group 899">
          <path id="Path_357242-16" data-name="Path 357242" d="M260.163,384.221a2.5,2.5,0,1,1,2.5-2.5A2.5,2.5,0,0,1,260.163,384.221Z" fill="#d8d8d8"/>
        </g>
        <path id="Path_357244-16" data-name="Path 357244" d="M266.356,397.747l-3.668-13.262,13.262,3.668-.658.658,1.115.3,1.464-1.464-16.617-4.6,4.6,16.617,1.82-1.82-.3-1.115Z" fill="#d8d8d8"/>
        <rect id="Rectangle_38377-16" data-name="Rectangle 38377" width="2" height="5.209" transform="translate(272.773 395.984) rotate(-45)" fill="#d8d8d8"/>
        <path id="Path_357245-16" data-name="Path 357245" d="M276.407,389.11l-1.115-.3-10.826-2.9,2.9,10.825.3,1.115.685,2.555,4.418-4.418,1.414-1.414,4.775-4.774Zm-2.927,4.753-1.414,1.414-3.194,3.194-.386-1.44-.3-1.115-2.306-8.594,8.594,2.306,1.115.3,1.44.386Z" fill="#d8d8d8"/>
      </g>
      <g id="icon_tip_pickup-17" data-name="icon tip pickup" transform="translate(-414.83 191.66) rotate(-76)">
        <g id="Group_899-17" data-name="Group 899">
          <path id="Path_357242-17" data-name="Path 357242" d="M260.163,384.221a2.5,2.5,0,1,1,2.5-2.5A2.5,2.5,0,0,1,260.163,384.221Z" fill="#d8d8d8"/>
        </g>
        <path id="Path_357244-17" data-name="Path 357244" d="M266.356,397.747l-3.668-13.262,13.262,3.668-.658.658,1.115.3,1.464-1.464-16.617-4.6,4.6,16.617,1.82-1.82-.3-1.115Z" fill="#d8d8d8"/>
        <rect id="Rectangle_38377-17" data-name="Rectangle 38377" width="2" height="5.209" transform="translate(272.773 395.984) rotate(-45)" fill="#d8d8d8"/>
        <path id="Path_357245-17" data-name="Path 357245" d="M276.407,389.11l-1.115-.3-10.826-2.9,2.9,10.825.3,1.115.685,2.555,4.418-4.418,1.414-1.414,4.775-4.774Zm-2.927,4.753-1.414,1.414-3.194,3.194-.386-1.44-.3-1.115-2.306-8.594,8.594,2.306,1.115.3,1.44.386Z" fill="#d8d8d8"/>
      </g>
      <g id="icon_tip_pickup-18" data-name="icon tip pickup" transform="translate(414.454 -167.922) rotate(93)">
        <g id="Group_899-18" data-name="Group 899">
          <path id="Path_357242-18" data-name="Path 357242" d="M260.163,384.221a2.5,2.5,0,1,1,2.5-2.5A2.5,2.5,0,0,1,260.163,384.221Z" fill="#d8d8d8"/>
        </g>
        <path id="Path_357244-18" data-name="Path 357244" d="M266.356,397.747l-3.668-13.262,13.262,3.668-.658.658,1.115.3,1.464-1.464-16.617-4.6,4.6,16.617,1.82-1.82-.3-1.115Z" fill="#d8d8d8"/>
        <rect id="Rectangle_38377-18" data-name="Rectangle 38377" width="2" height="5.209" transform="translate(272.773 395.984) rotate(-45)" fill="#d8d8d8"/>
        <path id="Path_357245-18" data-name="Path 357245" d="M276.407,389.11l-1.115-.3-10.826-2.9,2.9,10.825.3,1.115.685,2.555,4.418-4.418,1.414-1.414,4.775-4.774Zm-2.927,4.753-1.414,1.414-3.194,3.194-.386-1.44-.3-1.115-2.306-8.594,8.594,2.306,1.115.3,1.44.386Z" fill="#d8d8d8"/>
      </g>
      <g id="icon_tip_pickup-19" data-name="icon tip pickup" transform="translate(527.846 -226.738) rotate(87)">
        <g id="Group_899-19" data-name="Group 899">
          <path id="Path_357242-19" data-name="Path 357242" d="M260.163,384.221a2.5,2.5,0,1,1,2.5-2.5A2.5,2.5,0,0,1,260.163,384.221Z" fill="#d8d8d8"/>
        </g>
        <path id="Path_357244-19" data-name="Path 357244" d="M266.356,397.747l-3.668-13.262,13.262,3.668-.658.658,1.115.3,1.464-1.464-16.617-4.6,4.6,16.617,1.82-1.82-.3-1.115Z" fill="#d8d8d8"/>
        <rect id="Rectangle_38377-19" data-name="Rectangle 38377" width="2" height="5.209" transform="translate(272.773 395.984) rotate(-45)" fill="#d8d8d8"/>
        <path id="Path_357245-19" data-name="Path 357245" d="M276.407,389.11l-1.115-.3-10.826-2.9,2.9,10.825.3,1.115.685,2.555,4.418-4.418,1.414-1.414,4.775-4.774Zm-2.927,4.753-1.414,1.414-3.194,3.194-.386-1.44-.3-1.115-2.306-8.594,8.594,2.306,1.115.3,1.44.386Z" fill="#d8d8d8"/>
      </g>
      <g id="icon_tip_pickup-20" data-name="icon tip pickup" transform="matrix(-0.438, 0.899, -0.899, -0.438, 589.62, -53.668)">
        <g id="Group_899-20" data-name="Group 899">
          <path id="Path_357242-20" data-name="Path 357242" d="M260.163,384.221a2.5,2.5,0,1,1,2.5-2.5A2.5,2.5,0,0,1,260.163,384.221Z" fill="#d8d8d8"/>
        </g>
        <path id="Path_357244-20" data-name="Path 357244" d="M266.356,397.747l-3.668-13.262,13.262,3.668-.658.658,1.115.3,1.464-1.464-16.617-4.6,4.6,16.617,1.82-1.82-.3-1.115Z" fill="#d8d8d8"/>
        <rect id="Rectangle_38377-20" data-name="Rectangle 38377" width="2" height="5.209" transform="translate(272.773 395.984) rotate(-45)" fill="#d8d8d8"/>
        <path id="Path_357245-20" data-name="Path 357245" d="M276.407,389.11l-1.115-.3-10.826-2.9,2.9,10.825.3,1.115.685,2.555,4.418-4.418,1.414-1.414,4.775-4.774Zm-2.927,4.753-1.414,1.414-3.194,3.194-.386-1.44-.3-1.115-2.306-8.594,8.594,2.306,1.115.3,1.44.386Z" fill="#d8d8d8"/>
      </g>
    </g>
    <g id="Group_830-5" data-name="Group 830" transform="translate(788 -2.393)">
      <g id="icon_tip_pickup-21" data-name="icon tip pickup" transform="translate(-189.999 -330.794)">
        <g id="Group_899-21" data-name="Group 899">
          <path id="Path_357242-21" data-name="Path 357242" d="M260.163,384.221a2.5,2.5,0,1,1,2.5-2.5A2.5,2.5,0,0,1,260.163,384.221Z" fill="#d8d8d8"/>
        </g>
        <path id="Path_357244-21" data-name="Path 357244" d="M266.356,397.747l-3.668-13.262,13.262,3.668-.658.658,1.115.3,1.464-1.464-16.617-4.6,4.6,16.617,1.82-1.82-.3-1.115Z" fill="#d8d8d8"/>
        <rect id="Rectangle_38377-21" data-name="Rectangle 38377" width="2" height="5.209" transform="translate(272.773 395.984) rotate(-45)" fill="#d8d8d8"/>
        <path id="Path_357245-21" data-name="Path 357245" d="M276.407,389.11l-1.115-.3-10.826-2.9,2.9,10.825.3,1.115.685,2.555,4.418-4.418,1.414-1.414,4.775-4.774Zm-2.927,4.753-1.414,1.414-3.194,3.194-.386-1.44-.3-1.115-2.306-8.594,8.594,2.306,1.115.3,1.44.386Z" fill="#d8d8d8"/>
      </g>
      <g id="icon_tip_pickup-22" data-name="icon tip pickup" transform="translate(-414.83 191.66) rotate(-76)">
        <g id="Group_899-22" data-name="Group 899">
          <path id="Path_357242-22" data-name="Path 357242" d="M260.163,384.221a2.5,2.5,0,1,1,2.5-2.5A2.5,2.5,0,0,1,260.163,384.221Z" fill="#d8d8d8"/>
        </g>
        <path id="Path_357244-22" data-name="Path 357244" d="M266.356,397.747l-3.668-13.262,13.262,3.668-.658.658,1.115.3,1.464-1.464-16.617-4.6,4.6,16.617,1.82-1.82-.3-1.115Z" fill="#d8d8d8"/>
        <rect id="Rectangle_38377-22" data-name="Rectangle 38377" width="2" height="5.209" transform="translate(272.773 395.984) rotate(-45)" fill="#d8d8d8"/>
        <path id="Path_357245-22" data-name="Path 357245" d="M276.407,389.11l-1.115-.3-10.826-2.9,2.9,10.825.3,1.115.685,2.555,4.418-4.418,1.414-1.414,4.775-4.774Zm-2.927,4.753-1.414,1.414-3.194,3.194-.386-1.44-.3-1.115-2.306-8.594,8.594,2.306,1.115.3,1.44.386Z" fill="#d8d8d8"/>
      </g>
      <g id="icon_tip_pickup-23" data-name="icon tip pickup" transform="translate(414.454 -167.922) rotate(93)">
        <g id="Group_899-23" data-name="Group 899">
          <path id="Path_357242-23" data-name="Path 357242" d="M260.163,384.221a2.5,2.5,0,1,1,2.5-2.5A2.5,2.5,0,0,1,260.163,384.221Z" fill="#d8d8d8"/>
        </g>
        <path id="Path_357244-23" data-name="Path 357244" d="M266.356,397.747l-3.668-13.262,13.262,3.668-.658.658,1.115.3,1.464-1.464-16.617-4.6,4.6,16.617,1.82-1.82-.3-1.115Z" fill="#d8d8d8"/>
        <rect id="Rectangle_38377-23" data-name="Rectangle 38377" width="2" height="5.209" transform="translate(272.773 395.984) rotate(-45)" fill="#d8d8d8"/>
        <path id="Path_357245-23" data-name="Path 357245" d="M276.407,389.11l-1.115-.3-10.826-2.9,2.9,10.825.3,1.115.685,2.555,4.418-4.418,1.414-1.414,4.775-4.774Zm-2.927,4.753-1.414,1.414-3.194,3.194-.386-1.44-.3-1.115-2.306-8.594,8.594,2.306,1.115.3,1.44.386Z" fill="#d8d8d8"/>
      </g>
      <g id="icon_tip_pickup-24" data-name="icon tip pickup" transform="translate(527.846 -226.738) rotate(87)">
        <g id="Group_899-24" data-name="Group 899">
          <path id="Path_357242-24" data-name="Path 357242" d="M260.163,384.221a2.5,2.5,0,1,1,2.5-2.5A2.5,2.5,0,0,1,260.163,384.221Z" fill="#d8d8d8"/>
        </g>
        <path id="Path_357244-24" data-name="Path 357244" d="M266.356,397.747l-3.668-13.262,13.262,3.668-.658.658,1.115.3,1.464-1.464-16.617-4.6,4.6,16.617,1.82-1.82-.3-1.115Z" fill="#d8d8d8"/>
        <rect id="Rectangle_38377-24" data-name="Rectangle 38377" width="2" height="5.209" transform="translate(272.773 395.984) rotate(-45)" fill="#d8d8d8"/>
        <path id="Path_357245-24" data-name="Path 357245" d="M276.407,389.11l-1.115-.3-10.826-2.9,2.9,10.825.3,1.115.685,2.555,4.418-4.418,1.414-1.414,4.775-4.774Zm-2.927,4.753-1.414,1.414-3.194,3.194-.386-1.44-.3-1.115-2.306-8.594,8.594,2.306,1.115.3,1.44.386Z" fill="#d8d8d8"/>
      </g>
      <g id="icon_tip_pickup-25" data-name="icon tip pickup" transform="matrix(-0.438, 0.899, -0.899, -0.438, 589.62, -53.668)">
        <g id="Group_899-25" data-name="Group 899">
          <path id="Path_357242-25" data-name="Path 357242" d="M260.163,384.221a2.5,2.5,0,1,1,2.5-2.5A2.5,2.5,0,0,1,260.163,384.221Z" fill="#d8d8d8"/>
        </g>
        <path id="Path_357244-25" data-name="Path 357244" d="M266.356,397.747l-3.668-13.262,13.262,3.668-.658.658,1.115.3,1.464-1.464-16.617-4.6,4.6,16.617,1.82-1.82-.3-1.115Z" fill="#d8d8d8"/>
        <rect id="Rectangle_38377-25" data-name="Rectangle 38377" width="2" height="5.209" transform="translate(272.773 395.984) rotate(-45)" fill="#d8d8d8"/>
        <path id="Path_357245-25" data-name="Path 357245" d="M276.407,389.11l-1.115-.3-10.826-2.9,2.9,10.825.3,1.115.685,2.555,4.418-4.418,1.414-1.414,4.775-4.774Zm-2.927,4.753-1.414,1.414-3.194,3.194-.386-1.44-.3-1.115-2.306-8.594,8.594,2.306,1.115.3,1.44.386Z" fill="#d8d8d8"/>
      </g>
    </g>
    <g id="Group_830-6" data-name="Group 830" transform="translate(985 -2.393)">
      <g id="icon_tip_pickup-26" data-name="icon tip pickup" transform="translate(-189.999 -330.794)">
        <g id="Group_899-26" data-name="Group 899">
          <path id="Path_357242-26" data-name="Path 357242" d="M260.163,384.221a2.5,2.5,0,1,1,2.5-2.5A2.5,2.5,0,0,1,260.163,384.221Z" fill="#d8d8d8"/>
        </g>
        <path id="Path_357244-26" data-name="Path 357244" d="M266.356,397.747l-3.668-13.262,13.262,3.668-.658.658,1.115.3,1.464-1.464-16.617-4.6,4.6,16.617,1.82-1.82-.3-1.115Z" fill="#d8d8d8"/>
        <rect id="Rectangle_38377-26" data-name="Rectangle 38377" width="2" height="5.209" transform="translate(272.773 395.984) rotate(-45)" fill="#d8d8d8"/>
        <path id="Path_357245-26" data-name="Path 357245" d="M276.407,389.11l-1.115-.3-10.826-2.9,2.9,10.825.3,1.115.685,2.555,4.418-4.418,1.414-1.414,4.775-4.774Zm-2.927,4.753-1.414,1.414-3.194,3.194-.386-1.44-.3-1.115-2.306-8.594,8.594,2.306,1.115.3,1.44.386Z" fill="#d8d8d8"/>
      </g>
      <g id="icon_tip_pickup-27" data-name="icon tip pickup" transform="translate(-414.83 191.66) rotate(-76)">
        <g id="Group_899-27" data-name="Group 899">
          <path id="Path_357242-27" data-name="Path 357242" d="M260.163,384.221a2.5,2.5,0,1,1,2.5-2.5A2.5,2.5,0,0,1,260.163,384.221Z" fill="#d8d8d8"/>
        </g>
        <path id="Path_357244-27" data-name="Path 357244" d="M266.356,397.747l-3.668-13.262,13.262,3.668-.658.658,1.115.3,1.464-1.464-16.617-4.6,4.6,16.617,1.82-1.82-.3-1.115Z" fill="#d8d8d8"/>
        <rect id="Rectangle_38377-27" data-name="Rectangle 38377" width="2" height="5.209" transform="translate(272.773 395.984) rotate(-45)" fill="#d8d8d8"/>
        <path id="Path_357245-27" data-name="Path 357245" d="M276.407,389.11l-1.115-.3-10.826-2.9,2.9,10.825.3,1.115.685,2.555,4.418-4.418,1.414-1.414,4.775-4.774Zm-2.927,4.753-1.414,1.414-3.194,3.194-.386-1.44-.3-1.115-2.306-8.594,8.594,2.306,1.115.3,1.44.386Z" fill="#d8d8d8"/>
      </g>
      <g id="icon_tip_pickup-28" data-name="icon tip pickup" transform="translate(414.454 -167.922) rotate(93)">
        <g id="Group_899-28" data-name="Group 899">
          <path id="Path_357242-28" data-name="Path 357242" d="M260.163,384.221a2.5,2.5,0,1,1,2.5-2.5A2.5,2.5,0,0,1,260.163,384.221Z" fill="#d8d8d8"/>
        </g>
        <path id="Path_357244-28" data-name="Path 357244" d="M266.356,397.747l-3.668-13.262,13.262,3.668-.658.658,1.115.3,1.464-1.464-16.617-4.6,4.6,16.617,1.82-1.82-.3-1.115Z" fill="#d8d8d8"/>
        <rect id="Rectangle_38377-28" data-name="Rectangle 38377" width="2" height="5.209" transform="translate(272.773 395.984) rotate(-45)" fill="#d8d8d8"/>
        <path id="Path_357245-28" data-name="Path 357245" d="M276.407,389.11l-1.115-.3-10.826-2.9,2.9,10.825.3,1.115.685,2.555,4.418-4.418,1.414-1.414,4.775-4.774Zm-2.927,4.753-1.414,1.414-3.194,3.194-.386-1.44-.3-1.115-2.306-8.594,8.594,2.306,1.115.3,1.44.386Z" fill="#d8d8d8"/>
      </g>
      <g id="icon_tip_pickup-29" data-name="icon tip pickup" transform="translate(527.846 -226.738) rotate(87)">
        <g id="Group_899-29" data-name="Group 899">
          <path id="Path_357242-29" data-name="Path 357242" d="M260.163,384.221a2.5,2.5,0,1,1,2.5-2.5A2.5,2.5,0,0,1,260.163,384.221Z" fill="#d8d8d8"/>
        </g>
        <path id="Path_357244-29" data-name="Path 357244" d="M266.356,397.747l-3.668-13.262,13.262,3.668-.658.658,1.115.3,1.464-1.464-16.617-4.6,4.6,16.617,1.82-1.82-.3-1.115Z" fill="#d8d8d8"/>
        <rect id="Rectangle_38377-29" data-name="Rectangle 38377" width="2" height="5.209" transform="translate(272.773 395.984) rotate(-45)" fill="#d8d8d8"/>
        <path id="Path_357245-29" data-name="Path 357245" d="M276.407,389.11l-1.115-.3-10.826-2.9,2.9,10.825.3,1.115.685,2.555,4.418-4.418,1.414-1.414,4.775-4.774Zm-2.927,4.753-1.414,1.414-3.194,3.194-.386-1.44-.3-1.115-2.306-8.594,8.594,2.306,1.115.3,1.44.386Z" fill="#d8d8d8"/>
      </g>
      <g id="icon_tip_pickup-30" data-name="icon tip pickup" transform="matrix(-0.438, 0.899, -0.899, -0.438, 589.62, -53.668)">
        <g id="Group_899-30" data-name="Group 899">
          <path id="Path_357242-30" data-name="Path 357242" d="M260.163,384.221a2.5,2.5,0,1,1,2.5-2.5A2.5,2.5,0,0,1,260.163,384.221Z" fill="#d8d8d8"/>
        </g>
        <path id="Path_357244-30" data-name="Path 357244" d="M266.356,397.747l-3.668-13.262,13.262,3.668-.658.658,1.115.3,1.464-1.464-16.617-4.6,4.6,16.617,1.82-1.82-.3-1.115Z" fill="#d8d8d8"/>
        <rect id="Rectangle_38377-30" data-name="Rectangle 38377" width="2" height="5.209" transform="translate(272.773 395.984) rotate(-45)" fill="#d8d8d8"/>
        <path id="Path_357245-30" data-name="Path 357245" d="M276.407,389.11l-1.115-.3-10.826-2.9,2.9,10.825.3,1.115.685,2.555,4.418-4.418,1.414-1.414,4.775-4.774Zm-2.927,4.753-1.414,1.414-3.194,3.194-.386-1.44-.3-1.115-2.306-8.594,8.594,2.306,1.115.3,1.44.386Z" fill="#d8d8d8"/>
      </g>
    </g>
  </g>
</svg>
