<svg id="Component_131_1" data-name="Component 131 – 1" xmlns="http://www.w3.org/2000/svg" xmlns:xlink="http://www.w3.org/1999/xlink" width="1024" height="100.19" viewBox="0 0 1024 100.19">
  <defs>
    <clipPath id="clip-path">
      <rect width="1024" height="100.19" fill="none"/>
    </clipPath>
  </defs>
  <g id="Repeat_Grid_35" data-name="Repeat Grid 35" clip-path="url(#clip-path)">
    <g id="Group_860" data-name="Group 860">
      <g id="icon_tip_discard" data-name="icon  tip discard" transform="translate(1374.713 -937.206) rotate(74)">
        <g id="Group_905" data-name="Group 905" transform="translate(367.08 1198.51)">
          <g id="Group_903" data-name="Group 903">
            <path id="Path_357265" data-name="Path 357265" d="M236.42,384.49a2.5,2.5,0,1,1,2.5-2.5A2.5,2.5,0,0,1,236.42,384.49Z" fill="#d8d8d8"/>
          </g>
          <g id="Group_904" data-name="Group 904">
            <path id="Path_357266" data-name="Path 357266" d="M247.324,397.219l.1-.1-.157.045Z" fill="#d8d8d8"/>
            <path id="Path_357267" data-name="Path 357267" d="M241.113,402.017l-.792-2.864-.961.275,1.247,4.509,5.3-5.3-.707-.707Z" fill="#d8d8d8"/>
            <path id="Path_357268" data-name="Path 357268" d="M237.572,392.964l.492-1.973-.619-2.237,1.1.3.242-.971-2.777-.768Z" fill="#d8d8d8"/>
            <path id="Path_357269" data-name="Path 357269" d="M242.69,389.168l1.507,1.454,6.51,1.8-2.281,2.281.72.695,3.482-3.482Z" fill="#d8d8d8"/>
          </g>
          <path id="Path_357270" data-name="Path 357270" d="M247.324,397.219l-.056-.056-1.825.523-.374.107.133.133.707.707,5.3,5.3,1.414-1.414Z" fill="#d8d8d8"/>
          <path id="Path_357271" data-name="Path 357271" d="M249.146,395.4l-.72-.694-4.229-4.082-1.507-1.454-3.363-3.245-.54,2.165-.242.971-.481,1.932-.492,1.973-1.874,7.513,3.662-1.049.961-.275,4.749-1.36.374-.107,1.824-.523.158-.045,2.7-.773Zm-2.245.83-.441.127-2.2.63-4.207,1.2-.961.276-2.005.574,1.026-4.115.492-1.973.9-3.625.242-.971.128-.511.792.765,1.507,1.455,5.541,5.347.466.45Z" fill="#d8d8d8"/>
        </g>
      </g>
      <g id="icon_tip_discard-2" data-name="icon  tip discard" transform="translate(-571.116 -1564.293)">
        <g id="Group_905-2" data-name="Group 905" transform="translate(367.08 1198.51)">
          <g id="Group_903-2" data-name="Group 903">
            <path id="Path_357265-2" data-name="Path 357265" d="M236.42,384.49a2.5,2.5,0,1,1,2.5-2.5A2.5,2.5,0,0,1,236.42,384.49Z" fill="#d8d8d8"/>
          </g>
          <g id="Group_904-2" data-name="Group 904">
            <path id="Path_357266-2" data-name="Path 357266" d="M247.324,397.219l.1-.1-.157.045Z" fill="#d8d8d8"/>
            <path id="Path_357267-2" data-name="Path 357267" d="M241.113,402.017l-.792-2.864-.961.275,1.247,4.509,5.3-5.3-.707-.707Z" fill="#d8d8d8"/>
            <path id="Path_357268-2" data-name="Path 357268" d="M237.572,392.964l.492-1.973-.619-2.237,1.1.3.242-.971-2.777-.768Z" fill="#d8d8d8"/>
            <path id="Path_357269-2" data-name="Path 357269" d="M242.69,389.168l1.507,1.454,6.51,1.8-2.281,2.281.72.695,3.482-3.482Z" fill="#d8d8d8"/>
          </g>
          <path id="Path_357270-2" data-name="Path 357270" d="M247.324,397.219l-.056-.056-1.825.523-.374.107.133.133.707.707,5.3,5.3,1.414-1.414Z" fill="#d8d8d8"/>
          <path id="Path_357271-2" data-name="Path 357271" d="M249.146,395.4l-.72-.694-4.229-4.082-1.507-1.454-3.363-3.245-.54,2.165-.242.971-.481,1.932-.492,1.973-1.874,7.513,3.662-1.049.961-.275,4.749-1.36.374-.107,1.824-.523.158-.045,2.7-.773Zm-2.245.83-.441.127-2.2.63-4.207,1.2-.961.276-2.005.574,1.026-4.115.492-1.973.9-3.625.242-.971.128-.511.792.765,1.507,1.455,5.541,5.347.466.45Z" fill="#d8d8d8"/>
        </g>
      </g>
      <g id="icon_tip_discard-3" data-name="icon  tip discard" transform="translate(1635.471 -629.842) rotate(87)">
        <g id="Group_905-3" data-name="Group 905" transform="translate(367.08 1198.51)">
          <g id="Group_903-3" data-name="Group 903">
            <path id="Path_357265-3" data-name="Path 357265" d="M236.42,384.49a2.5,2.5,0,1,1,2.5-2.5A2.5,2.5,0,0,1,236.42,384.49Z" fill="#d8d8d8"/>
          </g>
          <g id="Group_904-3" data-name="Group 904">
            <path id="Path_357266-3" data-name="Path 357266" d="M247.324,397.219l.1-.1-.157.045Z" fill="#d8d8d8"/>
            <path id="Path_357267-3" data-name="Path 357267" d="M241.113,402.017l-.792-2.864-.961.275,1.247,4.509,5.3-5.3-.707-.707Z" fill="#d8d8d8"/>
            <path id="Path_357268-3" data-name="Path 357268" d="M237.572,392.964l.492-1.973-.619-2.237,1.1.3.242-.971-2.777-.768Z" fill="#d8d8d8"/>
            <path id="Path_357269-3" data-name="Path 357269" d="M242.69,389.168l1.507,1.454,6.51,1.8-2.281,2.281.72.695,3.482-3.482Z" fill="#d8d8d8"/>
          </g>
          <path id="Path_357270-3" data-name="Path 357270" d="M247.324,397.219l-.056-.056-1.825.523-.374.107.133.133.707.707,5.3,5.3,1.414-1.414Z" fill="#d8d8d8"/>
          <path id="Path_357271-3" data-name="Path 357271" d="M249.146,395.4l-.72-.694-4.229-4.082-1.507-1.454-3.363-3.245-.54,2.165-.242.971-.481,1.932-.492,1.973-1.874,7.513,3.662-1.049.961-.275,4.749-1.36.374-.107,1.824-.523.158-.045,2.7-.773Zm-2.245.83-.441.127-2.2.63-4.207,1.2-.961.276-2.005.574,1.026-4.115.492-1.973.9-3.625.242-.971.128-.511.792.765,1.507,1.455,5.541,5.347.466.45Z" fill="#d8d8d8"/>
        </g>
      </g>
      <g id="icon_tip_discard-4" data-name="icon  tip discard" transform="translate(-28.813 1711.932) rotate(-154)">
        <g id="Group_905-4" data-name="Group 905" transform="translate(367.08 1198.51)">
          <g id="Group_903-4" data-name="Group 903">
            <path id="Path_357265-4" data-name="Path 357265" d="M236.42,384.49a2.5,2.5,0,1,1,2.5-2.5A2.5,2.5,0,0,1,236.42,384.49Z" fill="#d8d8d8"/>
          </g>
          <g id="Group_904-4" data-name="Group 904">
            <path id="Path_357266-4" data-name="Path 357266" d="M247.324,397.219l.1-.1-.157.045Z" fill="#d8d8d8"/>
            <path id="Path_357267-4" data-name="Path 357267" d="M241.113,402.017l-.792-2.864-.961.275,1.247,4.509,5.3-5.3-.707-.707Z" fill="#d8d8d8"/>
            <path id="Path_357268-4" data-name="Path 357268" d="M237.572,392.964l.492-1.973-.619-2.237,1.1.3.242-.971-2.777-.768Z" fill="#d8d8d8"/>
            <path id="Path_357269-4" data-name="Path 357269" d="M242.69,389.168l1.507,1.454,6.51,1.8-2.281,2.281.72.695,3.482-3.482Z" fill="#d8d8d8"/>
          </g>
          <path id="Path_357270-4" data-name="Path 357270" d="M247.324,397.219l-.056-.056-1.825.523-.374.107.133.133.707.707,5.3,5.3,1.414-1.414Z" fill="#d8d8d8"/>
          <path id="Path_357271-4" data-name="Path 357271" d="M249.146,395.4l-.72-.694-4.229-4.082-1.507-1.454-3.363-3.245-.54,2.165-.242.971-.481,1.932-.492,1.973-1.874,7.513,3.662-1.049.961-.275,4.749-1.36.374-.107,1.824-.523.158-.045,2.7-.773Zm-2.245.83-.441.127-2.2.63-4.207,1.2-.961.276-2.005.574,1.026-4.115.492-1.973.9-3.625.242-.971.128-.511.792.765,1.507,1.455,5.541,5.347.466.45Z" fill="#d8d8d8"/>
        </g>
      </g>
      <g id="icon_tip_discard-5" data-name="icon  tip discard" transform="translate(1495.494 -1029.626) rotate(72)">
        <g id="Group_905-5" data-name="Group 905" transform="translate(367.08 1198.51)">
          <g id="Group_903-5" data-name="Group 903">
            <path id="Path_357265-5" data-name="Path 357265" d="M236.42,384.49a2.5,2.5,0,1,1,2.5-2.5A2.5,2.5,0,0,1,236.42,384.49Z" fill="#d8d8d8"/>
          </g>
          <g id="Group_904-5" data-name="Group 904">
            <path id="Path_357266-5" data-name="Path 357266" d="M247.324,397.219l.1-.1-.157.045Z" fill="#d8d8d8"/>
            <path id="Path_357267-5" data-name="Path 357267" d="M241.113,402.017l-.792-2.864-.961.275,1.247,4.509,5.3-5.3-.707-.707Z" fill="#d8d8d8"/>
            <path id="Path_357268-5" data-name="Path 357268" d="M237.572,392.964l.492-1.973-.619-2.237,1.1.3.242-.971-2.777-.768Z" fill="#d8d8d8"/>
            <path id="Path_357269-5" data-name="Path 357269" d="M242.69,389.168l1.507,1.454,6.51,1.8-2.281,2.281.72.695,3.482-3.482Z" fill="#d8d8d8"/>
          </g>
          <path id="Path_357270-5" data-name="Path 357270" d="M247.324,397.219l-.056-.056-1.825.523-.374.107.133.133.707.707,5.3,5.3,1.414-1.414Z" fill="#d8d8d8"/>
          <path id="Path_357271-5" data-name="Path 357271" d="M249.146,395.4l-.72-.694-4.229-4.082-1.507-1.454-3.363-3.245-.54,2.165-.242.971-.481,1.932-.492,1.973-1.874,7.513,3.662-1.049.961-.275,4.749-1.36.374-.107,1.824-.523.158-.045,2.7-.773Zm-2.245.83-.441.127-2.2.63-4.207,1.2-.961.276-2.005.574,1.026-4.115.492-1.973.9-3.625.242-.971.128-.511.792.765,1.507,1.455,5.541,5.347.466.45Z" fill="#d8d8d8"/>
        </g>
      </g>
      <g id="icon_tip_discard-6" data-name="icon  tip discard" transform="translate(-127.679 -1602.926) rotate(12)">
        <g id="Group_905-6" data-name="Group 905" transform="translate(367.08 1198.51)">
          <g id="Group_903-6" data-name="Group 903">
            <path id="Path_357265-6" data-name="Path 357265" d="M236.42,384.49a2.5,2.5,0,1,1,2.5-2.5A2.5,2.5,0,0,1,236.42,384.49Z" fill="#d8d8d8"/>
          </g>
          <g id="Group_904-6" data-name="Group 904">
            <path id="Path_357266-6" data-name="Path 357266" d="M247.324,397.219l.1-.1-.157.045Z" fill="#d8d8d8"/>
            <path id="Path_357267-6" data-name="Path 357267" d="M241.113,402.017l-.792-2.864-.961.275,1.247,4.509,5.3-5.3-.707-.707Z" fill="#d8d8d8"/>
            <path id="Path_357268-6" data-name="Path 357268" d="M237.572,392.964l.492-1.973-.619-2.237,1.1.3.242-.971-2.777-.768Z" fill="#d8d8d8"/>
            <path id="Path_357269-6" data-name="Path 357269" d="M242.69,389.168l1.507,1.454,6.51,1.8-2.281,2.281.72.695,3.482-3.482Z" fill="#d8d8d8"/>
          </g>
          <path id="Path_357270-6" data-name="Path 357270" d="M247.324,397.219l-.056-.056-1.825.523-.374.107.133.133.707.707,5.3,5.3,1.414-1.414Z" fill="#d8d8d8"/>
          <path id="Path_357271-6" data-name="Path 357271" d="M249.146,395.4l-.72-.694-4.229-4.082-1.507-1.454-3.363-3.245-.54,2.165-.242.971-.481,1.932-.492,1.973-1.874,7.513,3.662-1.049.961-.275,4.749-1.36.374-.107,1.824-.523.158-.045,2.7-.773Zm-2.245.83-.441.127-2.2.63-4.207,1.2-.961.276-2.005.574,1.026-4.115.492-1.973.9-3.625.242-.971.128-.511.792.765,1.507,1.455,5.541,5.347.466.45Z" fill="#d8d8d8"/>
        </g>
      </g>
    </g>
    <g id="Group_860-2" data-name="Group 860" transform="translate(196)">
      <g id="icon_tip_discard-7" data-name="icon  tip discard" transform="translate(1374.713 -937.206) rotate(74)">
        <g id="Group_905-7" data-name="Group 905" transform="translate(367.08 1198.51)">
          <g id="Group_903-7" data-name="Group 903">
            <path id="Path_357265-7" data-name="Path 357265" d="M236.42,384.49a2.5,2.5,0,1,1,2.5-2.5A2.5,2.5,0,0,1,236.42,384.49Z" fill="#d8d8d8"/>
          </g>
          <g id="Group_904-7" data-name="Group 904">
            <path id="Path_357266-7" data-name="Path 357266" d="M247.324,397.219l.1-.1-.157.045Z" fill="#d8d8d8"/>
            <path id="Path_357267-7" data-name="Path 357267" d="M241.113,402.017l-.792-2.864-.961.275,1.247,4.509,5.3-5.3-.707-.707Z" fill="#d8d8d8"/>
            <path id="Path_357268-7" data-name="Path 357268" d="M237.572,392.964l.492-1.973-.619-2.237,1.1.3.242-.971-2.777-.768Z" fill="#d8d8d8"/>
            <path id="Path_357269-7" data-name="Path 357269" d="M242.69,389.168l1.507,1.454,6.51,1.8-2.281,2.281.72.695,3.482-3.482Z" fill="#d8d8d8"/>
          </g>
          <path id="Path_357270-7" data-name="Path 357270" d="M247.324,397.219l-.056-.056-1.825.523-.374.107.133.133.707.707,5.3,5.3,1.414-1.414Z" fill="#d8d8d8"/>
          <path id="Path_357271-7" data-name="Path 357271" d="M249.146,395.4l-.72-.694-4.229-4.082-1.507-1.454-3.363-3.245-.54,2.165-.242.971-.481,1.932-.492,1.973-1.874,7.513,3.662-1.049.961-.275,4.749-1.36.374-.107,1.824-.523.158-.045,2.7-.773Zm-2.245.83-.441.127-2.2.63-4.207,1.2-.961.276-2.005.574,1.026-4.115.492-1.973.9-3.625.242-.971.128-.511.792.765,1.507,1.455,5.541,5.347.466.45Z" fill="#d8d8d8"/>
        </g>
      </g>
      <g id="icon_tip_discard-8" data-name="icon  tip discard" transform="translate(-571.116 -1564.293)">
        <g id="Group_905-8" data-name="Group 905" transform="translate(367.08 1198.51)">
          <g id="Group_903-8" data-name="Group 903">
            <path id="Path_357265-8" data-name="Path 357265" d="M236.42,384.49a2.5,2.5,0,1,1,2.5-2.5A2.5,2.5,0,0,1,236.42,384.49Z" fill="#d8d8d8"/>
          </g>
          <g id="Group_904-8" data-name="Group 904">
            <path id="Path_357266-8" data-name="Path 357266" d="M247.324,397.219l.1-.1-.157.045Z" fill="#d8d8d8"/>
            <path id="Path_357267-8" data-name="Path 357267" d="M241.113,402.017l-.792-2.864-.961.275,1.247,4.509,5.3-5.3-.707-.707Z" fill="#d8d8d8"/>
            <path id="Path_357268-8" data-name="Path 357268" d="M237.572,392.964l.492-1.973-.619-2.237,1.1.3.242-.971-2.777-.768Z" fill="#d8d8d8"/>
            <path id="Path_357269-8" data-name="Path 357269" d="M242.69,389.168l1.507,1.454,6.51,1.8-2.281,2.281.72.695,3.482-3.482Z" fill="#d8d8d8"/>
          </g>
          <path id="Path_357270-8" data-name="Path 357270" d="M247.324,397.219l-.056-.056-1.825.523-.374.107.133.133.707.707,5.3,5.3,1.414-1.414Z" fill="#d8d8d8"/>
          <path id="Path_357271-8" data-name="Path 357271" d="M249.146,395.4l-.72-.694-4.229-4.082-1.507-1.454-3.363-3.245-.54,2.165-.242.971-.481,1.932-.492,1.973-1.874,7.513,3.662-1.049.961-.275,4.749-1.36.374-.107,1.824-.523.158-.045,2.7-.773Zm-2.245.83-.441.127-2.2.63-4.207,1.2-.961.276-2.005.574,1.026-4.115.492-1.973.9-3.625.242-.971.128-.511.792.765,1.507,1.455,5.541,5.347.466.45Z" fill="#d8d8d8"/>
        </g>
      </g>
      <g id="icon_tip_discard-9" data-name="icon  tip discard" transform="translate(1635.471 -629.842) rotate(87)">
        <g id="Group_905-9" data-name="Group 905" transform="translate(367.08 1198.51)">
          <g id="Group_903-9" data-name="Group 903">
            <path id="Path_357265-9" data-name="Path 357265" d="M236.42,384.49a2.5,2.5,0,1,1,2.5-2.5A2.5,2.5,0,0,1,236.42,384.49Z" fill="#d8d8d8"/>
          </g>
          <g id="Group_904-9" data-name="Group 904">
            <path id="Path_357266-9" data-name="Path 357266" d="M247.324,397.219l.1-.1-.157.045Z" fill="#d8d8d8"/>
            <path id="Path_357267-9" data-name="Path 357267" d="M241.113,402.017l-.792-2.864-.961.275,1.247,4.509,5.3-5.3-.707-.707Z" fill="#d8d8d8"/>
            <path id="Path_357268-9" data-name="Path 357268" d="M237.572,392.964l.492-1.973-.619-2.237,1.1.3.242-.971-2.777-.768Z" fill="#d8d8d8"/>
            <path id="Path_357269-9" data-name="Path 357269" d="M242.69,389.168l1.507,1.454,6.51,1.8-2.281,2.281.72.695,3.482-3.482Z" fill="#d8d8d8"/>
          </g>
          <path id="Path_357270-9" data-name="Path 357270" d="M247.324,397.219l-.056-.056-1.825.523-.374.107.133.133.707.707,5.3,5.3,1.414-1.414Z" fill="#d8d8d8"/>
          <path id="Path_357271-9" data-name="Path 357271" d="M249.146,395.4l-.72-.694-4.229-4.082-1.507-1.454-3.363-3.245-.54,2.165-.242.971-.481,1.932-.492,1.973-1.874,7.513,3.662-1.049.961-.275,4.749-1.36.374-.107,1.824-.523.158-.045,2.7-.773Zm-2.245.83-.441.127-2.2.63-4.207,1.2-.961.276-2.005.574,1.026-4.115.492-1.973.9-3.625.242-.971.128-.511.792.765,1.507,1.455,5.541,5.347.466.45Z" fill="#d8d8d8"/>
        </g>
      </g>
      <g id="icon_tip_discard-10" data-name="icon  tip discard" transform="translate(-28.813 1711.932) rotate(-154)">
        <g id="Group_905-10" data-name="Group 905" transform="translate(367.08 1198.51)">
          <g id="Group_903-10" data-name="Group 903">
            <path id="Path_357265-10" data-name="Path 357265" d="M236.42,384.49a2.5,2.5,0,1,1,2.5-2.5A2.5,2.5,0,0,1,236.42,384.49Z" fill="#d8d8d8"/>
          </g>
          <g id="Group_904-10" data-name="Group 904">
            <path id="Path_357266-10" data-name="Path 357266" d="M247.324,397.219l.1-.1-.157.045Z" fill="#d8d8d8"/>
            <path id="Path_357267-10" data-name="Path 357267" d="M241.113,402.017l-.792-2.864-.961.275,1.247,4.509,5.3-5.3-.707-.707Z" fill="#d8d8d8"/>
            <path id="Path_357268-10" data-name="Path 357268" d="M237.572,392.964l.492-1.973-.619-2.237,1.1.3.242-.971-2.777-.768Z" fill="#d8d8d8"/>
            <path id="Path_357269-10" data-name="Path 357269" d="M242.69,389.168l1.507,1.454,6.51,1.8-2.281,2.281.72.695,3.482-3.482Z" fill="#d8d8d8"/>
          </g>
          <path id="Path_357270-10" data-name="Path 357270" d="M247.324,397.219l-.056-.056-1.825.523-.374.107.133.133.707.707,5.3,5.3,1.414-1.414Z" fill="#d8d8d8"/>
          <path id="Path_357271-10" data-name="Path 357271" d="M249.146,395.4l-.72-.694-4.229-4.082-1.507-1.454-3.363-3.245-.54,2.165-.242.971-.481,1.932-.492,1.973-1.874,7.513,3.662-1.049.961-.275,4.749-1.36.374-.107,1.824-.523.158-.045,2.7-.773Zm-2.245.83-.441.127-2.2.63-4.207,1.2-.961.276-2.005.574,1.026-4.115.492-1.973.9-3.625.242-.971.128-.511.792.765,1.507,1.455,5.541,5.347.466.45Z" fill="#d8d8d8"/>
        </g>
      </g>
      <g id="icon_tip_discard-11" data-name="icon  tip discard" transform="translate(1495.494 -1029.626) rotate(72)">
        <g id="Group_905-11" data-name="Group 905" transform="translate(367.08 1198.51)">
          <g id="Group_903-11" data-name="Group 903">
            <path id="Path_357265-11" data-name="Path 357265" d="M236.42,384.49a2.5,2.5,0,1,1,2.5-2.5A2.5,2.5,0,0,1,236.42,384.49Z" fill="#d8d8d8"/>
          </g>
          <g id="Group_904-11" data-name="Group 904">
            <path id="Path_357266-11" data-name="Path 357266" d="M247.324,397.219l.1-.1-.157.045Z" fill="#d8d8d8"/>
            <path id="Path_357267-11" data-name="Path 357267" d="M241.113,402.017l-.792-2.864-.961.275,1.247,4.509,5.3-5.3-.707-.707Z" fill="#d8d8d8"/>
            <path id="Path_357268-11" data-name="Path 357268" d="M237.572,392.964l.492-1.973-.619-2.237,1.1.3.242-.971-2.777-.768Z" fill="#d8d8d8"/>
            <path id="Path_357269-11" data-name="Path 357269" d="M242.69,389.168l1.507,1.454,6.51,1.8-2.281,2.281.72.695,3.482-3.482Z" fill="#d8d8d8"/>
          </g>
          <path id="Path_357270-11" data-name="Path 357270" d="M247.324,397.219l-.056-.056-1.825.523-.374.107.133.133.707.707,5.3,5.3,1.414-1.414Z" fill="#d8d8d8"/>
          <path id="Path_357271-11" data-name="Path 357271" d="M249.146,395.4l-.72-.694-4.229-4.082-1.507-1.454-3.363-3.245-.54,2.165-.242.971-.481,1.932-.492,1.973-1.874,7.513,3.662-1.049.961-.275,4.749-1.36.374-.107,1.824-.523.158-.045,2.7-.773Zm-2.245.83-.441.127-2.2.63-4.207,1.2-.961.276-2.005.574,1.026-4.115.492-1.973.9-3.625.242-.971.128-.511.792.765,1.507,1.455,5.541,5.347.466.45Z" fill="#d8d8d8"/>
        </g>
      </g>
      <g id="icon_tip_discard-12" data-name="icon  tip discard" transform="translate(-127.679 -1602.926) rotate(12)">
        <g id="Group_905-12" data-name="Group 905" transform="translate(367.08 1198.51)">
          <g id="Group_903-12" data-name="Group 903">
            <path id="Path_357265-12" data-name="Path 357265" d="M236.42,384.49a2.5,2.5,0,1,1,2.5-2.5A2.5,2.5,0,0,1,236.42,384.49Z" fill="#d8d8d8"/>
          </g>
          <g id="Group_904-12" data-name="Group 904">
            <path id="Path_357266-12" data-name="Path 357266" d="M247.324,397.219l.1-.1-.157.045Z" fill="#d8d8d8"/>
            <path id="Path_357267-12" data-name="Path 357267" d="M241.113,402.017l-.792-2.864-.961.275,1.247,4.509,5.3-5.3-.707-.707Z" fill="#d8d8d8"/>
            <path id="Path_357268-12" data-name="Path 357268" d="M237.572,392.964l.492-1.973-.619-2.237,1.1.3.242-.971-2.777-.768Z" fill="#d8d8d8"/>
            <path id="Path_357269-12" data-name="Path 357269" d="M242.69,389.168l1.507,1.454,6.51,1.8-2.281,2.281.72.695,3.482-3.482Z" fill="#d8d8d8"/>
          </g>
          <path id="Path_357270-12" data-name="Path 357270" d="M247.324,397.219l-.056-.056-1.825.523-.374.107.133.133.707.707,5.3,5.3,1.414-1.414Z" fill="#d8d8d8"/>
          <path id="Path_357271-12" data-name="Path 357271" d="M249.146,395.4l-.72-.694-4.229-4.082-1.507-1.454-3.363-3.245-.54,2.165-.242.971-.481,1.932-.492,1.973-1.874,7.513,3.662-1.049.961-.275,4.749-1.36.374-.107,1.824-.523.158-.045,2.7-.773Zm-2.245.83-.441.127-2.2.63-4.207,1.2-.961.276-2.005.574,1.026-4.115.492-1.973.9-3.625.242-.971.128-.511.792.765,1.507,1.455,5.541,5.347.466.45Z" fill="#d8d8d8"/>
        </g>
      </g>
    </g>
    <g id="Group_860-3" data-name="Group 860" transform="translate(392)">
      <g id="icon_tip_discard-13" data-name="icon  tip discard" transform="translate(1374.713 -937.206) rotate(74)">
        <g id="Group_905-13" data-name="Group 905" transform="translate(367.08 1198.51)">
          <g id="Group_903-13" data-name="Group 903">
            <path id="Path_357265-13" data-name="Path 357265" d="M236.42,384.49a2.5,2.5,0,1,1,2.5-2.5A2.5,2.5,0,0,1,236.42,384.49Z" fill="#d8d8d8"/>
          </g>
          <g id="Group_904-13" data-name="Group 904">
            <path id="Path_357266-13" data-name="Path 357266" d="M247.324,397.219l.1-.1-.157.045Z" fill="#d8d8d8"/>
            <path id="Path_357267-13" data-name="Path 357267" d="M241.113,402.017l-.792-2.864-.961.275,1.247,4.509,5.3-5.3-.707-.707Z" fill="#d8d8d8"/>
            <path id="Path_357268-13" data-name="Path 357268" d="M237.572,392.964l.492-1.973-.619-2.237,1.1.3.242-.971-2.777-.768Z" fill="#d8d8d8"/>
            <path id="Path_357269-13" data-name="Path 357269" d="M242.69,389.168l1.507,1.454,6.51,1.8-2.281,2.281.72.695,3.482-3.482Z" fill="#d8d8d8"/>
          </g>
          <path id="Path_357270-13" data-name="Path 357270" d="M247.324,397.219l-.056-.056-1.825.523-.374.107.133.133.707.707,5.3,5.3,1.414-1.414Z" fill="#d8d8d8"/>
          <path id="Path_357271-13" data-name="Path 357271" d="M249.146,395.4l-.72-.694-4.229-4.082-1.507-1.454-3.363-3.245-.54,2.165-.242.971-.481,1.932-.492,1.973-1.874,7.513,3.662-1.049.961-.275,4.749-1.36.374-.107,1.824-.523.158-.045,2.7-.773Zm-2.245.83-.441.127-2.2.63-4.207,1.2-.961.276-2.005.574,1.026-4.115.492-1.973.9-3.625.242-.971.128-.511.792.765,1.507,1.455,5.541,5.347.466.45Z" fill="#d8d8d8"/>
        </g>
      </g>
      <g id="icon_tip_discard-14" data-name="icon  tip discard" transform="translate(-571.116 -1564.293)">
        <g id="Group_905-14" data-name="Group 905" transform="translate(367.08 1198.51)">
          <g id="Group_903-14" data-name="Group 903">
            <path id="Path_357265-14" data-name="Path 357265" d="M236.42,384.49a2.5,2.5,0,1,1,2.5-2.5A2.5,2.5,0,0,1,236.42,384.49Z" fill="#d8d8d8"/>
          </g>
          <g id="Group_904-14" data-name="Group 904">
            <path id="Path_357266-14" data-name="Path 357266" d="M247.324,397.219l.1-.1-.157.045Z" fill="#d8d8d8"/>
            <path id="Path_357267-14" data-name="Path 357267" d="M241.113,402.017l-.792-2.864-.961.275,1.247,4.509,5.3-5.3-.707-.707Z" fill="#d8d8d8"/>
            <path id="Path_357268-14" data-name="Path 357268" d="M237.572,392.964l.492-1.973-.619-2.237,1.1.3.242-.971-2.777-.768Z" fill="#d8d8d8"/>
            <path id="Path_357269-14" data-name="Path 357269" d="M242.69,389.168l1.507,1.454,6.51,1.8-2.281,2.281.72.695,3.482-3.482Z" fill="#d8d8d8"/>
          </g>
          <path id="Path_357270-14" data-name="Path 357270" d="M247.324,397.219l-.056-.056-1.825.523-.374.107.133.133.707.707,5.3,5.3,1.414-1.414Z" fill="#d8d8d8"/>
          <path id="Path_357271-14" data-name="Path 357271" d="M249.146,395.4l-.72-.694-4.229-4.082-1.507-1.454-3.363-3.245-.54,2.165-.242.971-.481,1.932-.492,1.973-1.874,7.513,3.662-1.049.961-.275,4.749-1.36.374-.107,1.824-.523.158-.045,2.7-.773Zm-2.245.83-.441.127-2.2.63-4.207,1.2-.961.276-2.005.574,1.026-4.115.492-1.973.9-3.625.242-.971.128-.511.792.765,1.507,1.455,5.541,5.347.466.45Z" fill="#d8d8d8"/>
        </g>
      </g>
      <g id="icon_tip_discard-15" data-name="icon  tip discard" transform="translate(1635.471 -629.842) rotate(87)">
        <g id="Group_905-15" data-name="Group 905" transform="translate(367.08 1198.51)">
          <g id="Group_903-15" data-name="Group 903">
            <path id="Path_357265-15" data-name="Path 357265" d="M236.42,384.49a2.5,2.5,0,1,1,2.5-2.5A2.5,2.5,0,0,1,236.42,384.49Z" fill="#d8d8d8"/>
          </g>
          <g id="Group_904-15" data-name="Group 904">
            <path id="Path_357266-15" data-name="Path 357266" d="M247.324,397.219l.1-.1-.157.045Z" fill="#d8d8d8"/>
            <path id="Path_357267-15" data-name="Path 357267" d="M241.113,402.017l-.792-2.864-.961.275,1.247,4.509,5.3-5.3-.707-.707Z" fill="#d8d8d8"/>
            <path id="Path_357268-15" data-name="Path 357268" d="M237.572,392.964l.492-1.973-.619-2.237,1.1.3.242-.971-2.777-.768Z" fill="#d8d8d8"/>
            <path id="Path_357269-15" data-name="Path 357269" d="M242.69,389.168l1.507,1.454,6.51,1.8-2.281,2.281.72.695,3.482-3.482Z" fill="#d8d8d8"/>
          </g>
          <path id="Path_357270-15" data-name="Path 357270" d="M247.324,397.219l-.056-.056-1.825.523-.374.107.133.133.707.707,5.3,5.3,1.414-1.414Z" fill="#d8d8d8"/>
          <path id="Path_357271-15" data-name="Path 357271" d="M249.146,395.4l-.72-.694-4.229-4.082-1.507-1.454-3.363-3.245-.54,2.165-.242.971-.481,1.932-.492,1.973-1.874,7.513,3.662-1.049.961-.275,4.749-1.36.374-.107,1.824-.523.158-.045,2.7-.773Zm-2.245.83-.441.127-2.2.63-4.207,1.2-.961.276-2.005.574,1.026-4.115.492-1.973.9-3.625.242-.971.128-.511.792.765,1.507,1.455,5.541,5.347.466.45Z" fill="#d8d8d8"/>
        </g>
      </g>
      <g id="icon_tip_discard-16" data-name="icon  tip discard" transform="translate(-28.813 1711.932) rotate(-154)">
        <g id="Group_905-16" data-name="Group 905" transform="translate(367.08 1198.51)">
          <g id="Group_903-16" data-name="Group 903">
            <path id="Path_357265-16" data-name="Path 357265" d="M236.42,384.49a2.5,2.5,0,1,1,2.5-2.5A2.5,2.5,0,0,1,236.42,384.49Z" fill="#d8d8d8"/>
          </g>
          <g id="Group_904-16" data-name="Group 904">
            <path id="Path_357266-16" data-name="Path 357266" d="M247.324,397.219l.1-.1-.157.045Z" fill="#d8d8d8"/>
            <path id="Path_357267-16" data-name="Path 357267" d="M241.113,402.017l-.792-2.864-.961.275,1.247,4.509,5.3-5.3-.707-.707Z" fill="#d8d8d8"/>
            <path id="Path_357268-16" data-name="Path 357268" d="M237.572,392.964l.492-1.973-.619-2.237,1.1.3.242-.971-2.777-.768Z" fill="#d8d8d8"/>
            <path id="Path_357269-16" data-name="Path 357269" d="M242.69,389.168l1.507,1.454,6.51,1.8-2.281,2.281.72.695,3.482-3.482Z" fill="#d8d8d8"/>
          </g>
          <path id="Path_357270-16" data-name="Path 357270" d="M247.324,397.219l-.056-.056-1.825.523-.374.107.133.133.707.707,5.3,5.3,1.414-1.414Z" fill="#d8d8d8"/>
          <path id="Path_357271-16" data-name="Path 357271" d="M249.146,395.4l-.72-.694-4.229-4.082-1.507-1.454-3.363-3.245-.54,2.165-.242.971-.481,1.932-.492,1.973-1.874,7.513,3.662-1.049.961-.275,4.749-1.36.374-.107,1.824-.523.158-.045,2.7-.773Zm-2.245.83-.441.127-2.2.63-4.207,1.2-.961.276-2.005.574,1.026-4.115.492-1.973.9-3.625.242-.971.128-.511.792.765,1.507,1.455,5.541,5.347.466.45Z" fill="#d8d8d8"/>
        </g>
      </g>
      <g id="icon_tip_discard-17" data-name="icon  tip discard" transform="translate(1495.494 -1029.626) rotate(72)">
        <g id="Group_905-17" data-name="Group 905" transform="translate(367.08 1198.51)">
          <g id="Group_903-17" data-name="Group 903">
            <path id="Path_357265-17" data-name="Path 357265" d="M236.42,384.49a2.5,2.5,0,1,1,2.5-2.5A2.5,2.5,0,0,1,236.42,384.49Z" fill="#d8d8d8"/>
          </g>
          <g id="Group_904-17" data-name="Group 904">
            <path id="Path_357266-17" data-name="Path 357266" d="M247.324,397.219l.1-.1-.157.045Z" fill="#d8d8d8"/>
            <path id="Path_357267-17" data-name="Path 357267" d="M241.113,402.017l-.792-2.864-.961.275,1.247,4.509,5.3-5.3-.707-.707Z" fill="#d8d8d8"/>
            <path id="Path_357268-17" data-name="Path 357268" d="M237.572,392.964l.492-1.973-.619-2.237,1.1.3.242-.971-2.777-.768Z" fill="#d8d8d8"/>
            <path id="Path_357269-17" data-name="Path 357269" d="M242.69,389.168l1.507,1.454,6.51,1.8-2.281,2.281.72.695,3.482-3.482Z" fill="#d8d8d8"/>
          </g>
          <path id="Path_357270-17" data-name="Path 357270" d="M247.324,397.219l-.056-.056-1.825.523-.374.107.133.133.707.707,5.3,5.3,1.414-1.414Z" fill="#d8d8d8"/>
          <path id="Path_357271-17" data-name="Path 357271" d="M249.146,395.4l-.72-.694-4.229-4.082-1.507-1.454-3.363-3.245-.54,2.165-.242.971-.481,1.932-.492,1.973-1.874,7.513,3.662-1.049.961-.275,4.749-1.36.374-.107,1.824-.523.158-.045,2.7-.773Zm-2.245.83-.441.127-2.2.63-4.207,1.2-.961.276-2.005.574,1.026-4.115.492-1.973.9-3.625.242-.971.128-.511.792.765,1.507,1.455,5.541,5.347.466.45Z" fill="#d8d8d8"/>
        </g>
      </g>
      <g id="icon_tip_discard-18" data-name="icon  tip discard" transform="translate(-127.679 -1602.926) rotate(12)">
        <g id="Group_905-18" data-name="Group 905" transform="translate(367.08 1198.51)">
          <g id="Group_903-18" data-name="Group 903">
            <path id="Path_357265-18" data-name="Path 357265" d="M236.42,384.49a2.5,2.5,0,1,1,2.5-2.5A2.5,2.5,0,0,1,236.42,384.49Z" fill="#d8d8d8"/>
          </g>
          <g id="Group_904-18" data-name="Group 904">
            <path id="Path_357266-18" data-name="Path 357266" d="M247.324,397.219l.1-.1-.157.045Z" fill="#d8d8d8"/>
            <path id="Path_357267-18" data-name="Path 357267" d="M241.113,402.017l-.792-2.864-.961.275,1.247,4.509,5.3-5.3-.707-.707Z" fill="#d8d8d8"/>
            <path id="Path_357268-18" data-name="Path 357268" d="M237.572,392.964l.492-1.973-.619-2.237,1.1.3.242-.971-2.777-.768Z" fill="#d8d8d8"/>
            <path id="Path_357269-18" data-name="Path 357269" d="M242.69,389.168l1.507,1.454,6.51,1.8-2.281,2.281.72.695,3.482-3.482Z" fill="#d8d8d8"/>
          </g>
          <path id="Path_357270-18" data-name="Path 357270" d="M247.324,397.219l-.056-.056-1.825.523-.374.107.133.133.707.707,5.3,5.3,1.414-1.414Z" fill="#d8d8d8"/>
          <path id="Path_357271-18" data-name="Path 357271" d="M249.146,395.4l-.72-.694-4.229-4.082-1.507-1.454-3.363-3.245-.54,2.165-.242.971-.481,1.932-.492,1.973-1.874,7.513,3.662-1.049.961-.275,4.749-1.36.374-.107,1.824-.523.158-.045,2.7-.773Zm-2.245.83-.441.127-2.2.63-4.207,1.2-.961.276-2.005.574,1.026-4.115.492-1.973.9-3.625.242-.971.128-.511.792.765,1.507,1.455,5.541,5.347.466.45Z" fill="#d8d8d8"/>
        </g>
      </g>
    </g>
    <g id="Group_860-4" data-name="Group 860" transform="translate(588)">
      <g id="icon_tip_discard-19" data-name="icon  tip discard" transform="translate(1374.713 -937.206) rotate(74)">
        <g id="Group_905-19" data-name="Group 905" transform="translate(367.08 1198.51)">
          <g id="Group_903-19" data-name="Group 903">
            <path id="Path_357265-19" data-name="Path 357265" d="M236.42,384.49a2.5,2.5,0,1,1,2.5-2.5A2.5,2.5,0,0,1,236.42,384.49Z" fill="#d8d8d8"/>
          </g>
          <g id="Group_904-19" data-name="Group 904">
            <path id="Path_357266-19" data-name="Path 357266" d="M247.324,397.219l.1-.1-.157.045Z" fill="#d8d8d8"/>
            <path id="Path_357267-19" data-name="Path 357267" d="M241.113,402.017l-.792-2.864-.961.275,1.247,4.509,5.3-5.3-.707-.707Z" fill="#d8d8d8"/>
            <path id="Path_357268-19" data-name="Path 357268" d="M237.572,392.964l.492-1.973-.619-2.237,1.1.3.242-.971-2.777-.768Z" fill="#d8d8d8"/>
            <path id="Path_357269-19" data-name="Path 357269" d="M242.69,389.168l1.507,1.454,6.51,1.8-2.281,2.281.72.695,3.482-3.482Z" fill="#d8d8d8"/>
          </g>
          <path id="Path_357270-19" data-name="Path 357270" d="M247.324,397.219l-.056-.056-1.825.523-.374.107.133.133.707.707,5.3,5.3,1.414-1.414Z" fill="#d8d8d8"/>
          <path id="Path_357271-19" data-name="Path 357271" d="M249.146,395.4l-.72-.694-4.229-4.082-1.507-1.454-3.363-3.245-.54,2.165-.242.971-.481,1.932-.492,1.973-1.874,7.513,3.662-1.049.961-.275,4.749-1.36.374-.107,1.824-.523.158-.045,2.7-.773Zm-2.245.83-.441.127-2.2.63-4.207,1.2-.961.276-2.005.574,1.026-4.115.492-1.973.9-3.625.242-.971.128-.511.792.765,1.507,1.455,5.541,5.347.466.45Z" fill="#d8d8d8"/>
        </g>
      </g>
      <g id="icon_tip_discard-20" data-name="icon  tip discard" transform="translate(-571.116 -1564.293)">
        <g id="Group_905-20" data-name="Group 905" transform="translate(367.08 1198.51)">
          <g id="Group_903-20" data-name="Group 903">
            <path id="Path_357265-20" data-name="Path 357265" d="M236.42,384.49a2.5,2.5,0,1,1,2.5-2.5A2.5,2.5,0,0,1,236.42,384.49Z" fill="#d8d8d8"/>
          </g>
          <g id="Group_904-20" data-name="Group 904">
            <path id="Path_357266-20" data-name="Path 357266" d="M247.324,397.219l.1-.1-.157.045Z" fill="#d8d8d8"/>
            <path id="Path_357267-20" data-name="Path 357267" d="M241.113,402.017l-.792-2.864-.961.275,1.247,4.509,5.3-5.3-.707-.707Z" fill="#d8d8d8"/>
            <path id="Path_357268-20" data-name="Path 357268" d="M237.572,392.964l.492-1.973-.619-2.237,1.1.3.242-.971-2.777-.768Z" fill="#d8d8d8"/>
            <path id="Path_357269-20" data-name="Path 357269" d="M242.69,389.168l1.507,1.454,6.51,1.8-2.281,2.281.72.695,3.482-3.482Z" fill="#d8d8d8"/>
          </g>
          <path id="Path_357270-20" data-name="Path 357270" d="M247.324,397.219l-.056-.056-1.825.523-.374.107.133.133.707.707,5.3,5.3,1.414-1.414Z" fill="#d8d8d8"/>
          <path id="Path_357271-20" data-name="Path 357271" d="M249.146,395.4l-.72-.694-4.229-4.082-1.507-1.454-3.363-3.245-.54,2.165-.242.971-.481,1.932-.492,1.973-1.874,7.513,3.662-1.049.961-.275,4.749-1.36.374-.107,1.824-.523.158-.045,2.7-.773Zm-2.245.83-.441.127-2.2.63-4.207,1.2-.961.276-2.005.574,1.026-4.115.492-1.973.9-3.625.242-.971.128-.511.792.765,1.507,1.455,5.541,5.347.466.45Z" fill="#d8d8d8"/>
        </g>
      </g>
      <g id="icon_tip_discard-21" data-name="icon  tip discard" transform="translate(1635.471 -629.842) rotate(87)">
        <g id="Group_905-21" data-name="Group 905" transform="translate(367.08 1198.51)">
          <g id="Group_903-21" data-name="Group 903">
            <path id="Path_357265-21" data-name="Path 357265" d="M236.42,384.49a2.5,2.5,0,1,1,2.5-2.5A2.5,2.5,0,0,1,236.42,384.49Z" fill="#d8d8d8"/>
          </g>
          <g id="Group_904-21" data-name="Group 904">
            <path id="Path_357266-21" data-name="Path 357266" d="M247.324,397.219l.1-.1-.157.045Z" fill="#d8d8d8"/>
            <path id="Path_357267-21" data-name="Path 357267" d="M241.113,402.017l-.792-2.864-.961.275,1.247,4.509,5.3-5.3-.707-.707Z" fill="#d8d8d8"/>
            <path id="Path_357268-21" data-name="Path 357268" d="M237.572,392.964l.492-1.973-.619-2.237,1.1.3.242-.971-2.777-.768Z" fill="#d8d8d8"/>
            <path id="Path_357269-21" data-name="Path 357269" d="M242.69,389.168l1.507,1.454,6.51,1.8-2.281,2.281.72.695,3.482-3.482Z" fill="#d8d8d8"/>
          </g>
          <path id="Path_357270-21" data-name="Path 357270" d="M247.324,397.219l-.056-.056-1.825.523-.374.107.133.133.707.707,5.3,5.3,1.414-1.414Z" fill="#d8d8d8"/>
          <path id="Path_357271-21" data-name="Path 357271" d="M249.146,395.4l-.72-.694-4.229-4.082-1.507-1.454-3.363-3.245-.54,2.165-.242.971-.481,1.932-.492,1.973-1.874,7.513,3.662-1.049.961-.275,4.749-1.36.374-.107,1.824-.523.158-.045,2.7-.773Zm-2.245.83-.441.127-2.2.63-4.207,1.2-.961.276-2.005.574,1.026-4.115.492-1.973.9-3.625.242-.971.128-.511.792.765,1.507,1.455,5.541,5.347.466.45Z" fill="#d8d8d8"/>
        </g>
      </g>
      <g id="icon_tip_discard-22" data-name="icon  tip discard" transform="translate(-28.813 1711.932) rotate(-154)">
        <g id="Group_905-22" data-name="Group 905" transform="translate(367.08 1198.51)">
          <g id="Group_903-22" data-name="Group 903">
            <path id="Path_357265-22" data-name="Path 357265" d="M236.42,384.49a2.5,2.5,0,1,1,2.5-2.5A2.5,2.5,0,0,1,236.42,384.49Z" fill="#d8d8d8"/>
          </g>
          <g id="Group_904-22" data-name="Group 904">
            <path id="Path_357266-22" data-name="Path 357266" d="M247.324,397.219l.1-.1-.157.045Z" fill="#d8d8d8"/>
            <path id="Path_357267-22" data-name="Path 357267" d="M241.113,402.017l-.792-2.864-.961.275,1.247,4.509,5.3-5.3-.707-.707Z" fill="#d8d8d8"/>
            <path id="Path_357268-22" data-name="Path 357268" d="M237.572,392.964l.492-1.973-.619-2.237,1.1.3.242-.971-2.777-.768Z" fill="#d8d8d8"/>
            <path id="Path_357269-22" data-name="Path 357269" d="M242.69,389.168l1.507,1.454,6.51,1.8-2.281,2.281.72.695,3.482-3.482Z" fill="#d8d8d8"/>
          </g>
          <path id="Path_357270-22" data-name="Path 357270" d="M247.324,397.219l-.056-.056-1.825.523-.374.107.133.133.707.707,5.3,5.3,1.414-1.414Z" fill="#d8d8d8"/>
          <path id="Path_357271-22" data-name="Path 357271" d="M249.146,395.4l-.72-.694-4.229-4.082-1.507-1.454-3.363-3.245-.54,2.165-.242.971-.481,1.932-.492,1.973-1.874,7.513,3.662-1.049.961-.275,4.749-1.36.374-.107,1.824-.523.158-.045,2.7-.773Zm-2.245.83-.441.127-2.2.63-4.207,1.2-.961.276-2.005.574,1.026-4.115.492-1.973.9-3.625.242-.971.128-.511.792.765,1.507,1.455,5.541,5.347.466.45Z" fill="#d8d8d8"/>
        </g>
      </g>
      <g id="icon_tip_discard-23" data-name="icon  tip discard" transform="translate(1495.494 -1029.626) rotate(72)">
        <g id="Group_905-23" data-name="Group 905" transform="translate(367.08 1198.51)">
          <g id="Group_903-23" data-name="Group 903">
            <path id="Path_357265-23" data-name="Path 357265" d="M236.42,384.49a2.5,2.5,0,1,1,2.5-2.5A2.5,2.5,0,0,1,236.42,384.49Z" fill="#d8d8d8"/>
          </g>
          <g id="Group_904-23" data-name="Group 904">
            <path id="Path_357266-23" data-name="Path 357266" d="M247.324,397.219l.1-.1-.157.045Z" fill="#d8d8d8"/>
            <path id="Path_357267-23" data-name="Path 357267" d="M241.113,402.017l-.792-2.864-.961.275,1.247,4.509,5.3-5.3-.707-.707Z" fill="#d8d8d8"/>
            <path id="Path_357268-23" data-name="Path 357268" d="M237.572,392.964l.492-1.973-.619-2.237,1.1.3.242-.971-2.777-.768Z" fill="#d8d8d8"/>
            <path id="Path_357269-23" data-name="Path 357269" d="M242.69,389.168l1.507,1.454,6.51,1.8-2.281,2.281.72.695,3.482-3.482Z" fill="#d8d8d8"/>
          </g>
          <path id="Path_357270-23" data-name="Path 357270" d="M247.324,397.219l-.056-.056-1.825.523-.374.107.133.133.707.707,5.3,5.3,1.414-1.414Z" fill="#d8d8d8"/>
          <path id="Path_357271-23" data-name="Path 357271" d="M249.146,395.4l-.72-.694-4.229-4.082-1.507-1.454-3.363-3.245-.54,2.165-.242.971-.481,1.932-.492,1.973-1.874,7.513,3.662-1.049.961-.275,4.749-1.36.374-.107,1.824-.523.158-.045,2.7-.773Zm-2.245.83-.441.127-2.2.63-4.207,1.2-.961.276-2.005.574,1.026-4.115.492-1.973.9-3.625.242-.971.128-.511.792.765,1.507,1.455,5.541,5.347.466.45Z" fill="#d8d8d8"/>
        </g>
      </g>
      <g id="icon_tip_discard-24" data-name="icon  tip discard" transform="translate(-127.679 -1602.926) rotate(12)">
        <g id="Group_905-24" data-name="Group 905" transform="translate(367.08 1198.51)">
          <g id="Group_903-24" data-name="Group 903">
            <path id="Path_357265-24" data-name="Path 357265" d="M236.42,384.49a2.5,2.5,0,1,1,2.5-2.5A2.5,2.5,0,0,1,236.42,384.49Z" fill="#d8d8d8"/>
          </g>
          <g id="Group_904-24" data-name="Group 904">
            <path id="Path_357266-24" data-name="Path 357266" d="M247.324,397.219l.1-.1-.157.045Z" fill="#d8d8d8"/>
            <path id="Path_357267-24" data-name="Path 357267" d="M241.113,402.017l-.792-2.864-.961.275,1.247,4.509,5.3-5.3-.707-.707Z" fill="#d8d8d8"/>
            <path id="Path_357268-24" data-name="Path 357268" d="M237.572,392.964l.492-1.973-.619-2.237,1.1.3.242-.971-2.777-.768Z" fill="#d8d8d8"/>
            <path id="Path_357269-24" data-name="Path 357269" d="M242.69,389.168l1.507,1.454,6.51,1.8-2.281,2.281.72.695,3.482-3.482Z" fill="#d8d8d8"/>
          </g>
          <path id="Path_357270-24" data-name="Path 357270" d="M247.324,397.219l-.056-.056-1.825.523-.374.107.133.133.707.707,5.3,5.3,1.414-1.414Z" fill="#d8d8d8"/>
          <path id="Path_357271-24" data-name="Path 357271" d="M249.146,395.4l-.72-.694-4.229-4.082-1.507-1.454-3.363-3.245-.54,2.165-.242.971-.481,1.932-.492,1.973-1.874,7.513,3.662-1.049.961-.275,4.749-1.36.374-.107,1.824-.523.158-.045,2.7-.773Zm-2.245.83-.441.127-2.2.63-4.207,1.2-.961.276-2.005.574,1.026-4.115.492-1.973.9-3.625.242-.971.128-.511.792.765,1.507,1.455,5.541,5.347.466.45Z" fill="#d8d8d8"/>
        </g>
      </g>
    </g>
    <g id="Group_860-5" data-name="Group 860" transform="translate(784)">
      <g id="icon_tip_discard-25" data-name="icon  tip discard" transform="translate(1374.713 -937.206) rotate(74)">
        <g id="Group_905-25" data-name="Group 905" transform="translate(367.08 1198.51)">
          <g id="Group_903-25" data-name="Group 903">
            <path id="Path_357265-25" data-name="Path 357265" d="M236.42,384.49a2.5,2.5,0,1,1,2.5-2.5A2.5,2.5,0,0,1,236.42,384.49Z" fill="#d8d8d8"/>
          </g>
          <g id="Group_904-25" data-name="Group 904">
            <path id="Path_357266-25" data-name="Path 357266" d="M247.324,397.219l.1-.1-.157.045Z" fill="#d8d8d8"/>
            <path id="Path_357267-25" data-name="Path 357267" d="M241.113,402.017l-.792-2.864-.961.275,1.247,4.509,5.3-5.3-.707-.707Z" fill="#d8d8d8"/>
            <path id="Path_357268-25" data-name="Path 357268" d="M237.572,392.964l.492-1.973-.619-2.237,1.1.3.242-.971-2.777-.768Z" fill="#d8d8d8"/>
            <path id="Path_357269-25" data-name="Path 357269" d="M242.69,389.168l1.507,1.454,6.51,1.8-2.281,2.281.72.695,3.482-3.482Z" fill="#d8d8d8"/>
          </g>
          <path id="Path_357270-25" data-name="Path 357270" d="M247.324,397.219l-.056-.056-1.825.523-.374.107.133.133.707.707,5.3,5.3,1.414-1.414Z" fill="#d8d8d8"/>
          <path id="Path_357271-25" data-name="Path 357271" d="M249.146,395.4l-.72-.694-4.229-4.082-1.507-1.454-3.363-3.245-.54,2.165-.242.971-.481,1.932-.492,1.973-1.874,7.513,3.662-1.049.961-.275,4.749-1.36.374-.107,1.824-.523.158-.045,2.7-.773Zm-2.245.83-.441.127-2.2.63-4.207,1.2-.961.276-2.005.574,1.026-4.115.492-1.973.9-3.625.242-.971.128-.511.792.765,1.507,1.455,5.541,5.347.466.45Z" fill="#d8d8d8"/>
        </g>
      </g>
      <g id="icon_tip_discard-26" data-name="icon  tip discard" transform="translate(-571.116 -1564.293)">
        <g id="Group_905-26" data-name="Group 905" transform="translate(367.08 1198.51)">
          <g id="Group_903-26" data-name="Group 903">
            <path id="Path_357265-26" data-name="Path 357265" d="M236.42,384.49a2.5,2.5,0,1,1,2.5-2.5A2.5,2.5,0,0,1,236.42,384.49Z" fill="#d8d8d8"/>
          </g>
          <g id="Group_904-26" data-name="Group 904">
            <path id="Path_357266-26" data-name="Path 357266" d="M247.324,397.219l.1-.1-.157.045Z" fill="#d8d8d8"/>
            <path id="Path_357267-26" data-name="Path 357267" d="M241.113,402.017l-.792-2.864-.961.275,1.247,4.509,5.3-5.3-.707-.707Z" fill="#d8d8d8"/>
            <path id="Path_357268-26" data-name="Path 357268" d="M237.572,392.964l.492-1.973-.619-2.237,1.1.3.242-.971-2.777-.768Z" fill="#d8d8d8"/>
            <path id="Path_357269-26" data-name="Path 357269" d="M242.69,389.168l1.507,1.454,6.51,1.8-2.281,2.281.72.695,3.482-3.482Z" fill="#d8d8d8"/>
          </g>
          <path id="Path_357270-26" data-name="Path 357270" d="M247.324,397.219l-.056-.056-1.825.523-.374.107.133.133.707.707,5.3,5.3,1.414-1.414Z" fill="#d8d8d8"/>
          <path id="Path_357271-26" data-name="Path 357271" d="M249.146,395.4l-.72-.694-4.229-4.082-1.507-1.454-3.363-3.245-.54,2.165-.242.971-.481,1.932-.492,1.973-1.874,7.513,3.662-1.049.961-.275,4.749-1.36.374-.107,1.824-.523.158-.045,2.7-.773Zm-2.245.83-.441.127-2.2.63-4.207,1.2-.961.276-2.005.574,1.026-4.115.492-1.973.9-3.625.242-.971.128-.511.792.765,1.507,1.455,5.541,5.347.466.45Z" fill="#d8d8d8"/>
        </g>
      </g>
      <g id="icon_tip_discard-27" data-name="icon  tip discard" transform="translate(1635.471 -629.842) rotate(87)">
        <g id="Group_905-27" data-name="Group 905" transform="translate(367.08 1198.51)">
          <g id="Group_903-27" data-name="Group 903">
            <path id="Path_357265-27" data-name="Path 357265" d="M236.42,384.49a2.5,2.5,0,1,1,2.5-2.5A2.5,2.5,0,0,1,236.42,384.49Z" fill="#d8d8d8"/>
          </g>
          <g id="Group_904-27" data-name="Group 904">
            <path id="Path_357266-27" data-name="Path 357266" d="M247.324,397.219l.1-.1-.157.045Z" fill="#d8d8d8"/>
            <path id="Path_357267-27" data-name="Path 357267" d="M241.113,402.017l-.792-2.864-.961.275,1.247,4.509,5.3-5.3-.707-.707Z" fill="#d8d8d8"/>
            <path id="Path_357268-27" data-name="Path 357268" d="M237.572,392.964l.492-1.973-.619-2.237,1.1.3.242-.971-2.777-.768Z" fill="#d8d8d8"/>
            <path id="Path_357269-27" data-name="Path 357269" d="M242.69,389.168l1.507,1.454,6.51,1.8-2.281,2.281.72.695,3.482-3.482Z" fill="#d8d8d8"/>
          </g>
          <path id="Path_357270-27" data-name="Path 357270" d="M247.324,397.219l-.056-.056-1.825.523-.374.107.133.133.707.707,5.3,5.3,1.414-1.414Z" fill="#d8d8d8"/>
          <path id="Path_357271-27" data-name="Path 357271" d="M249.146,395.4l-.72-.694-4.229-4.082-1.507-1.454-3.363-3.245-.54,2.165-.242.971-.481,1.932-.492,1.973-1.874,7.513,3.662-1.049.961-.275,4.749-1.36.374-.107,1.824-.523.158-.045,2.7-.773Zm-2.245.83-.441.127-2.2.63-4.207,1.2-.961.276-2.005.574,1.026-4.115.492-1.973.9-3.625.242-.971.128-.511.792.765,1.507,1.455,5.541,5.347.466.45Z" fill="#d8d8d8"/>
        </g>
      </g>
      <g id="icon_tip_discard-28" data-name="icon  tip discard" transform="translate(-28.813 1711.932) rotate(-154)">
        <g id="Group_905-28" data-name="Group 905" transform="translate(367.08 1198.51)">
          <g id="Group_903-28" data-name="Group 903">
            <path id="Path_357265-28" data-name="Path 357265" d="M236.42,384.49a2.5,2.5,0,1,1,2.5-2.5A2.5,2.5,0,0,1,236.42,384.49Z" fill="#d8d8d8"/>
          </g>
          <g id="Group_904-28" data-name="Group 904">
            <path id="Path_357266-28" data-name="Path 357266" d="M247.324,397.219l.1-.1-.157.045Z" fill="#d8d8d8"/>
            <path id="Path_357267-28" data-name="Path 357267" d="M241.113,402.017l-.792-2.864-.961.275,1.247,4.509,5.3-5.3-.707-.707Z" fill="#d8d8d8"/>
            <path id="Path_357268-28" data-name="Path 357268" d="M237.572,392.964l.492-1.973-.619-2.237,1.1.3.242-.971-2.777-.768Z" fill="#d8d8d8"/>
            <path id="Path_357269-28" data-name="Path 357269" d="M242.69,389.168l1.507,1.454,6.51,1.8-2.281,2.281.72.695,3.482-3.482Z" fill="#d8d8d8"/>
          </g>
          <path id="Path_357270-28" data-name="Path 357270" d="M247.324,397.219l-.056-.056-1.825.523-.374.107.133.133.707.707,5.3,5.3,1.414-1.414Z" fill="#d8d8d8"/>
          <path id="Path_357271-28" data-name="Path 357271" d="M249.146,395.4l-.72-.694-4.229-4.082-1.507-1.454-3.363-3.245-.54,2.165-.242.971-.481,1.932-.492,1.973-1.874,7.513,3.662-1.049.961-.275,4.749-1.36.374-.107,1.824-.523.158-.045,2.7-.773Zm-2.245.83-.441.127-2.2.63-4.207,1.2-.961.276-2.005.574,1.026-4.115.492-1.973.9-3.625.242-.971.128-.511.792.765,1.507,1.455,5.541,5.347.466.45Z" fill="#d8d8d8"/>
        </g>
      </g>
      <g id="icon_tip_discard-29" data-name="icon  tip discard" transform="translate(1495.494 -1029.626) rotate(72)">
        <g id="Group_905-29" data-name="Group 905" transform="translate(367.08 1198.51)">
          <g id="Group_903-29" data-name="Group 903">
            <path id="Path_357265-29" data-name="Path 357265" d="M236.42,384.49a2.5,2.5,0,1,1,2.5-2.5A2.5,2.5,0,0,1,236.42,384.49Z" fill="#d8d8d8"/>
          </g>
          <g id="Group_904-29" data-name="Group 904">
            <path id="Path_357266-29" data-name="Path 357266" d="M247.324,397.219l.1-.1-.157.045Z" fill="#d8d8d8"/>
            <path id="Path_357267-29" data-name="Path 357267" d="M241.113,402.017l-.792-2.864-.961.275,1.247,4.509,5.3-5.3-.707-.707Z" fill="#d8d8d8"/>
            <path id="Path_357268-29" data-name="Path 357268" d="M237.572,392.964l.492-1.973-.619-2.237,1.1.3.242-.971-2.777-.768Z" fill="#d8d8d8"/>
            <path id="Path_357269-29" data-name="Path 357269" d="M242.69,389.168l1.507,1.454,6.51,1.8-2.281,2.281.72.695,3.482-3.482Z" fill="#d8d8d8"/>
          </g>
          <path id="Path_357270-29" data-name="Path 357270" d="M247.324,397.219l-.056-.056-1.825.523-.374.107.133.133.707.707,5.3,5.3,1.414-1.414Z" fill="#d8d8d8"/>
          <path id="Path_357271-29" data-name="Path 357271" d="M249.146,395.4l-.72-.694-4.229-4.082-1.507-1.454-3.363-3.245-.54,2.165-.242.971-.481,1.932-.492,1.973-1.874,7.513,3.662-1.049.961-.275,4.749-1.36.374-.107,1.824-.523.158-.045,2.7-.773Zm-2.245.83-.441.127-2.2.63-4.207,1.2-.961.276-2.005.574,1.026-4.115.492-1.973.9-3.625.242-.971.128-.511.792.765,1.507,1.455,5.541,5.347.466.45Z" fill="#d8d8d8"/>
        </g>
      </g>
      <g id="icon_tip_discard-30" data-name="icon  tip discard" transform="translate(-127.679 -1602.926) rotate(12)">
        <g id="Group_905-30" data-name="Group 905" transform="translate(367.08 1198.51)">
          <g id="Group_903-30" data-name="Group 903">
            <path id="Path_357265-30" data-name="Path 357265" d="M236.42,384.49a2.5,2.5,0,1,1,2.5-2.5A2.5,2.5,0,0,1,236.42,384.49Z" fill="#d8d8d8"/>
          </g>
          <g id="Group_904-30" data-name="Group 904">
            <path id="Path_357266-30" data-name="Path 357266" d="M247.324,397.219l.1-.1-.157.045Z" fill="#d8d8d8"/>
            <path id="Path_357267-30" data-name="Path 357267" d="M241.113,402.017l-.792-2.864-.961.275,1.247,4.509,5.3-5.3-.707-.707Z" fill="#d8d8d8"/>
            <path id="Path_357268-30" data-name="Path 357268" d="M237.572,392.964l.492-1.973-.619-2.237,1.1.3.242-.971-2.777-.768Z" fill="#d8d8d8"/>
            <path id="Path_357269-30" data-name="Path 357269" d="M242.69,389.168l1.507,1.454,6.51,1.8-2.281,2.281.72.695,3.482-3.482Z" fill="#d8d8d8"/>
          </g>
          <path id="Path_357270-30" data-name="Path 357270" d="M247.324,397.219l-.056-.056-1.825.523-.374.107.133.133.707.707,5.3,5.3,1.414-1.414Z" fill="#d8d8d8"/>
          <path id="Path_357271-30" data-name="Path 357271" d="M249.146,395.4l-.72-.694-4.229-4.082-1.507-1.454-3.363-3.245-.54,2.165-.242.971-.481,1.932-.492,1.973-1.874,7.513,3.662-1.049.961-.275,4.749-1.36.374-.107,1.824-.523.158-.045,2.7-.773Zm-2.245.83-.441.127-2.2.63-4.207,1.2-.961.276-2.005.574,1.026-4.115.492-1.973.9-3.625.242-.971.128-.511.792.765,1.507,1.455,5.541,5.347.466.45Z" fill="#d8d8d8"/>
        </g>
      </g>
    </g>
    <g id="Group_860-6" data-name="Group 860" transform="translate(980)">
      <g id="icon_tip_discard-31" data-name="icon  tip discard" transform="translate(1374.713 -937.206) rotate(74)">
        <g id="Group_905-31" data-name="Group 905" transform="translate(367.08 1198.51)">
          <g id="Group_903-31" data-name="Group 903">
            <path id="Path_357265-31" data-name="Path 357265" d="M236.42,384.49a2.5,2.5,0,1,1,2.5-2.5A2.5,2.5,0,0,1,236.42,384.49Z" fill="#d8d8d8"/>
          </g>
          <g id="Group_904-31" data-name="Group 904">
            <path id="Path_357266-31" data-name="Path 357266" d="M247.324,397.219l.1-.1-.157.045Z" fill="#d8d8d8"/>
            <path id="Path_357267-31" data-name="Path 357267" d="M241.113,402.017l-.792-2.864-.961.275,1.247,4.509,5.3-5.3-.707-.707Z" fill="#d8d8d8"/>
            <path id="Path_357268-31" data-name="Path 357268" d="M237.572,392.964l.492-1.973-.619-2.237,1.1.3.242-.971-2.777-.768Z" fill="#d8d8d8"/>
            <path id="Path_357269-31" data-name="Path 357269" d="M242.69,389.168l1.507,1.454,6.51,1.8-2.281,2.281.72.695,3.482-3.482Z" fill="#d8d8d8"/>
          </g>
          <path id="Path_357270-31" data-name="Path 357270" d="M247.324,397.219l-.056-.056-1.825.523-.374.107.133.133.707.707,5.3,5.3,1.414-1.414Z" fill="#d8d8d8"/>
          <path id="Path_357271-31" data-name="Path 357271" d="M249.146,395.4l-.72-.694-4.229-4.082-1.507-1.454-3.363-3.245-.54,2.165-.242.971-.481,1.932-.492,1.973-1.874,7.513,3.662-1.049.961-.275,4.749-1.36.374-.107,1.824-.523.158-.045,2.7-.773Zm-2.245.83-.441.127-2.2.63-4.207,1.2-.961.276-2.005.574,1.026-4.115.492-1.973.9-3.625.242-.971.128-.511.792.765,1.507,1.455,5.541,5.347.466.45Z" fill="#d8d8d8"/>
        </g>
      </g>
      <g id="icon_tip_discard-32" data-name="icon  tip discard" transform="translate(-571.116 -1564.293)">
        <g id="Group_905-32" data-name="Group 905" transform="translate(367.08 1198.51)">
          <g id="Group_903-32" data-name="Group 903">
            <path id="Path_357265-32" data-name="Path 357265" d="M236.42,384.49a2.5,2.5,0,1,1,2.5-2.5A2.5,2.5,0,0,1,236.42,384.49Z" fill="#d8d8d8"/>
          </g>
          <g id="Group_904-32" data-name="Group 904">
            <path id="Path_357266-32" data-name="Path 357266" d="M247.324,397.219l.1-.1-.157.045Z" fill="#d8d8d8"/>
            <path id="Path_357267-32" data-name="Path 357267" d="M241.113,402.017l-.792-2.864-.961.275,1.247,4.509,5.3-5.3-.707-.707Z" fill="#d8d8d8"/>
            <path id="Path_357268-32" data-name="Path 357268" d="M237.572,392.964l.492-1.973-.619-2.237,1.1.3.242-.971-2.777-.768Z" fill="#d8d8d8"/>
            <path id="Path_357269-32" data-name="Path 357269" d="M242.69,389.168l1.507,1.454,6.51,1.8-2.281,2.281.72.695,3.482-3.482Z" fill="#d8d8d8"/>
          </g>
          <path id="Path_357270-32" data-name="Path 357270" d="M247.324,397.219l-.056-.056-1.825.523-.374.107.133.133.707.707,5.3,5.3,1.414-1.414Z" fill="#d8d8d8"/>
          <path id="Path_357271-32" data-name="Path 357271" d="M249.146,395.4l-.72-.694-4.229-4.082-1.507-1.454-3.363-3.245-.54,2.165-.242.971-.481,1.932-.492,1.973-1.874,7.513,3.662-1.049.961-.275,4.749-1.36.374-.107,1.824-.523.158-.045,2.7-.773Zm-2.245.83-.441.127-2.2.63-4.207,1.2-.961.276-2.005.574,1.026-4.115.492-1.973.9-3.625.242-.971.128-.511.792.765,1.507,1.455,5.541,5.347.466.45Z" fill="#d8d8d8"/>
        </g>
      </g>
      <g id="icon_tip_discard-33" data-name="icon  tip discard" transform="translate(1635.471 -629.842) rotate(87)">
        <g id="Group_905-33" data-name="Group 905" transform="translate(367.08 1198.51)">
          <g id="Group_903-33" data-name="Group 903">
            <path id="Path_357265-33" data-name="Path 357265" d="M236.42,384.49a2.5,2.5,0,1,1,2.5-2.5A2.5,2.5,0,0,1,236.42,384.49Z" fill="#d8d8d8"/>
          </g>
          <g id="Group_904-33" data-name="Group 904">
            <path id="Path_357266-33" data-name="Path 357266" d="M247.324,397.219l.1-.1-.157.045Z" fill="#d8d8d8"/>
            <path id="Path_357267-33" data-name="Path 357267" d="M241.113,402.017l-.792-2.864-.961.275,1.247,4.509,5.3-5.3-.707-.707Z" fill="#d8d8d8"/>
            <path id="Path_357268-33" data-name="Path 357268" d="M237.572,392.964l.492-1.973-.619-2.237,1.1.3.242-.971-2.777-.768Z" fill="#d8d8d8"/>
            <path id="Path_357269-33" data-name="Path 357269" d="M242.69,389.168l1.507,1.454,6.51,1.8-2.281,2.281.72.695,3.482-3.482Z" fill="#d8d8d8"/>
          </g>
          <path id="Path_357270-33" data-name="Path 357270" d="M247.324,397.219l-.056-.056-1.825.523-.374.107.133.133.707.707,5.3,5.3,1.414-1.414Z" fill="#d8d8d8"/>
          <path id="Path_357271-33" data-name="Path 357271" d="M249.146,395.4l-.72-.694-4.229-4.082-1.507-1.454-3.363-3.245-.54,2.165-.242.971-.481,1.932-.492,1.973-1.874,7.513,3.662-1.049.961-.275,4.749-1.36.374-.107,1.824-.523.158-.045,2.7-.773Zm-2.245.83-.441.127-2.2.63-4.207,1.2-.961.276-2.005.574,1.026-4.115.492-1.973.9-3.625.242-.971.128-.511.792.765,1.507,1.455,5.541,5.347.466.45Z" fill="#d8d8d8"/>
        </g>
      </g>
      <g id="icon_tip_discard-34" data-name="icon  tip discard" transform="translate(-28.813 1711.932) rotate(-154)">
        <g id="Group_905-34" data-name="Group 905" transform="translate(367.08 1198.51)">
          <g id="Group_903-34" data-name="Group 903">
            <path id="Path_357265-34" data-name="Path 357265" d="M236.42,384.49a2.5,2.5,0,1,1,2.5-2.5A2.5,2.5,0,0,1,236.42,384.49Z" fill="#d8d8d8"/>
          </g>
          <g id="Group_904-34" data-name="Group 904">
            <path id="Path_357266-34" data-name="Path 357266" d="M247.324,397.219l.1-.1-.157.045Z" fill="#d8d8d8"/>
            <path id="Path_357267-34" data-name="Path 357267" d="M241.113,402.017l-.792-2.864-.961.275,1.247,4.509,5.3-5.3-.707-.707Z" fill="#d8d8d8"/>
            <path id="Path_357268-34" data-name="Path 357268" d="M237.572,392.964l.492-1.973-.619-2.237,1.1.3.242-.971-2.777-.768Z" fill="#d8d8d8"/>
            <path id="Path_357269-34" data-name="Path 357269" d="M242.69,389.168l1.507,1.454,6.51,1.8-2.281,2.281.72.695,3.482-3.482Z" fill="#d8d8d8"/>
          </g>
          <path id="Path_357270-34" data-name="Path 357270" d="M247.324,397.219l-.056-.056-1.825.523-.374.107.133.133.707.707,5.3,5.3,1.414-1.414Z" fill="#d8d8d8"/>
          <path id="Path_357271-34" data-name="Path 357271" d="M249.146,395.4l-.72-.694-4.229-4.082-1.507-1.454-3.363-3.245-.54,2.165-.242.971-.481,1.932-.492,1.973-1.874,7.513,3.662-1.049.961-.275,4.749-1.36.374-.107,1.824-.523.158-.045,2.7-.773Zm-2.245.83-.441.127-2.2.63-4.207,1.2-.961.276-2.005.574,1.026-4.115.492-1.973.9-3.625.242-.971.128-.511.792.765,1.507,1.455,5.541,5.347.466.45Z" fill="#d8d8d8"/>
        </g>
      </g>
      <g id="icon_tip_discard-35" data-name="icon  tip discard" transform="translate(1495.494 -1029.626) rotate(72)">
        <g id="Group_905-35" data-name="Group 905" transform="translate(367.08 1198.51)">
          <g id="Group_903-35" data-name="Group 903">
            <path id="Path_357265-35" data-name="Path 357265" d="M236.42,384.49a2.5,2.5,0,1,1,2.5-2.5A2.5,2.5,0,0,1,236.42,384.49Z" fill="#d8d8d8"/>
          </g>
          <g id="Group_904-35" data-name="Group 904">
            <path id="Path_357266-35" data-name="Path 357266" d="M247.324,397.219l.1-.1-.157.045Z" fill="#d8d8d8"/>
            <path id="Path_357267-35" data-name="Path 357267" d="M241.113,402.017l-.792-2.864-.961.275,1.247,4.509,5.3-5.3-.707-.707Z" fill="#d8d8d8"/>
            <path id="Path_357268-35" data-name="Path 357268" d="M237.572,392.964l.492-1.973-.619-2.237,1.1.3.242-.971-2.777-.768Z" fill="#d8d8d8"/>
            <path id="Path_357269-35" data-name="Path 357269" d="M242.69,389.168l1.507,1.454,6.51,1.8-2.281,2.281.72.695,3.482-3.482Z" fill="#d8d8d8"/>
          </g>
          <path id="Path_357270-35" data-name="Path 357270" d="M247.324,397.219l-.056-.056-1.825.523-.374.107.133.133.707.707,5.3,5.3,1.414-1.414Z" fill="#d8d8d8"/>
          <path id="Path_357271-35" data-name="Path 357271" d="M249.146,395.4l-.72-.694-4.229-4.082-1.507-1.454-3.363-3.245-.54,2.165-.242.971-.481,1.932-.492,1.973-1.874,7.513,3.662-1.049.961-.275,4.749-1.36.374-.107,1.824-.523.158-.045,2.7-.773Zm-2.245.83-.441.127-2.2.63-4.207,1.2-.961.276-2.005.574,1.026-4.115.492-1.973.9-3.625.242-.971.128-.511.792.765,1.507,1.455,5.541,5.347.466.45Z" fill="#d8d8d8"/>
        </g>
      </g>
      <g id="icon_tip_discard-36" data-name="icon  tip discard" transform="translate(-127.679 -1602.926) rotate(12)">
        <g id="Group_905-36" data-name="Group 905" transform="translate(367.08 1198.51)">
          <g id="Group_903-36" data-name="Group 903">
            <path id="Path_357265-36" data-name="Path 357265" d="M236.42,384.49a2.5,2.5,0,1,1,2.5-2.5A2.5,2.5,0,0,1,236.42,384.49Z" fill="#d8d8d8"/>
          </g>
          <g id="Group_904-36" data-name="Group 904">
            <path id="Path_357266-36" data-name="Path 357266" d="M247.324,397.219l.1-.1-.157.045Z" fill="#d8d8d8"/>
            <path id="Path_357267-36" data-name="Path 357267" d="M241.113,402.017l-.792-2.864-.961.275,1.247,4.509,5.3-5.3-.707-.707Z" fill="#d8d8d8"/>
            <path id="Path_357268-36" data-name="Path 357268" d="M237.572,392.964l.492-1.973-.619-2.237,1.1.3.242-.971-2.777-.768Z" fill="#d8d8d8"/>
            <path id="Path_357269-36" data-name="Path 357269" d="M242.69,389.168l1.507,1.454,6.51,1.8-2.281,2.281.72.695,3.482-3.482Z" fill="#d8d8d8"/>
          </g>
          <path id="Path_357270-36" data-name="Path 357270" d="M247.324,397.219l-.056-.056-1.825.523-.374.107.133.133.707.707,5.3,5.3,1.414-1.414Z" fill="#d8d8d8"/>
          <path id="Path_357271-36" data-name="Path 357271" d="M249.146,395.4l-.72-.694-4.229-4.082-1.507-1.454-3.363-3.245-.54,2.165-.242.971-.481,1.932-.492,1.973-1.874,7.513,3.662-1.049.961-.275,4.749-1.36.374-.107,1.824-.523.158-.045,2.7-.773Zm-2.245.83-.441.127-2.2.63-4.207,1.2-.961.276-2.005.574,1.026-4.115.492-1.973.9-3.625.242-.971.128-.511.792.765,1.507,1.455,5.541,5.347.466.45Z" fill="#d8d8d8"/>
        </g>
      </g>
    </g>
  </g>
</svg>
